<svg width="41" height="40" viewBox="0 0 41 40" fill="none" xmlns="http://www.w3.org/2000/svg">
<circle cx="20.3706" cy="20" r="20" fill="#F7F7F7"/>
<path d="M26.5929 15H23.0374V14.0001C23.0368 13.4697 22.8494 12.9615 22.5161 12.5865C22.1827 12.2115 21.731 12.0007 21.2595 12H19.4818C19.0104 12.0007 18.5586 12.2114 18.2253 12.5865C17.892 12.9615 17.7046 13.4697 17.704 14.0001V15H14.1485C13.677 15.0007 13.2252 15.2115 12.8919 15.5865C12.5586 15.9615 12.3712 16.4697 12.3706 17.0001V26.0001C12.3712 26.5303 12.5586 27.0387 12.8919 27.4135C13.2252 27.7885 13.677 27.9995 14.1485 28H26.5928C27.0642 27.9995 27.516 27.7886 27.8493 27.4135C28.1826 27.0387 28.37 26.5303 28.3706 26.0001V17.0001C28.37 16.4697 28.1827 15.9615 27.8493 15.5865C27.516 15.2115 27.0642 15.0007 26.5928 15H26.5929ZM18.5928 14.0001C18.5931 13.7349 18.6869 13.4808 18.8536 13.2933C19.0202 13.1058 19.2461 13.0003 19.4818 13H21.2597H21.2595C21.4952 13.0003 21.7211 13.1058 21.8878 13.2933C22.0545 13.4808 22.1482 13.7349 22.1485 14.0001V15H18.5928L18.5928 14.0001ZM27.4821 26.0001C27.4818 26.2651 27.388 26.5194 27.2213 26.7069C27.0547 26.8944 26.8288 26.9997 26.5931 27H14.1488C13.913 26.9997 13.6872 26.8944 13.5205 26.7069C13.3538 26.5194 13.2601 26.2651 13.2598 26.0001V17.0001C13.2601 16.7349 13.3538 16.4808 13.5205 16.2933C13.6872 16.1058 13.9131 16.0003 14.1488 16H26.5931C26.8288 16.0003 27.0547 16.1058 27.2213 16.2933C27.388 16.4808 27.4818 16.7349 27.4821 17.0001V26.0001Z" fill="#656E66"/>
</svg>
