<svg width="41" height="40" viewBox="0 0 41 40" fill="none" xmlns="http://www.w3.org/2000/svg">
<circle cx="20.3706" cy="20" r="20" fill="#F7F7F7"/>
<path d="M14.9106 13C14.9706 13.89 15.1206 14.76 15.3606 15.59L14.1606 16.79C13.7506 15.59 13.4906 14.32 13.4006 13H14.9106ZM24.7706 25.02C25.6206 25.26 26.4906 25.41 27.3706 25.47V26.96C26.0506 26.87 24.7806 26.61 23.5706 26.21L24.7706 25.02ZM15.8706 11H12.3706C11.8206 11 11.3706 11.45 11.3706 12C11.3706 21.39 18.9806 29 28.3706 29C28.9206 29 29.3706 28.55 29.3706 28V24.51C29.3706 23.96 28.9206 23.51 28.3706 23.51C27.1306 23.51 25.9206 23.31 24.8006 22.94C24.7006 22.9 24.5906 22.89 24.4906 22.89C24.2306 22.89 23.9806 22.99 23.7806 23.18L21.5806 25.38C18.7506 23.93 16.4306 21.62 14.9906 18.79L17.1906 16.59C17.4706 16.31 17.5506 15.92 17.4406 15.57C17.0706 14.45 16.8706 13.25 16.8706 12C16.8706 11.45 16.4206 11 15.8706 11Z" fill="#94A196"/>
</svg>
