<svg width="41" height="40" viewBox="0 0 41 40" fill="none" xmlns="http://www.w3.org/2000/svg">
<circle cx="20.3706" cy="20" r="20" fill="#F7F7F7"/>
<path d="M16.4006 22.1848H12.9931C12.5628 22.1848 12.1501 22.3559 11.8458 22.6602C11.5415 22.9644 11.3706 23.3772 11.3706 23.8075V27.3773C11.3706 27.8076 11.5415 28.2203 11.8458 28.5246C12.1501 28.8289 12.5628 28.9998 12.9931 28.9998H16.4006C16.8309 28.9998 17.2437 28.8288 17.5479 28.5246C17.8522 28.2203 18.0231 27.8075 18.0231 27.3773V23.8075C18.0231 23.3772 17.8522 22.9644 17.5479 22.6602C17.2437 22.3559 16.8309 22.1848 16.4006 22.1848ZM16.9415 27.3771V27.3773C16.9415 27.5206 16.8845 27.6582 16.783 27.7596C16.6815 27.8611 16.544 27.9181 16.4006 27.9181H12.9931C12.6945 27.9181 12.4523 27.6759 12.4523 27.3773V23.8075C12.4523 23.5089 12.6945 23.2667 12.9931 23.2667H16.4006C16.544 23.2667 16.6815 23.3236 16.783 23.4251C16.8845 23.5264 16.9415 23.6641 16.9415 23.8075V27.3771ZM16.4006 11H12.9931C12.5628 11 12.1501 11.1709 11.8458 11.4752C11.5415 11.7795 11.3706 12.1922 11.3706 12.6225V19.3292C11.3706 19.7595 11.5415 20.1722 11.8458 20.4765C12.1501 20.7808 12.5628 20.9517 12.9931 20.9517H16.4006C16.8309 20.9517 17.2437 20.7808 17.5479 20.4765C17.8522 20.1722 18.0231 19.7595 18.0231 19.3292V12.6225C18.0231 12.1922 17.8522 11.7795 17.5479 11.4752C17.2437 11.1709 16.8309 11 16.4006 11ZM16.9415 19.3293C16.9415 19.4727 16.8845 19.6102 16.783 19.7117C16.6815 19.8132 16.544 19.8701 16.4006 19.8701H12.9931C12.6945 19.8701 12.4523 19.6279 12.4523 19.3293V12.6226C12.4523 12.324 12.6945 12.0818 12.9931 12.0818H16.4006C16.544 12.0818 16.6815 12.1388 16.783 12.2402C16.8845 12.3417 16.9415 12.4792 16.9415 12.6226V19.3293ZM27.7481 18.1935H20.8791C20.4489 18.1935 20.0361 18.3644 19.7318 18.6687C19.4276 18.973 19.2567 19.3857 19.2567 19.816V27.3775C19.2567 27.8078 19.4276 28.2205 19.7318 28.5248C20.0361 28.829 20.4489 29 20.8791 29H27.7481C28.1784 29 28.5911 28.829 28.8954 28.5248C29.1997 28.2205 29.3706 27.8077 29.3706 27.3775V19.816C29.3706 19.3857 29.1997 18.973 28.8954 18.6687C28.5912 18.3644 28.1784 18.1935 27.7481 18.1935ZM28.2889 27.3776C28.2889 27.5209 28.232 27.6585 28.1305 27.7599C28.029 27.8614 27.8915 27.9184 27.7481 27.9184H20.8791C20.5805 27.9184 20.3383 27.6762 20.3383 27.3776V19.8161C20.3383 19.5175 20.5805 19.2753 20.8791 19.2753H27.7481C27.8915 19.2753 28.029 19.3323 28.1305 19.4337C28.232 19.535 28.2889 19.6727 28.2889 19.8161V27.3776ZM27.7481 11H20.8791C20.4489 11 20.0361 11.1709 19.7318 11.4752C19.4276 11.7795 19.2567 12.1922 19.2567 12.6225V15.3378C19.2567 15.7681 19.4276 16.1808 19.7318 16.4851C20.0361 16.7894 20.4489 16.9603 20.8791 16.9603H27.7481C28.1784 16.9603 28.5911 16.7894 28.8954 16.4851C29.1997 16.1808 29.3706 15.768 29.3706 15.3378V12.6225C29.3706 12.1922 29.1997 11.7795 28.8954 11.4752C28.5912 11.1709 28.1784 11 27.7481 11ZM28.2889 15.3377C28.2889 15.4811 28.232 15.6186 28.1305 15.7201C28.029 15.8216 27.8915 15.8786 27.7481 15.8786H20.8791C20.5805 15.8786 20.3383 15.6363 20.3383 15.3377V12.6225C20.3383 12.3238 20.5805 12.0816 20.8791 12.0816H27.7481C27.8915 12.0816 28.029 12.1386 28.1305 12.2401C28.232 12.3416 28.2889 12.4791 28.2889 12.6225V15.3377Z" fill="#656E66"/>
</svg>
