<svg width="41" height="40" viewBox="0 0 41 40" fill="none" xmlns="http://www.w3.org/2000/svg">
<circle cx="20.3706" cy="20" r="20" fill="#F7F7F7"/>
<path d="M24.8706 11C23.1306 11 21.4606 11.81 20.3706 13.09C19.2806 11.81 17.6106 11 15.8706 11C12.7906 11 10.3706 13.42 10.3706 16.5C10.3706 20.28 13.7706 23.36 18.9206 28.04L20.3706 29.35L21.8206 28.03C26.9706 23.36 30.3706 20.28 30.3706 16.5C30.3706 13.42 27.9506 11 24.8706 11ZM20.4706 26.55L20.3706 26.65L20.2706 26.55C15.5106 22.24 12.3706 19.39 12.3706 16.5C12.3706 14.5 13.8706 13 15.8706 13C17.4106 13 18.9106 13.99 19.4406 15.36H21.3106C21.8306 13.99 23.3306 13 24.8706 13C26.8706 13 28.3706 14.5 28.3706 16.5C28.3706 19.39 25.2306 22.24 20.4706 26.55Z" fill="#656E66"/>
</svg>
