<svg width="24" height="24" viewBox="0 0 24 24" fill="none" xmlns="http://www.w3.org/2000/svg">
<path d="M18.75 10.5C18.75 15.75 12 20.25 12 20.25C12 20.25 5.25 15.75 5.25 10.5C5.25 8.70979 5.96116 6.9929 7.22703 5.72703C8.4929 4.46116 10.2098 3.75 12 3.75C13.7902 3.75 15.5071 4.46116 16.773 5.72703C18.0388 6.9929 18.75 8.70979 18.75 10.5Z" stroke="white" stroke-linecap="round" stroke-linejoin="round"/>
<path d="M12 12.75C13.2426 12.75 14.25 11.7426 14.25 10.5C14.25 9.25736 13.2426 8.25 12 8.25C10.7574 8.25 9.75 9.25736 9.75 10.5C9.75 11.7426 10.7574 12.75 12 12.75Z" stroke="white" stroke-linecap="round" stroke-linejoin="round"/>
</svg>
