<svg width="41" height="40" viewBox="0 0 41 40" fill="none" xmlns="http://www.w3.org/2000/svg">
<circle cx="20.3706" cy="20" r="20" fill="#F7F7F7"/>
<path d="M19.3706 26H21.3706V24H19.3706V26ZM20.3706 10C14.8506 10 10.3706 14.48 10.3706 20C10.3706 25.52 14.8506 30 20.3706 30C25.8906 30 30.3706 25.52 30.3706 20C30.3706 14.48 25.8906 10 20.3706 10ZM20.3706 28C15.9606 28 12.3706 24.41 12.3706 20C12.3706 15.59 15.9606 12 20.3706 12C24.7806 12 28.3706 15.59 28.3706 20C28.3706 24.41 24.7806 28 20.3706 28ZM20.3706 14C18.1606 14 16.3706 15.79 16.3706 18H18.3706C18.3706 16.9 19.2706 16 20.3706 16C21.4706 16 22.3706 16.9 22.3706 18C22.3706 20 19.3706 19.75 19.3706 23H21.3706C21.3706 20.75 24.3706 20.5 24.3706 18C24.3706 15.79 22.5806 14 20.3706 14Z" fill="#94A196"/>
</svg>
