<svg width="41" height="40" viewBox="0 0 41 40" fill="none" xmlns="http://www.w3.org/2000/svg">
<circle cx="20.3706" cy="20" r="20" fill="#F7F7F7"/>
<path d="M30.3706 11L28.7006 12.67L27.0406 11L25.3706 12.67L23.7006 11L22.0406 12.67L20.3706 11L18.7006 12.67L17.0406 11L15.3706 12.67L13.7006 11L12.0406 12.67L10.3706 11V27C10.3706 28.1 11.2706 29 12.3706 29H28.3706C29.4706 29 30.3706 28.1 30.3706 27V11ZM19.3706 27H12.3706V21H19.3706V27ZM28.3706 27H21.3706V25H28.3706V27ZM28.3706 23H21.3706V21H28.3706V23ZM28.3706 19H12.3706V16H28.3706V19Z" fill="#94A196"/>
</svg>
