<svg width="10" height="10" viewBox="0 0 10 10" fill="none" xmlns="http://www.w3.org/2000/svg">
<path d="M9.99991 2.99052C9.99991 3.22055 9.78053 3.40998 9.51416 3.40998H7.46137C7.08525 4.50604 5.89433 5.31799 4.49967 5.31799H2.11774L7.63371 9.3234C7.9001 9.51284 7.82173 9.78346 7.46134 9.91882C7.32033 9.97291 7.14796 10 6.9912 10C6.75619 10 6.50544 9.94591 6.34868 9.82406L0.158886 5.3315L0.143255 5.31801C0.0178782 5.22324 -0.0291245 5.10148 0.0178782 4.99322C0.00224729 4.96613 0.00224719 4.92554 0.00224719 4.88495C0.00224719 4.65492 0.221627 4.46549 0.488001 4.46549H4.49962C5.34576 4.46549 6.06665 4.03242 6.4114 3.41001H0.488001C0.221619 3.41001 0.00224719 3.22057 0.00224719 2.99055C0.00224719 2.76052 0.221627 2.57109 0.488001 2.57109H6.59945C6.55255 1.61028 5.62791 0.838923 4.49964 0.838923H0.488029C0.221646 0.838923 0.00227537 0.649482 0.00227537 0.419461C0.00227537 0.18944 0.221655 0 0.488029 0H9.49849C9.76487 0 9.98425 0.18944 9.98425 0.419461C9.98425 0.649482 9.76487 0.838923 9.49849 0.838923H6.75618C7.24193 1.29898 7.55534 1.8944 7.58671 2.57099H9.51413C9.78063 2.57109 10 2.76053 10 2.99055L9.99991 2.99052Z" fill="#373C38"/>
</svg>
