<svg width="41" height="40" viewBox="0 0 41 40" fill="none" xmlns="http://www.w3.org/2000/svg">
<circle cx="20.3706" cy="20" r="20" fill="#F7F7F7"/>
<path d="M27.8006 20.98C27.8406 20.66 27.8706 20.34 27.8706 20C27.8706 19.66 27.8406 19.34 27.8006 19.02L29.9106 17.37C30.1006 17.22 30.1506 16.95 30.0306 16.73L28.0306 13.27C27.9406 13.11 27.7706 13.02 27.5906 13.02C27.5306 13.02 27.4706 13.03 27.4206 13.05L24.9306 14.05C24.4106 13.65 23.8506 13.32 23.2406 13.07L22.8606 10.42C22.8306 10.18 22.6206 10 22.3706 10H18.3706C18.1206 10 17.9106 10.18 17.8806 10.42L17.5006 13.07C16.8906 13.32 16.3306 13.66 15.8106 14.05L13.3206 13.05C13.2606 13.03 13.2006 13.02 13.1406 13.02C12.9706 13.02 12.8006 13.11 12.7106 13.27L10.7106 16.73C10.5806 16.95 10.6406 17.22 10.8306 17.37L12.9406 19.02C12.9006 19.34 12.8706 19.67 12.8706 20C12.8706 20.33 12.9006 20.66 12.9406 20.98L10.8306 22.63C10.6406 22.78 10.5906 23.05 10.7106 23.27L12.7106 26.73C12.8006 26.89 12.9706 26.98 13.1506 26.98C13.2106 26.98 13.2706 26.97 13.3206 26.95L15.8106 25.95C16.3306 26.35 16.8906 26.68 17.5006 26.93L17.8806 29.58C17.9106 29.82 18.1206 30 18.3706 30H22.3706C22.6206 30 22.8306 29.82 22.8606 29.58L23.2406 26.93C23.8506 26.68 24.4106 26.34 24.9306 25.95L27.4206 26.95C27.4806 26.97 27.5406 26.98 27.6006 26.98C27.7706 26.98 27.9406 26.89 28.0306 26.73L30.0306 23.27C30.1506 23.05 30.1006 22.78 29.9106 22.63L27.8006 20.98ZM25.8206 19.27C25.8606 19.58 25.8706 19.79 25.8706 20C25.8706 20.21 25.8506 20.43 25.8206 20.73L25.6806 21.86L26.5706 22.56L27.6506 23.4L26.9506 24.61L25.6806 24.1L24.6406 23.68L23.7406 24.36C23.3106 24.68 22.9006 24.92 22.4906 25.09L21.4306 25.52L21.2706 26.65L21.0706 28H19.6706L19.4806 26.65L19.3206 25.52L18.2606 25.09C17.8306 24.91 17.4306 24.68 17.0306 24.38L16.1206 23.68L15.0606 24.11L13.7906 24.62L13.0906 23.41L14.1706 22.57L15.0606 21.87L14.9206 20.74C14.8906 20.43 14.8706 20.2 14.8706 20C14.8706 19.8 14.8906 19.57 14.9206 19.27L15.0606 18.14L14.1706 17.44L13.0906 16.6L13.7906 15.39L15.0606 15.9L16.1006 16.32L17.0006 15.64C17.4306 15.32 17.8406 15.08 18.2506 14.91L19.3106 14.48L19.4706 13.35L19.6706 12H21.0606L21.2506 13.35L21.4106 14.48L22.4706 14.91C22.9006 15.09 23.3006 15.32 23.7006 15.62L24.6106 16.32L25.6706 15.89L26.9406 15.38L27.6406 16.59L26.5706 17.44L25.6806 18.14L25.8206 19.27ZM20.3706 16C18.1606 16 16.3706 17.79 16.3706 20C16.3706 22.21 18.1606 24 20.3706 24C22.5806 24 24.3706 22.21 24.3706 20C24.3706 17.79 22.5806 16 20.3706 16ZM20.3706 22C19.2706 22 18.3706 21.1 18.3706 20C18.3706 18.9 19.2706 18 20.3706 18C21.4706 18 22.3706 18.9 22.3706 20C22.3706 21.1 21.4706 22 20.3706 22Z" fill="#94A196"/>
</svg>
