<svg width="256" height="244" viewBox="0 0 256 244" fill="none" xmlns="http://www.w3.org/2000/svg">
<path d="M54.8337 181.672H7.69238V243.926H54.8337V181.672Z" fill="#E0E0E0"/>
<path d="M54.8337 181.672H32.7312V243.926H54.8337V181.672Z" fill="#F0F0F0"/>
<path d="M21.8126 190.102H17.5747V200.41H21.8126V190.102Z" fill="#F5F5F5"/>
<path d="M21.8126 230.45H17.5747V240.758H21.8126V230.45Z" fill="#F5F5F5"/>
<path d="M32.7312 204.455C32.7312 204.548 27.1238 204.615 20.2149 204.615C13.3059 204.615 7.69238 204.548 7.69238 204.455C7.69238 204.363 13.2936 204.295 20.2149 204.295C27.1362 204.295 32.7312 204.369 32.7312 204.455Z" fill="white"/>
<path d="M21.8126 210.427H17.5747V220.735H21.8126V210.427Z" fill="#F5F5F5"/>
<path d="M32.7312 224.786C32.7312 224.873 27.1238 224.947 20.2149 224.947C13.3059 224.947 7.69238 224.873 7.69238 224.786C7.69238 224.7 13.2936 224.626 20.2149 224.626C27.1362 224.626 32.7312 224.7 32.7312 224.786Z" fill="white"/>
<path d="M41.6636 190.102H37.4257V200.41H41.6636V190.102Z" fill="#E0E0E0"/>
<path d="M50.8548 190.102H46.6169V200.41H50.8548V190.102Z" fill="#E0E0E0"/>
<path d="M41.6636 209.668H37.4257V219.975H41.6636V209.668Z" fill="#E0E0E0"/>
<path d="M50.8548 209.668H46.6169V219.975H50.8548V209.668Z" fill="#E0E0E0"/>
<path d="M41.6636 229.227H37.4257V239.535H41.6636V229.227Z" fill="#E0E0E0"/>
<path d="M50.8548 229.227H46.6169V239.535H50.8548V229.227Z" fill="#E0E0E0"/>
<path d="M58.3807 179.504H4.15149V181.746H58.3807V179.504Z" fill="#E0E0E0"/>
<path d="M55.1606 181.962C55.1606 182.049 44.6245 182.123 31.6332 182.123C18.6419 182.123 8.13037 182.049 8.13037 181.962C8.13037 181.876 18.6665 181.802 31.664 181.802C44.6615 181.802 55.1606 181.876 55.1606 181.962Z" fill="white"/>
<path d="M237.502 198.78H203.592V243.555H237.502V198.78Z" fill="#E0E0E0"/>
<path d="M237.495 198.78H221.599V243.555H237.495V198.78Z" fill="#F0F0F0"/>
<path d="M213.746 204.838H210.699V212.256H213.746V204.838Z" fill="#F5F5F5"/>
<path d="M213.746 233.865H210.699V241.283H213.746V233.865Z" fill="#F5F5F5"/>
<path d="M221.599 215.164C221.599 215.232 217.571 215.281 212.599 215.281C207.627 215.281 203.592 215.232 203.592 215.164C203.592 215.096 207.62 215.053 212.599 215.053C217.577 215.053 221.599 215.103 221.599 215.164Z" fill="white"/>
<path d="M213.746 219.463H210.699V226.88H213.746V219.463Z" fill="#F5F5F5"/>
<path d="M221.599 229.789C221.599 229.851 217.571 229.906 212.599 229.906C207.627 229.906 203.592 229.851 203.592 229.789C203.592 229.727 207.62 229.672 212.599 229.672C217.577 229.672 221.599 229.721 221.599 229.789Z" fill="white"/>
<path d="M228.02 204.838H224.973V212.256H228.02V204.838Z" fill="#E0E0E0"/>
<path d="M234.639 204.838H231.592V212.256H234.639V204.838Z" fill="#E0E0E0"/>
<path d="M228.02 218.913H224.973V226.331H228.02V218.913Z" fill="#E0E0E0"/>
<path d="M234.639 218.913H231.592V226.331H234.639V218.913Z" fill="#E0E0E0"/>
<path d="M228.02 232.982H224.973V240.399H228.02V232.982Z" fill="#E0E0E0"/>
<path d="M234.639 232.982H231.592V240.399H234.639V232.982Z" fill="#E0E0E0"/>
<path d="M240.049 197.217H201.045V198.829H240.049V197.217Z" fill="#E0E0E0"/>
<path d="M237.736 198.983C237.736 199.051 230.155 199.1 220.809 199.1C211.464 199.1 203.882 199.051 203.882 198.983C203.882 198.915 211.457 198.872 220.809 198.872C230.161 198.872 237.736 198.922 237.736 198.983Z" fill="white"/>
<path d="M0 76.693H34.7237C34.7237 76.693 34.7237 68.7322 30.6277 68.7322C29.1578 68.684 27.7172 69.1513 26.5548 70.0534C25.3925 70.9555 24.5814 72.2358 24.2616 73.673C24.2616 73.673 24.2616 58.8197 16.7974 60.9999C9.72806 63.0626 8.9323 72.5736 8.9323 72.5736C8.9323 72.5736 7.66154 67.7873 3.83077 70.4862C-5.88294e-07 73.185 0 76.693 0 76.693Z" fill="#E0E0E0"/>
<path d="M183.427 10.3198H205.942C205.942 10.3198 205.942 5.15673 203.284 5.15673C202.331 5.12511 201.398 5.42746 200.644 6.01155C199.891 6.59564 199.365 7.42481 199.157 8.35588C199.157 8.35588 199.157 -1.27246 194.314 0.141838C189.737 1.47585 189.219 7.63947 189.219 7.63947C189.219 7.63947 188.392 4.55148 185.913 6.28693C183.433 8.02238 183.427 10.3198 183.427 10.3198Z" fill="#EBEBEB"/>
<path d="M229.118 109.858H251.634C251.634 109.858 251.634 104.701 248.975 104.701C248.023 104.669 247.089 104.972 246.336 105.556C245.582 106.14 245.056 106.969 244.849 107.9C244.849 107.9 244.849 98.2718 240.006 99.6799C235.429 101.02 234.911 107.184 234.911 107.184C234.911 107.184 234.084 104.096 231.604 105.831C229.124 107.567 229.118 109.858 229.118 109.858Z" fill="#E0E0E0"/>
<path d="M211.39 15.6188H123.578V21.486H205.529V226.528H123.578V232.395H211.39V15.6188Z" fill="#455A64"/>
<path d="M123.578 21.486V27.3532V220.661V226.528H205.529V21.486H123.578Z" fill="white"/>
<path d="M37.1233 226.528V21.486H123.578V15.6188H31.2631V232.395H123.578V226.528H37.1233Z" fill="#263238"/>
<path d="M37.1233 21.486V226.528H123.578V220.661V27.3532V21.486H37.1233Z" fill="#F5F5F5"/>
<path d="M186.086 27.7793C187.646 28.2981 189.17 28.8725 190.687 29.4716V21.486H141.43H142.281C155.248 21.9492 171.947 23.03 186.086 27.7793Z" fill="#F5F5F5"/>
<path d="M198.781 21.486V33.0166C201.02 34.0788 203.259 35.1967 205.529 36.3331V24.3146C203.426 23.3388 201.273 22.3877 199.058 21.486H198.781Z" fill="#F5F5F5"/>
<path d="M62.3781 199.447C66.7245 197.925 70.8973 195.946 74.8266 193.542L48.3011 174.397C44.2914 176.293 40.0905 178.263 37.1481 180.357V196.532C43.4648 201.194 53.8344 202.374 62.3781 199.447Z" fill="#F5F5F5"/>
<path d="M108.156 151.262C107.515 147.38 107.473 143.422 108.033 139.527L95.1093 136.439C88.9406 134.963 82.2783 137.477 80.8164 141.825C77.2323 152.509 67.714 162.971 56.3142 170.234C54.6713 171.246 52.9744 172.168 51.2312 172.995L63.8462 182.098L108.958 154.665C108.625 153.547 108.357 152.411 108.156 151.262Z" fill="#F5F5F5"/>
<path d="M117.773 169.333C114.349 165.919 111.66 161.839 109.871 157.345L66.3137 183.84L77.4791 191.9C81.6985 189.213 85.6958 186.304 89.9152 183.537C98.6833 177.847 108.02 173.086 117.773 169.333Z" fill="#F5F5F5"/>
<path d="M162.034 152.466L111.512 140.33C111.049 143.867 111.116 147.454 111.709 150.971C112.923 157.522 116.144 163.532 120.925 168.165C134.056 163.378 147.665 160.026 161.515 158.166C165.84 157.549 166.216 153.423 162.034 152.466Z" fill="#F5F5F5"/>
<path d="M59.5157 132.826L61.4219 121.506L61.6131 120.462C61.3108 119.845 60.9962 119.27 60.7186 118.677C57.9674 119.412 54.9139 119.338 52.0084 119.684C49.1029 120.03 46.0001 121.012 45.0254 122.914C44.4086 124.081 44.7478 125.384 45.0809 126.582C45.5868 128.46 46.0947 130.335 46.6046 132.209C47.0241 133.777 47.4806 135.396 48.776 136.717C49.5582 137.465 50.5001 138.025 51.5304 138.354C52.5606 138.684 53.6522 138.775 54.7226 138.619C55.4661 138.504 56.1781 138.237 56.8146 137.836C57.4512 137.434 57.9989 136.906 58.4239 136.285C59.0226 135.22 59.3944 134.042 59.5157 132.826Z" fill="#F5F5F5"/>
<path d="M167.333 109.79L199.058 119.227L205.529 114.7V101.576L184.334 95.2765L167.333 109.79Z" fill="#E6E6E6"/>
<path d="M188.041 92.1144L205.529 97.3146V83.7954L198.725 82.9925L188.041 92.1144Z" fill="#E6E6E6"/>
<path d="M198.781 33.0166V21.486H190.687V70.8938L87.2565 50.6551L92.8639 21.486H84.9186L79.4778 49.7658L37.1234 48.018V53.4096L78.4538 55.1451L68.1397 108.752L39.8746 112.267L37.1234 102.428V120.246C37.3807 125.085 38.1373 129.885 39.3811 134.568C39.9062 137.003 40.9359 139.301 42.4038 141.312C45.2476 144.913 50.6514 147.488 56.5487 148.106C54.4532 151.107 51.8868 153.75 48.9488 155.931C45.5313 158.475 41.4785 160.55 37.1234 162.52V168.913L39.3318 167.961L48.2764 174.415L74.8019 193.561L82.8212 199.335C75.0425 203.659 67.3316 207.092 59.2074 208.019C57.2766 208.235 54.9756 208.352 52.5143 208.476C47.3444 208.64 42.1918 209.158 37.0925 210.026V215.584C37.4997 215.492 37.9006 215.405 38.3263 215.325C43.138 214.472 48.0059 213.974 52.8906 213.837C55.5123 213.701 57.9921 213.577 60.2931 213.318C74.4811 211.7 86.3806 204.443 98.9586 196.76C112.061 188.731 126.915 179.671 146.143 176.941C166.549 174.039 189.293 179.035 205.505 189.985V182.636C195.892 177.41 185.462 173.86 174.661 172.136C180.527 168.085 184.697 162.872 186.283 157.283C186.375 156.956 186.456 156.629 186.536 156.301C186.804 155.13 186.941 153.933 186.943 152.732C186.943 152.112 186.906 151.494 186.832 150.879L205.529 145.314V139.441L185.247 145.499C184.064 143.112 182.461 140.957 180.515 139.138L205.529 127.404V124.439L178.264 137.224C173.927 133.989 168.965 131.697 163.693 130.492L140.141 124.754L196.276 77.4465L205.529 78.4038V72.9627L198.781 72.2648V33.0166ZM86.2202 56.0529L115.417 61.7719L113.825 118.35L75.9863 109.142L86.2202 56.0529ZM45.5622 140.151C44.0879 138.298 43.4155 136.063 42.9035 134.13C41.471 128.737 40.7024 123.189 40.6149 117.609L67.0663 114.323L65.4008 122.97C63.7846 131.369 61.9771 139.107 58.0662 145.728C52.8844 145.438 48.0297 143.288 45.5622 140.151ZM51.2312 172.958L42.373 166.566C46.7302 164.648 50.8789 162.287 54.7536 159.519C67.2329 150.255 70.4961 137.786 73.2104 123.698L74.9561 114.613L112.542 123.766C110.367 128.799 108.851 134.093 108.033 139.515C107.473 143.41 107.515 147.367 108.156 151.249C108.358 152.386 108.626 153.51 108.958 154.615L63.8462 182.061L51.2312 172.958ZM93.9126 192.721C91.1058 194.438 88.3607 196.124 85.5786 197.73L77.4791 191.881L66.3137 183.821L109.871 157.326C111.66 161.821 114.349 165.9 117.773 169.314C120.404 171.953 123.377 174.225 126.613 176.071C113.992 180.474 103.511 186.872 93.9126 192.739V192.721ZM161.047 135.556C173.285 138.533 180.743 146.908 178.776 155.455C178.714 155.721 178.646 155.986 178.572 156.246C176.9 162.107 171.731 167.511 164.588 170.957C152.982 170.142 141.327 171.484 130.209 174.916C126.803 173.127 123.684 170.837 120.956 168.122C116.179 163.495 112.958 157.495 111.74 150.953C111.147 147.435 111.08 143.849 111.543 140.312C112.301 134.883 113.789 129.581 115.966 124.551L161.047 135.556ZM154.261 104.151L132.122 122.809L117.366 119.215L118.958 62.4698L154.255 69.3807L154.261 104.151ZM158.308 100.742V70.1712L187.739 75.9395L158.308 100.742Z" fill="#E0E0E0"/>
<path d="M71.8655 59.4991L46.364 58.6901V86.6425H67.3438L71.8655 59.4991Z" fill="#EBEBEB"/>
<path d="M66.6037 91.9044H42.3236V103.305H66.6037V91.9044Z" fill="#EBEBEB"/>
<path d="M129.993 52.267L185.296 62.0498V33.1462H150.227V46.3011H129.993V52.267Z" fill="#EBEBEB"/>
<path d="M116.509 50.0993V26.1304H99.4953L96.522 46.2887L116.509 50.0993Z" fill="#EBEBEB"/>
<path d="M142.133 25.2534H124.596V37.5312H142.133V25.2534Z" fill="#E0E0E0"/>
<path d="M153.033 121.994L182.057 131.103L194.771 122.216L163.625 112.958L153.033 121.994Z" fill="#E6E6E6"/>
<path d="M108.415 65.5948H92.2284V101.551H108.415V65.5948Z" fill="#EBEBEB"/>
<path d="M85.486 99.7973H81.4393V106.813H85.486V99.7973Z" fill="#E0E0E0"/>
<path d="M148.876 73.8088L124.596 68.7569V87.0995V90.1505H148.876V73.8088Z" fill="#EBEBEB"/>
<path d="M127.298 100.674H121.9V111.198H127.298V100.674Z" fill="#EBEBEB"/>
<path d="M135.391 100.674H129.993V111.198H135.391V100.674Z" fill="#EBEBEB"/>
<path d="M143.484 100.674H138.087V111.198H143.484V100.674Z" fill="#EBEBEB"/>
<path d="M45.0192 21.486H37.1233V43.244L45.0192 43.5281V21.486Z" fill="#E6E6E6"/>
<path d="M73.2165 44.4792L76.9671 21.486H51.7617V43.7133L73.2165 44.4792Z" fill="#E6E6E6"/>
<path d="M205.529 177.584V166.72L200.526 175.261L205.529 177.584Z" fill="#F0F0F0"/>
<path d="M88.871 83.0796C90.9042 65.7161 68.3579 60.2362 59.7331 72.9925C51.8464 84.6709 73.4344 119 73.4344 119L88.871 83.0796ZM77.3194 89.7657C75.9361 90.7155 74.2996 91.2375 72.617 91.2656C70.9343 91.2937 69.281 90.8266 67.8662 89.9235C66.4514 89.0203 65.3386 87.7217 64.6687 86.1918C63.9987 84.6619 63.8016 82.9695 64.1024 81.3286C64.4031 79.6877 65.1881 78.1721 66.3582 76.9734C67.5282 75.7746 69.0307 74.9467 70.6756 74.5942C72.3205 74.2418 74.034 74.3807 75.5992 74.9933C77.1645 75.606 78.5112 76.6649 79.4692 78.0361C80.7473 79.8784 81.236 82.1477 80.8281 84.3466C80.4203 86.5454 79.1492 88.4942 77.2935 89.7657H77.3194Z" fill="#4ABAAD"/>
<path d="M251.104 216.159C250.363 216.216 249.642 216.423 248.984 216.767C248.326 217.111 247.744 217.585 247.273 218.16C246.34 219.321 245.683 220.679 245.348 222.131C244.633 224.91 245.12 228.177 245.928 230.932C248.92 229.832 250.74 226.608 251.566 224.922C252.862 222.254 253.59 216.634 251.104 216.159Z" fill="#4ABAAD"/>
<path opacity="0.2" d="M251.104 216.159C250.363 216.216 249.642 216.423 248.984 216.767C248.326 217.111 247.744 217.585 247.273 218.16C246.34 219.321 245.683 220.679 245.348 222.131C244.633 224.91 245.12 228.177 245.928 230.932C248.92 229.832 250.74 226.608 251.566 224.922C252.862 222.254 253.59 216.634 251.104 216.159Z" fill="black"/>
<path d="M241.647 234.328C242.09 233.625 242.34 232.818 242.371 231.987C242.402 231.156 242.214 230.332 241.826 229.598C241.423 228.871 240.881 228.231 240.23 227.716C239.578 227.201 238.831 226.82 238.032 226.596C237.676 226.455 237.293 226.394 236.911 226.416C236.528 226.439 236.155 226.544 235.818 226.726C235.533 226.945 235.313 227.236 235.179 227.57C235.046 227.904 235.004 228.267 235.059 228.622C235.174 229.333 235.477 230 235.935 230.555C237.409 232.519 239.198 234.149 241.647 234.328Z" fill="#4ABAAD"/>
<path d="M241.622 243.864C241.696 243.676 241.746 243.478 241.77 243.277C241.844 242.901 241.937 242.345 242.036 241.659C242.326 239.868 242.374 238.047 242.178 236.243C241.966 234.419 241.264 232.686 240.148 231.228C239.803 230.795 239.405 230.407 238.964 230.073C238.813 229.939 238.64 229.832 238.452 229.758C238.999 230.255 239.506 230.794 239.969 231.37C241.004 232.832 241.653 234.531 241.857 236.311C242.046 238.09 242.029 239.884 241.807 241.659C241.702 242.39 241.64 243.126 241.622 243.864Z" fill="#263238"/>
<path d="M250.178 220.383C250.005 220.668 249.856 220.968 249.734 221.279C249.469 221.859 249.117 222.705 248.649 223.749C247.754 225.849 246.564 228.776 245.33 232.043C244.096 235.31 243.06 238.293 242.338 240.461C241.98 241.548 241.721 242.431 241.511 243.043C241.397 243.353 241.312 243.674 241.258 244C241.404 243.703 241.528 243.395 241.629 243.08C241.869 242.425 242.178 241.573 242.554 240.535C243.325 238.386 244.404 235.415 245.638 232.154C246.872 228.894 248.025 225.979 248.864 223.829C249.265 222.81 249.599 221.976 249.858 221.316C249.989 221.014 250.096 220.702 250.178 220.383Z" fill="#263238"/>
<path d="M244.756 237.058C245.744 235.611 247.063 234.419 248.602 233.583C250.141 232.746 251.857 232.288 253.608 232.247C254.496 232.247 255.551 232.451 255.897 233.266C256.242 234.081 255.662 235.002 255.021 235.619C253.66 236.886 251.955 237.722 250.12 238.019C248.286 238.317 246.404 238.065 244.713 237.293" fill="#4ABAAD"/>
<path d="M252.078 234.433C251.886 234.404 251.691 234.404 251.499 234.433C251.273 234.445 251.048 234.474 250.826 234.52C250.531 234.562 250.238 234.622 249.95 234.699C249.193 234.891 248.457 235.16 247.754 235.502C246.894 235.927 246.081 236.442 245.33 237.04C244.594 237.654 243.924 238.343 243.331 239.096C242.855 239.719 242.442 240.387 242.097 241.091C241.96 241.357 241.841 241.631 241.74 241.913C241.651 242.112 241.578 242.319 241.524 242.53C241.455 242.711 241.411 242.9 241.394 243.092C241.456 243.092 241.684 242.32 242.301 241.165C242.666 240.494 243.089 239.855 243.566 239.257C244.736 237.788 246.209 236.59 247.884 235.743C248.566 235.397 249.279 235.114 250.012 234.897C251.264 234.557 252.085 234.495 252.078 234.433Z" fill="#263238"/>
<path d="M9.98093 106.628C18.6171 102.811 22.744 130.016 23.2992 132.135C23.8544 134.253 25.3225 134.506 27.8332 131.332C30.3439 128.157 32.5091 129.386 32.5091 129.386C37.2343 132.271 30.825 149.057 30.8867 150.422C30.9484 151.787 29.9367 153.751 34.847 150.971C39.7573 148.192 43.878 146.71 44.5936 150.971C45.2475 154.85 40.2323 166.047 40.2755 167.647C40.3187 169.246 45.3894 165.226 47.5237 163.892C50.2873 162.175 53.236 162.292 53.7541 165.744C54.4265 170.271 45.4387 183.513 45.4387 183.513L41.1206 190.257L33.2308 188.126C33.2308 188.126 17.809 183.766 15.3971 179.887C13.5464 176.904 15.6993 174.897 18.9071 174.403C21.3745 174.026 27.8332 173.785 26.8524 172.55C25.8715 171.315 14.7925 166.084 12.763 162.712C10.5423 159.006 14.6136 157.45 20.1655 156.363C25.7173 155.276 23.6631 154.442 22.818 153.368C21.9729 152.293 6.20568 143.708 7.92675 138.44C7.92675 138.44 8.77187 136.106 12.7383 136.878C16.7048 137.65 17.6733 136.507 16.6987 134.531C15.724 132.555 1.23987 109.209 10.2585 106.48" fill="#4ABAAD"/>
<path d="M45.704 202.887C45.5374 202.948 38.1658 183.179 29.2458 158.735C20.3259 134.29 13.2072 114.422 13.3799 114.36C13.5526 114.298 20.9181 134.068 29.8442 158.518C38.7703 182.969 45.8705 202.825 45.704 202.887Z" fill="white"/>
<path d="M25.2116 146.766C25.0512 146.704 25.7112 144.474 26.8833 141.874C28.0553 139.274 29.2644 137.285 29.4186 137.372C29.5728 137.458 28.6229 139.546 27.4693 142.134C26.3158 144.721 25.4028 146.821 25.2116 146.766Z" fill="white"/>
<path d="M14.5952 142.294C14.6322 142.127 17.1367 142.621 20.036 143.801C22.9353 144.981 25.0944 146.352 25.008 146.494C24.9217 146.636 22.6639 145.549 19.8016 144.394C16.9393 143.239 14.5459 142.473 14.5952 142.294Z" fill="white"/>
<path d="M31.6763 164.799C31.5406 164.682 33.3851 162.329 35.797 159.482C38.209 156.635 40.2694 154.473 40.4051 154.584C40.5408 154.695 38.6963 157.055 36.2844 159.902C33.8724 162.749 31.8121 164.917 31.6763 164.799Z" fill="white"/>
<path d="M17.3835 161.903C17.3835 161.736 20.7578 162.014 24.8229 162.817C28.8881 163.62 32.102 164.62 32.0588 164.787C32.0157 164.954 28.7462 164.237 24.6996 163.447C20.6529 162.656 17.3403 162.088 17.3835 161.903Z" fill="white"/>
<path d="M21.8003 179.183C21.8003 179.004 25.3411 179.375 29.6531 180.011C33.965 180.647 37.438 181.302 37.4071 181.474C37.3763 181.647 33.8725 181.277 29.5605 180.647C25.2486 180.017 21.7756 179.356 21.8003 179.183Z" fill="white"/>
<path d="M37.7958 181.184C37.6786 181.03 40.0659 179.109 42.5457 176.293C45.0255 173.477 46.6602 170.889 46.8206 170.988C46.981 171.087 45.5869 173.86 43.0268 176.719C40.4668 179.578 37.8821 181.32 37.7958 181.184Z" fill="white"/>
</svg>
