<svg width="100" height="100" viewBox="0 0 100 100" fill="none" xmlns="http://www.w3.org/2000/svg">
<path d="M50 8.33337C27 8.33337 8.33337 27 8.33337 50C8.33337 73 27 91.6667 50 91.6667C73 91.6667 91.6667 73 91.6667 50C91.6667 27 73 8.33337 50 8.33337ZM38.7084 67.875L23.75 52.9167C22.125 51.2917 22.125 48.6667 23.75 47.0417C25.375 45.4167 28 45.4167 29.625 47.0417L41.6667 59.0417L70.3334 30.375C71.9584 28.75 74.5834 28.75 76.2084 30.375C77.8334 32 77.8334 34.625 76.2084 36.25L44.5834 67.875C43 69.5 40.3334 69.5 38.7084 67.875Z" fill="#30A193"/>
</svg>
