<svg width="380" height="248" viewBox="0 0 380 248" fill="none" xmlns="http://www.w3.org/2000/svg">
<path d="M109.654 243.41L86.5605 185.44C86.0916 184.289 85.9127 183.041 86.0397 181.805C86.1666 180.569 86.5955 179.383 87.2885 178.352C87.9815 177.321 88.9175 176.476 90.0139 175.891C91.1104 175.307 92.3337 175.001 93.5762 175H165.515C167.098 175 168.642 175.497 169.929 176.419C171.216 177.342 172.182 178.644 172.691 180.143L192.527 238.607L215.696 238.719C217.576 238.719 219.1 241.503 219.1 243.361L193.598 243.069L109.654 243.41Z" fill="#263238"/>
<path d="M104.218 184.384C102.577 184.315 100.955 184.75 99.5683 185.63C99.1002 185.921 98.674 186.275 98.3016 186.681C97.0697 188.073 94.8703 190.759 95.7473 194.963C96.6242 199.167 99.3317 199.745 100.619 199.884C101.907 200.023 110.725 197.511 110.725 197.511C110.725 197.511 113.927 194.789 112.813 191.212C111.79 188.142 108.95 184.558 104.218 184.384Z" fill="#FF725E"/>
<path d="M99.9998 198.631C99.9998 198.631 100.32 200.879 101.447 201.415C102.575 201.951 104.677 201.882 106.32 201.478C107.962 201.074 110.328 200.155 110.607 198.91C110.84 197.94 110.792 196.923 110.468 195.979C109.572 195.479 108.582 195.171 107.561 195.076C106.54 194.982 105.51 195.102 104.538 195.43C102.685 195.907 101.071 197.046 99.9998 198.631Z" fill="#F5F5F5"/>
<g opacity="0.4">
<path opacity="0.4" d="M107.162 187.899C107.365 188.711 107.323 189.564 107.041 190.352C106.759 191.14 106.25 191.827 105.578 192.325C104.906 192.824 104.101 193.112 103.265 193.153C102.43 193.194 101.6 192.987 100.882 192.557C100.165 192.127 99.5902 191.494 99.2321 190.738C98.874 189.981 98.7481 189.136 98.8704 188.308C98.9927 187.48 99.3577 186.707 99.9193 186.087C100.481 185.467 101.214 185.027 102.025 184.823C103.114 184.551 104.267 184.722 105.229 185.299C106.192 185.875 106.887 186.81 107.162 187.899Z" fill="white"/>
</g>
<g opacity="0.4">
<path opacity="0.4" d="M96.478 197.086C97.2976 196.072 97.725 194.798 97.6821 193.495C97.5827 192.218 97.0238 191.022 96.1092 190.126C95.6587 191.505 95.5022 192.963 95.6498 194.406C95.7602 195.343 96.0409 196.251 96.478 197.086Z" fill="white"/>
</g>
<g opacity="0.4">
<path opacity="0.4" d="M113.022 192.945C111.822 192.441 110.845 191.518 110.273 190.349C109.731 189.247 109.633 187.978 110.001 186.806C110.995 187.78 111.808 188.923 112.403 190.182C113.224 192.124 113.022 192.945 113.022 192.945Z" fill="white"/>
</g>
<path d="M136.909 207.589C136.91 208.514 136.637 209.419 136.124 210.189C135.611 210.959 134.881 211.56 134.026 211.915C133.172 212.27 132.231 212.363 131.323 212.184C130.416 212.004 129.582 211.559 128.927 210.905C128.272 210.252 127.826 209.418 127.645 208.511C127.464 207.603 127.556 206.662 127.91 205.807C128.264 204.952 128.863 204.222 129.632 203.707C130.402 203.193 131.306 202.919 132.232 202.919C133.471 202.919 134.659 203.41 135.536 204.286C136.413 205.162 136.907 206.349 136.909 207.589Z" fill="#F5F5F5"/>
<path d="M30.4261 227.78C30.2784 227.776 30.1361 227.724 30.0208 227.633C29.9055 227.541 29.8235 227.414 29.7873 227.272L7.05238 141.27C7.02973 141.184 7.02432 141.094 7.03646 141.006C7.0486 140.918 7.07805 140.834 7.12314 140.757C7.16822 140.681 7.22805 140.613 7.29921 140.56C7.37037 140.506 7.45146 140.467 7.53787 140.445C7.62427 140.422 7.7143 140.417 7.80279 140.429C7.89129 140.441 7.97652 140.47 8.05364 140.515C8.13075 140.56 8.19823 140.619 8.25222 140.69C8.30621 140.76 8.34566 140.841 8.36831 140.927L31.084 226.929C31.1071 227.015 31.1128 227.105 31.1009 227.193C31.0889 227.281 31.0595 227.366 31.0144 227.442C30.9692 227.519 30.9093 227.586 30.8379 227.64C30.7665 227.693 30.6852 227.732 30.5986 227.754C30.5428 227.772 30.4846 227.781 30.4261 227.78Z" fill="#263238"/>
<path d="M24.4214 229.906C24.2746 229.903 24.1329 229.852 24.0177 229.761C23.9025 229.671 23.8199 229.546 23.7826 229.405L1.05409 143.396C1.03144 143.31 1.02603 143.221 1.03817 143.133C1.05031 143.045 1.07976 142.96 1.12484 142.883C1.16993 142.807 1.22975 142.74 1.30091 142.686C1.37207 142.632 1.45317 142.593 1.53958 142.571C1.62598 142.548 1.716 142.543 1.8045 142.555C1.893 142.567 1.97823 142.596 2.05535 142.641C2.13246 142.686 2.19994 142.745 2.25393 142.816C2.30792 142.887 2.34737 142.967 2.37002 143.053L25.0857 229.062C25.1088 229.148 25.1145 229.237 25.1026 229.325C25.0906 229.413 25.0612 229.498 25.0161 229.575C24.9709 229.652 24.911 229.719 24.8396 229.772C24.7682 229.826 24.6869 229.865 24.6003 229.887C24.5415 229.9 24.4815 229.906 24.4214 229.906Z" fill="#263238"/>
<path d="M3.78168 139.664L2.68933 138.858L61.0054 60.878L114.198 71.0079L113.943 72.3344L61.5867 62.3632L3.78168 139.664Z" fill="#263238"/>
<path d="M65.0929 63.3523L7.72412 140.328L8.8176 141.133L66.1863 64.1569L65.0929 63.3523Z" fill="#263238"/>
<path d="M59.5552 64.4578C59.8033 65.1674 60.257 65.7883 60.8593 66.2424C61.4616 66.6965 62.1857 66.9634 62.9403 67.0096C63.695 67.0559 64.4465 66.8793 65.1005 66.5022C65.7544 66.1251 66.2814 65.5642 66.6153 64.8903C66.9492 64.2163 67.075 63.4592 66.9768 62.7144C66.8787 61.9696 66.5611 61.2702 66.0638 60.7043C65.5666 60.1384 64.9121 59.7312 64.1825 59.534C63.4529 59.3368 62.6809 59.3583 61.9637 59.596C61.4824 59.7554 61.0377 60.0082 60.6555 60.3397C60.2733 60.6712 59.9612 61.0747 59.7371 61.527C59.5131 61.9792 59.3817 62.4712 59.3504 62.9743C59.3192 63.4774 59.3888 63.9816 59.5552 64.4578Z" fill="#1C59F7"/>
<path d="M111.688 66.6474L110.736 61.1382L114.837 60.8336L115.138 66.1524L111.688 66.6474Z" fill="#1C59F7"/>
<g opacity="0.3">
<path opacity="0.3" d="M111.688 66.6474L110.736 61.1382L114.837 60.8336L115.138 66.1524L111.688 66.6474Z" fill="black"/>
</g>
<path d="M108.328 66.2667L104.533 86.7042L94.9512 113.711L148.955 105.974L127.159 82.3945L118.057 64.8704L108.328 66.2667Z" fill="#FF7865"/>
<path d="M0 141.949C0 142.791 0.251404 143.614 0.722425 144.315C1.19344 145.015 1.86292 145.561 2.6462 145.883C3.42948 146.206 4.29138 146.29 5.1229 146.126C5.95442 145.961 6.71822 145.556 7.31772 144.96C7.91721 144.365 8.32548 143.606 8.49088 142.78C8.65628 141.953 8.57139 141.097 8.24694 140.319C7.9225 139.541 7.37307 138.876 6.66814 138.408C5.96321 137.94 5.13443 137.69 4.28662 137.69C3.14974 137.69 2.05942 138.139 1.25552 138.937C0.451622 139.736 0 140.819 0 141.949Z" fill="#1C59F7"/>
<path d="M13.3254 244.987C13.3254 244.701 13.2806 244.422 13.2806 244.13C13.3673 239.669 15.2114 235.421 18.4168 232.297C21.6221 229.173 25.9329 227.423 30.4228 227.423C34.9128 227.423 39.2235 229.173 42.4289 232.297C45.6342 235.421 47.4784 239.669 47.565 244.13C47.565 244.422 47.5331 244.701 47.5203 244.987H13.3254Z" fill="#1C59F7"/>
<path d="M106.82 238.608C106.609 238.652 105.708 239.56 106.993 241.001C108.277 242.442 116.019 246.383 117.444 244.028C118.869 241.674 115.432 240.036 115.432 240.036L106.82 238.608Z" fill="#FFBE9D"/>
<path d="M115.323 236.069C115.323 236.069 123.308 235.193 126.565 235.606C130.098 236.056 133.848 234.286 136.071 231.861C137.463 230.253 138.427 228.324 138.875 226.25L143.986 222.721C143.986 222.721 144.535 210.719 136.48 212.655L127.07 212.985C127.07 212.985 108.545 216.031 105.683 218.323C105.683 218.323 102.195 221.693 101.18 222.994C100.796 223.489 100.47 228.434 104.009 230.122C104.009 230.122 101.921 232.769 103.76 234.267L104.623 234.901C104.623 234.901 103.428 237.548 104.552 238.303C105.677 239.059 114.562 241.737 117.086 239.992C119.609 238.246 116.683 236.234 115.348 236.056" fill="#FFBE9D"/>
<path d="M105.37 229.652C105.719 229.668 106.067 229.706 106.411 229.766C107.082 229.849 108.053 229.97 109.261 230.058C109.861 230.097 110.538 230.135 111.228 230.147C111.918 230.16 112.691 230.147 113.503 230.204C114.374 230.229 115.222 230.495 115.949 230.972C116.349 231.238 116.67 231.604 116.88 232.033C117.09 232.463 117.181 232.94 117.144 233.416C117.067 233.911 116.813 234.362 116.428 234.685C116.073 234.983 115.663 235.209 115.221 235.352C114.409 235.602 113.571 235.758 112.723 235.815C111.299 235.922 109.868 235.895 108.449 235.733C107.242 235.606 106.277 235.447 105.613 235.333C105.262 235.293 104.916 235.22 104.578 235.117C104.929 235.122 105.279 235.151 105.626 235.206C106.303 235.282 107.274 235.403 108.475 235.498C109.878 235.62 111.288 235.62 112.691 235.498C113.513 235.434 114.326 235.279 115.112 235.034C115.513 234.902 115.885 234.698 116.211 234.432C116.531 234.159 116.743 233.784 116.812 233.372C116.841 232.954 116.758 232.537 116.573 232.162C116.388 231.786 116.107 231.466 115.758 231.233C115.077 230.79 114.289 230.538 113.477 230.503C112.698 230.433 111.931 230.458 111.222 230.42C110.513 230.382 109.842 230.35 109.235 230.287C108.028 230.173 107.063 230.02 106.392 229.893C106.044 229.848 105.702 229.767 105.37 229.652Z" fill="#EBA36E"/>
<path d="M104.718 223.921C105.068 223.932 105.416 223.97 105.76 224.035C106.399 224.124 107.395 224.251 108.59 224.352C109.784 224.454 111.215 224.536 112.806 224.536C113.665 224.468 114.528 224.597 115.33 224.911C115.762 225.126 116.102 225.489 116.288 225.933C116.466 226.385 116.513 226.878 116.422 227.355C116.319 227.812 116.123 228.244 115.845 228.623C115.567 229.002 115.213 229.32 114.806 229.557C114.069 230.001 113.237 230.268 112.378 230.338C110.959 230.397 109.537 230.331 108.13 230.141L105.293 229.855C104.942 229.835 104.594 229.784 104.252 229.703C104.601 229.676 104.951 229.676 105.3 229.703L108.149 229.887C109.543 230.037 110.946 230.078 112.346 230.008C113.157 229.935 113.94 229.676 114.633 229.252C115 229.039 115.318 228.753 115.569 228.413C115.819 228.072 115.997 227.684 116.09 227.272C116.187 226.871 116.151 226.449 115.986 226.07C115.821 225.691 115.537 225.376 115.176 225.171C114.423 224.876 113.613 224.755 112.806 224.816C111.203 224.816 109.772 224.695 108.571 224.562C107.37 224.429 106.405 224.264 105.741 224.137C105.394 224.095 105.052 224.022 104.718 223.921Z" fill="#EBA36E"/>
<path d="M108.839 224.618C108.56 224.149 108.318 223.659 108.117 223.153C107.818 222.696 107.562 222.214 107.35 221.712C107.414 221.649 107.989 222.169 108.411 222.981C108.724 223.468 108.874 224.041 108.839 224.618Z" fill="#EBA36E"/>
<path d="M133.266 213.137L125.716 212.141C125.716 212.141 104.38 207.818 104.169 208.377C103.958 208.935 102.891 209.132 103.696 211.404C104.501 213.677 116.798 215.689 117.347 216.412C117.897 217.136 118.293 221.344 123.097 223.28C127.9 225.216 130.928 224.549 130.928 224.549" fill="#FFBE9D"/>
<path d="M130.954 224.562L130.794 224.606L130.302 224.676C129.665 224.729 129.024 224.729 128.386 224.676C127.386 224.591 126.396 224.417 125.428 224.156C124.137 223.83 122.89 223.348 121.717 222.721C120.3 221.907 119.146 220.71 118.389 219.268C117.991 218.47 117.65 217.645 117.367 216.799C117.326 216.703 117.279 216.61 117.226 216.52C117.162 216.459 117.086 216.412 117.003 216.381C116.794 216.296 116.58 216.221 116.364 216.158C115.917 216.019 115.457 215.898 114.984 215.778C113.106 215.289 111.119 214.819 109.088 214.229C108.072 213.931 107.044 213.594 106.022 213.194C105.502 212.99 105 212.744 104.52 212.458C104.269 212.307 104.038 212.125 103.83 211.919C103.724 211.804 103.635 211.673 103.569 211.531C103.498 211.385 103.479 211.252 103.428 211.119C103.228 210.563 103.192 209.961 103.326 209.386C103.423 209.106 103.58 208.851 103.786 208.637C103.868 208.549 103.939 208.451 103.997 208.345C103.997 208.345 103.997 208.345 104.048 208.263C104.079 208.225 104.121 208.198 104.169 208.186C104.216 208.182 104.263 208.182 104.31 208.186H104.533C105.645 208.256 106.699 208.44 107.727 208.605C109.816 208.948 111.822 209.316 113.732 209.678C117.565 210.395 120.976 211.081 123.857 211.671C124.572 211.811 125.262 211.976 125.907 212.084L127.76 212.337L130.718 212.756L132.589 213.036L133.075 213.118L133.241 213.156C133.184 213.166 133.125 213.166 133.068 213.156L132.583 213.112L130.698 212.89L127.728 212.528L125.869 212.293C125.23 212.191 124.534 212.039 123.812 211.906L113.674 210.002C111.758 209.653 109.759 209.285 107.676 208.948C106.635 208.789 105.562 208.605 104.482 208.536H104.29H104.227C104.227 208.536 104.227 208.485 104.195 208.459C104.444 208.548 104.258 208.459 104.316 208.517C104.252 208.656 104.163 208.782 104.054 208.891C103.878 209.072 103.743 209.288 103.658 209.526C103.549 210.038 103.586 210.57 103.767 211.062C103.815 211.311 103.93 211.544 104.099 211.734C104.292 211.92 104.506 212.082 104.738 212.217C105.202 212.49 105.687 212.728 106.188 212.928C107.191 213.334 108.206 213.658 109.222 213.956C111.241 214.553 113.221 215.022 115.099 215.517C115.572 215.644 116.038 215.771 116.492 215.911C116.722 215.976 116.949 216.057 117.169 216.152C117.303 216.2 117.422 216.284 117.514 216.393C117.585 216.498 117.643 216.611 117.686 216.73C117.963 217.568 118.298 218.387 118.689 219.18C119.409 220.584 120.517 221.755 121.883 222.556C123.033 223.186 124.256 223.677 125.524 224.016C126.479 224.29 127.455 224.479 128.443 224.581C129.067 224.647 129.695 224.669 130.322 224.644C130.539 224.644 130.705 224.644 130.813 224.644L130.954 224.562Z" fill="#EBA36E"/>
<path d="M112.998 235.695C113.26 235.665 113.525 235.678 113.783 235.733C114.495 235.835 115.187 236.038 115.841 236.336C116.293 236.542 116.722 236.797 117.118 237.097C117.366 237.268 117.578 237.486 117.74 237.739C117.902 237.992 118.012 238.274 118.064 238.57C118.079 238.909 117.998 239.245 117.831 239.542C117.664 239.838 117.417 240.081 117.118 240.245C116.498 240.583 115.791 240.729 115.087 240.664C112.737 240.538 110.403 240.196 108.117 239.642C107.242 239.42 106.545 239.192 106.073 239.008C105.821 238.93 105.579 238.826 105.351 238.697C105.61 238.731 105.865 238.793 106.111 238.881C106.597 239.02 107.293 239.211 108.168 239.401C110.451 239.885 112.769 240.193 115.099 240.322C115.737 240.383 116.379 240.258 116.946 239.96C117.196 239.828 117.405 239.629 117.548 239.386C117.692 239.142 117.764 238.864 117.757 238.583C117.664 238.07 117.373 237.614 116.946 237.313C116.569 237.014 116.16 236.759 115.726 236.551C114.857 236.151 113.94 235.863 112.998 235.695Z" fill="#EBA36E"/>
<path d="M168.541 192.363C168.541 192.363 178.001 176.889 180.129 166.677C182.256 156.464 193.243 140.26 196.814 136.033C200.385 131.806 214.541 126.881 214.541 126.881L219.766 124.075L260.26 120.54C260.26 120.54 287.198 123.358 295.355 130.753C303.513 138.147 309.882 155.055 309.882 163.503C309.882 171.951 318.116 245.152 318.116 245.152L218.329 245.025L220.565 208.935C220.565 208.935 208.511 200.837 205.323 193.791C202.135 186.746 203.905 190.269 203.905 190.269C203.905 190.269 192.592 214.165 188.695 216.983C184.798 219.802 139.475 233.619 139.475 233.619L133.273 209.989L168.541 192.363Z" fill="#1C59F7"/>
<path d="M286.355 133.704C285.262 134.04 271.745 168.727 270.793 171.881C269.842 175.036 270.793 194.915 270.793 194.915L275.265 203.122C275.265 203.122 273.987 209.113 274.946 211.957L254.938 215.765C254.938 215.765 249.86 212.293 245.095 215.765L221.459 217.752C221.459 217.752 228.39 217.828 226.327 228.389C224.308 238.735 222.769 241.007 222.769 241.007L305.717 239.103C305.717 239.103 314.935 238.646 313.529 221.039C312.124 203.433 308.17 154.865 308.17 154.865C308.17 154.865 302.127 128.842 286.355 133.704Z" fill="#1C59F7"/>
<path d="M270.609 192.141C270.525 192.008 270.458 191.865 270.411 191.716L269.906 190.446C269.689 189.907 269.427 189.241 269.171 188.447C268.916 187.654 268.577 186.772 268.309 185.762C268.041 184.753 267.67 183.655 267.421 182.456C267.172 181.256 266.871 179.974 266.616 178.647C266.098 175.69 265.771 172.703 265.639 169.704C265.541 166.704 265.633 163.7 265.913 160.711C266.079 159.34 266.213 158.032 266.437 156.82C266.539 156.185 266.622 155.627 266.737 155.062C266.852 154.497 266.967 153.97 267.076 153.456C267.28 152.434 267.542 151.552 267.753 150.714C267.964 149.876 268.162 149.229 268.347 148.67C268.532 148.112 268.66 147.718 268.762 147.401C268.81 147.25 268.866 147.102 268.929 146.957C268.914 147.115 268.88 147.27 268.826 147.42C268.737 147.744 268.616 148.175 268.469 148.689C268.322 149.203 268.111 149.959 267.932 150.746C267.753 151.533 267.491 152.459 267.293 153.488C267.191 154.002 267.089 154.535 266.98 155.093C266.871 155.652 266.795 156.236 266.699 156.839C266.488 158.051 266.36 159.378 266.207 160.723C265.642 166.677 265.876 172.679 266.903 178.571C267.153 179.929 267.383 181.218 267.676 182.379C267.97 183.541 268.245 184.677 268.52 185.686C268.794 186.695 269.095 187.59 269.337 188.377C269.58 189.164 269.817 189.844 270.015 190.389L270.462 191.659C270.521 191.816 270.57 191.977 270.609 192.141Z" fill="#263238"/>
<path d="M299.469 229.76C299.469 229.76 299.386 229.684 299.252 229.519L298.703 228.789C298.466 228.465 298.173 228.078 297.815 227.646C297.457 227.215 297.067 226.701 296.588 226.174C296.109 225.647 295.605 225.057 295.017 224.467C294.429 223.876 293.79 223.248 293.1 222.607C291.592 221.236 289.996 219.964 288.322 218.799C286.636 217.656 284.878 216.621 283.059 215.701C282.209 215.295 281.41 214.895 280.631 214.584C279.852 214.273 279.136 213.95 278.472 213.727C277.808 213.505 277.194 213.29 276.651 213.093C276.108 212.896 275.648 212.775 275.265 212.674L274.384 212.414C274.276 212.39 274.173 212.352 274.077 212.299C274.185 212.304 274.292 212.321 274.396 212.35L275.297 212.547C275.687 212.636 276.159 212.75 276.709 212.915C277.258 213.08 277.878 213.245 278.549 213.499C279.219 213.753 279.967 213.988 280.74 214.318C281.513 214.648 282.337 215.016 283.193 215.416C285.037 216.324 286.815 217.359 288.514 218.513C290.196 219.686 291.797 220.971 293.305 222.359C293.988 222.994 294.64 223.629 295.221 224.264C295.803 224.898 296.314 225.463 296.774 226.009C297.233 226.555 297.617 227.075 297.968 227.52C298.319 227.964 298.607 228.37 298.811 228.7C299.016 229.03 299.182 229.259 299.316 229.468C299.379 229.559 299.431 229.657 299.469 229.76Z" fill="#263238"/>
<path d="M306.451 225.146C306.4 225.19 305.666 224.359 304.286 223.242C303.478 222.59 302.624 221.996 301.731 221.464C300.628 220.823 299.477 220.269 298.287 219.808C297.09 219.369 295.86 219.025 294.608 218.78C293.583 218.587 292.546 218.466 291.503 218.418C289.721 218.348 288.616 218.481 288.61 218.418C288.862 218.346 289.121 218.304 289.383 218.291C289.685 218.246 289.99 218.218 290.296 218.208C290.654 218.208 291.056 218.164 291.51 218.208C292.568 218.226 293.623 218.326 294.666 218.507C295.939 218.738 297.189 219.08 298.403 219.529C299.614 219.992 300.781 220.561 301.89 221.23C302.79 221.78 303.644 222.4 304.446 223.083C304.797 223.369 305.084 223.661 305.333 223.908C305.56 224.106 305.773 224.318 305.972 224.543C306.153 224.726 306.314 224.928 306.451 225.146Z" fill="#263238"/>
<path d="M298.779 213.536C298.741 213.593 297.764 212.819 295.975 211.944C295.489 211.704 294.99 211.493 294.48 211.309C293.944 211.08 293.343 210.909 292.717 210.712C289.965 209.926 287.075 209.729 284.24 210.135C283.602 210.243 282.963 210.332 282.413 210.484C281.882 210.604 281.357 210.752 280.842 210.928C278.926 211.563 277.878 212.197 277.846 212.121C278.079 211.945 278.329 211.794 278.593 211.671C278.887 211.498 279.192 211.345 279.507 211.214C279.924 211.022 280.35 210.853 280.785 210.706C281.3 210.514 281.827 210.353 282.362 210.224C282.972 210.06 283.591 209.929 284.215 209.83C287.091 209.386 290.032 209.587 292.819 210.42C293.426 210.596 294.021 210.808 294.602 211.055C295.116 211.254 295.618 211.485 296.103 211.747C296.507 211.952 296.899 212.178 297.278 212.426C297.573 212.595 297.855 212.786 298.122 212.997C298.361 213.151 298.582 213.332 298.779 213.536Z" fill="#263238"/>
<path d="M250.269 239.547C250.536 238.384 250.733 237.205 250.857 236.018C250.957 234.727 250.947 233.43 250.825 232.14C250.669 230.562 250.392 228.998 249.995 227.462C249.572 225.945 249.041 224.461 248.404 223.02C247.856 221.841 247.215 220.708 246.487 219.63C245.788 218.657 245.035 217.722 244.232 216.831C244.494 217.023 244.739 217.235 244.967 217.466C245.246 217.727 245.507 218.007 245.746 218.304L246.206 218.843C246.366 219.046 246.513 219.262 246.679 219.478C247.44 220.549 248.102 221.685 248.659 222.874C250.016 225.792 250.847 228.924 251.113 232.128C251.22 233.433 251.207 234.746 251.074 236.05C251.042 236.329 251.01 236.59 250.985 236.843L250.844 237.542C250.784 237.916 250.694 238.285 250.576 238.646C250.498 238.954 250.395 239.255 250.269 239.547Z" fill="#263238"/>
<path d="M236.363 215.727C236.341 215.668 236.328 215.606 236.324 215.543C236.324 215.403 236.273 215.225 236.235 215.003C236.165 214.502 236.062 213.804 235.935 212.915C235.673 211.1 235.334 208.472 234.938 205.21C234.152 198.704 233.213 189.691 232.479 179.714C231.744 169.736 231.361 160.673 231.201 154.129C231.111 150.854 231.067 148.201 231.054 146.366C231.054 145.471 231.054 144.76 231.054 144.259V143.707C231.031 143.702 231.01 143.689 230.996 143.67C230.982 143.651 230.975 143.628 230.978 143.604C230.98 143.581 230.991 143.559 231.009 143.543C231.026 143.527 231.049 143.518 231.073 143.518C231.097 143.518 231.12 143.527 231.137 143.543C231.155 143.559 231.166 143.581 231.168 143.604C231.171 143.628 231.164 143.651 231.15 143.67C231.136 143.689 231.116 143.702 231.092 143.707C231.092 143.853 231.092 144.031 231.092 144.259C231.092 144.76 231.131 145.465 231.163 146.366C231.22 148.22 231.303 150.866 231.405 154.122C231.642 160.673 232.044 169.717 232.792 179.695C233.539 189.672 234.427 198.672 235.155 205.184C235.526 208.421 235.832 211.049 236.043 212.896C236.145 213.791 236.222 214.489 236.28 214.997C236.28 215.219 236.324 215.397 236.337 215.543C236.351 215.603 236.36 215.665 236.363 215.727Z" fill="#263238"/>
<path d="M203.778 190.726C203.609 190.413 203.464 190.088 203.343 189.755C203.088 189.12 202.705 188.212 202.225 187.089C201.267 184.848 199.836 181.795 198.124 178.482C196.412 175.169 194.866 172.23 193.71 170.022C193.154 168.93 192.707 168.048 192.432 167.432C192.264 167.118 192.121 166.791 192.004 166.455C192.212 166.742 192.394 167.048 192.547 167.369L193.933 169.907C195.096 172.053 196.731 174.985 198.443 178.33C200.156 181.675 201.555 184.721 202.462 186.994C202.915 188.13 203.267 189.056 203.484 189.704C203.609 190.036 203.707 190.378 203.778 190.726Z" fill="#263238"/>
<path d="M198.68 178.996C198.482 178.99 198.286 178.954 198.099 178.888C197.735 178.8 197.211 178.647 196.566 178.438C193.216 177.334 190.038 175.77 187.124 173.792C186.568 173.411 186.127 173.087 185.846 172.852C185.685 172.742 185.539 172.612 185.412 172.465C186.051 172.809 186.671 173.186 187.271 173.595C188.408 174.306 190.005 175.239 191.845 176.134C193.685 177.029 195.397 177.733 196.655 178.203C197.343 178.434 198.019 178.698 198.68 178.996Z" fill="#263238"/>
<path d="M190.113 200.672C189.868 200.561 189.636 200.423 189.423 200.259C189.002 199.973 188.376 199.567 187.59 199.097C183.495 196.613 178.962 194.927 174.233 194.128C173.325 193.969 172.591 193.868 172.08 193.804C171.811 193.79 171.546 193.745 171.288 193.671C171.555 193.64 171.825 193.64 172.093 193.671C172.604 193.671 173.37 193.76 174.271 193.887C176.671 194.225 179.027 194.821 181.298 195.664C183.558 196.508 185.72 197.589 187.75 198.888C188.522 199.396 189.129 199.827 189.532 200.157C189.741 200.311 189.935 200.483 190.113 200.672Z" fill="#263238"/>
<path d="M259.18 120.597C259.176 120.769 259.163 120.941 259.142 121.111C259.097 121.48 259.04 121.968 258.969 122.584C258.803 123.853 258.573 125.707 258.184 127.979C257.745 130.644 257.148 133.28 256.395 135.875C255.477 139.061 254.129 142.11 252.39 144.938C251.421 146.455 250.306 147.875 249.062 149.178L248.934 149.318L248.813 149.159C247.216 147.043 245.139 145.331 242.75 144.164C241.73 143.664 240.659 143.272 239.556 142.996C238.604 142.767 237.629 142.637 236.65 142.609C235.247 142.559 233.845 142.755 232.51 143.186C231.584 143.51 231.092 143.751 231.079 143.72C231.191 143.648 231.309 143.587 231.431 143.536C231.767 143.361 232.115 143.208 232.472 143.079C233.813 142.599 235.231 142.368 236.656 142.399C237.654 142.413 238.648 142.533 239.62 142.755C240.744 143.024 241.836 143.411 242.878 143.91C245.322 145.087 247.446 146.828 249.074 148.988H248.825C250.05 147.697 251.149 146.294 252.109 144.799C253.835 141.995 255.182 138.977 256.114 135.824C256.874 133.244 257.492 130.625 257.967 127.979C258.388 125.719 258.65 123.872 258.854 122.603C258.95 121.968 259.033 121.505 259.091 121.143C259.098 120.958 259.128 120.775 259.18 120.597Z" fill="#263238"/>
<path d="M259.723 120.997L253.572 112.892L246.883 113.101L225.151 124.507L259.723 120.997Z" fill="#1C59F7"/>
<path d="M231.067 143.72C230.95 143.734 230.832 143.734 230.715 143.72C230.378 143.686 230.043 143.631 229.712 143.555C228.502 143.242 227.345 142.75 226.282 142.095C225.565 141.647 224.776 141.323 223.95 141.136C222.999 140.933 222.015 140.933 221.063 141.136C219.975 141.381 218.965 141.891 218.123 142.618C217.282 143.346 216.635 144.269 216.24 145.306L215.895 146.233V145.243C215.895 144.995 215.895 144.735 215.895 144.469C215.972 139.467 215.978 134.948 216.183 131.654C216.278 130.016 216.406 128.69 216.547 127.782C216.604 127.325 216.674 126.976 216.726 126.741C216.745 126.62 216.775 126.502 216.815 126.386C216.847 126.386 216.757 126.887 216.674 127.801C216.591 128.715 216.483 130.029 216.419 131.667C216.272 134.942 216.31 139.467 216.227 144.475C216.227 144.741 216.227 145.008 216.227 145.256L215.908 145.192C216.322 144.105 217.003 143.138 217.889 142.379C218.775 141.62 219.837 141.092 220.98 140.844C221.905 140.66 222.857 140.659 223.782 140.84C224.707 141.022 225.587 141.384 226.371 141.904C227.411 142.566 228.538 143.083 229.719 143.44C230.581 143.656 231.073 143.688 231.067 143.72Z" fill="#263238"/>
<path d="M253.572 73.6419V122.324C253.575 125.11 252.586 127.808 250.78 129.94C248.012 133.198 244.68 135.938 240.942 138.033L231.067 143.561L222.89 136.287C221.702 135.23 220.739 133.947 220.06 132.513C219.381 131.079 218.998 129.524 218.936 127.941C218.795 124.399 218.795 120.826 218.795 120.826C218.795 120.826 204.953 119.836 203.649 106.272C203.011 99.8869 202.844 86.8056 202.813 74.7462C202.798 68.1137 205.297 61.7189 209.813 56.8345C214.329 51.95 220.53 48.9341 227.183 48.387L227.572 48.3553C230.963 48.2739 234.335 48.8682 237.49 50.1033C240.646 51.3384 243.52 53.1891 245.944 55.5462C248.367 57.9033 250.291 60.7189 251.601 63.8269C252.911 66.9349 253.581 70.2723 253.572 73.6419Z" fill="#FFBE9D"/>
<path d="M218.757 120.623C218.757 120.623 227.451 120.623 236.158 114.123C236.158 114.123 232.76 124.241 219.019 124.139L218.757 120.623Z" fill="#EBA36E"/>
<path d="M207.412 83.854C207.45 84.3595 207.684 84.8306 208.066 85.1671C208.448 85.5036 208.946 85.6791 209.456 85.6562C209.705 85.6554 209.952 85.6053 210.181 85.5087C210.41 85.4121 210.618 85.271 210.792 85.0937C210.965 84.9164 211.102 84.7065 211.193 84.4762C211.284 84.2458 211.328 83.9998 211.322 83.7524C211.285 83.2474 211.052 82.7764 210.672 82.4397C210.291 82.1031 209.793 81.9274 209.284 81.9502C209.034 81.9501 208.787 81.9997 208.557 82.0959C208.327 82.1921 208.118 82.333 207.944 82.5104C207.77 82.6878 207.633 82.898 207.541 83.1288C207.45 83.3595 207.406 83.6061 207.412 83.854Z" fill="#263238"/>
<path d="M206.3 80.2106C206.562 80.4391 207.949 79.2334 210.05 79.0684C212.152 78.9034 213.781 79.8172 213.986 79.5443C214.088 79.4174 213.807 78.9859 213.091 78.5543C212.125 77.9982 211.008 77.7563 209.897 77.8626C208.804 77.9454 207.767 78.3747 206.939 79.0874C206.351 79.6332 206.173 80.1027 206.3 80.2106Z" fill="#263238"/>
<path d="M227.394 83.0098C227.431 83.5154 227.666 83.9864 228.048 84.3229C228.429 84.6594 228.928 84.8349 229.438 84.812C229.687 84.8112 229.934 84.7611 230.164 84.6646C230.393 84.5681 230.601 84.4271 230.775 84.2499C230.95 84.0727 231.087 83.8628 231.178 83.6325C231.27 83.4021 231.315 83.1559 231.31 82.9083C231.272 82.4027 231.037 81.9317 230.656 81.5952C230.274 81.2587 229.775 81.0832 229.265 81.106C229.016 81.1068 228.769 81.157 228.54 81.2535C228.31 81.35 228.102 81.4909 227.928 81.6681C227.753 81.8454 227.616 82.0553 227.525 82.2856C227.433 82.516 227.388 82.7622 227.394 83.0098Z" fill="#263238"/>
<path d="M226.978 78.9032C227.24 79.1316 228.633 77.9259 230.728 77.7609C232.824 77.5959 234.459 78.5097 234.664 78.2305C234.766 78.1099 234.485 77.6721 233.769 77.2469C232.803 76.6913 231.687 76.4474 230.575 76.5489C229.483 76.6342 228.447 77.0632 227.617 77.7736C227.029 78.3194 226.838 78.7953 226.978 78.9032Z" fill="#263238"/>
<path d="M220.642 95.0314C220.642 94.9108 219.319 94.7902 217.179 94.695C216.643 94.695 216.125 94.6252 216.004 94.2697C215.912 93.7222 215.99 93.1601 216.227 92.6576C216.63 91.3247 217.045 89.9347 217.505 88.4685C219.224 82.5087 220.424 77.6278 220.182 77.5643C219.939 77.5008 218.348 82.2738 216.63 88.2273C216.215 89.6999 215.819 91.0962 215.448 92.4354C215.163 93.1056 215.126 93.8548 215.346 94.549C215.438 94.7315 215.571 94.8906 215.735 95.0138C215.899 95.1371 216.089 95.2213 216.291 95.2599C216.594 95.3158 216.904 95.3328 217.211 95.3106C219.326 95.2218 220.648 95.1202 220.642 95.0314Z" fill="#263238"/>
<path d="M226.947 95.9391C226.602 95.9391 226.787 98.2114 224.966 99.9822C223.146 101.753 220.705 101.702 220.712 102.02C220.712 102.159 221.293 102.413 222.321 102.356C223.657 102.264 224.917 101.707 225.88 100.782C226.809 99.8959 227.352 98.6841 227.394 97.4053C227.4 96.4532 227.1 95.9137 226.947 95.9391Z" fill="#263238"/>
<path d="M225.752 70.7663C226.007 71.3184 228.084 70.8742 230.569 70.9694C233.054 71.0646 235.111 71.5659 235.392 71.0265C235.52 70.7727 235.13 70.2713 234.28 69.7573C233.151 69.1732 231.903 68.852 230.63 68.8179C229.357 68.7838 228.093 69.0378 226.934 69.5606C226.058 70.0239 225.643 70.5061 225.752 70.7663Z" fill="#263238"/>
<path d="M206.569 74.0858C206.978 74.53 208.383 73.9208 210.121 73.7558C211.858 73.5908 213.36 73.8066 213.66 73.2862C213.788 73.0324 213.519 72.5755 212.836 72.182C211.93 71.7023 210.896 71.5139 209.878 71.6426C208.857 71.7411 207.894 72.1563 207.125 72.8293C206.55 73.3814 206.396 73.8891 206.569 74.0858Z" fill="#263238"/>
<path d="M237.493 59.9705L237.57 60.0213C239.899 61.544 241.547 63.902 242.169 66.6031L242.226 66.8761C243.082 70.6843 243.319 74.6512 244.213 78.4721C245.107 82.293 244.941 85.2127 248.793 86.0886C249.802 86.3081 250.854 86.2188 251.811 85.8325C252.768 85.4461 253.584 84.7808 254.153 83.9242C254.439 83.3641 254.557 82.7338 254.491 82.109C254.447 72.7026 256.35 69.0467 255.513 59.2596C255.41 57.95 254.993 56.6839 254.297 55.5667C253.602 54.4495 252.648 53.5134 251.515 52.8364C249.33 51.5353 246.685 50.2214 244.488 51.4845C242.29 52.7475 239.678 57.2539 238.049 59.2088" fill="#263238"/>
<path d="M249.47 80.1602C249.7 80.046 258.631 76.6312 259.111 85.9424C259.59 95.2535 250.077 93.8 250.052 93.5588C250.026 93.3176 249.47 80.1602 249.47 80.1602Z" fill="#FFBE9D"/>
<path d="M252.735 89.8649C252.773 89.8332 252.901 89.9728 253.182 90.0807C253.578 90.2263 254.016 90.2126 254.402 90.0426C255.373 89.6364 256.127 88.0306 256.089 86.3486C256.072 85.5497 255.876 84.7645 255.514 84.051C255.413 83.7662 255.244 83.51 255.021 83.3044C254.799 83.0988 254.529 82.9498 254.236 82.8704C254.046 82.8295 253.847 82.8568 253.675 82.9474C253.503 83.038 253.369 83.1861 253.297 83.3655C253.182 83.6321 253.252 83.8098 253.201 83.8289C253.15 83.8479 252.997 83.6829 253.048 83.2957C253.09 83.063 253.209 82.8509 253.386 82.6927C253.638 82.4904 253.958 82.3906 254.281 82.4135C254.669 82.4706 255.036 82.6254 255.346 82.8631C255.657 83.1009 255.902 83.4136 256.057 83.7717C256.493 84.5492 256.732 85.4206 256.753 86.3105C256.791 88.2147 255.916 89.9918 254.581 90.4488C254.333 90.5349 254.068 90.5643 253.807 90.5346C253.546 90.5049 253.295 90.417 253.073 90.2774C252.76 90.087 252.703 89.8839 252.735 89.8649Z" fill="#EBA36E"/>
<path d="M244.897 52.887C246.89 48.9836 240.144 44.1662 235.41 43.0999C230.677 42.0336 224.787 44.7692 220.328 46.6606C217.511 47.8538 214.739 49.4215 211.679 49.5421C209.628 49.631 207.616 49.0534 205.63 48.533C203.643 48.0125 201.586 47.5428 199.555 47.8538C197.523 48.1648 195.511 49.4089 194.898 51.3574C194.284 53.3059 195.6 55.8003 197.651 55.9019C194.949 54.7023 191.359 56.8603 191.186 59.799C191.014 62.7376 194.304 65.3082 197.134 64.4513C195.722 63.5564 193.818 65.378 194.125 66.9902C194.431 68.6023 196.041 69.7067 197.606 70.2462C201.65 71.6235 206.147 70.7095 210.069 69.0275C213.991 67.3456 217.55 64.9401 221.427 63.1629C225.305 61.3857 231.788 58.2376 235.915 59.3102C238.956 60.1036 241.307 63.4739 242.942 62.5536C243.696 62.067 244.324 61.4116 244.777 60.64C245.229 59.8684 245.494 59.0021 245.548 58.1106C245.626 56.3318 245.41 54.5522 244.909 52.8426" fill="#263238"/>
<path d="M196.501 55.7369C196.578 55.6862 197.038 56.3717 198.137 57.3872C199.696 58.7763 201.573 59.7675 203.605 60.2751C206.594 61.0772 209.78 60.6878 212.484 59.1897C215.544 57.5141 218.029 54.4549 220.935 51.5352C223.842 48.6156 227.355 46.2926 231.022 45.6579C234.689 45.0232 238.164 46.0641 240.208 47.9936C241.017 48.7394 241.667 49.6399 242.118 50.641C242.569 51.6422 242.813 52.7234 242.833 53.8202C242.827 54.4111 242.739 54.9984 242.571 55.5656C242.431 55.9401 242.341 56.1305 242.31 56.1178C242.423 55.3615 242.477 54.5975 242.469 53.8328C242.301 51.7682 241.335 49.8485 239.774 48.4759C237.857 46.7622 234.574 45.8419 231.175 46.4893C227.777 47.1367 224.423 49.3074 221.593 52.2017C218.763 55.0959 216.183 58.1996 212.906 59.9514C210.485 61.217 207.72 61.6775 205.016 61.2651C202.313 60.8526 199.814 59.589 197.887 57.6601C197.48 57.2411 197.114 56.7841 196.795 56.2955C196.571 55.9401 196.476 55.756 196.501 55.7369Z" fill="#455A64"/>
<path d="M251.822 79.5637C251.79 79.5955 251.394 79.3416 250.979 78.6307C250.426 77.6117 250.17 76.4603 250.238 75.3049C250.193 72.2964 252.588 68.869 252.582 64.7117C252.662 62.7826 252.14 60.8762 251.087 59.2532C250.176 57.9732 248.868 57.0255 247.363 56.5557C246.344 56.226 245.255 56.1691 244.207 56.3907C243.466 56.5748 243.083 56.7779 243.038 56.708C242.993 56.6382 243.344 56.3526 244.105 56.0733C245.213 55.6951 246.409 55.6531 247.542 55.9527C249.243 56.383 250.742 57.3855 251.784 58.7899C252.986 60.5394 253.591 62.6265 253.508 64.7434C253.441 66.8056 252.995 68.8382 252.192 70.7413C251.557 72.219 251.127 73.7756 250.915 75.3683C250.621 78.1039 251.95 79.5066 251.822 79.5637Z" fill="#455A64"/>
<path d="M257.251 85.1425L255.728 83.7403C255.175 83.2305 254.31 83.2632 253.796 83.8134L248.087 89.9356C247.574 90.4858 247.606 91.3453 248.16 91.8551L249.683 93.2573C250.237 93.7672 251.102 93.7345 251.615 93.1842L257.325 87.062C257.838 86.5118 257.805 85.6524 257.251 85.1425Z" fill="#263238"/>
<path d="M309.92 165.592C309.92 165.592 309.92 165.718 309.958 165.966C309.997 166.214 310.003 166.601 310.041 167.058C310.112 168.029 310.208 169.457 310.342 171.31C310.597 175.042 310.98 180.494 311.434 187.406C311.888 194.318 312.437 202.69 313.076 212.255C313.229 214.646 313.391 217.11 313.561 219.649C313.657 220.919 313.708 222.188 313.766 223.521C313.801 224.178 313.801 224.837 313.766 225.495C313.765 226.163 313.728 226.83 313.657 227.494L313.408 229.513C313.261 230.179 313.114 230.852 312.974 231.525C312.833 232.197 312.552 232.845 312.335 233.511C312.118 234.178 311.798 234.812 311.453 235.415C310.112 237.884 308.023 240.195 305.123 241.128H305.084H242.591H222.788H222.571L222.628 240.918C223.235 238.773 223.835 236.653 224.429 234.539C224.732 233.486 225.028 232.428 225.317 231.366C225.641 230.342 225.889 229.296 226.058 228.237C226.365 226.145 226.177 224.011 225.509 222.004C225.198 221.02 224.69 220.109 224.014 219.326C223.362 218.549 222.459 218.022 221.459 217.834L220.15 217.631L221.427 217.523L245.031 215.555H244.96C246.436 214.475 248.239 213.926 250.071 214C251.82 214.093 253.516 214.631 254.996 215.562H254.887L274.901 211.817L274.812 211.969C274.585 211.209 274.469 210.42 274.467 209.627C274.443 208.871 274.464 208.115 274.531 207.361C274.644 205.92 274.846 204.487 275.137 203.071V203.147C273.534 200.17 272.065 197.435 270.704 194.934V194.896C270.391 187.578 270.276 181.808 270.334 177.873C270.334 175.905 270.429 174.395 270.532 173.379C270.56 172.995 270.618 172.613 270.704 172.237C270.762 171.983 270.794 171.856 270.794 171.856C270.794 171.856 270.794 171.989 270.73 172.243C270.655 172.62 270.606 173.002 270.583 173.386C270.493 174.401 270.436 175.924 270.429 177.873C270.429 181.808 270.544 187.578 270.883 194.889V194.851C272.244 197.358 273.726 200.075 275.355 203.045V203.083C275.065 204.5 274.863 205.933 274.748 207.374C274.684 208.121 274.664 208.871 274.69 209.621C274.695 210.39 274.809 211.155 275.029 211.893L275.067 212.02H274.939L254.932 215.828H254.881L254.83 215.797C253.393 214.897 251.748 214.381 250.052 214.299C248.294 214.23 246.565 214.761 245.152 215.803H245.114H245.075L221.478 217.796V217.485C222.557 217.677 223.533 218.238 224.238 219.072C224.941 219.889 225.471 220.839 225.796 221.864C226.483 223.918 226.678 226.102 226.365 228.243C226.196 229.318 225.946 230.379 225.618 231.417C225.324 232.466 225.028 233.524 224.73 234.59C224.133 236.706 223.535 238.822 222.935 240.937L222.775 240.728H242.578L305.072 240.772C306.431 240.311 307.669 239.552 308.694 238.551C309.707 237.57 310.558 236.437 311.217 235.193C311.555 234.558 311.798 233.924 312.086 233.289C312.373 232.654 312.52 231.982 312.724 231.328C312.929 230.674 313.012 230.001 313.159 229.341C313.306 228.681 313.325 228.002 313.408 227.342C313.481 226.684 313.519 226.023 313.523 225.362C313.558 224.708 313.558 224.054 313.523 223.4C313.465 222.099 313.421 220.817 313.325 219.548C313.167 217.009 313.01 214.542 312.852 212.147C312.213 202.582 311.709 194.204 311.268 187.286C310.827 180.367 310.495 174.922 310.259 171.19C310.15 169.336 310.061 167.902 310.003 166.931C310.003 166.455 309.958 166.093 309.946 165.839C309.933 165.585 309.92 165.592 309.92 165.592Z" fill="#263238"/>
<path d="M291.829 131.007C291.463 131.262 291.084 131.497 290.692 131.711C289.659 132.346 288.671 133.05 287.735 133.818C284.669 136.389 282.075 139.469 280.069 142.92C278.081 146.376 276.372 149.984 274.959 153.71L273.63 157.087L273.259 158.007C273.224 158.116 273.175 158.221 273.112 158.318C273.124 158.202 273.152 158.089 273.195 157.981C273.278 157.734 273.387 157.423 273.508 157.042C273.79 156.23 274.198 155.062 274.741 153.621C276.096 149.852 277.782 146.21 279.781 142.736C281.8 139.252 284.441 136.164 287.575 133.621C288.532 132.864 289.548 132.185 290.616 131.59C290.986 131.368 291.299 131.235 291.497 131.133C291.603 131.079 291.714 131.036 291.829 131.007Z" fill="#263238"/>
<g opacity="0.3">
<path opacity="0.3" d="M266.827 155.246C264.171 161.213 262.946 167.712 263.249 174.23C263.492 180.678 264.271 187.146 263.633 193.576C262.994 200.005 260.752 206.562 255.929 210.884C255.305 211.355 254.777 211.939 254.37 212.604C254.174 212.941 254.098 213.333 254.152 213.718C254.207 214.104 254.389 214.46 254.67 214.73C254.973 214.899 255.307 215.004 255.651 215.04C255.996 215.076 256.345 215.042 256.676 214.94C261.295 214.14 265.971 213.569 270.595 212.775C271.586 212.604 274.914 211.957 274.914 211.957C274.684 210.701 274.59 209.424 274.633 208.148C274.78 207 275.233 203.071 275.233 203.071C275.015 202.487 274.716 201.936 274.345 201.433C272.614 198.371 271.324 195.083 270.512 191.665C268.935 188.46 268.226 185.236 267.491 182.24C265.466 173.919 265.523 165.737 266.814 155.195" fill="black"/>
</g>
<g opacity="0.3">
<path opacity="0.3" d="M216.189 145.77C216.566 146.722 216.949 147.674 217.326 148.632C217.365 148.782 217.433 148.923 217.527 149.046C217.622 149.169 217.74 149.273 217.875 149.349C218.444 149.565 218.898 148.873 219.153 148.328C219.7 147.258 220.502 146.338 221.49 145.649C222.478 144.96 223.621 144.522 224.819 144.373C226.736 144.151 228.754 144.71 230.664 144.316C229.011 143.25 227.241 142.375 225.388 141.708C223.519 141.035 221.476 141.015 219.594 141.651C218.666 141.982 217.848 142.563 217.231 143.328C216.614 144.093 216.223 145.013 216.1 145.986" fill="black"/>
</g>
<g opacity="0.3">
<path opacity="0.3" d="M231.98 143.364C234.252 143.33 236.52 143.543 238.745 143.999C240.987 144.45 243.02 145.613 244.539 147.312C246.085 149.184 246.66 151.641 247.286 153.976C247.407 154.427 247.624 154.96 248.084 155.011C248.368 155.01 248.642 154.904 248.851 154.713C252.684 151.92 255.201 147.648 256.58 143.142C257.96 138.636 258.28 133.888 258.356 129.178C256.529 132.422 255.737 136.116 254.523 139.632C253.31 143.148 251.54 146.69 248.41 148.721C248.445 148.321 248.4 147.918 248.277 147.536C248.154 147.153 247.956 146.799 247.695 146.493C247.172 145.882 246.542 145.371 245.836 144.983C243.717 143.728 241.358 142.927 238.91 142.628C236.461 142.33 233.977 142.542 231.616 143.25" fill="black"/>
</g>
<path d="M222.053 218.126H214.228C214.228 218.126 196.578 211.779 192.949 212.414C189.679 212.96 177.714 220.855 175.37 222.423C175.108 222.596 174.909 222.847 174.801 223.14C174.569 223.759 174.589 224.443 174.856 225.047C175.123 225.651 175.617 226.128 176.232 226.377L176.475 226.479L176.373 226.834C176.229 227.294 176.167 227.775 176.187 228.256C176.219 228.616 176.365 228.957 176.603 229.229C176.842 229.502 177.161 229.693 177.516 229.775C177.87 229.856 178.241 229.825 178.576 229.684C178.911 229.544 179.193 229.301 179.381 228.992L178.934 229.792C178.748 230.115 178.661 230.486 178.685 230.858L178.723 231.575C178.745 231.969 178.886 232.347 179.128 232.66C179.369 232.972 179.7 233.205 180.078 233.327C180.437 233.438 180.821 233.443 181.183 233.343C181.546 233.243 181.871 233.041 182.122 232.762C183.642 231.106 186.919 227.786 189.149 227.418C191.552 227.13 193.972 227.009 196.393 227.056C196.886 227.058 197.367 227.208 197.774 227.485C198.18 227.762 198.494 228.155 198.673 228.611C197.357 228.707 188.184 233.46 184.939 235.161C184.436 235.41 184.002 235.776 183.674 236.228C183.345 236.68 183.133 237.205 183.054 237.757C182.933 238.767 183.444 239.82 185.456 239.357C189.768 238.354 197.53 234.812 197.53 234.812C197.53 234.812 201.529 233.676 204.122 235.492C207.77 238.03 209.443 238.989 212.573 237.954C214.479 237.316 216.304 236.464 218.016 235.415L224.187 234.781C224.187 234.781 230.032 220.347 222.053 218.126Z" fill="#FFBE9D"/>
<path d="M198.731 221.084C198.731 221.153 197.453 220.76 195.415 220.627C192.726 220.447 190.032 220.901 187.553 221.953C185.075 223.004 182.881 224.622 181.151 226.675C180.452 227.541 179.797 228.441 179.19 229.373C179.287 229.088 179.418 228.815 179.579 228.56C179.984 227.846 180.447 227.167 180.966 226.529C182.677 224.396 184.896 222.719 187.421 221.649C189.947 220.579 192.7 220.149 195.434 220.398C196.255 220.468 197.069 220.604 197.868 220.804C198.165 220.866 198.454 220.96 198.731 221.084Z" fill="#EBA36E"/>
<path d="M196.878 216.825C194.959 216.228 192.929 216.067 190.938 216.355C188.948 216.643 187.048 217.372 185.38 218.488C182.997 220.011 180.828 221.84 178.928 223.927L177.152 225.781C176.949 226.014 176.722 226.227 176.475 226.415C176.649 226.151 176.843 225.901 177.056 225.666C177.446 225.197 178.021 224.53 178.755 223.724C180.631 221.568 182.81 219.693 185.226 218.158C187.684 216.634 190.539 215.865 193.435 215.949C194.304 215.993 195.163 216.151 195.99 216.419C196.208 216.488 196.421 216.571 196.629 216.666L196.878 216.825Z" fill="#EBA36E"/>
<path d="M359.508 236.747C357.84 236.949 356.318 237.789 355.266 239.09C354.757 239.744 354.433 240.521 354.329 241.342C354.224 242.162 354.343 242.995 354.672 243.755C355.029 244.502 355.631 245.108 356.379 245.472C357.128 245.836 357.978 245.938 358.792 245.76C358.812 246.354 359.061 246.918 359.488 247.335C359.914 247.752 360.486 247.99 361.084 248C361.683 248.009 362.262 247.79 362.702 247.388C363.142 246.985 363.41 246.43 363.449 245.836C363.832 246.274 364.345 246.581 364.913 246.713C365.482 246.845 366.078 246.796 366.616 246.573C367.155 246.349 367.609 245.963 367.915 245.468C368.22 244.974 368.361 244.397 368.317 243.818C368.266 243.088 367.928 242.409 367.844 241.692C367.833 240.897 367.863 240.103 367.934 239.312C367.961 238.914 367.868 238.517 367.668 238.171C367.468 237.826 367.169 237.547 366.81 237.37" fill="#263238"/>
<path d="M326.724 241.051C329.251 239.548 332.002 238.456 334.875 237.814C336.939 237.287 339.155 236.855 341.18 237.515C342.136 237.838 342.998 238.387 343.692 239.115C344.387 239.842 344.893 240.727 345.166 241.692C345.416 242.421 345.379 243.216 345.064 243.92C344.585 244.815 343.525 245.227 342.509 245.468C341.755 245.659 340.784 245.716 340.363 245.062C340.112 245.377 339.799 245.637 339.443 245.826C339.087 246.015 338.695 246.128 338.292 246.159C337.889 246.19 337.485 246.138 337.103 246.006C336.722 245.874 336.372 245.665 336.076 245.392C335.803 246.024 335.307 246.535 334.681 246.828C334.054 247.12 333.342 247.175 332.678 246.981C332.014 246.787 331.444 246.358 331.077 245.775C330.71 245.193 330.57 244.496 330.685 243.818C330.383 244.254 329.974 244.606 329.496 244.841C329.019 245.075 328.489 245.184 327.957 245.157C327.429 245.112 326.928 244.904 326.524 244.563C326.12 244.221 325.833 243.764 325.702 243.253C325.609 242.732 325.712 242.196 325.991 241.745C326.27 241.295 326.706 240.962 327.216 240.81" fill="#263238"/>
<path d="M302.82 240.645C302.503 239.304 302.592 237.899 303.076 236.608C303.56 235.317 304.418 234.198 305.542 233.39C308.097 231.556 309.911 229.423 313.245 227.449C315.854 226.048 318.584 224.882 321.403 223.965C327.951 221.807 332.378 221.261 335.067 219.858C338.012 218.328 341.947 215.917 341.947 215.917L375.369 218.493C375.369 218.493 379.387 243.018 373.305 245.418C373.305 245.418 344.981 245.71 342.758 244.732C340.343 243.672 303.491 243.691 303.6 243.932L302.82 240.645Z" fill="#263238"/>
<path d="M320.911 235.96C314.98 236.948 308.974 237.428 302.961 237.395C300.844 237.323 298.726 237.459 296.637 237.801C295.36 238.002 294.165 238.554 293.187 239.394C292.707 239.824 292.36 240.38 292.187 240.998C292.014 241.617 292.022 242.271 292.21 242.885C292.663 244.078 294.254 244.789 295.346 244.123C295.441 244.622 295.686 245.082 296.047 245.442C296.408 245.802 296.87 246.046 297.372 246.143C297.875 246.239 298.395 246.184 298.865 245.983C299.335 245.782 299.734 245.446 300.009 245.018C300.266 245.292 300.59 245.495 300.95 245.606C301.309 245.718 301.692 245.734 302.06 245.652C302.791 245.477 303.496 245.206 304.155 244.846C307.068 243.494 310.166 243.831 313.386 243.85C319.007 243.888 325.37 243.85 323.025 243.85" fill="#263238"/>
<path d="M323.025 243.856C323.182 243.836 323.34 243.825 323.498 243.824C323.498 243.939 323.498 243.856 323.498 243.882H323.268H322.949H322.163L317.053 243.939H313.463C312.185 243.939 310.767 243.875 309.298 243.939C307.748 243.945 306.211 244.217 304.756 244.745C304.001 245.109 303.227 245.433 302.437 245.716C301.999 245.843 301.538 245.869 301.089 245.792C300.612 245.715 300.178 245.469 299.869 245.1H300.137C299.847 245.561 299.423 245.923 298.921 246.14C298.42 246.357 297.864 246.418 297.327 246.316C296.79 246.214 296.296 245.953 295.911 245.567C295.525 245.181 295.266 244.689 295.167 244.154L295.423 244.262C295.001 244.485 294.52 244.573 294.046 244.515C293.572 244.457 293.127 244.256 292.772 243.939C292.297 243.548 291.985 242.996 291.897 242.39C291.816 241.803 291.893 241.205 292.12 240.657C292.584 239.607 293.431 238.77 294.49 238.315C295.478 237.88 296.527 237.597 297.601 237.477C298.618 237.344 299.642 237.272 300.667 237.262C304.647 237.262 308.224 237.224 311.22 237.001C314.216 236.779 316.637 236.481 318.305 236.271L320.221 236.024L320.719 235.967H320.892L320.726 236.011L320.227 236.1L318.311 236.405C316.644 236.652 314.229 237.001 311.227 237.243C308.224 237.484 304.628 237.541 300.661 237.573C299.648 237.588 298.637 237.662 297.633 237.795C296.592 237.915 295.576 238.191 294.618 238.614C293.632 239.034 292.843 239.813 292.414 240.791C292.183 241.27 292.112 241.811 292.214 242.333C292.315 242.855 292.582 243.331 292.976 243.691C293.276 243.964 293.653 244.139 294.057 244.193C294.46 244.246 294.87 244.175 295.231 243.989L295.436 243.856L295.48 244.097C295.567 244.567 295.795 245 296.133 245.339C296.472 245.678 296.905 245.908 297.377 245.998C297.849 246.089 298.338 246.036 298.779 245.846C299.22 245.656 299.593 245.339 299.85 244.935L299.971 244.745L300.112 244.922C300.394 245.212 300.755 245.414 301.15 245.505C301.546 245.596 301.959 245.573 302.341 245.437C303.121 245.158 303.887 244.84 304.634 244.485C306.123 243.948 307.695 243.678 309.278 243.685C310.767 243.653 312.159 243.736 313.456 243.742L317.04 243.774L322.15 243.812H322.936H323.485C323.485 243.812 323.485 243.755 323.485 243.869C323.332 243.879 323.178 243.875 323.025 243.856Z" fill="#455A64"/>
<path d="M367.741 242.555C367.895 242.695 368.023 242.86 368.118 243.044C368.398 243.569 368.505 244.168 368.425 244.757C368.371 245.181 368.225 245.588 367.997 245.951C367.723 246.383 367.325 246.724 366.853 246.928C366.281 247.171 365.647 247.231 365.039 247.102C364.43 246.972 363.877 246.659 363.455 246.205L363.685 246.16C363.512 246.677 363.179 247.126 362.734 247.445C362.289 247.764 361.755 247.935 361.206 247.935C360.658 247.935 360.124 247.764 359.679 247.445C359.234 247.126 358.901 246.677 358.728 246.16L358.92 246.262C357.15 246.7 355.17 245.513 354.448 243.723C354.196 243.072 354.09 242.374 354.137 241.678C354.184 240.981 354.384 240.304 354.723 239.693C355.324 238.547 356.253 237.604 357.393 236.982C358.416 236.433 359.534 236.082 360.689 235.948C361.685 235.827 362.692 235.81 363.691 235.897C365.126 236.032 366.553 236.244 367.965 236.532L369.115 236.754C369.249 236.777 369.381 236.809 369.511 236.849C369.375 236.867 369.238 236.867 369.102 236.849L367.939 236.684C366.93 236.538 365.48 236.259 363.672 236.132C361.565 235.913 359.438 236.301 357.546 237.249C356.455 237.841 355.565 238.742 354.991 239.838C354.673 240.407 354.485 241.039 354.439 241.688C354.394 242.338 354.493 242.989 354.729 243.596C355.419 245.246 357.284 246.331 358.843 245.938H358.99L359.035 246.078C359.199 246.553 359.512 246.963 359.929 247.248C360.345 247.534 360.842 247.68 361.347 247.664C361.807 247.63 362.248 247.465 362.617 247.19C362.986 246.914 363.268 246.539 363.43 246.109L363.506 245.887L363.659 246.065C364.043 246.483 364.546 246.775 365.101 246.899C365.656 247.024 366.237 246.977 366.764 246.763C367.165 246.587 367.514 246.311 367.777 245.962C368.04 245.613 368.208 245.202 368.265 244.77C368.359 244.21 368.281 243.635 368.042 243.12C367.869 242.726 367.722 242.568 367.741 242.555Z" fill="#455A64"/>
<path d="M372.744 236.195C372.705 236.233 372.36 235.897 371.689 235.56C370.829 235.08 369.849 234.851 368.864 234.9C367.878 234.949 366.926 235.275 366.119 235.84C365.48 236.271 365.18 236.639 365.135 236.601C365.333 236.222 365.623 235.897 365.978 235.656C366.796 235.003 367.799 234.624 368.846 234.57C369.893 234.517 370.93 234.792 371.811 235.357C372.186 235.556 372.507 235.844 372.744 236.195Z" fill="#455A64"/>
<path d="M326.603 244.935C326.514 244.889 326.431 244.834 326.354 244.77C326.14 244.587 325.955 244.373 325.804 244.135C325.541 243.676 325.374 243.17 325.313 242.645C325.251 242.121 325.297 241.589 325.446 241.083C325.969 239.594 327.042 238.359 328.449 237.63C329.969 236.722 331.834 236.221 333.642 235.421C337.686 233.557 340.878 230.252 342.585 226.161C342.711 225.804 342.86 225.456 343.033 225.12C343.022 225.217 343 225.313 342.969 225.405C342.911 225.589 342.841 225.869 342.707 226.205C342.355 227.179 341.903 228.115 341.359 228.998C339.567 231.947 336.923 234.292 333.77 235.726C331.924 236.538 330.071 236.995 328.596 237.89C327.244 238.574 326.199 239.736 325.664 241.146C325.353 242.115 325.441 243.167 325.906 244.072C326.102 244.387 326.336 244.677 326.603 244.935Z" fill="#455A64"/>
<path d="M339.916 244.732C340.13 244.954 340.375 245.145 340.644 245.297C341.014 245.48 341.421 245.579 341.834 245.586C342.248 245.592 342.658 245.507 343.033 245.335C343.569 245.044 344.01 244.607 344.303 244.075C344.596 243.542 344.73 242.938 344.688 242.333C344.674 241.615 344.474 240.913 344.107 240.295C343.703 239.631 343.161 239.059 342.516 238.62C341.242 237.78 339.745 237.338 338.217 237.35C336.961 237.37 335.715 237.56 334.511 237.915C333.476 238.207 332.652 238.499 332.084 238.69C331.791 238.806 331.49 238.899 331.183 238.969C331.451 238.807 331.736 238.673 332.033 238.569C332.595 238.341 333.406 238.017 334.447 237.693C335.666 237.299 336.936 237.085 338.217 237.058C339.808 237.034 341.369 237.495 342.688 238.379C343.376 238.842 343.952 239.452 344.375 240.162C344.767 240.831 344.976 241.59 344.982 242.365C345.023 243.023 344.868 243.678 344.536 244.249C344.204 244.821 343.71 245.282 343.116 245.576C342.71 245.755 342.267 245.836 341.823 245.813C341.379 245.79 340.947 245.663 340.561 245.443C340.357 245.32 340.175 245.164 340.024 244.98C339.948 244.815 339.909 244.745 339.916 244.732Z" fill="#455A64"/>
<path d="M336.191 245.195C336.49 245.5 336.855 245.735 337.258 245.88C337.679 246.05 338.133 246.125 338.587 246.102C338.851 246.064 339.103 245.968 339.324 245.819C339.546 245.671 339.73 245.475 339.864 245.245C339.991 245.007 340.068 244.747 340.091 244.478C340.114 244.21 340.083 243.94 339.999 243.684C339.859 243.246 339.643 242.836 339.36 242.472C339.065 242.15 338.792 241.809 338.542 241.451C338.927 241.678 339.265 241.975 339.539 242.326C339.873 242.694 340.127 243.126 340.286 243.596C340.39 243.891 340.431 244.205 340.408 244.517C340.385 244.829 340.298 245.133 340.152 245.41C339.99 245.684 339.765 245.917 339.497 246.09C339.229 246.262 338.924 246.371 338.606 246.407C338.102 246.424 337.602 246.317 337.149 246.096C336.842 245.961 336.565 245.764 336.338 245.518C336.198 245.322 336.172 245.201 336.191 245.195Z" fill="#455A64"/>
<path d="M330.825 244.009C330.835 244.176 330.835 244.343 330.825 244.51C330.824 244.957 330.946 245.396 331.177 245.779C331.338 246.06 331.558 246.303 331.821 246.493C332.084 246.684 332.385 246.817 332.703 246.884C333.092 246.966 333.494 246.962 333.882 246.873C334.269 246.784 334.632 246.613 334.946 246.37C335.568 245.853 335.963 245.115 336.044 244.313C336.11 243.656 335.981 242.995 335.674 242.409C335.362 241.873 334.97 241.388 334.511 240.968C334.511 240.968 334.69 241.025 334.958 241.229C335.331 241.524 335.643 241.889 335.878 242.301C336.245 242.917 336.41 243.632 336.351 244.345C336.315 244.785 336.19 245.213 335.985 245.604C335.78 245.995 335.498 246.342 335.156 246.624C334.8 246.902 334.386 247.097 333.943 247.193C333.501 247.29 333.042 247.286 332.601 247.182C332.248 247.103 331.917 246.948 331.63 246.729C331.343 246.51 331.108 246.231 330.94 245.913C330.708 245.49 330.613 245.007 330.665 244.529C330.669 244.344 330.724 244.164 330.825 244.009Z" fill="#455A64"/>
<path d="M344.093 221.629C344.093 221.629 351.165 229.366 359.935 228.388C368.706 227.411 375.477 218.957 375.477 218.957C376.825 216.83 376.269 214.634 375.848 213.01C375.426 211.385 374.621 209.836 374.615 208.148C374.615 206.713 375.183 205.349 375.599 203.978C376.525 200.906 376.672 197.631 376.812 194.457C376.87 193.08 376.812 191.442 375.624 190.706C375.247 190.5 374.824 190.388 374.394 190.381C373.963 190.373 373.537 190.469 373.152 190.662C372.386 191.049 371.694 191.567 371.108 192.191C368.464 194.712 365.983 197.396 363.679 200.227C361.866 199.017 359.695 198.453 357.518 198.627C355.342 198.801 353.289 199.703 351.695 201.185C347.945 199.624 346.706 194.4 342.867 193.061C342.457 192.884 342.011 192.808 341.566 192.84C341.121 192.872 340.691 193.011 340.311 193.245C339.372 193.943 339.321 195.289 339.359 196.45C339.519 201.674 339.711 207.05 341.851 211.823C341.399 213.433 341.348 215.128 341.702 216.762C342.056 218.396 342.804 219.921 343.882 221.204" fill="#263238"/>
<path d="M356.952 222.733C357.417 222.052 358.109 221.556 358.905 221.331C359.702 221.106 360.553 221.166 361.309 221.502C361.501 221.574 361.67 221.694 361.801 221.851C361.865 221.93 361.903 222.026 361.911 222.126C361.919 222.227 361.896 222.328 361.846 222.416C361.805 222.372 361.755 222.337 361.701 222.313C361.646 222.289 361.586 222.277 361.526 222.277C361.466 222.277 361.407 222.289 361.352 222.313C361.297 222.337 361.247 222.372 361.207 222.416C361.049 222.611 360.97 222.857 360.983 223.107C360.994 223.356 360.966 223.604 360.9 223.843C360.845 223.979 360.759 224.099 360.648 224.194C360.537 224.289 360.404 224.356 360.261 224.389C360.114 224.414 359.962 224.402 359.821 224.355C359.679 224.307 359.552 224.225 359.45 224.116C359.291 223.909 359.162 223.68 359.067 223.437C359.019 223.316 358.944 223.206 358.848 223.117C358.752 223.028 358.636 222.962 358.511 222.923C358.29 222.909 358.069 222.955 357.872 223.057C357.685 223.153 357.467 223.174 357.265 223.114C357.073 223.025 356.984 222.727 357.156 222.612" fill="#455A64"/>
<path d="M360.197 223.698C360.248 223.698 360.236 223.977 360.338 224.39C360.462 224.922 360.756 225.401 361.176 225.754C361.596 226.108 362.12 226.317 362.67 226.351C363.098 226.382 363.372 226.319 363.385 226.351C363.398 226.382 363.142 226.535 362.67 226.566C362.047 226.591 361.436 226.385 360.957 225.989C360.484 225.588 360.18 225.023 360.108 224.409C360.057 223.965 360.146 223.692 360.197 223.698Z" fill="#455A64"/>
<path d="M360.248 223.286C360.28 223.286 360.466 223.577 360.485 224.142C360.498 224.513 360.43 224.883 360.288 225.226C360.145 225.569 359.93 225.878 359.657 226.131C359.384 226.385 359.059 226.578 358.705 226.697C358.351 226.815 357.976 226.858 357.604 226.82C357.035 226.763 356.741 226.554 356.76 226.522C356.78 226.49 357.093 226.592 357.61 226.585C358.287 226.608 358.945 226.362 359.439 225.903C359.934 225.444 360.225 224.808 360.248 224.136C360.293 223.622 360.191 223.298 360.248 223.286Z" fill="#455A64"/>
<path d="M373.779 226.192C370.789 224.897 367.485 224.487 364.266 225.012C364.707 224.813 365.177 224.687 365.659 224.637C367.981 224.275 370.358 224.567 372.52 225.481C372.977 225.647 373.402 225.887 373.779 226.192Z" fill="#455A64"/>
<path d="M377.848 224.472C377.848 224.523 377.043 224.326 375.759 224.104C372.414 223.502 368.992 223.444 365.627 223.933C364.349 224.117 363.545 224.282 363.532 224.231C363.703 224.144 363.886 224.082 364.075 224.047C364.426 223.939 364.944 223.825 365.589 223.698C368.974 223.081 372.448 223.139 375.81 223.869C376.449 224.015 376.967 224.155 377.318 224.269C377.504 224.311 377.682 224.379 377.848 224.472Z" fill="#455A64"/>
<path d="M380 219.972C380 220.023 379.029 219.972 377.445 219.972C375.426 219.956 373.41 220.121 371.421 220.467C369.426 220.814 367.49 221.44 365.672 222.327C364.286 223.018 363.513 223.596 363.481 223.545C363.633 223.377 363.807 223.23 363.998 223.107C364.498 222.745 365.021 222.414 365.563 222.117C367.364 221.164 369.304 220.496 371.312 220.137C373.323 219.788 375.367 219.654 377.406 219.737C378.186 219.737 378.818 219.814 379.246 219.858C379.501 219.865 379.754 219.903 380 219.972Z" fill="#455A64"/>
<path d="M343.371 230.089C343.371 230.089 343.493 229.943 343.748 229.721C344.11 229.414 344.49 229.127 344.885 228.864C347.511 227.111 350.562 226.087 353.72 225.9C354.195 225.872 354.671 225.872 355.145 225.9C355.322 225.895 355.498 225.917 355.669 225.964C355.669 226.021 354.928 226.021 353.752 226.135C350.659 226.449 347.676 227.451 345.026 229.067C343.997 229.651 343.41 230.089 343.371 230.089Z" fill="#455A64"/>
<path d="M342.835 226.535C342.835 226.535 343.001 226.421 343.32 226.281C343.64 226.141 344.112 225.957 344.706 225.754C347.826 224.731 351.13 224.378 354.398 224.72C355.036 224.79 355.522 224.866 355.861 224.936C356.044 224.958 356.222 225.007 356.391 225.082C356.391 225.132 355.618 225.031 354.372 224.948C352.76 224.851 351.143 224.885 349.536 225.05C347.929 225.228 346.339 225.538 344.783 225.976C344.143 226.195 343.493 226.381 342.835 226.535Z" fill="#455A64"/>
<path d="M338.382 225.049C338.582 224.924 338.797 224.821 339.021 224.745C339.637 224.5 340.266 224.288 340.905 224.11C345.134 222.917 349.591 222.763 353.892 223.66C354.716 223.837 355.368 224.009 355.809 224.155C356.047 224.208 356.277 224.294 356.492 224.409C356.492 224.466 355.483 224.18 353.841 223.888C349.568 223.147 345.186 223.314 340.982 224.377C339.372 224.751 338.427 225.1 338.382 225.049Z" fill="#455A64"/>
<path d="M355.413 216.348C355.157 216.667 354.816 216.909 354.429 217.046C353.519 217.455 352.495 217.543 351.528 217.293C350.561 217.044 349.709 216.473 349.114 215.675C348.844 215.368 348.665 214.992 348.597 214.59C348.648 214.59 348.833 214.99 349.299 215.529C349.901 216.237 350.709 216.742 351.612 216.975C352.514 217.208 353.467 217.157 354.34 216.83C355.036 216.583 355.381 216.303 355.413 216.348Z" fill="#455A64"/>
<path d="M369.639 213.302C369.74 213.685 369.701 214.092 369.53 214.45C369.358 214.894 369.096 215.298 368.761 215.639C368.426 215.979 368.025 216.248 367.582 216.43C366.711 216.784 365.776 216.954 364.835 216.931C364.451 216.961 364.066 216.931 363.691 216.843C364.062 216.742 364.445 216.693 364.829 216.697C365.725 216.654 366.608 216.463 367.441 216.132C368.263 215.79 368.929 215.16 369.313 214.361C369.441 214.014 369.55 213.66 369.639 213.302Z" fill="#455A64"/>
<path d="M344.885 203.946C345.296 203.543 345.654 203.091 345.952 202.601C346.262 202.068 346.4 201.455 346.348 200.842C346.23 200.208 345.95 199.614 345.537 199.116C344.553 197.77 343.371 196.578 342.03 195.581C342.03 195.581 341.02 194.819 340.567 195.581C340.26 196.088 340.452 204.422 341.621 204.955C342.79 205.488 344.885 203.946 344.885 203.946Z" fill="#455A64"/>
<path d="M373.874 192.007C372.009 193.461 371.319 195.961 369.894 197.866C369.641 198.202 369.427 198.566 369.255 198.951C369.074 199.338 369.035 199.776 369.147 200.189C369.314 200.599 369.592 200.955 369.952 201.217C370.695 201.835 371.529 202.338 372.424 202.708C372.424 202.708 374.341 203.299 374.871 201.553C375.401 199.808 375.126 191.055 373.874 192.007Z" fill="#455A64"/>
<path d="M314.517 227.989C312.268 228.331 307.075 227.475 305.574 225.92C304.072 224.365 304.481 221.927 305.305 219.826C306.129 217.726 307.394 215.821 308.499 213.841C310.313 210.522 311.629 206.859 311.732 203.089C311.834 199.319 310.601 195.416 307.899 192.75C305.197 190.084 300.968 188.885 297.422 190.249C294.51 191.373 292.255 194.692 293.379 197.612C294.088 199.427 295.857 200.576 297.103 202.055C297.975 203.124 298.593 204.375 298.911 205.715C299.23 207.054 299.24 208.448 298.943 209.792C298.304 212.705 296.202 215.123 295.417 218.005C294.222 222.397 296.388 227.271 300.041 230.026C303.695 232.781 308.538 233.599 313.086 233.066" fill="#263238"/>
<path d="M361.769 226.465C361.769 226.465 362.044 228.166 361.456 228.857C361.307 229.067 361.104 229.232 360.869 229.338C360.634 229.443 360.375 229.485 360.119 229.457C359.862 229.43 359.618 229.336 359.41 229.183C359.203 229.031 359.04 228.827 358.939 228.591C358.668 228.051 358.528 227.456 358.53 226.852C358.53 226.852 360.05 226.306 360.268 225.424C360.613 225.952 361.151 226.325 361.769 226.465Z" fill="#1C59F7"/>
<path d="M369.511 227.157C369.369 227.363 369.201 227.551 369.013 227.716C368.523 228.184 367.993 228.609 367.428 228.985C365.557 230.267 363.379 231.037 361.113 231.219C358.847 231.4 356.572 230.987 354.518 230.019C353.901 229.729 353.309 229.387 352.749 228.998C352.539 228.862 352.344 228.705 352.167 228.528C352.206 228.471 353.049 229.131 354.614 229.797C356.645 230.69 358.867 231.068 361.081 230.898C363.296 230.727 365.433 230.013 367.301 228.82C368.738 227.893 369.466 227.106 369.511 227.157Z" fill="#455A64"/>
<path d="M360.389 238.588C360.389 238.639 359.948 238.874 359.367 239.451C358.602 240.192 358.1 241.159 357.935 242.207C357.771 243.255 357.952 244.328 358.453 245.265C358.83 245.989 359.207 246.357 359.162 246.395C358.776 246.139 358.461 245.79 358.249 245.38C357.661 244.413 357.434 243.272 357.61 242.156C357.785 241.041 358.351 240.022 359.207 239.28C359.534 238.951 359.941 238.713 360.389 238.588Z" fill="#455A64"/>
<path d="M366.611 239.324C366.175 239.398 365.747 239.513 365.333 239.667C364.402 240.12 363.69 240.921 363.353 241.895C363.057 242.887 363.042 243.941 363.308 244.942C363.5 245.716 363.717 246.211 363.666 246.211C363.387 245.86 363.189 245.453 363.085 245.018C362.727 243.977 362.712 242.85 363.04 241.8C363.215 241.275 363.502 240.794 363.883 240.391C364.263 239.987 364.728 239.671 365.244 239.464C365.668 239.255 366.153 239.206 366.611 239.324Z" fill="#455A64"/>
<path d="M349.287 235.218C349.167 235.549 348.99 235.856 348.763 236.125C348.272 236.826 347.697 237.466 347.051 238.029C346.397 238.58 345.662 239.029 344.872 239.362C344.556 239.525 344.211 239.626 343.857 239.66C343.806 239.552 345.352 239.025 346.84 237.756C348.329 236.487 349.197 235.167 349.287 235.218Z" fill="#455A64"/>
<path d="M341.57 216.126C341.459 216.232 341.337 216.326 341.206 216.405C340.963 216.583 340.567 216.824 340.107 217.129C338.734 217.971 337.309 218.726 335.84 219.388C333.66 220.368 331.427 221.226 329.151 221.959C326.596 222.79 323.734 223.577 320.79 224.549C318.008 225.418 315.311 226.531 312.728 227.874C310.628 228.984 308.683 230.36 306.94 231.968C305.771 233.057 304.734 234.278 303.849 235.605C303.21 236.551 302.954 237.116 302.922 237.097C302.969 236.953 303.031 236.814 303.108 236.684C303.299 236.29 303.512 235.906 303.746 235.535C304.597 234.167 305.619 232.91 306.787 231.797C308.523 230.148 310.474 228.739 312.587 227.608C315.177 226.239 317.889 225.111 320.687 224.238C323.645 223.26 326.507 222.486 329.068 221.667C331.338 220.952 333.568 220.119 335.75 219.173C337.22 218.531 338.655 217.813 340.049 217.021C340.541 216.735 340.918 216.507 341.174 216.348C341.3 216.264 341.432 216.19 341.57 216.126Z" fill="#455A64"/>
<path d="M344.943 221.794C344.548 221.479 344.211 221.099 343.946 220.67C343.241 219.677 342.699 218.578 342.343 217.414C341.986 216.253 341.813 215.043 341.832 213.828C341.812 213.327 341.875 212.825 342.017 212.343C342.003 214.023 342.218 215.697 342.656 217.319C343.209 218.907 343.979 220.413 344.943 221.794Z" fill="#455A64"/>
<path d="M60.5326 223.242C54.2852 219.643 50.9506 211.271 50.6951 204.416C50.4396 197.562 53.3142 190.421 58.9995 186.492C64.9531 182.354 73.4364 182.43 79.5561 186.321C85.6758 190.212 89.2658 197.568 88.9848 204.784C88.7037 212.001 84.7495 218.888 78.8981 223.191" fill="#4ABAAD"/>
<path d="M70.5044 223.876C70.4142 223.359 70.3757 222.834 70.3894 222.309C70.3574 221.185 70.3127 219.77 70.268 218.037C70.1722 214.426 70.0316 209.443 69.7888 203.947C69.5461 198.45 69.2458 193.468 69.0159 189.869C68.9136 188.149 68.8306 186.695 68.7603 185.597C68.706 185.076 68.706 184.551 68.7603 184.03C68.8936 184.537 68.977 185.055 69.0095 185.578C69.1308 186.581 69.2842 188.035 69.4503 189.837C69.7825 193.43 70.1466 198.412 70.3894 203.921C70.6321 209.431 70.7088 214.419 70.696 218.031C70.696 219.833 70.696 221.3 70.6321 222.309C70.639 222.834 70.5962 223.359 70.5044 223.876Z" fill="white"/>
<path d="M52.5415 202.855C52.5415 203.014 51.5321 203.064 50.3183 202.963C49.1045 202.861 48.1271 202.652 48.1399 202.493C48.1527 202.335 49.1493 202.284 50.3631 202.385C51.5769 202.487 52.5543 202.696 52.5415 202.855Z" fill="#263238"/>
<path d="M52.8864 196.704C52.8161 196.85 51.96 196.615 50.9698 196.178C49.9796 195.74 49.2258 195.264 49.2897 195.118C49.3536 194.972 50.216 195.207 51.2062 195.645C52.1964 196.082 52.9502 196.584 52.8864 196.704Z" fill="#263238"/>
<path d="M56.0676 192.141C55.9845 192.274 55.0199 191.823 54.0105 190.998C53.0011 190.173 52.3815 189.31 52.4965 189.209C52.6114 189.107 53.41 189.748 54.413 190.548C55.416 191.347 56.157 192.007 56.0676 192.141Z" fill="#263238"/>
<path d="M59.2679 187.837C59.1209 187.901 58.629 187.203 58.233 186.232C57.8369 185.261 57.5941 184.455 57.7347 184.392C57.8752 184.328 58.3735 185.026 58.7696 185.997C59.1657 186.968 59.4148 187.774 59.2679 187.837Z" fill="#263238"/>
<path d="M64.2952 184.784C64.1482 184.848 63.6563 184.086 63.3177 183.027C62.9792 181.967 62.96 181.053 63.1133 181.028C63.2666 181.002 63.5541 181.833 63.8799 182.849C64.2057 183.864 64.4421 184.715 64.2952 184.784Z" fill="#263238"/>
<path d="M72.6763 181.351C72.8296 181.408 72.7338 182.062 72.4654 182.811C72.1971 183.56 71.8266 184.131 71.7052 184.08C71.5838 184.029 71.6477 183.369 71.916 182.621C72.1844 181.872 72.5229 181.288 72.6763 181.351Z" fill="#263238"/>
<path d="M78.8917 183.992C79.0004 184.112 78.6043 184.626 78.0038 185.204C77.4032 185.781 76.8219 186.111 76.7261 185.997C76.6302 185.883 77.0136 185.331 77.6141 184.779C78.2146 184.226 78.7831 183.89 78.8917 183.992Z" fill="#263238"/>
<path d="M84.3855 187.502C84.4749 187.635 83.9894 188.136 83.2995 188.587C82.6095 189.037 81.9707 189.316 81.8812 189.183C81.7918 189.05 82.2773 188.549 82.9673 188.104C83.6572 187.66 84.2769 187.368 84.3855 187.502Z" fill="#263238"/>
<path d="M88.2504 192.738C88.3143 192.89 87.5477 193.372 86.5383 193.778C85.5289 194.185 84.6601 194.413 84.6218 194.286C84.5835 194.159 85.3245 193.652 86.3339 193.245C87.3432 192.839 88.2185 192.592 88.2504 192.738Z" fill="#263238"/>
<path d="M89.7834 198.45C89.7834 198.609 89.0232 198.837 88.0394 198.958C87.0556 199.078 86.2442 199.047 86.2251 198.888C86.2059 198.729 86.9853 198.501 87.9691 198.38C88.9529 198.26 89.7643 198.292 89.7834 198.45Z" fill="#263238"/>
<path d="M90.5755 205.47C90.5116 205.616 89.6811 205.4 88.7229 204.981C87.7646 204.562 87.0363 204.112 87.1002 203.966C87.1641 203.82 87.9946 204.036 88.9528 204.448C89.9111 204.861 90.6394 205.33 90.5755 205.47Z" fill="#263238"/>
<path d="M89.8792 211.512C89.8281 211.658 88.774 211.41 87.6752 210.693C86.5764 209.976 85.9248 209.126 86.0398 209.018C86.1548 208.91 86.9597 209.538 87.9947 210.205C89.0296 210.871 89.9367 211.353 89.8792 211.512Z" fill="#263238"/>
<path d="M86.7171 217.002C86.6213 217.129 85.7844 216.64 84.9795 215.777C84.1745 214.914 83.7465 214.057 83.8807 213.969C84.0148 213.88 84.6409 214.559 85.4075 215.384C86.1741 216.209 86.8193 216.894 86.7171 217.002Z" fill="#263238"/>
<path d="M56.7 217.65C56.7767 217.79 55.8951 218.392 54.7388 218.989C53.5825 219.585 52.5795 219.96 52.5092 219.814C52.439 219.668 53.3078 219.071 54.4705 218.475C55.6331 217.878 56.6233 217.529 56.7 217.65Z" fill="#263238"/>
<path d="M53.9595 212.68C54.0234 212.826 53.3206 213.315 52.3879 213.708C51.4552 214.102 50.6375 214.343 50.5736 214.21C50.5097 214.076 51.2124 213.575 52.1452 213.182C53.0779 212.788 53.8892 212.534 53.9595 212.68Z" fill="#263238"/>
<path d="M51.9411 208.282C51.9411 208.44 51.0978 208.694 50.0245 208.846C48.9513 208.999 48.0313 208.999 48.0058 208.846C47.9802 208.694 48.8555 208.434 49.9223 208.282C50.9892 208.129 51.9219 208.123 51.9411 208.282Z" fill="#263238"/>
<path d="M58.5526 205.857C58.6037 206.009 57.7541 206.397 56.6361 206.523C55.5181 206.65 54.5982 206.454 54.611 206.301C54.6237 206.149 55.499 206.067 56.5722 205.946C57.6455 205.825 58.5079 205.698 58.5526 205.857Z" fill="#263238"/>
<path d="M64.0462 200.431C64.0909 200.576 63.4074 200.919 62.513 201.002C61.6186 201.084 60.8776 200.894 60.8967 200.735C60.9159 200.576 61.6122 200.507 62.4555 200.424C63.2988 200.342 63.9951 200.272 64.0462 200.431Z" fill="#263238"/>
<path d="M65.0939 196.076C65.0428 196.228 64.3145 196.121 63.4649 195.829C62.6152 195.537 61.9764 195.194 62.0339 195.029C62.0914 194.864 62.8133 194.985 63.6565 195.277C64.4998 195.568 65.145 195.949 65.0939 196.076Z" fill="#263238"/>
<path d="M67.1379 191.677C67.0293 191.792 66.4991 191.462 66.1733 190.846C65.8475 190.231 65.7772 189.634 65.9305 189.577C66.0838 189.52 66.3585 189.989 66.678 190.535C66.9974 191.081 67.2274 191.57 67.1379 191.677Z" fill="#263238"/>
<path d="M64.6786 209.684C64.717 209.843 64.0909 210.129 63.2732 210.319C62.8868 210.419 62.4904 210.476 62.0914 210.49L61.97 210.148C62.1872 210.11 62.3213 210.148 62.3469 210.186C62.3724 210.224 62.2894 210.351 62.1169 210.478L62.0019 210.141C62.3625 209.969 62.7419 209.839 63.1327 209.754C63.944 209.564 64.6403 209.532 64.6786 209.684Z" fill="#263238"/>
<path d="M65.8094 217.396C65.8733 217.548 65.0683 217.999 64.0142 218.411C62.9602 218.824 62.0658 219.046 62.0083 218.881C61.9508 218.716 62.7493 218.278 63.8034 217.872C64.8575 217.466 65.7519 217.25 65.8094 217.396Z" fill="#263238"/>
<path d="M59.6065 213.975C59.6576 214.127 59.1274 214.445 58.4119 214.686C57.6964 214.927 57.0767 214.997 57.0256 214.844C56.9745 214.692 57.5111 214.375 58.2202 214.134C58.9293 213.893 59.5554 213.823 59.6065 213.975Z" fill="#263238"/>
<path d="M60.1112 198.279C60.0729 198.431 59.1401 198.342 58.0605 197.955C56.9809 197.568 56.1951 197.066 56.2654 196.927C56.3356 196.787 57.2045 197.041 58.2522 197.409C59.2999 197.777 60.1112 198.12 60.1112 198.279Z" fill="#263238"/>
<path d="M75.0974 196.584C75.1869 196.717 74.6566 197.219 73.922 197.701C73.1873 198.183 72.5101 198.469 72.4271 198.336C72.344 198.202 72.8615 197.701 73.5962 197.219C74.3308 196.736 75.008 196.438 75.0974 196.584Z" fill="#263238"/>
<path d="M75.9086 204.315C75.947 204.473 75.3912 204.721 74.6757 204.867C73.9602 205.013 73.3596 205.006 73.3213 204.867C73.283 204.727 73.8452 204.461 74.5607 204.315C75.2762 204.169 75.8767 204.156 75.9086 204.315Z" fill="#263238"/>
<path d="M76.8605 213.023C76.7902 213.169 75.9981 212.947 75.0845 212.521C74.171 212.096 73.481 211.646 73.5513 211.5C73.6216 211.354 74.4138 211.576 75.3273 211.995C76.2408 212.413 76.9308 212.877 76.8605 213.023Z" fill="#263238"/>
<path d="M74.8546 221.496C74.7268 221.597 74.2158 221.179 73.6983 220.563C73.1809 219.947 72.8742 219.357 72.9956 219.256C73.117 219.154 73.6344 219.573 74.1519 220.189C74.6693 220.804 74.976 221.394 74.8546 221.496Z" fill="#263238"/>
<path d="M74.4394 190.872C74.5416 190.992 74.1967 191.417 73.6153 191.709C73.034 192.001 72.4846 192.02 72.4399 191.868C72.3951 191.716 72.8232 191.456 73.3534 191.189C73.8836 190.922 74.3436 190.738 74.4394 190.872Z" fill="#263238"/>
<path d="M81.8303 198.679C81.8814 198.825 81.1915 199.199 80.2716 199.313C79.3516 199.427 78.585 199.269 78.5978 199.117C78.6106 198.964 79.3261 198.863 80.1885 198.736C81.051 198.609 81.7473 198.526 81.8303 198.679Z" fill="#263238"/>
<path d="M80.3356 191.672C80.4059 191.811 79.7288 192.306 78.7705 192.592C77.8122 192.877 76.9753 192.896 76.9562 192.744C76.937 192.592 77.6781 192.332 78.5916 192.04C79.5051 191.748 80.259 191.507 80.3356 191.672Z" fill="#263238"/>
<path d="M83.402 209.538C83.402 209.697 82.2457 209.799 80.8466 209.538C79.4476 209.278 78.4063 208.79 78.4574 208.644C78.5085 208.498 79.6073 208.726 80.9488 208.961C82.2904 209.196 83.4084 209.373 83.402 209.538Z" fill="#263238"/>
<path d="M80.6677 219.719C80.5719 219.845 79.7223 219.35 78.8726 218.5C78.0229 217.65 77.5247 216.806 77.6524 216.711C77.7802 216.615 78.4638 217.269 79.2879 218.088C80.112 218.906 80.77 219.592 80.6677 219.719Z" fill="#263238"/>
<path d="M68.6525 183.382C68.7356 183.509 66.3144 184.48 63.5418 187.413C59.9707 191.303 57.734 196.219 57.1534 201.452C56.8854 204.323 57.0144 207.217 57.5367 210.052C57.9548 212.379 58.4964 214.682 59.1594 216.952C59.7215 218.894 60.239 220.455 60.584 221.534C60.7929 222.085 60.9574 222.652 61.0759 223.229C60.7908 222.712 60.5535 222.17 60.3668 221.61C59.9579 220.55 59.3766 219.008 58.7633 217.072C58.035 214.8 57.4483 212.485 57.0065 210.141C56.4422 207.257 56.2959 204.308 56.5721 201.382C57.294 195.131 60.3157 189.958 63.248 187.127C64.3876 185.971 65.6765 184.97 67.081 184.15C67.4605 183.917 67.853 183.705 68.2565 183.516C68.4928 183.42 68.6398 183.363 68.6525 183.382Z" fill="white"/>
<path d="M76.6308 223.603C76.5031 223.54 77.9468 221.331 79.2628 217.352C81.0282 212.191 81.5661 206.695 80.8344 201.294C80.4367 198.33 79.597 195.443 78.3429 192.725C77.2946 190.528 75.8554 188.537 74.0946 186.848C72.8559 185.76 71.4496 184.878 69.9294 184.233C68.8434 183.782 68.1981 183.674 68.2045 183.598C68.3649 183.581 68.527 183.591 68.6836 183.63C69.135 183.715 69.5792 183.834 70.0124 183.985C71.6026 184.573 73.0771 185.432 74.3693 186.524C76.224 188.214 77.7412 190.236 78.8412 192.484C80.1385 195.241 81.0004 198.18 81.3966 201.198C82.1493 206.687 81.5441 212.275 79.6334 217.479C79.3076 218.481 78.8795 219.338 78.5601 220.119C78.2407 220.9 77.8766 221.522 77.5891 222.023C77.3174 222.577 76.9967 223.106 76.6308 223.603Z" fill="white"/>
<path d="M53.9594 222.226H86.2251L86.4232 228.643H53.9594V222.226Z" fill="#263238"/>
<path d="M56.6998 225.431L58.5523 245.025H82.1432L84.0405 225.647L56.6998 225.431Z" fill="#263238"/>
<path d="M86.4231 228.719C86.4231 228.878 79.16 229.011 70.1976 229.011C61.2352 229.011 53.9657 228.878 53.9657 228.719C53.9657 228.561 61.2288 228.427 70.1976 228.427C79.1663 228.427 86.4231 228.561 86.4231 228.719Z" fill="#455A64"/>
<path d="M83.1461 234.666C82.9858 235.121 82.7575 235.549 82.4689 235.936C81.7397 236.999 80.9005 237.984 79.9649 238.874L79.8179 239.014L79.671 238.862C77.7332 236.843 75.6166 235.001 73.3469 233.359H73.7046L70.9003 235.802L67.5849 238.671L67.3997 238.83L67.2144 238.671L61.8293 234.171L62.1423 234.14L59.3572 237.516C59.0346 237.952 58.6663 238.352 58.2584 238.709C58.5166 238.236 58.8181 237.788 59.1591 237.37L61.7974 233.867L61.9315 233.689L62.1104 233.835L67.5785 238.24H67.2144L70.5106 235.358L73.3277 232.921L73.5002 232.775L73.6854 232.908C75.9721 234.582 78.0805 236.483 79.9776 238.583H79.6838C80.9394 237.369 82.0971 236.06 83.1461 234.666Z" fill="#455A64"/>
<path d="M296.336 15.5754C298.202 -0.258954 277.509 -5.2562 269.593 6.37669C262.354 17.0265 282.168 48.3323 282.168 48.3323L296.336 15.5754ZM285.734 21.6727C284.464 22.5388 282.962 23.0148 281.418 23.0404C279.874 23.066 278.356 22.6401 277.058 21.8165C275.759 20.9929 274.738 19.8087 274.123 18.4135C273.508 17.0184 273.327 15.475 273.603 13.9786C273.879 12.4822 274.6 11.1001 275.674 10.0069C276.747 8.91376 278.126 8.15873 279.636 7.83733C281.146 7.51592 282.719 7.64257 284.155 8.20126C285.592 8.75996 286.828 9.72559 287.707 10.976C288.88 12.6561 289.329 14.7256 288.954 16.7308C288.58 18.736 287.413 20.5132 285.71 21.6727H285.734Z" fill="#4ABAAD"/>
</svg>
