<svg width="16" height="16" viewBox="0 0 16 16" fill="none" xmlns="http://www.w3.org/2000/svg">
<path d="M14.2223 3.00001H10.6668V2.00006C10.6662 1.46971 10.4788 0.961461 10.1455 0.586459C9.81211 0.211458 9.36035 0.000685717 8.88892 0H7.11123C6.6398 0.000669645 6.18802 0.211441 5.85468 0.586459C5.52135 0.961478 5.33399 1.46971 5.33338 2.00006V3.00001H1.77785C1.30641 3.00068 0.854637 3.21145 0.5213 3.58647C0.187964 3.96149 0.00060953 4.46972 0 5.00007V14.0001C0.000595244 14.5303 0.187949 15.0387 0.5213 15.4135C0.854637 15.7885 1.30641 15.9995 1.77785 16H14.2222C14.6936 15.9995 15.1454 15.7886 15.4787 15.4135C15.812 15.0387 15.9994 14.5303 16 14.0001V5.00007C15.9994 4.46972 15.8121 3.96147 15.4787 3.58647C15.1453 3.21147 14.6936 3.0007 14.2222 3.00001H14.2223ZM6.22223 2.00006C6.22253 1.73488 6.31628 1.48076 6.48295 1.29326C6.64962 1.10576 6.87552 1.00029 7.11122 0.999955H8.88907H8.88892C9.12463 1.00029 9.35052 1.10576 9.51719 1.29326C9.68386 1.48076 9.77761 1.73491 9.77791 2.00006V3.00001H6.22222L6.22223 2.00006ZM15.1115 14.0001C15.1112 14.2651 15.0174 14.5194 14.8507 14.7069C14.6841 14.8944 14.4582 14.9997 14.2225 15H1.77816C1.54244 14.9997 1.31655 14.8944 1.14989 14.7069C0.983217 14.5194 0.889467 14.2651 0.889166 14.0001V5.00007C0.889464 4.7349 0.983217 4.48077 1.14989 4.29327C1.31655 4.10577 1.54246 4.0003 1.77816 3.99997H14.2225C14.4582 4.0003 14.6841 4.10577 14.8507 4.29327C15.0174 4.48077 15.1112 4.73492 15.1115 5.00007V14.0001Z" fill="#373C38"/>
</svg>
