<svg width="16" height="16" viewBox="0 0 16 16" fill="none" xmlns="http://www.w3.org/2000/svg">
<path d="M8.25 1.5C8.4572 1.5 8.65591 1.58231 8.80243 1.72882C8.94894 1.87534 9.03125 2.07405 9.03125 2.28125V6.96875H13.7188C13.926 6.96875 14.1247 7.05106 14.2712 7.19757C14.4177 7.34409 14.5 7.5428 14.5 7.75C14.5 7.9572 14.4177 8.15591 14.2712 8.30243C14.1247 8.44894 13.926 8.53125 13.7188 8.53125H9.03125V13.2188C9.03125 13.426 8.94894 13.6247 8.80243 13.7712C8.65591 13.9177 8.4572 14 8.25 14C8.0428 14 7.84409 13.9177 7.69757 13.7712C7.55106 13.6247 7.46875 13.426 7.46875 13.2188V8.53125H2.78125C2.57405 8.53125 2.37534 8.44894 2.22882 8.30243C2.08231 8.15591 2 7.9572 2 7.75C2 7.5428 2.08231 7.34409 2.22882 7.19757C2.37534 7.05106 2.57405 6.96875 2.78125 6.96875H7.46875V2.28125C7.46875 2.07405 7.55106 1.87534 7.69757 1.72882C7.84409 1.58231 8.0428 1.5 8.25 1.5Z" fill="#6B4DE0"/>
</svg>
