<svg width="24" height="24" viewBox="0 0 24 24" fill="none" xmlns="http://www.w3.org/2000/svg">
<path d="M15.6554 12.8426C15.4058 12.4261 15.0635 12.0728 14.6553 11.81C14.2578 11.5538 13.8261 11.3551 13.3728 11.2201C13.1227 11.1426 12.8203 11.0626 12.4752 10.97C12.1978 10.8926 11.8952 10.82 11.4277 10.7199L11.4279 10.7201C10.9433 10.6177 10.4677 10.4773 10.0052 10.3002C9.77939 10.2079 9.57954 10.0619 9.42276 9.87501C9.29459 9.70812 9.23146 9.50007 9.24523 9.29009V9.19505C9.25518 9.01787 9.31691 8.84749 9.42276 8.705C9.61058 8.4769 9.85682 8.30408 10.1353 8.20504C10.5938 8.05018 11.0768 7.98078 11.5602 7.99996C11.935 8.00013 12.3082 8.04879 12.6704 8.14505C12.9103 8.21306 13.1364 8.3231 13.3378 8.47011C13.4658 8.56201 13.5753 8.67745 13.6604 8.80999L14.2029 9.64999L15.8854 8.56757L15.3429 7.72757C15.1233 7.38437 14.8408 7.08582 14.5104 6.8476C14.1206 6.56405 13.6839 6.35148 13.2204 6.21997C13.0401 6.16905 12.8573 6.12737 12.6728 6.09493V4H10.6728V6.05256C10.2724 6.10313 9.87788 6.19347 9.49529 6.32252C8.87082 6.53736 8.3168 6.91859 7.89282 7.42498L7.86527 7.45742C7.48022 7.94657 7.26138 8.5456 7.24026 9.16748C7.19858 9.85266 7.40331 10.5303 7.81768 11.0775L7.85011 11.1201H7.85029C8.23324 11.5881 8.7311 11.9491 9.29526 12.1676C9.8545 12.3792 10.4296 12.5462 11.0152 12.6676C11.4427 12.7626 11.7152 12.8277 11.9602 12.8976H11.9878C12.3053 12.9777 12.5728 13.05 12.8053 13.1201C13.0763 13.2 13.3347 13.3179 13.5728 13.4701C13.7149 13.5645 13.8343 13.6892 13.9228 13.8351C14.0131 14.0146 14.0562 14.2142 14.0478 14.4151V14.4601C14.0563 14.7029 13.9871 14.942 13.8502 15.1425C13.6516 15.4196 13.3748 15.6311 13.0552 15.75C12.57 15.9359 12.0519 16.0209 11.5327 16.0001H11.4701C10.907 16.0172 10.3481 15.8988 9.84011 15.655C9.589 15.5193 9.37382 15.3256 9.21265 15.09L8.64256 14.2674L7 15.4074L7.57009 16.23V16.2301C7.918 16.7341 8.38189 17.1474 8.92265 17.435L8.9502 17.4475C9.49289 17.7105 10.0745 17.8835 10.6726 17.96V20H12.6727V17.915C13.0525 17.8486 13.4245 17.7429 13.7827 17.6001C14.457 17.3429 15.0424 16.8957 15.4678 16.3126C15.8068 15.809 16.0045 15.2239 16.0406 14.618C16.0767 14.0121 15.9496 13.4076 15.6727 12.8675L15.6554 12.8426Z" fill="#9F9DA6"/>
</svg>
