<svg width="21" height="20" viewBox="0 0 21 20" fill="none" xmlns="http://www.w3.org/2000/svg">
<g clip-path="url(#clip0_5789_26876)">
<path d="M20.0588 10C20.0588 4.47715 15.5817 0 10.0588 0C4.53599 0 0.0588379 4.47715 0.0588379 10C0.0588379 14.9912 3.71567 19.1283 8.49634 19.8785V12.8906H5.95728V10H8.49634V7.79688C8.49634 5.29063 9.98931 3.90625 12.2735 3.90625C13.3672 3.90625 14.512 4.10156 14.512 4.10156V6.5625H13.251C12.0088 6.5625 11.6213 7.3334 11.6213 8.125V10H14.3948L13.9514 12.8906H11.6213V19.8785C16.402 19.1283 20.0588 14.9912 20.0588 10Z" fill="#C6CEF7"/>
</g>
<defs>
<clipPath id="clip0_5789_26876">
<rect width="20" height="20" fill="white" transform="translate(0.0588379)"/>
</clipPath>
</defs>
</svg>
