<svg width="20" height="20" viewBox="0 0 20 20" fill="none" xmlns="http://www.w3.org/2000/svg">
<path fill-rule="evenodd" clip-rule="evenodd" d="M11.3878 3.05859H5.83225C5.06519 3.05859 4.44336 3.68042 4.44336 4.44748V15.5586C4.44336 16.3257 5.06519 16.9475 5.83225 16.9475H14.1656C14.9326 16.9475 15.5545 16.3257 15.5545 15.5586V7.22526L11.3878 3.05859Z" stroke="url(#paint0_linear_126_16195)" stroke-width="1.5" stroke-linecap="round" stroke-linejoin="round"/>
<path d="M11.3887 3.05859V7.22526H15.5553" stroke="url(#paint1_linear_126_16195)" stroke-width="1.5" stroke-linecap="round" stroke-linejoin="round"/>
<path d="M12.7763 10.6953H7.2207" stroke="url(#paint2_linear_126_16195)" stroke-width="1.5" stroke-linecap="round" stroke-linejoin="round"/>
<path d="M12.7763 13.4727H7.2207" stroke="url(#paint3_linear_126_16195)" stroke-width="1.5" stroke-linecap="round" stroke-linejoin="round"/>
<path d="M8.60959 7.91797H7.91515H7.2207" stroke="url(#paint4_linear_126_16195)" stroke-width="1.5" stroke-linecap="round" stroke-linejoin="round"/>
<defs>
<linearGradient id="paint0_linear_126_16195" x1="3.23685" y1="16.9475" x2="17.0487" y2="16.14" gradientUnits="userSpaceOnUse">
<stop stop-color="#6B4DE0"/>
<stop offset="0.544792" stop-color="#9C42E3"/>
<stop offset="1" stop-color="#C339E5"/>
</linearGradient>
<linearGradient id="paint1_linear_126_16195" x1="10.9362" y1="7.22526" x2="16.1058" y2="6.8475" gradientUnits="userSpaceOnUse">
<stop stop-color="#6B4DE0"/>
<stop offset="0.544792" stop-color="#9C42E3"/>
<stop offset="1" stop-color="#C339E5"/>
</linearGradient>
<linearGradient id="paint2_linear_126_16195" x1="6.61745" y1="11.3898" x2="11.782" y2="8.37058" gradientUnits="userSpaceOnUse">
<stop stop-color="#6B4DE0"/>
<stop offset="0.544792" stop-color="#9C42E3"/>
<stop offset="1" stop-color="#C339E5"/>
</linearGradient>
<linearGradient id="paint3_linear_126_16195" x1="6.61745" y1="14.1671" x2="11.782" y2="11.1479" gradientUnits="userSpaceOnUse">
<stop stop-color="#6B4DE0"/>
<stop offset="0.544792" stop-color="#9C42E3"/>
<stop offset="1" stop-color="#C339E5"/>
</linearGradient>
<linearGradient id="paint4_linear_126_16195" x1="7.06989" y1="8.61241" x2="8.76604" y2="8.36452" gradientUnits="userSpaceOnUse">
<stop stop-color="#6B4DE0"/>
<stop offset="0.544792" stop-color="#9C42E3"/>
<stop offset="1" stop-color="#C339E5"/>
</linearGradient>
</defs>
</svg>
