<svg width="24" height="24" viewBox="0 0 24 24" fill="none" xmlns="http://www.w3.org/2000/svg">
<path d="M6.44445 2C3.98226 2 2 3.98226 2 6.44445V22H17.5556C20.0177 22 22 20.0177 22 17.5556V6.44445C22 3.98226 20.0177 2 17.5556 2H6.44445ZM12 5.33333C12.5894 5.33333 13.1547 5.5674 13.5714 5.98421C13.9882 6.40087 14.2222 6.96619 14.2222 7.55556C14.2222 8.14492 13.9882 8.71024 13.5714 9.12691C13.1547 9.54373 12.5894 9.77778 12 9.77778C11.4106 9.77778 10.8453 9.54372 10.4287 9.12691C10.0118 8.71024 9.77778 8.14492 9.77778 7.55556C9.77778 6.96619 10.0118 6.40087 10.4287 5.98421C10.8453 5.56738 11.4106 5.33333 12 5.33333ZM10.8889 10.8889H13.1111C13.7267 10.8889 14.2222 11.3844 14.2222 12V17.5556C14.2222 18.1711 13.7267 18.6667 13.1111 18.6667H10.8889C10.2733 18.6667 9.77778 18.1711 9.77778 17.5556V12C9.77778 11.3844 10.2733 10.8889 10.8889 10.8889Z" fill="white"/>
<path d="M10.8889 10.8889H13.1111C13.7267 10.8889 14.2222 11.3844 14.2222 12V17.5556C14.2222 18.1711 13.7267 18.6667 13.1111 18.6667H10.8889C10.2733 18.6667 9.77778 18.1711 9.77778 17.5556V12C9.77778 11.3844 10.2733 10.8889 10.8889 10.8889Z" fill="white"/>
<path d="M12 5.33333C12.5894 5.33333 13.1547 5.5674 13.5714 5.98421C13.9882 6.40087 14.2222 6.96619 14.2222 7.55556C14.2222 8.14492 13.9882 8.71024 13.5714 9.12691C13.1547 9.54373 12.5894 9.77778 12 9.77778C11.4106 9.77778 10.8453 9.54372 10.4287 9.12691C10.0118 8.71024 9.77778 8.14492 9.77778 7.55556C9.77778 6.96619 10.0118 6.40087 10.4287 5.98421C10.8453 5.56738 11.4106 5.33333 12 5.33333Z" fill="white"/>
<path d="M6.44445 2C3.98226 2 2 3.98226 2 6.44445V22H17.5556C20.0177 22 22 20.0177 22 17.5556V6.44445C22 3.98226 20.0177 2 17.5556 2H6.44445ZM12 5.33333C12.5894 5.33333 13.1547 5.5674 13.5714 5.98421C13.9882 6.40087 14.2222 6.96619 14.2222 7.55556C14.2222 8.14492 13.9882 8.71024 13.5714 9.12691C13.1547 9.54373 12.5894 9.77778 12 9.77778C11.4106 9.77778 10.8453 9.54372 10.4287 9.12691C10.0118 8.71024 9.77778 8.14492 9.77778 7.55556C9.77778 6.96619 10.0118 6.40087 10.4287 5.98421C10.8453 5.56738 11.4106 5.33333 12 5.33333ZM10.8889 10.8889H13.1111C13.7267 10.8889 14.2222 11.3844 14.2222 12V17.5556C14.2222 18.1711 13.7267 18.6667 13.1111 18.6667H10.8889C10.2733 18.6667 9.77778 18.1711 9.77778 17.5556V12C9.77778 11.3844 10.2733 10.8889 10.8889 10.8889Z" fill="#4D1C8C"/>
</svg>
