<svg width="24" height="24" viewBox="0 0 24 24" fill="none" xmlns="http://www.w3.org/2000/svg">
<path d="M20.9979 13.3318C21.2631 13.3318 21.5175 13.2264 21.705 13.039C21.8924 12.8515 21.9978 12.597 21.9978 12.3319C21.9978 12.0668 21.8925 11.8123 21.705 11.6249C21.5175 11.4374 21.263 11.332 20.9979 11.332C20.7328 11.332 20.4783 11.4374 20.2909 11.6249C20.1034 11.8123 19.998 12.0668 19.998 12.3319C19.9983 12.5971 20.1038 12.8512 20.2912 13.0387C20.4787 13.226 20.7328 13.3315 20.998 13.3318L20.9979 13.3318ZM20.9979 11.9986C21.1327 11.9986 21.2543 12.0798 21.3058 12.2044C21.3574 12.3289 21.329 12.4722 21.2336 12.5676C21.1382 12.663 20.9949 12.6914 20.8704 12.6397C20.7459 12.5883 20.6646 12.4667 20.6646 12.3319C20.6648 12.1478 20.8139 11.9987 20.9979 11.9986Z" fill="url(#paint0_linear_95_8581)"/>
<path d="M18.3319 11.3318C18.5971 11.3318 18.8515 11.2264 19.039 11.039C19.2264 10.8515 19.3318 10.597 19.3318 10.3319C19.3318 10.0668 19.2264 9.8123 19.039 9.62486C18.8515 9.43741 18.597 9.33203 18.3319 9.33203C18.0668 9.33203 17.8123 9.43738 17.6249 9.62486C17.4374 9.81234 17.332 10.0668 17.332 10.3319C17.3323 10.5971 17.4378 10.8512 17.6252 11.0387C17.8126 11.226 18.0668 11.3315 18.3319 11.3318L18.3319 11.3318ZM18.3319 9.99859C18.4667 9.99859 18.5883 10.0798 18.6398 10.2044C18.6914 10.3289 18.663 10.4722 18.5676 10.5676C18.4722 10.663 18.3289 10.6914 18.2044 10.6397C18.0798 10.5883 17.9986 10.4667 17.9986 10.3319C17.9988 10.1478 18.1478 9.99874 18.3319 9.99859Z" fill="url(#paint1_linear_95_8581)"/>
<path d="M18.6646 12.9974C18.6646 13.1814 18.5154 13.3307 18.3313 13.3307C18.1473 13.3307 17.998 13.1814 17.998 12.9974C17.998 12.8133 18.1473 12.6641 18.3313 12.6641C18.5154 12.6641 18.6646 12.8133 18.6646 12.9974Z" fill="url(#paint2_linear_95_8581)"/>
<path d="M21.3307 9.66533C21.3307 9.84939 21.1814 9.99863 20.9974 9.99863C20.8133 9.99863 20.6641 9.84939 20.6641 9.66533C20.6641 9.48127 20.8133 9.33203 20.9974 9.33203C21.1814 9.33203 21.3307 9.48127 21.3307 9.66533Z" fill="url(#paint3_linear_95_8581)"/>
<path d="M21.2954 17.9983H21.3312C21.4196 17.9983 21.5044 17.9631 21.5669 17.9006C21.6294 17.8382 21.6645 17.7533 21.6645 17.665V15.6652C21.6645 15.5768 21.6294 15.492 21.5669 15.4295C21.5044 15.367 21.4196 15.3319 21.3312 15.3319H20.6646V14.6653H20.9979C21.182 14.6653 21.3312 14.516 21.3312 14.332C21.3312 14.1479 21.182 13.9987 20.9979 13.9987H18.3316C18.1475 13.9987 17.9983 14.1479 17.9983 14.332C17.9983 14.516 18.1475 14.6653 18.3316 14.6653H18.6649V15.5874C18.54 15.6991 18.4451 15.8404 18.3888 15.9985H16.5204L14.6653 12.9065V10.999C14.6648 10.615 14.532 10.2428 14.2891 9.9454C14.0463 9.64781 13.7082 9.44321 13.3321 9.36584V6.33283C13.3321 4.78477 12.5063 3.35445 11.1657 2.5804C9.82504 1.80653 8.1734 1.80653 6.83278 2.5804C5.49216 3.35441 4.66635 4.78477 4.66635 6.33283V9.36584C4.2902 9.44321 3.95214 9.64781 3.70931 9.9454C3.46648 10.2428 3.3336 10.615 3.33316 10.999V12.9732L2.00385 21.6138C1.98912 21.7099 2.01709 21.8077 2.08033 21.8815C2.14372 21.9553 2.23611 21.9977 2.33328 21.9977H12.9988C13.0872 21.9977 13.172 21.9626 13.2345 21.9001C13.297 21.8376 13.3321 21.7528 13.3321 21.6644V17.7437L14.034 19.1472C14.0904 19.2602 14.2058 19.3314 14.332 19.3314H17.356C17.2393 20.1345 17.5482 20.9405 18.1718 21.4598C18.7954 21.9791 19.6439 22.1369 20.4126 21.8769C21.1813 21.6168 21.7596 20.9759 21.9397 20.1846C22.1197 19.3933 21.8757 18.5654 21.2954 17.9983H21.2954ZM20.9979 17.3317H19.3315C19.1474 17.3315 18.9983 17.1824 18.9982 16.9984V16.3318C18.9983 16.1477 19.1474 15.9986 19.3315 15.9985H20.9979V17.3317ZM19.3315 14.6653H19.9981V15.3319H19.3315V14.6653ZM13.9987 10.999V12.6655H10.3324V11.6853C11.2551 11.2264 11.8782 10.3268 11.9837 9.30174C12.231 9.25368 12.4642 9.14997 12.6655 8.99835V9.66582C12.6655 9.7542 12.7006 9.83902 12.7631 9.90151C12.8256 9.964 12.9104 9.99912 12.9988 9.99912C13.2639 9.99941 13.5181 10.1049 13.7054 10.2924C13.8929 10.4797 13.9984 10.7339 13.9987 10.999L13.9987 10.999ZM7.19941 13.732L6.66614 13.3321H7.79341L8.66592 15.0773V16.6651L7.33273 14.8874V13.9987C7.33273 13.8938 7.28333 13.795 7.19941 13.732ZM6.66614 6.66613H11.3323V8.38351L9.85391 8.62991L9.63072 8.18352H9.63057C9.57418 8.07059 9.45872 7.99932 9.33254 7.99932H8.66594C8.53977 7.99932 8.4243 8.07059 8.36776 8.18352L8.14457 8.62991L6.66618 8.38351L6.66614 6.66613ZM11.9989 6.72342C12.2603 6.81597 12.4716 7.01297 12.5822 7.26724C12.6927 7.52152 12.6927 7.8105 12.5822 8.0648C12.4716 8.31909 12.2603 8.5161 11.9989 8.60863V6.72342ZM7.74488 5.99953L10.2184 4.76275L11.043 5.99953H7.74488ZM5.99969 8.60863C5.73826 8.51608 5.52698 8.31907 5.41644 8.0648C5.3059 7.81052 5.30589 7.52154 5.41644 7.26724C5.52699 7.01295 5.73828 6.81594 5.99969 6.72342V8.60863ZM8.278 9.32805C8.42233 9.35201 8.56547 9.2791 8.63079 9.14831L8.87199 8.66592H9.12657L9.36777 9.14831C9.43339 9.2791 9.57638 9.35201 9.7207 9.32805L11.3309 9.05963C11.3101 9.87859 10.8612 10.6266 10.1483 11.0301C9.43544 11.4336 8.56323 11.4336 7.85035 11.0301C7.13747 10.6265 6.68857 9.87859 6.66773 9.05963L8.278 9.32805ZM8.99937 11.9989C9.22375 11.9987 9.44725 11.9733 9.66597 11.9233V12.9201L8.99937 14.2533L8.33278 12.9201V11.9233C8.55151 11.9733 8.77498 11.9987 8.99937 11.9989ZM9.33267 15.0773L10.2052 13.3321H11.3325L10.7992 13.732C10.7153 13.795 10.6659 13.8938 10.6659 13.9987V14.8874L9.33267 16.6651V15.0773ZM8.99937 2.6664C9.97146 2.66744 10.9033 3.05417 11.5906 3.74145C12.2779 4.42873 12.6646 5.36063 12.6657 6.33268V6.33357C12.4282 6.15457 12.1468 6.04283 11.8511 6.00994L10.6099 4.14793C10.5166 4.00821 10.3339 3.95956 10.1835 4.03485L6.25018 6.00161V6.00146C5.91807 6.01768 5.59863 6.13344 5.33317 6.33357V6.33268C5.33422 5.36059 5.72094 4.42873 6.40822 3.74145C7.0955 3.05417 8.0274 2.66747 8.99945 2.6664L8.99937 2.6664ZM4.9998 9.99895C5.08818 9.99895 5.173 9.96384 5.23549 9.90134C5.29798 9.83885 5.3331 9.75404 5.3331 9.66566V8.99818C5.53442 9.14981 5.76757 9.25351 6.01485 9.30157C6.12035 10.3266 6.7435 11.2262 7.66618 11.6851V12.6653H3.99991V10.9988C4.00021 10.7337 4.1057 10.4795 4.29318 10.2922C4.48051 10.1047 4.73466 9.99924 4.99981 9.99894L4.9998 9.99895ZM3.9526 13.3319H5.5554L6.66629 14.1652V14.9984C6.66629 15.0706 6.68965 15.1407 6.73295 15.1984L8.66608 17.7758V21.3311H5.3331V16.3316C5.3331 16.1476 5.18386 15.9983 4.9998 15.9983C4.81574 15.9983 4.6665 16.1476 4.6665 16.3316V21.3311H2.72191L3.9526 13.3319ZM14.5381 18.6647L13.297 16.1825C13.228 16.0443 13.0728 15.9717 12.9224 16.0072C12.772 16.0428 12.6657 16.177 12.6657 16.3316V21.3311H9.33274V17.7758L11.2659 15.1984C11.3092 15.1407 11.3325 15.0706 11.3325 14.9984V14.1652L12.4436 13.3319H14.1434L16.046 16.503C16.1063 16.6036 16.2149 16.6649 16.332 16.6649H18.3318V16.9982C18.3316 17.223 18.4077 17.4412 18.5474 17.6172C18.1157 17.8541 17.7695 18.2204 17.5575 18.6647H14.5381ZM19.6648 21.3311C19.2229 21.3311 18.799 21.1555 18.4864 20.8431C18.1739 20.5304 17.9983 20.1065 17.9983 19.6646C17.9983 19.2227 18.1739 18.7988 18.4864 18.4861C18.799 18.1737 19.2229 17.9981 19.6648 17.9981C20.1068 17.9981 20.5306 18.1737 20.8433 18.4861C21.1558 18.7987 21.3313 19.2227 21.3313 19.6646C21.3309 20.1064 21.1551 20.53 20.8427 20.8424C20.5302 21.1549 20.1066 21.3306 19.6648 21.3311Z" fill="url(#paint4_linear_95_8581)"/>
<defs>
<linearGradient id="paint0_linear_95_8581" x1="19.7809" y1="13.3318" x2="22.262" y2="13.1505" gradientUnits="userSpaceOnUse">
<stop stop-color="#6B4DE0"/>
<stop offset="0.544792" stop-color="#9C42E3"/>
<stop offset="1" stop-color="#C339E5"/>
</linearGradient>
<linearGradient id="paint1_linear_95_8581" x1="17.1149" y1="11.3318" x2="19.596" y2="11.1505" gradientUnits="userSpaceOnUse">
<stop stop-color="#6B4DE0"/>
<stop offset="0.544792" stop-color="#9C42E3"/>
<stop offset="1" stop-color="#C339E5"/>
</linearGradient>
<linearGradient id="paint2_linear_95_8581" x1="17.9257" y1="13.3307" x2="18.7527" y2="13.2702" gradientUnits="userSpaceOnUse">
<stop stop-color="#6B4DE0"/>
<stop offset="0.544792" stop-color="#9C42E3"/>
<stop offset="1" stop-color="#C339E5"/>
</linearGradient>
<linearGradient id="paint3_linear_95_8581" x1="20.5917" y1="9.99863" x2="21.4187" y2="9.93819" gradientUnits="userSpaceOnUse">
<stop stop-color="#6B4DE0"/>
<stop offset="0.544792" stop-color="#9C42E3"/>
<stop offset="1" stop-color="#C339E5"/>
</linearGradient>
<linearGradient id="paint4_linear_95_8581" x1="-0.171488" y1="22" x2="24.6398" y2="20.1871" gradientUnits="userSpaceOnUse">
<stop stop-color="#6B4DE0"/>
<stop offset="0.544792" stop-color="#9C42E3"/>
<stop offset="1" stop-color="#C339E5"/>
</linearGradient>
</defs>
</svg>
