<svg width="20" height="20" viewBox="0 0 20 20" fill="none" xmlns="http://www.w3.org/2000/svg">
<path d="M17.536 8.08055L16.9209 7.36008C16.7452 7.14926 16.6398 6.90325 16.6222 6.63961L16.552 5.6908C16.4466 4.33775 15.3922 3.2835 14.0393 3.17811L13.0905 3.10787C12.827 3.09034 12.5633 2.98481 12.37 2.80917L11.6496 2.1941C10.6129 1.31551 9.11921 1.31551 8.08251 2.1941L7.36203 2.80917C7.15121 2.98494 6.9052 3.09034 6.64156 3.10787L5.69275 3.17811C4.3397 3.28352 3.28546 4.33787 3.18006 5.6908L3.10983 6.63961C3.0923 6.90313 2.98676 7.16679 2.81112 7.36008L2.19605 8.08055C1.31746 9.11725 1.31746 10.6109 2.19605 11.6476L2.81112 12.3681C2.98689 12.5789 3.0923 12.8249 3.10983 13.0886L3.18006 14.0374C3.28547 15.3904 4.33982 16.4447 5.69275 16.5501L6.64156 16.6203C6.90509 16.6378 7.16875 16.7434 7.36203 16.919L8.08251 17.5341C8.59202 17.9734 9.2246 18.2018 9.85722 18.2018C10.4898 18.2018 11.1224 17.9734 11.6319 17.5341L12.3524 16.919C12.5632 16.7432 12.8092 16.6378 13.0729 16.6203L14.0217 16.5501C15.3747 16.4446 16.429 15.3903 16.5344 14.0374L16.6046 13.0886C16.6221 12.825 16.7277 12.5614 16.9033 12.3681L17.5184 11.6476C18.4323 10.6108 18.4323 9.09974 17.536 8.08055H17.536ZM16.4114 10.6811L15.7964 11.4016C15.4098 11.8409 15.199 12.3856 15.1462 12.9655L15.076 13.9143C15.0233 14.5469 14.5313 15.0213 13.9162 15.0741L12.9674 15.1443C12.3876 15.197 11.8428 15.4078 11.4035 15.7944L10.6831 16.4095C10.2086 16.8136 9.50577 16.8136 9.0313 16.4095L8.31083 15.7944C7.87153 15.4078 7.32684 15.197 6.74694 15.1443L5.79813 15.0741C5.16555 15.0214 4.69109 14.5294 4.63837 13.9143L4.56814 12.9655C4.51543 12.3856 4.30461 11.8409 3.91801 11.4016L3.30294 10.6811C2.89882 10.2067 2.89882 9.50383 3.30294 9.02936L3.91801 8.30889C4.30459 7.8696 4.51542 7.32491 4.56814 6.74501L4.63837 5.7962C4.69108 5.16362 5.18306 4.68915 5.79813 4.63643L6.74694 4.5662C7.32681 4.51349 7.87153 4.30267 8.31083 3.91608L9.0313 3.301C9.2773 3.09018 9.55848 3.0023 9.85717 3.0023C10.1559 3.0023 10.437 3.10771 10.683 3.301L11.4035 3.91608C11.8428 4.30265 12.3875 4.51348 12.9674 4.5662L13.9162 4.63643C14.5488 4.68914 15.0233 5.18113 15.076 5.7962L15.1462 6.74501C15.1989 7.32487 15.4097 7.8696 15.7963 8.30889L16.4114 9.02936C16.8332 9.50383 16.8332 10.2067 16.4114 10.6811H16.4114Z" fill="url(#paint0_linear_126_16149)"/>
<path d="M12.9488 6.76166C12.6677 6.48049 12.1933 6.48049 11.9121 6.76166L6.76362 11.9102C6.48244 12.1914 6.48244 12.6657 6.76362 12.9469C6.90421 13.0875 7.09751 13.1577 7.2908 13.1577C7.48409 13.1577 7.65987 13.0875 7.81798 12.9469L12.9665 7.79836C13.2475 7.51719 13.2475 7.04272 12.9488 6.76166H12.9488Z" fill="url(#paint1_linear_126_16149)"/>
<path d="M8.71406 7.4664C8.71406 8.1555 8.1555 8.71406 7.4664 8.71406C6.77744 8.71406 6.21875 8.1555 6.21875 7.4664C6.21875 6.77744 6.77744 6.21875 7.4664 6.21875C8.1555 6.21875 8.71406 6.77744 8.71406 7.4664Z" fill="url(#paint2_linear_126_16149)"/>
<path d="M13.4953 12.2437C13.4953 12.9327 12.9366 13.4914 12.2477 13.4914C11.5586 13.4914 11 12.9327 11 12.2437C11 11.5547 11.5586 10.9961 12.2477 10.9961C12.9366 10.9961 13.4953 11.5547 13.4953 12.2437Z" fill="url(#paint3_linear_126_16149)"/>
<defs>
<linearGradient id="paint0_linear_126_16149" x1="-0.272899" y1="18.2018" x2="20.4081" y2="16.6904" gradientUnits="userSpaceOnUse">
<stop stop-color="#6B4DE0"/>
<stop offset="0.544792" stop-color="#9C42E3"/>
<stop offset="1" stop-color="#C339E5"/>
</linearGradient>
<linearGradient id="paint1_linear_126_16149" x1="5.83364" y1="13.1577" x2="14.0498" y2="12.5559" gradientUnits="userSpaceOnUse">
<stop stop-color="#6B4DE0"/>
<stop offset="0.544792" stop-color="#9C42E3"/>
<stop offset="1" stop-color="#C339E5"/>
</linearGradient>
<linearGradient id="paint2_linear_126_16149" x1="5.94779" y1="8.71406" x2="9.0437" y2="8.48783" gradientUnits="userSpaceOnUse">
<stop stop-color="#6B4DE0"/>
<stop offset="0.544792" stop-color="#9C42E3"/>
<stop offset="1" stop-color="#C339E5"/>
</linearGradient>
<linearGradient id="paint3_linear_126_16149" x1="10.729" y1="13.4914" x2="13.825" y2="13.2652" gradientUnits="userSpaceOnUse">
<stop stop-color="#6B4DE0"/>
<stop offset="0.544792" stop-color="#9C42E3"/>
<stop offset="1" stop-color="#C339E5"/>
</linearGradient>
</defs>
</svg>
