<svg width="24" height="24" viewBox="0 0 24 24" fill="none" xmlns="http://www.w3.org/2000/svg">
<path d="M6.23865 4.52734L13.4615 7.72601L13.1916 8.33558L5.96875 5.13691L6.23865 4.52734Z" fill="#9F9DA6" stroke="#9F9DA6" stroke-width="0.5"/>
<path d="M9.66667 19.7334L2 16.6V6.13338L9.66667 3L17.3333 6.5V11.7H16.6667V6.9L9.66667 3.73333L2.66667 6.59995V16.1333L9.66667 18.9999L12.6334 17.9331L12.8333 18.5665L9.66667 19.7334Z" fill="#9F9DA6" stroke="#9F9DA6" stroke-width="0.5"/>
<path d="M2.45554 6.05469L9.79792 9.05821L9.54551 9.67521L2.20312 6.67169L2.45554 6.05469Z" fill="#9F9DA6" stroke="#9F9DA6" stroke-width="0.5"/>
<path d="M10.0007 19.3652H9.33398V9.13187L16.9007 6.39844L17.1008 6.99853L10.0008 9.59844L10.0007 19.3652Z" fill="#9F9DA6" stroke="#9F9DA6" stroke-width="0.5"/>
<path d="M17 21.3672C14.2332 21.3672 12 19.1339 12 16.3672C12 13.6004 14.2332 11.3672 17 11.3672C19.7668 11.3672 22 13.6004 22 16.3672C22 19.1339 19.7668 21.3672 17 21.3672ZM17 12.0339C14.6001 12.0339 12.6667 13.9673 12.6667 16.3672C12.6667 18.7671 14.6001 20.7005 17 20.7005C19.3999 20.7005 21.3333 18.7671 21.3333 16.3672C21.3333 13.9673 19.3999 12.0339 17 12.0339Z" fill="#9F9DA6" stroke="#9F9DA6" stroke-width="0.5"/>
<path d="M16.5008 18.3341L14.7676 16.6006L15.2341 16.1341L16.5009 17.4007L19.101 14.8008L19.5675 15.2673L16.5008 18.3341Z" fill="#9F9DA6" stroke="#9F9DA6" stroke-width="0.5"/>
</svg>
