<svg width="20" height="20" viewBox="0 0 20 20" fill="none" xmlns="http://www.w3.org/2000/svg">
<path d="M10 20C4.47717 20 0 15.5228 0 10C0 4.47723 4.47723 0 10 0C15.5228 0 20 4.47723 20 10C20 15.5228 15.5228 20 10 20ZM6.27137 9.75702C5.84113 9.3507 5.16301 9.37013 4.7567 9.80011C4.35038 10.2304 4.36981 10.9085 4.80005 11.3148L8.0142 14.3506C8.47383 14.7846 9.20751 14.7285 9.59564 14.2293L14.5958 7.80073C14.959 7.33363 14.8748 6.66049 14.4077 6.29703C13.9406 5.93381 13.2674 6.01802 12.9042 6.48512L8.62828 11.9828L6.27137 9.75702Z" fill="#9E62B3"/>
</svg>
