<svg width="20" height="20" viewBox="0 0 20 20" fill="none" xmlns="http://www.w3.org/2000/svg">
<path d="M13.4167 12.8956C12.8889 12.8956 12.4167 13.1064 12.0556 13.4367L7.10417 10.5201C7.13889 10.3584 7.16667 10.1968 7.16667 10.0281C7.16667 9.85944 7.13889 9.69779 7.10417 9.53614L12 6.64759C12.375 6.999 12.8681 7.21687 13.4167 7.21687C14.5694 7.21687 15.5 6.2751 15.5 5.10843C15.5 3.94177 14.5694 3 13.4167 3C12.2639 3 11.3333 3.94177 11.3333 5.10843C11.3333 5.27711 11.3611 5.43875 11.3958 5.6004L6.5 8.48896C6.125 8.13755 5.63194 7.91968 5.08333 7.91968C3.93056 7.91968 3 8.86145 3 10.0281C3 11.1948 3.93056 12.1365 5.08333 12.1365C5.63194 12.1365 6.125 11.9187 6.5 11.5673L11.4444 14.491C11.4097 14.6386 11.3889 14.7932 11.3889 14.9478C11.3889 16.0793 12.2986 17 13.4167 17C14.5347 17 15.4444 16.0793 15.4444 14.9478C15.4444 13.8163 14.5347 12.8956 13.4167 12.8956ZM13.4167 4.40562C13.7986 4.40562 14.1111 4.72189 14.1111 5.10843C14.1111 5.49498 13.7986 5.81124 13.4167 5.81124C13.0347 5.81124 12.7222 5.49498 12.7222 5.10843C12.7222 4.72189 13.0347 4.40562 13.4167 4.40562ZM5.08333 10.7309C4.70139 10.7309 4.38889 10.4147 4.38889 10.0281C4.38889 9.64157 4.70139 9.3253 5.08333 9.3253C5.46528 9.3253 5.77778 9.64157 5.77778 10.0281C5.77778 10.4147 5.46528 10.7309 5.08333 10.7309ZM13.4167 15.6647C13.0347 15.6647 12.7222 15.3484 12.7222 14.9618C12.7222 14.5753 13.0347 14.259 13.4167 14.259C13.7986 14.259 14.1111 14.5753 14.1111 14.9618C14.1111 15.3484 13.7986 15.6647 13.4167 15.6647Z" fill="#9F9DA6"/>
</svg>
