<svg width="24" height="24" viewBox="0 0 24 24" fill="none" xmlns="http://www.w3.org/2000/svg">
<path fill-rule="evenodd" clip-rule="evenodd" d="M15.102 17.7207V4.66902C15.102 4.29972 15.3683 4.0003 15.702 4.0003C16.0333 4.0003 16.302 4.29972 16.302 4.66902V17.723L16.9796 16.97C17.2119 16.7121 17.5883 16.7122 17.8243 16.9744C18.0586 17.2348 18.0572 17.6584 17.8282 17.9129L16.1233 19.8071C16.0079 19.9354 15.8568 19.9999 15.705 20L15.7004 19.998C15.548 19.9977 15.3965 19.9337 15.2826 19.8071L13.5777 17.9129C13.3456 17.655 13.3457 17.2365 13.5817 16.9744C13.816 16.714 14.1973 16.7156 14.4263 16.97L15.102 17.7207ZM8.898 6.27927V19.331C8.898 19.7003 8.63173 19.9997 8.29804 19.9997C7.96667 19.9997 7.69798 19.7003 7.69798 19.331V6.27699L7.02037 7.02997C6.78814 7.28789 6.41167 7.28778 6.17572 7.02562C5.94138 6.76524 5.94279 6.3416 6.1718 6.08712L7.87666 4.19285C7.99207 4.06462 8.14324 4.00011 8.29503 4L8.29965 4.00201C8.45202 4.00234 8.60348 4.06629 8.71739 4.19285L10.4223 6.08712C10.6544 6.34504 10.6543 6.76345 10.4183 7.02562C10.184 7.28599 9.80272 7.28443 9.57369 7.02997L8.898 6.27927Z" fill="black" stroke="black" stroke-width="0.5"/>
</svg>
