<svg width="24" height="24" viewBox="0 0 24 24" fill="none" xmlns="http://www.w3.org/2000/svg">
<path d="M13.504 12.226V12.3633L13.5741 12.4814L18.0969 20.0927C18.2273 20.7002 17.8751 21.3093 17.2828 21.4991H7.34157C6.74539 21.3078 6.39183 20.6908 6.52995 20.0782L10.4521 12.441L10.5071 12.334L10.5073 12.2136L10.5162 7.71436L10.5172 7.21365L10.0165 7.21336L9.74113 7.21321H9.74085C9.54489 7.21321 9.38479 7.05381 9.38479 6.85622C9.38479 6.65972 9.54459 6.50003 9.7408 6.5C9.74081 6.5 9.74083 6.5 9.74085 6.5L14.3106 6.50047H14.3107C14.5071 6.50047 14.6672 6.66071 14.6672 6.85653C14.6672 7.05379 14.5068 7.21352 14.3107 7.21352H13.9961H13.4953L13.4961 7.71439L13.504 12.2116V12.2119V12.226Z" stroke="#9F9DA6"/>
<path fill-rule="evenodd" clip-rule="evenodd" d="M10.8704 5.14318C11.1867 5.14318 11.4423 4.88723 11.4423 4.57159C11.4423 4.2558 11.1865 4 10.8704 4C10.5545 4 10.2988 4.2558 10.2988 4.57159C10.2988 4.88707 10.5543 5.14318 10.8704 5.14318Z" fill="#9F9DA6"/>
<path fill-rule="evenodd" clip-rule="evenodd" d="M13.1584 3.71493C13.6318 3.71493 14.0157 3.33163 14.0157 2.85763C14.0157 2.38364 13.6318 2 13.1584 2C12.6849 2 12.3008 2.38362 12.3008 2.85763C12.3008 3.33161 12.6847 3.71493 13.1584 3.71493Z" fill="#9F9DA6"/>
<path fill-rule="evenodd" clip-rule="evenodd" d="M12.5859 5.14581C12.5859 5.46176 12.8419 5.71772 13.1577 5.71772C13.4732 5.71772 13.7293 5.46177 13.7293 5.14581C13.7293 4.83033 13.474 4.57422 13.1577 4.57422C12.8414 4.57422 12.5859 4.83001 12.5859 5.14581Z" fill="#9F9DA6"/>
</svg>
