<svg width="16" height="16" viewBox="0 0 16 16" fill="none" xmlns="http://www.w3.org/2000/svg">
<path d="M2 4H3.33333H14" stroke="#9F9DA6" stroke-width="1.5" stroke-linecap="round" stroke-linejoin="round"/>
<path d="M13.4173 3.9987C13.4173 3.58448 13.0815 3.2487 12.6673 3.2487C12.2531 3.2487 11.9173 3.58448 11.9173 3.9987H13.4173ZM4.08398 3.9987C4.08398 3.58448 3.7482 3.2487 3.33398 3.2487C2.91977 3.2487 2.58398 3.58448 2.58398 3.9987H4.08398ZM4.58398 3.9987C4.58398 4.41291 4.91977 4.7487 5.33398 4.7487C5.7482 4.7487 6.08398 4.41291 6.08398 3.9987H4.58398ZM9.91732 3.9987C9.91732 4.41291 10.2531 4.7487 10.6673 4.7487C11.0815 4.7487 11.4173 4.41291 11.4173 3.9987H9.91732ZM11.9173 3.9987V13.332H13.4173V3.9987H11.9173ZM11.9173 13.332C11.9173 13.6542 11.6562 13.9154 11.334 13.9154V15.4154C12.4846 15.4154 13.4173 14.4826 13.4173 13.332H11.9173ZM11.334 13.9154H4.66732V15.4154H11.334V13.9154ZM4.66732 13.9154C4.34515 13.9154 4.08398 13.6542 4.08398 13.332H2.58398C2.58398 14.4826 3.51672 15.4154 4.66732 15.4154V13.9154ZM4.08398 13.332V3.9987H2.58398V13.332H4.08398ZM6.08398 3.9987V2.66536H4.58398V3.9987H6.08398ZM6.08398 2.66536C6.08398 2.3432 6.34515 2.08203 6.66732 2.08203V0.582031C5.51672 0.582031 4.58398 1.51477 4.58398 2.66536H6.08398ZM6.66732 2.08203H9.33398V0.582031H6.66732V2.08203ZM9.33398 2.08203C9.65615 2.08203 9.91732 2.3432 9.91732 2.66536H11.4173C11.4173 1.51477 10.4846 0.582031 9.33398 0.582031V2.08203ZM9.91732 2.66536V3.9987H11.4173V2.66536H9.91732Z" fill="#9F9DA6"/>
<path d="M6.66602 7.33203V11.332" stroke="#9F9DA6" stroke-width="1.5" stroke-linecap="round" stroke-linejoin="round"/>
<path d="M9.33398 7.33203V11.332" stroke="#9F9DA6" stroke-width="1.5" stroke-linecap="round" stroke-linejoin="round"/>
</svg>
