<svg width="21" height="20" viewBox="0 0 21 20" fill="none" xmlns="http://www.w3.org/2000/svg">
<circle cx="10.0588" cy="10" r="10" fill="#C6CEF7"/>
<g clip-path="url(#clip0_5759_23765)">
<path d="M7.09228 16.5005C13.1285 16.5005 16.431 11.4983 16.431 7.16173C16.431 7.0211 16.4279 6.87735 16.4216 6.73673C17.0641 6.27213 17.6185 5.69666 18.0588 5.03735C17.4605 5.30355 16.8253 5.47741 16.1748 5.55298C16.8597 5.14243 17.3725 4.49747 17.6182 3.73767C16.9739 4.11953 16.2692 4.3889 15.5345 4.53423C15.0394 4.0082 14.3848 3.6599 13.672 3.54319C12.9591 3.42648 12.2276 3.54786 11.5907 3.88855C10.9537 4.22925 10.4467 4.77029 10.1481 5.42803C9.84943 6.08577 9.77579 6.82356 9.93853 7.52735C8.63383 7.46188 7.35746 7.12296 6.19216 6.53255C5.02686 5.94215 3.99863 5.11345 3.17415 4.10017C2.7551 4.82265 2.62688 5.67758 2.81553 6.49122C3.00417 7.30485 3.49555 8.01612 4.18978 8.48048C3.66859 8.46393 3.15882 8.32361 2.70259 8.0711V8.11173C2.70212 8.86992 2.96424 9.60488 3.44438 10.1917C3.92452 10.7785 4.59305 11.1809 5.33634 11.3305C4.85354 11.4626 4.34683 11.4818 3.8554 11.3867C4.06514 12.0388 4.47322 12.6091 5.02269 13.018C5.57215 13.427 6.23559 13.6542 6.9204 13.668C5.75779 14.5812 4.32162 15.0766 2.84321 15.0742C2.58103 15.0738 2.3191 15.0578 2.05884 15.0261C3.56074 15.9897 5.30786 16.5014 7.09228 16.5005Z" fill="#4D1C8C"/>
</g>
<defs>
<clipPath id="clip0_5759_23765">
<rect width="16" height="16" fill="white" transform="translate(2.05884 2)"/>
</clipPath>
</defs>
</svg>
