<svg width="111" height="32" viewBox="0 0 111 32" fill="none" xmlns="http://www.w3.org/2000/svg">
<path d="M110.241 28.3113C110.241 30.0166 108.829 31.3979 107.084 31.3979H3.77616C2.03143 31.3979 0.615234 30.0166 0.615234 28.3113V3.69616C0.615234 1.99164 2.03143 0.605469 3.77616 0.605469H107.083C108.829 0.605469 110.24 1.99164 110.24 3.69616L110.241 28.3113Z" fill="black"/>
<path d="M24.7397 15.8263C24.7159 13.2479 26.9067 11.9935 27.0069 11.9351C25.7661 10.1727 23.843 9.93186 23.1672 9.91266C21.5519 9.74706 19.9851 10.8543 19.1623 10.8543C18.3231 10.8543 17.0561 9.92866 15.6905 9.95586C13.9332 9.98226 12.2892 10.9735 11.3876 12.5127C9.5268 15.6511 10.9146 20.2631 12.6973 22.7999C13.5891 24.0423 14.6312 25.4295 15.9951 25.3807C17.3295 25.3271 17.8279 24.5519 19.4382 24.5519C21.0338 24.5519 21.5018 25.3807 22.8929 25.3495C24.325 25.3271 25.2266 24.1015 26.0872 22.8479C27.1178 21.4239 27.5316 20.0215 27.5481 19.9495C27.5144 19.9383 24.7668 18.9167 24.7397 15.8263Z" fill="white"/>
<path d="M22.112 8.24386C22.8297 7.36946 23.3207 6.17986 23.1844 4.97266C22.1456 5.01746 20.8465 5.67266 20.0985 6.52786C19.4366 7.28146 18.8454 8.51666 18.9981 9.67826C20.165 9.76306 21.3631 9.10466 22.112 8.24386Z" fill="white"/>
<path d="M40.2782 8.00696C40.2782 8.94856 39.9883 9.65736 39.4094 10.1334C38.8732 10.5726 38.1111 10.7926 37.1241 10.7926C36.6347 10.7926 36.2159 10.7718 35.8652 10.7302V5.58536C36.3226 5.51336 36.8153 5.47656 37.3474 5.47656C38.2877 5.47656 38.9963 5.67576 39.4743 6.07416C40.0097 6.52456 40.2782 7.16856 40.2782 8.00696ZM39.3708 8.03016C39.3708 7.41976 39.2049 6.95176 38.8732 6.62536C38.5414 6.29976 38.0569 6.13656 37.4189 6.13656C37.1479 6.13656 36.9171 6.15416 36.7258 6.19096V10.1022C36.8317 10.1182 37.0255 10.1254 37.3072 10.1254C37.9658 10.1254 38.4741 9.94696 38.8321 9.59016C39.1901 9.23336 39.3708 8.71336 39.3708 8.03016Z" fill="white"/>
<path d="M45.0901 8.82964C45.0901 9.40964 44.9202 9.88484 44.5802 10.2576C44.2238 10.6408 43.7516 10.832 43.1621 10.832C42.5938 10.832 42.1413 10.6488 41.8038 10.2808C41.4672 9.91364 41.2988 9.45044 41.2988 8.89204C41.2988 8.30804 41.4721 7.82884 41.8203 7.45684C42.1684 7.08484 42.6365 6.89844 43.2261 6.89844C43.7943 6.89844 44.2509 7.08164 44.5966 7.44884C44.9251 7.80564 45.0901 8.26644 45.0901 8.82964ZM44.1975 8.85684C44.1975 8.50884 44.1203 8.21044 43.9668 7.96164C43.7861 7.66084 43.5291 7.51044 43.1949 7.51044C42.8492 7.51044 42.5864 7.66084 42.4058 7.96164C42.2514 8.21044 42.175 8.51364 42.175 8.87204C42.175 9.22004 42.2522 9.51844 42.4058 9.76724C42.5922 10.068 42.8516 10.2184 43.1867 10.2184C43.5152 10.2184 43.773 10.0656 43.9586 9.75924C44.1179 9.50564 44.1975 9.20484 44.1975 8.85684Z" fill="white"/>
<path d="M51.5402 6.97656L50.329 10.7478H49.5407L49.0389 9.11016C48.9116 8.70136 48.8082 8.29496 48.7277 7.89176H48.7121C48.6374 8.30616 48.5339 8.71176 48.4009 9.11016L47.8679 10.7478H47.0706L45.9316 6.97656H46.816L47.2537 8.76936C47.3596 9.19336 47.4467 9.59736 47.5165 9.97976H47.5321C47.5961 9.66456 47.7021 9.26296 47.8515 8.77736L48.4009 6.97736H49.1021L49.6285 8.73896C49.7558 9.16856 49.8593 9.58216 49.9389 9.98056H49.9627C50.021 9.59256 50.1089 9.17896 50.2255 8.73896L50.6952 6.97736H51.5402V6.97656Z" fill="white"/>
<path d="M56.0024 10.7488H55.1418V8.58884C55.1418 7.92324 54.8823 7.59044 54.3617 7.59044C54.1063 7.59044 53.9002 7.68164 53.7401 7.86484C53.5816 8.04804 53.5012 8.26404 53.5012 8.51124V10.748H52.6406V8.05524C52.6406 7.72404 52.6299 7.36484 52.6094 6.97604H53.3657L53.4059 7.56564H53.4297C53.5299 7.38244 53.6793 7.23124 53.8756 7.11044C54.1088 6.96964 54.3699 6.89844 54.6557 6.89844C55.017 6.89844 55.3176 7.01204 55.5565 7.24004C55.8538 7.51924 56.0024 7.93604 56.0024 8.48964V10.7488Z" fill="white"/>
<path d="M58.3754 10.7477H57.5156V5.24609H58.3754V10.7477Z" fill="white"/>
<path d="M63.4417 8.82964C63.4417 9.40964 63.2717 9.88484 62.9318 10.2576C62.5754 10.6408 62.1024 10.832 61.5136 10.832C60.9445 10.832 60.4921 10.6488 60.1554 10.2808C59.8187 9.91364 59.6504 9.45044 59.6504 8.89204C59.6504 8.30804 59.8237 7.82884 60.1718 7.45684C60.52 7.08484 60.9881 6.89844 61.5768 6.89844C62.1459 6.89844 62.6016 7.08164 62.9482 7.44884C63.2766 7.80564 63.4417 8.26644 63.4417 8.82964ZM62.5483 8.85684C62.5483 8.50884 62.4711 8.21044 62.3175 7.96164C62.1377 7.66084 61.8798 7.51044 61.5465 7.51044C61.1999 7.51044 60.9372 7.66084 60.7573 7.96164C60.6029 8.21044 60.5266 8.51364 60.5266 8.87204C60.5266 9.22004 60.6038 9.51844 60.7573 9.76724C60.9437 10.068 61.2032 10.2184 61.5382 10.2184C61.8667 10.2184 62.1237 10.0656 62.3093 9.75924C62.4694 9.50564 62.5483 9.20484 62.5483 8.85684Z" fill="white"/>
<path d="M67.6056 10.7464H66.8329L66.7689 10.312H66.7451C66.4806 10.6584 66.1037 10.832 65.6143 10.832C65.2489 10.832 64.9533 10.7176 64.7307 10.4904C64.5287 10.284 64.4277 10.0272 64.4277 9.72244C64.4277 9.26164 64.6248 8.91044 65.0214 8.66724C65.4172 8.42404 65.974 8.30484 66.6909 8.31044V8.24004C66.6909 7.74324 66.4232 7.49524 65.8869 7.49524C65.5051 7.49524 65.1684 7.58884 64.8777 7.77444L64.7028 7.22404C65.0625 7.00724 65.5067 6.89844 66.0306 6.89844C67.0423 6.89844 67.5498 7.41844 67.5498 8.45844V9.84724C67.5498 10.224 67.5687 10.524 67.6056 10.7464ZM66.7122 9.45044V8.86884C65.7629 8.85284 65.2883 9.10644 65.2883 9.62884C65.2883 9.82564 65.3425 9.97284 65.4534 10.0712C65.5642 10.1696 65.7055 10.2184 65.8738 10.2184C66.0627 10.2184 66.2392 10.16 66.4002 10.044C66.5619 9.92724 66.6613 9.77924 66.6982 9.59764C66.7073 9.55684 66.7122 9.50724 66.7122 9.45044Z" fill="white"/>
<path d="M72.496 10.7477H71.7323L71.6921 10.1421H71.6683C71.4244 10.6029 71.0089 10.8333 70.425 10.8333C69.9586 10.8333 69.5702 10.6549 69.2623 10.2981C68.9543 9.94129 68.8008 9.47809 68.8008 8.90929C68.8008 8.29889 68.9675 7.80449 69.3025 7.42689C69.6269 7.07489 70.0243 6.89889 70.4973 6.89889C71.0171 6.89889 71.3809 7.06929 71.5878 7.41089H71.6042V5.24609H72.4656V9.73169C72.4656 10.0989 72.4755 10.4373 72.496 10.7477ZM71.6042 9.15729V8.52849C71.6042 8.41969 71.596 8.33169 71.5804 8.26449C71.532 8.06289 71.4277 7.89329 71.2692 7.75649C71.1091 7.61969 70.9161 7.55089 70.6936 7.55089C70.3725 7.55089 70.1212 7.67489 69.9364 7.92369C69.7533 8.17249 69.6605 8.49009 69.6605 8.87809C69.6605 9.25089 69.7484 9.55329 69.925 9.78609C70.1114 10.0341 70.3626 10.1581 70.6771 10.1581C70.9596 10.1581 71.1854 10.0549 71.3571 9.84769C71.5229 9.65649 71.6042 9.42609 71.6042 9.15729Z" fill="white"/>
<path d="M79.8558 8.82964C79.8558 9.40964 79.6858 9.88484 79.3458 10.2576C78.9894 10.6408 78.5181 10.832 77.9277 10.832C77.3603 10.832 76.9078 10.6488 76.5695 10.2808C76.2328 9.91364 76.0645 9.45044 76.0645 8.89204C76.0645 8.30804 76.2377 7.82884 76.5859 7.45684C76.9341 7.08484 77.4021 6.89844 77.9925 6.89844C78.56 6.89844 79.0174 7.08164 79.3622 7.44884C79.6907 7.80564 79.8558 8.26644 79.8558 8.82964ZM78.964 8.85684C78.964 8.50884 78.8868 8.21044 78.7332 7.96164C78.5518 7.66084 78.2956 7.51044 77.9605 7.51044C77.6156 7.51044 77.3529 7.66084 77.1714 7.96164C77.017 8.21044 76.9406 8.51364 76.9406 8.87204C76.9406 9.22004 77.0178 9.51844 77.1714 9.76724C77.3578 10.068 77.6173 10.2184 77.9523 10.2184C78.2808 10.2184 78.5394 10.0656 78.725 9.75924C78.8835 9.50564 78.964 9.20484 78.964 8.85684Z" fill="white"/>
<path d="M84.484 10.7488H83.6243V8.58884C83.6243 7.92324 83.3648 7.59044 82.8433 7.59044C82.588 7.59044 82.3818 7.68164 82.2225 7.86484C82.0632 8.04804 81.9836 8.26404 81.9836 8.51124V10.748H81.1222V8.05524C81.1222 7.72404 81.1123 7.36484 81.0918 6.97604H81.8473L81.8875 7.56564H81.9113C82.0123 7.38244 82.1618 7.23124 82.3572 7.11044C82.5912 6.96964 82.8515 6.89844 83.1381 6.89844C83.4986 6.89844 83.7992 7.01204 84.0381 7.24004C84.3362 7.51924 84.484 7.93604 84.484 8.48964V10.7488Z" fill="white"/>
<path d="M90.2755 7.60626H89.3279V9.43826C89.3279 9.90386 89.4962 10.1367 89.8296 10.1367C89.984 10.1367 90.1121 10.1239 90.2131 10.0975L90.2353 10.7335C90.0653 10.7959 89.842 10.8271 89.5669 10.8271C89.2269 10.8271 88.9625 10.7263 88.7712 10.5247C88.579 10.3231 88.4837 9.98386 88.4837 9.50786V7.60626H87.918V6.97826H88.4837V6.28706L89.3271 6.03906V6.97746H90.2747V7.60626H90.2755Z" fill="white"/>
<path d="M94.8306 10.7477H93.9692V8.60369C93.9692 7.92769 93.7097 7.58929 93.1899 7.58929C92.7908 7.58929 92.5182 7.78529 92.3687 8.17729C92.3433 8.25969 92.3285 8.36049 92.3285 8.47889V10.7469H91.4688V5.24609H92.3285V7.51889H92.3449C92.6159 7.10529 93.0043 6.89889 93.5077 6.89889C93.8641 6.89889 94.1589 7.01249 94.3929 7.24049C94.6844 7.52449 94.8306 7.94689 94.8306 8.50529V10.7477Z" fill="white"/>
<path d="M99.5313 8.68182C99.5313 8.83222 99.5198 8.95862 99.4993 9.06182H96.9184C96.9299 9.43462 97.0531 9.71862 97.292 9.91542C97.5105 10.0914 97.7921 10.1794 98.137 10.1794C98.5188 10.1794 98.867 10.1202 99.1807 10.001L99.3154 10.5834C98.9483 10.7386 98.5164 10.8162 98.0163 10.8162C97.4168 10.8162 96.9447 10.6442 96.6031 10.3002C96.2598 9.95622 96.0898 9.49462 96.0898 8.91542C96.0898 8.34662 96.2483 7.87302 96.5678 7.49542C96.9012 7.09222 97.352 6.89062 97.921 6.89062C98.4778 6.89062 98.9007 7.09222 99.1865 7.49542C99.4172 7.81542 99.5313 8.21142 99.5313 8.68182ZM98.7102 8.46502C98.7167 8.21622 98.6601 8.00182 98.5435 7.82102C98.394 7.58822 98.1666 7.47142 97.8586 7.47142C97.5778 7.47142 97.3487 7.58502 97.1738 7.81302C97.0309 7.99462 96.9463 8.21142 96.9184 8.46502H98.7102Z" fill="white"/>
<path d="M44.0519 25.205H42.1871L41.1656 22.0778H37.6148L36.6418 25.205H34.8262L38.344 14.5586H40.5168L44.0519 25.205ZM40.8576 20.7658L39.9338 17.9858C39.8361 17.7018 39.653 17.033 39.3828 15.9802H39.35C39.2424 16.433 39.0691 17.1018 38.831 17.9858L37.9236 20.7658H40.8576Z" fill="white"/>
<path d="M53.0981 21.2727C53.0981 22.5783 52.736 23.6103 52.0117 24.3679C51.363 25.0423 50.5575 25.3791 49.5959 25.3791C48.5579 25.3791 47.8123 25.0159 47.3582 24.2895H47.3254V28.3335H45.5746V20.0559C45.5746 19.2351 45.5525 18.3927 45.5098 17.5287H47.0494L47.1472 18.7455H47.18C47.7639 17.8287 48.6499 17.3711 49.8389 17.3711C50.7685 17.3711 51.5445 17.7287 52.1653 18.4447C52.7877 19.1615 53.0981 20.1039 53.0981 21.2727ZM51.3146 21.3351C51.3146 20.5879 51.1421 19.9719 50.7956 19.4871C50.417 18.9815 49.9087 18.7287 49.2715 18.7287C48.8396 18.7287 48.4471 18.8695 48.0964 19.1471C47.745 19.4271 47.515 19.7927 47.4075 20.2455C47.3533 20.4567 47.3262 20.6295 47.3262 20.7655V22.0455C47.3262 22.6039 47.5019 23.0751 47.8534 23.4599C48.2048 23.8447 48.6614 24.0367 49.2231 24.0367C49.8825 24.0367 50.3957 23.7887 50.7628 23.2943C51.1306 22.7991 51.3146 22.1463 51.3146 21.3351Z" fill="white"/>
<path d="M62.1618 21.2727C62.1618 22.5783 61.7996 23.6103 61.0746 24.3679C60.4267 25.0423 59.6211 25.3791 58.6595 25.3791C57.6216 25.3791 56.8759 25.0159 56.4227 24.2895H56.3898V28.3335H54.6391V20.0559C54.6391 19.2351 54.6169 18.3927 54.5742 17.5287H56.1139L56.2116 18.7455H56.2445C56.8275 17.8287 57.7135 17.3711 58.9034 17.3711C59.8321 17.3711 60.6081 17.7287 61.2306 18.4447C61.8506 19.1615 62.1618 20.1039 62.1618 21.2727ZM60.3782 21.3351C60.3782 20.5879 60.2049 19.9719 59.8584 19.4871C59.4799 18.9815 58.9732 18.7287 58.3352 18.7287C57.9024 18.7287 57.5107 18.8695 57.1592 19.1471C56.8078 19.4271 56.5787 19.7927 56.4711 20.2455C56.4177 20.4567 56.3898 20.6295 56.3898 20.7655V22.0455C56.3898 22.6039 56.5655 23.0751 56.9154 23.4599C57.2668 23.8439 57.7234 24.0367 58.2867 24.0367C58.9461 24.0367 59.4593 23.7887 59.8264 23.2943C60.1943 22.7991 60.3782 22.1463 60.3782 21.3351Z" fill="white"/>
<path d="M72.2952 22.2191C72.2952 23.1247 71.9724 23.8615 71.3245 24.4303C70.6126 25.0519 69.6215 25.3623 68.3478 25.3623C67.1719 25.3623 66.2292 25.1415 65.5156 24.6991L65.9213 23.2775C66.6899 23.7303 67.5332 23.9575 68.4521 23.9575C69.1115 23.9575 69.6247 23.8119 69.9934 23.5223C70.3605 23.2327 70.5436 22.8439 70.5436 22.3591C70.5436 21.9271 70.3925 21.5631 70.0895 21.2679C69.7881 20.9727 69.2848 20.6983 68.5819 20.4447C66.6685 19.7495 65.7127 18.7311 65.7127 17.3919C65.7127 16.5167 66.0477 15.7991 66.7186 15.2407C67.3871 14.6815 68.2788 14.4023 69.394 14.4023C70.3884 14.4023 71.2145 14.5711 71.8739 14.9079L71.4362 16.2983C70.8203 15.9719 70.124 15.8087 69.3447 15.8087C68.7288 15.8087 68.2476 15.9567 67.9028 16.2511C67.6112 16.5143 67.4651 16.8351 67.4651 17.2151C67.4651 17.6359 67.6318 17.9839 67.9668 18.2575C68.2583 18.5103 68.788 18.7839 69.5566 19.0791C70.4968 19.4479 71.1874 19.8791 71.6317 20.3735C72.0743 20.8663 72.2952 21.4831 72.2952 22.2191Z" fill="white"/>
<path d="M78.084 18.8061H76.1543V22.5333C76.1543 23.4813 76.4943 23.9549 77.1758 23.9549C77.4887 23.9549 77.7482 23.9285 77.9535 23.8757L78.0019 25.1709C77.657 25.2965 77.2029 25.3597 76.6404 25.3597C75.949 25.3597 75.4087 25.1541 75.0186 24.7437C74.6302 24.3325 74.4348 23.6429 74.4348 22.6741V18.8045H73.2852V17.5245H74.4348V16.1189L76.1543 15.6133V17.5245H78.084V18.8061Z" fill="white"/>
<path d="M86.7904 21.3031C86.7904 22.4831 86.4439 23.4519 85.7524 24.2095C85.0273 24.9895 84.0649 25.3783 82.8652 25.3783C81.709 25.3783 80.7885 25.0047 80.102 24.2575C79.4155 23.5103 79.0723 22.5671 79.0723 21.4303C79.0723 20.2407 79.4254 19.2663 80.134 18.5087C80.8411 17.7503 81.7952 17.3711 82.995 17.3711C84.1512 17.3711 85.0815 17.7447 85.7836 18.4927C86.4553 19.2183 86.7904 20.1551 86.7904 21.3031ZM84.974 21.3583C84.974 20.6503 84.8188 20.0431 84.5043 19.5367C84.1372 18.9239 83.6125 18.6183 82.9326 18.6183C82.2288 18.6183 81.6942 18.9247 81.3272 19.5367C81.0127 20.0439 80.8575 20.6607 80.8575 21.3903C80.8575 22.0983 81.0127 22.7055 81.3272 23.2111C81.7057 23.8239 82.2346 24.1295 82.917 24.1295C83.5854 24.1295 84.1101 23.8175 84.4887 23.1951C84.8114 22.6791 84.974 22.0655 84.974 21.3583Z" fill="white"/>
<path d="M92.4815 19.0287C92.3082 18.9975 92.1235 18.9815 91.9297 18.9815C91.3138 18.9815 90.8375 19.2079 90.5025 19.6615C90.211 20.0615 90.0648 20.5671 90.0648 21.1775V25.2055H88.3149L88.3313 19.9463C88.3313 19.0615 88.3091 18.2559 88.2656 17.5295H89.7905L89.8546 18.9983H89.903C90.0878 18.4935 90.3793 18.0871 90.7784 17.7823C91.1685 17.5079 91.5897 17.3711 92.0438 17.3711C92.2056 17.3711 92.3518 17.3823 92.4815 17.4023V19.0287Z" fill="white"/>
<path d="M100.311 21.0027C100.311 21.3083 100.291 21.5659 100.247 21.7763H94.9953C95.0158 22.5347 95.2695 23.1147 95.7573 23.5147C96.1999 23.8723 96.7723 24.0515 97.4752 24.0515C98.2528 24.0515 98.9623 23.9307 99.6004 23.6883L99.8746 24.8723C99.129 25.1891 98.2487 25.3467 97.2329 25.3467C96.011 25.3467 95.0519 24.9963 94.3539 24.2963C93.6576 23.5963 93.3086 22.6563 93.3086 21.4771C93.3086 20.3195 93.633 19.3555 94.2825 18.5867C94.9624 17.7659 95.8813 17.3555 97.0375 17.3555C98.1732 17.3555 99.0329 17.7659 99.6168 18.5867C100.079 19.2387 100.311 20.0451 100.311 21.0027ZM98.6421 20.5603C98.6536 20.0547 98.5394 19.6179 98.3021 19.2491C97.9991 18.7747 97.5335 18.5379 96.9069 18.5379C96.3346 18.5379 95.869 18.7691 95.5134 19.2331C95.2219 19.6019 95.0486 20.0443 94.9953 20.5595H98.6421V20.5603Z" fill="white"/>
</svg>
