<svg width="112" height="32" viewBox="0 0 112 32" fill="none" xmlns="http://www.w3.org/2000/svg">
<path d="M106.946 32H4.11329C1.85201 32 0 30.199 0 28V4C0 1.80099 1.85201 -5.24521e-06 4.11329 -5.24521e-06H106.946C109.207 -5.24521e-06 111.059 1.80099 111.059 4V28C111.059 30.199 109.207 32 106.946 32Z" fill="black"/>
<path d="M8.58463 6.03135C8.34298 6.27735 8.20312 6.66035 8.20312 7.15635V24.8483C8.20312 25.3443 8.34298 25.7273 8.58463 25.9733L8.64427 26.0273L18.8391 16.1173V15.8833L8.64427 5.97335L8.58463 6.03135Z" fill="url(#paint0_linear_105_6728)"/>
<path d="M22.2343 19.4219L18.8398 16.1169V15.8829L22.2384 12.5779L22.3145 12.6209L26.3394 14.8479C27.488 15.4799 27.488 16.5199 26.3394 17.1559L22.3145 19.3789L22.2343 19.4219Z" fill="url(#paint1_linear_105_6728)"/>
<path d="M22.3131 19.378L18.8384 15.999L8.58398 25.972C8.96549 26.362 9.58763 26.409 10.2951 26.019L22.3131 19.378Z" fill="url(#paint2_linear_105_6728)"/>
<path d="M22.3131 12.621L10.2951 5.98C9.58763 5.594 8.96549 5.641 8.58398 6.031L18.8384 16L22.3131 12.621Z" fill="url(#paint3_linear_105_6728)"/>
<path d="M39.009 8.19518C39.009 8.86318 38.8033 9.39818 38.3981 9.79718C37.9323 10.2702 37.3256 10.5082 36.5821 10.5082C35.8715 10.5082 35.2648 10.2662 34.7671 9.78918C34.2684 9.30518 34.0195 8.71118 34.0195 8.00018C34.0195 7.28919 34.2684 6.69519 34.7671 6.21519C35.2648 5.73419 35.8715 5.49219 36.5821 5.49219C36.9359 5.49219 37.2731 5.56319 37.595 5.69519C37.9158 5.82819 38.177 6.00819 38.3663 6.23019L37.9364 6.65219C37.6063 6.27319 37.1569 6.08619 36.5821 6.08619C36.0638 6.08619 35.6145 6.26219 35.233 6.61719C34.8556 6.97319 34.6663 7.43419 34.6663 8.00018C34.6663 8.56618 34.8556 9.03118 35.233 9.38718C35.6145 9.73818 36.0638 9.91818 36.5821 9.91818C37.1323 9.91818 37.595 9.73818 37.9601 9.38318C38.2007 9.14818 38.3375 8.82418 38.3735 8.41018H36.5821V7.83218H38.9719C39.0007 7.95718 39.009 8.07818 39.009 8.19518Z" fill="white"/>
<path d="M42.8003 6.19056H40.5554V7.71056H42.5792V8.28856H40.5554V9.80856H42.8003V10.3976H39.9199V5.60156H42.8003V6.19056Z" fill="white"/>
<path d="M45.4753 10.3976H44.8398V6.19056H43.4629V5.60156H46.8533V6.19056H45.4753V10.3976Z" fill="white"/>
<path d="M49.3066 10.3976V5.60156H49.9411V10.3976H49.3066Z" fill="white"/>
<path d="M52.7546 10.3976H52.1242V6.19056H50.7422V5.60156H54.1367V6.19056H52.7546V10.3976Z" fill="white"/>
<path d="M60.5557 9.78118C60.0693 10.2662 59.4667 10.5082 58.7479 10.5082C58.025 10.5082 57.4224 10.2662 56.936 9.78118C56.4506 9.29718 56.209 8.70318 56.209 8.00018C56.209 7.29719 56.4506 6.70319 56.936 6.21919C57.4224 5.73419 58.025 5.49219 58.7479 5.49219C59.4626 5.49219 60.0652 5.73419 60.5516 6.22319C61.0411 6.71119 61.2827 7.30119 61.2827 8.00018C61.2827 8.70318 61.0411 9.29718 60.5557 9.78118ZM57.406 9.37918C57.772 9.73818 58.2173 9.91818 58.7479 9.91818C59.2744 9.91818 59.7238 9.73818 60.0858 9.37918C60.4508 9.02018 60.6359 8.55918 60.6359 8.00018C60.6359 7.44119 60.4508 6.98019 60.0858 6.62119C59.7238 6.26219 59.2744 6.08219 58.7479 6.08219C58.2173 6.08219 57.772 6.26219 57.406 6.62119C57.0409 6.98019 56.8558 7.44119 56.8558 8.00018C56.8558 8.55918 57.0409 9.02018 57.406 9.37918Z" fill="white"/>
<path d="M62.1738 10.3976V5.60156H62.9451L65.3431 9.33156H65.3709L65.3431 8.40956V5.60156H65.9776V10.3976H65.3154L62.8042 6.48356H62.7764L62.8042 7.40956V10.3976H62.1738Z" fill="white"/>
<path d="M56.0516 17.4017C54.1194 17.4017 52.5409 18.8317 52.5409 20.8047C52.5409 22.7617 54.1194 24.2067 56.0516 24.2067C57.988 24.2067 59.5664 22.7617 59.5664 20.8047C59.5664 18.8317 57.988 17.4017 56.0516 17.4017ZM56.0516 22.8667C54.9914 22.8667 54.0793 22.0157 54.0793 20.8047C54.0793 19.5777 54.9914 18.7417 56.0516 18.7417C57.1118 18.7417 58.0281 19.5777 58.0281 20.8047C58.0281 22.0157 57.1118 22.8667 56.0516 22.8667ZM48.3917 17.4017C46.4553 17.4017 44.881 18.8317 44.881 20.8047C44.881 22.7617 46.4553 24.2067 48.3917 24.2067C50.327 24.2067 51.9023 22.7617 51.9023 20.8047C51.9023 18.8317 50.327 17.4017 48.3917 17.4017ZM48.3917 22.8667C47.3304 22.8667 46.4152 22.0157 46.4152 20.8047C46.4152 19.5777 47.3304 18.7417 48.3917 18.7417C49.4519 18.7417 50.364 19.5777 50.364 20.8047C50.364 22.0157 49.4519 22.8667 48.3917 22.8667ZM39.2766 18.4447V19.8907H42.8274C42.7235 20.6987 42.4459 21.2927 42.0202 21.7067C41.5019 22.2067 40.6947 22.7617 39.2766 22.7617C37.0914 22.7617 35.3803 21.0467 35.3803 18.9217C35.3803 16.7967 37.0914 15.0817 39.2766 15.0817C40.4582 15.0817 41.3178 15.5307 41.9523 16.1127L43.0002 15.0937C42.1127 14.2697 40.9322 13.6367 39.2766 13.6367C36.2801 13.6367 33.7617 16.0077 33.7617 18.9217C33.7617 21.8357 36.2801 24.2067 39.2766 24.2067C40.8962 24.2067 42.1127 23.6907 43.0691 22.7227C44.0491 21.7697 44.3545 20.4297 44.3545 19.3477C44.3545 19.0117 44.3257 18.7027 44.2743 18.4447H39.2766ZM76.5492 19.5657C76.2602 18.8047 75.3687 17.4017 73.5526 17.4017C71.7531 17.4017 70.2548 18.7807 70.2548 20.8047C70.2548 22.7107 71.7377 24.2067 73.7254 24.2067C75.3327 24.2067 76.2602 23.2537 76.6417 22.6987L75.4489 21.9257C75.0509 22.4917 74.509 22.8667 73.7254 22.8667C72.947 22.8667 72.3886 22.5197 72.0307 21.8357L76.7106 19.9527L76.5492 19.5657ZM71.7778 20.6987C71.7377 19.3867 72.8256 18.7147 73.6051 18.7147C74.2159 18.7147 74.7342 19.0117 74.9069 19.4367L71.7778 20.6987ZM67.974 23.9997H69.5124V13.9997H67.974V23.9997ZM65.4546 18.1597H65.4032C65.0577 17.7617 64.3985 17.4017 63.5635 17.4017C61.8113 17.4017 60.2091 18.8977 60.2091 20.8157C60.2091 22.7227 61.8113 24.2067 63.5635 24.2067C64.3985 24.2067 65.0577 23.8437 65.4032 23.4337H65.4546V23.9217C65.4546 25.2227 64.7399 25.9217 63.5872 25.9217C62.6473 25.9217 62.0642 25.2617 61.8236 24.7067L60.4858 25.2497C60.8714 26.1517 61.8925 27.2617 63.5872 27.2617C65.3908 27.2617 66.9128 26.2297 66.9128 23.7187V17.6087H65.4546V18.1597ZM63.6951 22.8667C62.6349 22.8667 61.7475 22.0037 61.7475 20.8157C61.7475 19.6167 62.6349 18.7417 63.6951 18.7417C64.7399 18.7417 65.5636 19.6167 65.5636 20.8157C65.5636 22.0037 64.7399 22.8667 63.6951 22.8667ZM83.7515 13.9997H80.0722V23.9997H81.6065V20.2107H83.7515C85.4555 20.2107 87.1265 19.0117 87.1265 17.1047C87.1265 15.1987 85.4514 13.9997 83.7515 13.9997ZM83.7916 18.8197H81.6065V15.3907H83.7916C84.9372 15.3907 85.5912 16.3157 85.5912 17.1047C85.5912 17.8787 84.9372 18.8197 83.7916 18.8197ZM93.2759 17.3827C92.1673 17.3827 91.0146 17.8587 90.5405 18.9137L91.902 19.4687C92.1951 18.9137 92.7339 18.7337 93.3036 18.7337C94.0995 18.7337 94.9068 19.1987 94.9191 20.0197V20.1247C94.6415 19.9687 94.0471 19.7377 93.316 19.7377C91.8496 19.7377 90.3554 20.5227 90.3554 21.9877C90.3554 23.3277 91.5565 24.1907 92.9067 24.1907C93.9391 24.1907 94.5088 23.7377 94.8667 23.2107H94.9191V23.9837H96.4009V20.1477C96.4009 18.3747 95.0394 17.3827 93.2759 17.3827ZM93.0908 22.8627C92.5889 22.8627 91.8897 22.6207 91.8897 22.0157C91.8897 21.2417 92.7617 20.9447 93.5165 20.9447C94.1921 20.9447 94.5088 21.0897 94.9191 21.2807C94.7988 22.2067 93.9792 22.8627 93.0908 22.8627ZM101.8 17.6017L100.036 21.9367H99.9836L98.1604 17.6017H96.5058L99.2453 23.6597L97.6822 27.0307H99.2854L103.507 17.6017H101.8ZM87.9697 23.9997H89.5081V13.9997H87.9697V23.9997Z" fill="white"/>
<defs>
<linearGradient id="paint0_linear_105_6728" x1="17.9339" y1="25.0326" x2="4.5132" y2="11.2318" gradientUnits="userSpaceOnUse">
<stop stop-color="#00A0FF"/>
<stop offset="0.0066" stop-color="#00A1FF"/>
<stop offset="0.2601" stop-color="#00BEFF"/>
<stop offset="0.5122" stop-color="#00D2FF"/>
<stop offset="0.7604" stop-color="#00DFFF"/>
<stop offset="1" stop-color="#00E3FF"/>
</linearGradient>
<linearGradient id="paint1_linear_105_6728" x1="27.8351" y1="15.9988" x2="7.92935" y2="15.9988" gradientUnits="userSpaceOnUse">
<stop stop-color="#FFE000"/>
<stop offset="0.4087" stop-color="#FFBD00"/>
<stop offset="0.7754" stop-color="#FFA500"/>
<stop offset="1" stop-color="#FF9C00"/>
</linearGradient>
<linearGradient id="paint2_linear_105_6728" x1="20.4237" y1="14.1621" x2="2.22413" y2="-4.55287" gradientUnits="userSpaceOnUse">
<stop stop-color="#FF3A44"/>
<stop offset="1" stop-color="#C31162"/>
</linearGradient>
<linearGradient id="paint3_linear_105_6728" x1="6.00273" y1="31.859" x2="14.1296" y2="23.502" gradientUnits="userSpaceOnUse">
<stop stop-color="#32A071"/>
<stop offset="0.0685" stop-color="#2DA771"/>
<stop offset="0.4762" stop-color="#15CF74"/>
<stop offset="0.8009" stop-color="#06E775"/>
<stop offset="1" stop-color="#00F076"/>
</linearGradient>
</defs>
</svg>
