<svg width="112" height="32" viewBox="0 0 112 32" fill="none" xmlns="http://www.w3.org/2000/svg">
<path d="M110.443 28.3093C110.443 30.0146 109.032 31.396 107.286 31.396H3.97855C2.23383 31.396 0.817627 30.0146 0.817627 28.3093V3.69421C0.817627 1.98969 2.23383 0.603516 3.97855 0.603516H107.285C109.032 0.603516 110.442 1.98969 110.442 3.69421L110.443 28.3093Z" fill="black"/>
<path d="M24.9416 15.8263C24.9178 13.2479 27.1086 11.9935 27.2088 11.9351C25.968 10.1727 24.0449 9.93186 23.3691 9.91266C21.7538 9.74706 20.187 10.8543 19.3642 10.8543C18.525 10.8543 17.258 9.92866 15.8924 9.95586C14.1351 9.98226 12.4911 10.9735 11.5895 12.5127C9.7287 15.6511 11.1165 20.2631 12.8992 22.7999C13.791 24.0423 14.8331 25.4295 16.197 25.3807C17.5314 25.3271 18.0299 24.5519 19.6402 24.5519C21.2357 24.5519 21.7037 25.3807 23.0948 25.3495C24.5269 25.3271 25.4285 24.1015 26.2891 22.8479C27.3197 21.4239 27.7335 20.0215 27.75 19.9495C27.7163 19.9383 24.9687 18.9167 24.9416 15.8263Z" fill="white"/>
<path d="M22.3139 8.24386C23.0316 7.36946 23.5226 6.17986 23.3863 4.97266C22.3475 5.01746 21.0484 5.67266 20.3004 6.52786C19.6385 7.28146 19.0473 8.51666 19.2 9.67826C20.3669 9.76306 21.565 9.10466 22.3139 8.24386Z" fill="white"/>
<path d="M40.4798 8.00696C40.4798 8.94856 40.19 9.65736 39.611 10.1334C39.0748 10.5726 38.3128 10.7926 37.3257 10.7926C36.8363 10.7926 36.4175 10.7718 36.0669 10.7302V5.58536C36.5243 5.51336 37.017 5.47656 37.5491 5.47656C38.4893 5.47656 39.198 5.67576 39.6759 6.07416C40.2113 6.52456 40.4798 7.16856 40.4798 8.00696ZM39.5725 8.03016C39.5725 7.41976 39.4066 6.95176 39.0748 6.62536C38.7431 6.29976 38.2586 6.13656 37.6205 6.13656C37.3496 6.13656 37.1188 6.15416 36.9275 6.19096V10.1022C37.0334 10.1182 37.2272 10.1254 37.5089 10.1254C38.1674 10.1254 38.6757 9.94696 39.0338 9.59016C39.3918 9.23336 39.5725 8.71336 39.5725 8.03016Z" fill="white"/>
<path d="M45.2911 8.82964C45.2911 9.40964 45.1211 9.88484 44.7811 10.2576C44.4247 10.6408 43.9526 10.832 43.363 10.832C42.7947 10.832 42.3423 10.6488 42.0048 10.2808C41.6681 9.91364 41.4998 9.45044 41.4998 8.89204C41.4998 8.30804 41.673 7.82884 42.0212 7.45684C42.3694 7.08484 42.8374 6.89844 43.427 6.89844C43.9953 6.89844 44.4518 7.08164 44.7976 7.44884C45.126 7.80564 45.2911 8.26644 45.2911 8.82964ZM44.3985 8.85684C44.3985 8.50884 44.3213 8.21044 44.1677 7.96164C43.9871 7.66084 43.73 7.51044 43.3958 7.51044C43.0501 7.51044 42.7873 7.66084 42.6067 7.96164C42.4523 8.21044 42.3759 8.51364 42.3759 8.87204C42.3759 9.22004 42.4531 9.51844 42.6067 9.76724C42.7931 10.068 43.0526 10.2184 43.3876 10.2184C43.7161 10.2184 43.9739 10.0656 44.1595 9.75924C44.3188 9.50564 44.3985 9.20484 44.3985 8.85684Z" fill="white"/>
<path d="M51.7421 6.97461L50.5309 10.7458H49.7426L49.2408 9.10821C49.1135 8.69941 49.0101 8.29301 48.9296 7.88981H48.914C48.8393 8.30421 48.7358 8.70981 48.6028 9.10821L48.0698 10.7458H47.2725L46.1335 6.97461H47.0179L47.4556 8.76741C47.5615 9.19141 47.6486 9.59541 47.7184 9.97781H47.734C47.798 9.66261 47.904 9.26101 48.0534 8.77541L48.6028 6.97541H49.3041L49.8304 8.73701C49.9577 9.16661 50.0612 9.58021 50.1408 9.97861H50.1646C50.2229 9.59061 50.3108 9.17701 50.4274 8.73701L50.8971 6.97541H51.7421V6.97461Z" fill="white"/>
<path d="M56.2036 10.7449H55.343V8.58493C55.343 7.91933 55.0835 7.58653 54.5629 7.58653C54.3075 7.58653 54.1014 7.67773 53.9413 7.86093C53.7828 8.04413 53.7023 8.26013 53.7023 8.50733V10.7441H52.8417V8.05133C52.8417 7.72013 52.8311 7.36093 52.8105 6.97213H53.5668L53.6071 7.56173H53.6309C53.7311 7.37853 53.8805 7.22733 54.0768 7.10653C54.31 6.96573 54.5711 6.89453 54.8569 6.89453C55.2182 6.89453 55.5187 7.00813 55.7577 7.23613C56.055 7.51533 56.2036 7.93213 56.2036 8.48573V10.7449Z" fill="white"/>
<path d="M58.5765 10.7457H57.7168V5.24414H58.5765V10.7457Z" fill="white"/>
<path d="M63.6434 8.82964C63.6434 9.40964 63.4734 9.88484 63.1334 10.2576C62.777 10.6408 62.304 10.832 61.7153 10.832C61.1462 10.832 60.6937 10.6488 60.3571 10.2808C60.0204 9.91364 59.8521 9.45044 59.8521 8.89204C59.8521 8.30804 60.0253 7.82884 60.3735 7.45684C60.7217 7.08484 61.1897 6.89844 61.7785 6.89844C62.3476 6.89844 62.8033 7.08164 63.1498 7.44884C63.4783 7.80564 63.6434 8.26644 63.6434 8.82964ZM62.7499 8.85684C62.7499 8.50884 62.6727 8.21044 62.5192 7.96164C62.3394 7.66084 62.0815 7.51044 61.7481 7.51044C61.4016 7.51044 61.1388 7.66084 60.959 7.96164C60.8046 8.21044 60.7282 8.51364 60.7282 8.87204C60.7282 9.22004 60.8054 9.51844 60.959 9.76724C61.1454 10.068 61.4049 10.2184 61.7399 10.2184C62.0684 10.2184 62.3254 10.0656 62.511 9.75924C62.6711 9.50564 62.7499 9.20484 62.7499 8.85684Z" fill="white"/>
<path d="M67.8083 10.7464H67.0356L66.9715 10.312H66.9477C66.6833 10.6584 66.3064 10.832 65.817 10.832C65.4515 10.832 65.1559 10.7176 64.9334 10.4904C64.7314 10.284 64.6304 10.0272 64.6304 9.72244C64.6304 9.26164 64.8274 8.91044 65.2241 8.66724C65.6199 8.42404 66.1766 8.30484 66.8935 8.31044V8.24004C66.8935 7.74324 66.6258 7.49524 66.0896 7.49524C65.7077 7.49524 65.3711 7.58884 65.0804 7.77444L64.9055 7.22404C65.2651 7.00724 65.7094 6.89844 66.2333 6.89844C67.245 6.89844 67.7524 7.41844 67.7524 8.45844V9.84724C67.7524 10.224 67.7713 10.524 67.8083 10.7464ZM66.9148 9.45044V8.86884C65.9656 8.85284 65.491 9.10644 65.491 9.62884C65.491 9.82564 65.5451 9.97284 65.656 10.0712C65.7669 10.1696 65.9081 10.2184 66.0764 10.2184C66.2653 10.2184 66.4419 10.16 66.6028 10.044C66.7646 9.92724 66.8639 9.77924 66.9009 9.59764C66.9099 9.55684 66.9148 9.50724 66.9148 9.45044Z" fill="white"/>
<path d="M72.6982 10.7457H71.9345L71.8942 10.1401H71.8704C71.6265 10.6009 71.211 10.8313 70.6272 10.8313C70.1608 10.8313 69.7724 10.6529 69.4644 10.2961C69.1565 9.93934 69.0029 9.47614 69.0029 8.90734C69.0029 8.29694 69.1696 7.80254 69.5047 7.42494C69.829 7.07294 70.2265 6.89694 70.6994 6.89694C71.2192 6.89694 71.583 7.06734 71.79 7.40894H71.8064V5.24414H72.6678V9.72974C72.6678 10.0969 72.6776 10.4353 72.6982 10.7457ZM71.8064 9.15534V8.52654C71.8064 8.41774 71.7982 8.32974 71.7826 8.26254C71.7341 8.06094 71.6298 7.89134 71.4713 7.75454C71.3112 7.61774 71.1182 7.54894 70.8957 7.54894C70.5746 7.54894 70.3234 7.67294 70.1386 7.92174C69.9555 8.17054 69.8627 8.48814 69.8627 8.87614C69.8627 9.24894 69.9505 9.55134 70.1271 9.78414C70.3135 10.0321 70.5648 10.1561 70.8793 10.1561C71.1618 10.1561 71.3876 10.0529 71.5592 9.84574C71.7251 9.65454 71.8064 9.42414 71.8064 9.15534Z" fill="white"/>
<path d="M80.0584 8.82964C80.0584 9.40964 79.8884 9.88484 79.5485 10.2576C79.1921 10.6408 78.7207 10.832 78.1303 10.832C77.5629 10.832 77.1104 10.6488 76.7721 10.2808C76.4354 9.91364 76.2671 9.45044 76.2671 8.89204C76.2671 8.30804 76.4404 7.82884 76.7885 7.45684C77.1367 7.08484 77.6048 6.89844 78.1952 6.89844C78.7626 6.89844 79.22 7.08164 79.5649 7.44884C79.8934 7.80564 80.0584 8.26644 80.0584 8.82964ZM79.1666 8.85684C79.1666 8.50884 79.0894 8.21044 78.9359 7.96164C78.7544 7.66084 78.4982 7.51044 78.1632 7.51044C77.8183 7.51044 77.5555 7.66084 77.374 7.96164C77.2196 8.21044 77.1433 8.51364 77.1433 8.87204C77.1433 9.22004 77.2205 9.51844 77.374 9.76724C77.5604 10.068 77.8199 10.2184 78.1549 10.2184C78.4834 10.2184 78.7421 10.0656 78.9277 9.75924C79.0861 9.50564 79.1666 9.20484 79.1666 8.85684Z" fill="white"/>
<path d="M84.6857 10.7449H83.8259V8.58493C83.8259 7.91933 83.5664 7.58653 83.045 7.58653C82.7896 7.58653 82.5835 7.67773 82.4242 7.86093C82.2649 8.04413 82.1852 8.26013 82.1852 8.50733V10.7441H81.3238V8.05133C81.3238 7.72013 81.314 7.36093 81.2935 6.97213H82.0489L82.0892 7.56173H82.113C82.214 7.37853 82.3634 7.22733 82.5589 7.10653C82.7929 6.96573 83.0532 6.89453 83.3398 6.89453C83.7003 6.89453 84.0008 7.00813 84.2398 7.23613C84.5379 7.51533 84.6857 7.93213 84.6857 8.48573V10.7449Z" fill="white"/>
<path d="M90.4772 7.60236H89.5296V9.43436C89.5296 9.89996 89.6979 10.1328 90.0313 10.1328C90.1857 10.1328 90.3138 10.12 90.4148 10.0936L90.437 10.7296C90.267 10.792 90.0436 10.8232 89.7685 10.8232C89.4286 10.8232 89.1641 10.7224 88.9728 10.5208C88.7807 10.3192 88.6854 9.97996 88.6854 9.50396V7.60236H88.1196V6.97436H88.6854V6.28316L89.5287 6.03516V6.97356H90.4764V7.60236H90.4772Z" fill="white"/>
<path d="M95.033 10.7457H94.1716V8.60174C94.1716 7.92574 93.9121 7.58734 93.3923 7.58734C92.9932 7.58734 92.7206 7.78334 92.5711 8.17534C92.5457 8.25774 92.5309 8.35854 92.5309 8.47694V10.7449H91.6711V5.24414H92.5309V7.51694H92.5473C92.8183 7.10334 93.2067 6.89694 93.7101 6.89694C94.0665 6.89694 94.3613 7.01054 94.5953 7.23854C94.8868 7.52254 95.033 7.94494 95.033 8.50334V10.7457Z" fill="white"/>
<path d="M99.7325 8.68182C99.7325 8.83222 99.721 8.95862 99.7005 9.06182H97.1196C97.1311 9.43462 97.2542 9.71862 97.4932 9.91542C97.7116 10.0914 97.9933 10.1794 98.3382 10.1794C98.72 10.1794 99.0682 10.1202 99.3819 10.001L99.5165 10.5834C99.1495 10.7386 98.7176 10.8162 98.2175 10.8162C97.618 10.8162 97.1458 10.6442 96.8042 10.3002C96.461 9.95622 96.291 9.49462 96.291 8.91542C96.291 8.34662 96.4495 7.87302 96.7689 7.49542C97.1023 7.09222 97.5531 6.89062 98.1222 6.89062C98.679 6.89062 99.1019 7.09222 99.3876 7.49542C99.6184 7.81542 99.7325 8.21142 99.7325 8.68182ZM98.9113 8.46502C98.9179 8.21622 98.8613 8.00182 98.7447 7.82102C98.5952 7.58822 98.3677 7.47142 98.0598 7.47142C97.779 7.47142 97.5499 7.58502 97.375 7.81302C97.2321 7.99462 97.1475 8.21142 97.1196 8.46502H98.9113Z" fill="white"/>
<path d="M44.2531 25.203H42.3883L41.3667 22.0758H37.816L36.8429 25.203H35.0273L38.5452 14.5566H40.718L44.2531 25.203ZM41.0588 20.7638L40.135 17.9838C40.0373 17.6998 39.8541 17.031 39.584 15.9782H39.5511C39.4436 16.431 39.2703 17.0998 39.0322 17.9838L38.1248 20.7638H41.0588Z" fill="white"/>
<path d="M53.2998 21.2707C53.2998 22.5763 52.9377 23.6083 52.2134 24.3659C51.5647 25.0403 50.7591 25.3771 49.7975 25.3771C48.7596 25.3771 48.014 25.0139 47.5599 24.2875H47.527V28.3315H45.7763V20.0539C45.7763 19.2331 45.7541 18.3907 45.7114 17.5267H47.2511L47.3488 18.7435H47.3817C47.9655 17.8267 48.8516 17.3691 50.0406 17.3691C50.9702 17.3691 51.7462 17.7267 52.367 18.4427C52.9894 19.1595 53.2998 20.1019 53.2998 21.2707ZM51.5162 21.3331C51.5162 20.5859 51.3438 19.9699 50.9973 19.4851C50.6187 18.9795 50.1104 18.7267 49.4732 18.7267C49.0412 18.7267 48.6487 18.8675 48.2981 19.1451C47.9466 19.4251 47.7167 19.7907 47.6091 20.2435C47.5549 20.4547 47.5278 20.6275 47.5278 20.7635V22.0435C47.5278 22.6019 47.7036 23.0731 48.055 23.4579C48.4065 23.8427 48.8631 24.0347 49.4247 24.0347C50.0841 24.0347 50.5974 23.7867 50.9644 23.2923C51.3323 22.7971 51.5162 22.1443 51.5162 21.3331Z" fill="white"/>
<path d="M62.3632 21.2707C62.3632 22.5763 62.0011 23.6083 61.276 24.3659C60.6281 25.0403 59.8225 25.3771 58.8609 25.3771C57.823 25.3771 57.0774 25.0139 56.6241 24.2875H56.5912V28.3315H54.8405V20.0539C54.8405 19.2331 54.8183 18.3907 54.7756 17.5267H56.3153L56.413 18.7435H56.4459C57.0289 17.8267 57.9149 17.3691 59.1048 17.3691C60.0336 17.3691 60.8096 17.7267 61.432 18.4427C62.052 19.1595 62.3632 20.1019 62.3632 21.2707ZM60.5796 21.3331C60.5796 20.5859 60.4064 19.9699 60.0598 19.4851C59.6813 18.9795 59.1746 18.7267 58.5366 18.7267C58.1038 18.7267 57.7121 18.8675 57.3607 19.1451C57.0092 19.4251 56.7801 19.7907 56.6725 20.2435C56.6191 20.4547 56.5912 20.6275 56.5912 20.7635V22.0435C56.5912 22.6019 56.767 23.0731 57.1168 23.4579C57.4682 23.8419 57.9248 24.0347 58.4881 24.0347C59.1475 24.0347 59.6607 23.7867 60.0278 23.2923C60.3957 22.7971 60.5796 22.1443 60.5796 21.3331Z" fill="white"/>
<path d="M72.4963 22.2172C72.4963 23.1228 72.1736 23.8596 71.5257 24.4284C70.8138 25.05 69.8226 25.3604 68.549 25.3604C67.3731 25.3604 66.4304 25.1396 65.7168 24.6972L66.1225 23.2756C66.8911 23.7284 67.7344 23.9556 68.6533 23.9556C69.3127 23.9556 69.8259 23.81 70.1946 23.5204C70.5617 23.2308 70.7448 22.842 70.7448 22.3572C70.7448 21.9252 70.5937 21.5612 70.2907 21.266C69.9893 20.9708 69.4859 20.6964 68.783 20.4428C66.8697 19.7476 65.9139 18.7292 65.9139 17.39C65.9139 16.5148 66.2489 15.7972 66.9198 15.2388C67.5882 14.6796 68.48 14.4004 69.5952 14.4004C70.5896 14.4004 71.4157 14.5692 72.0751 14.906L71.6374 16.2964C71.0215 15.97 70.3252 15.8068 69.5459 15.8068C68.93 15.8068 68.4488 15.9548 68.1039 16.2492C67.8124 16.5124 67.6662 16.8332 67.6662 17.2132C67.6662 17.634 67.8329 17.982 68.168 18.2556C68.4595 18.5084 68.9891 18.782 69.7578 19.0772C70.698 19.446 71.3886 19.8772 71.8328 20.3716C72.2754 20.8644 72.4963 21.4812 72.4963 22.2172Z" fill="white"/>
<path d="M78.2847 18.8061H76.355V22.5333C76.355 23.4813 76.6949 23.9549 77.3765 23.9549C77.6894 23.9549 77.9489 23.9285 78.1542 23.8757L78.2026 25.1709C77.8577 25.2965 77.4036 25.3597 76.8411 25.3597C76.1497 25.3597 75.6094 25.1541 75.2193 24.7437C74.8309 24.3325 74.6355 23.6429 74.6355 22.6741V18.8045H73.4858V17.5245H74.6355V16.1189L76.355 15.6133V17.5245H78.2847V18.8061Z" fill="white"/>
<path d="M86.9913 21.3011C86.9913 22.4811 86.6448 23.4499 85.9534 24.2075C85.2283 24.9875 84.2659 25.3763 83.0661 25.3763C81.91 25.3763 80.9894 25.0027 80.3029 24.2555C79.6164 23.5083 79.2732 22.5651 79.2732 21.4283C79.2732 20.2387 79.6263 19.2643 80.335 18.5067C81.042 17.7483 81.9962 17.3691 83.1959 17.3691C84.3521 17.3691 85.2825 17.7427 85.9846 18.4907C86.6563 19.2163 86.9913 20.1531 86.9913 21.3011ZM85.1749 21.3563C85.1749 20.6483 85.0197 20.0411 84.7052 19.5347C84.3381 18.9219 83.8134 18.6163 83.1335 18.6163C82.4297 18.6163 81.8952 18.9227 81.5281 19.5347C81.2136 20.0419 81.0584 20.6587 81.0584 21.3883C81.0584 22.0963 81.2136 22.7035 81.5281 23.2091C81.9067 23.8219 82.4355 24.1275 83.1179 24.1275C83.7863 24.1275 84.311 23.8155 84.6896 23.1931C85.0123 22.6771 85.1749 22.0635 85.1749 21.3563Z" fill="white"/>
<path d="M92.6822 19.0267C92.5089 18.9955 92.3242 18.9795 92.1304 18.9795C91.5145 18.9795 91.0382 19.2059 90.7032 19.6595C90.4117 20.0595 90.2655 20.5651 90.2655 21.1755V25.2035H88.5156L88.532 19.9443C88.532 19.0595 88.5098 18.2539 88.4663 17.5275H89.9912L90.0553 18.9963H90.1037C90.2885 18.4915 90.58 18.0851 90.9791 17.7803C91.3691 17.5059 91.7904 17.3691 92.2445 17.3691C92.4063 17.3691 92.5524 17.3803 92.6822 17.4003V19.0267Z" fill="white"/>
<path d="M100.512 21.0007C100.512 21.3063 100.491 21.5639 100.448 21.7743H95.1957C95.2162 22.5327 95.47 23.1127 95.9577 23.5127C96.4004 23.8703 96.9727 24.0495 97.6756 24.0495C98.4533 24.0495 99.1627 23.9287 99.8008 23.6863L100.075 24.8703C99.3294 25.1871 98.4492 25.3447 97.4334 25.3447C96.2115 25.3447 95.2524 24.9943 94.5544 24.2943C93.858 23.5943 93.509 22.6543 93.509 21.4751C93.509 20.3175 93.8334 19.3535 94.4829 18.5847C95.1629 17.7639 96.0817 17.3535 97.2379 17.3535C98.3736 17.3535 99.2334 17.7639 99.8172 18.5847C100.28 19.2367 100.512 20.0431 100.512 21.0007ZM98.8425 20.5583C98.854 20.0527 98.7398 19.6159 98.5025 19.2471C98.1995 18.7727 97.7339 18.5359 97.1074 18.5359C96.535 18.5359 96.0694 18.7671 95.7139 19.2311C95.4223 19.5999 95.2491 20.0423 95.1957 20.5575H98.8425V20.5583Z" fill="white"/>
</svg>
