<svg width="51" height="50" viewBox="0 0 51 50" fill="none" xmlns="http://www.w3.org/2000/svg">
<rect x="0.5" width="50" height="50" rx="8" fill="#F2F5FF"/>
<path d="M28.2777 19.8159C26.9555 19.8159 25.7035 20.1086 24.574 20.6271V15.7084C25.6222 15.5306 26.4259 14.6194 26.4259 13.5194V10.5563C26.4259 9.33048 25.4297 8.33398 24.2035 8.33398H16.0554C14.8295 8.33398 13.833 9.33015 13.833 10.5563V13.5194C13.833 14.6194 14.6367 15.5303 15.6849 15.7084L15.6851 37.2229C15.6851 39.6747 17.6778 41.6673 20.1295 41.6673C22.5812 41.6673 24.5739 39.6747 24.5739 37.2229V36.7822C25.7034 37.3007 26.9554 37.5934 28.2776 37.5934C33.1777 37.5934 37.1665 33.6045 37.1665 28.7045C37.1665 23.8041 33.1778 19.8157 28.2776 19.8157L28.2777 19.8159ZM22.7222 9.81586H24.2035C24.6109 9.81586 24.9442 10.1491 24.9442 10.5565V13.5196C24.9442 13.927 24.6109 14.2602 24.2035 14.2602H22.7222V9.81586ZM23.0926 15.7419V21.4899C22.8407 21.6713 22.6 21.864 22.3703 22.0676C20.5703 20.9342 18.285 20.4566 17.1666 20.2788V15.7419L23.0926 15.7419ZM19.0184 9.81586H21.2408V14.2602H19.0184V9.81586ZM16.0554 14.2605C15.648 14.2605 15.3147 13.9272 15.3147 13.5198V10.5568C15.3147 10.1494 15.648 9.81613 16.0554 9.81613H17.5368V14.2605H16.0554ZM23.0924 37.2235C23.0924 38.8567 21.7627 40.1865 20.1294 40.1865C18.4961 40.1865 17.1664 38.8568 17.1664 37.2235V21.779C18.3256 21.979 19.9997 22.4122 21.3294 23.1716C20.1147 24.6938 19.3887 26.6159 19.3887 28.7049C19.3887 31.6715 20.8517 34.3012 23.0924 35.9198L23.0924 37.2235ZM28.2775 36.1123C24.1922 36.1123 20.8701 32.7902 20.8701 28.7049C20.8701 24.6196 24.1922 21.2975 28.2775 21.2975C32.3628 21.2975 35.6849 24.6196 35.6849 28.7049C35.6849 32.7902 32.3628 36.1123 28.2775 36.1123Z" fill="url(#paint0_linear_4948_21073)" stroke="url(#paint1_linear_4948_21073)" stroke-width="0.5"/>
<path d="M28.8663 23.8084C28.7257 23.6267 28.5072 23.5195 28.2775 23.5195C28.0478 23.5195 27.8293 23.627 27.6887 23.8084L25.0629 27.2344C23.8037 28.8676 23.9481 31.2086 25.3925 32.6788C26.1627 33.46 27.1885 33.8897 28.2775 33.8897C29.3665 33.8897 30.3924 33.4601 31.1628 32.6786C32.6072 31.2084 32.7516 28.8713 31.4924 27.2342L28.8663 23.8084ZM30.1071 31.6377C29.6183 32.134 28.9663 32.4081 28.2775 32.4081C27.5888 32.4081 26.9367 32.134 26.4479 31.6377C25.5183 30.6932 25.4256 29.1896 26.2368 28.134L28.2775 25.4748L30.3182 28.134C31.1294 29.1896 31.0366 30.6932 30.1071 31.6377H30.1071Z" fill="url(#paint2_linear_4948_21073)" stroke="url(#paint3_linear_4948_21073)" stroke-width="0.5"/>
<defs>
<linearGradient id="paint0_linear_4948_21073" x1="11.2993" y1="41.6673" x2="40.3276" y2="40.1825" gradientUnits="userSpaceOnUse">
<stop stop-color="#6B4DE0"/>
<stop offset="0.544792" stop-color="#9C42E3"/>
<stop offset="1" stop-color="#C339E5"/>
</linearGradient>
<linearGradient id="paint1_linear_4948_21073" x1="11.2993" y1="41.6673" x2="40.3276" y2="40.1825" gradientUnits="userSpaceOnUse">
<stop stop-color="#6B4DE0"/>
<stop offset="0.544792" stop-color="#9C42E3"/>
<stop offset="1" stop-color="#C339E5"/>
</linearGradient>
<linearGradient id="paint2_linear_4948_21073" x1="23.3218" y1="33.8897" x2="33.4456" y2="33.3088" gradientUnits="userSpaceOnUse">
<stop stop-color="#6B4DE0"/>
<stop offset="0.544792" stop-color="#9C42E3"/>
<stop offset="1" stop-color="#C339E5"/>
</linearGradient>
<linearGradient id="paint3_linear_4948_21073" x1="23.3218" y1="33.8897" x2="33.4456" y2="33.3088" gradientUnits="userSpaceOnUse">
<stop stop-color="#6B4DE0"/>
<stop offset="0.544792" stop-color="#9C42E3"/>
<stop offset="1" stop-color="#C339E5"/>
</linearGradient>
</defs>
</svg>
