<svg width="40" height="40" viewBox="0 0 40 40" fill="none" xmlns="http://www.w3.org/2000/svg">
<path d="M23.093 36.9996C21.9711 36.9996 20.9971 36.2053 20.7771 35.1112C20.7758 35.1049 20.7747 35.0983 20.7737 35.092L20.0002 29.7644L19.2268 35.0918C19.2257 35.0984 19.2247 35.1047 19.2233 35.111C19.0036 36.2054 18.0294 36.9996 16.9077 36.9996C15.6054 36.9996 14.5457 35.9456 14.5457 34.6502V18.553C14.5457 18.3533 14.7084 18.1914 14.9092 18.1914C15.1099 18.1914 15.2727 18.3533 15.2727 18.553V34.6502C15.2729 35.5468 16.0063 36.2762 16.9077 36.2762C17.6812 36.2762 18.353 35.7309 18.5087 34.9784L19.6404 27.1824C19.6662 27.0045 19.8195 26.8725 20.0002 26.8725C20.1809 26.8725 20.3342 27.0045 20.36 27.1824L21.4917 34.9784C21.6479 35.731 22.3198 36.2762 23.093 36.2762C23.9944 36.2762 24.7275 35.5468 24.7275 34.6502V18.553C24.7275 18.3533 24.8902 18.1914 25.091 18.1914C25.2917 18.1914 25.4545 18.3533 25.4545 18.553V34.6502C25.4548 35.9456 24.3953 36.9996 23.093 36.9996L23.093 36.9996Z" fill="url(#paint0_linear_8264_40242)" stroke="url(#paint1_linear_8264_40242)" stroke-width="0.7"/>
<path d="M28 25.4257H25.0908C24.89 25.4257 24.7273 25.2638 24.7273 25.0641C24.7273 24.8645 24.89 24.7026 25.0908 24.7026H27.6362V18.5537C27.6362 14.3653 24.2104 10.9578 19.9996 10.9578C15.7888 10.9578 12.3631 14.3653 12.3631 18.5537V24.7026H14.9084C15.1092 24.7026 15.2719 24.8645 15.2719 25.0641C15.2719 25.2638 15.1092 25.4257 14.9084 25.4257H11.9993C11.7985 25.4257 11.6357 25.2638 11.6357 25.0641V18.5537C11.6357 13.9665 15.3878 10.2344 19.9996 10.2344C24.6113 10.2344 28.3635 13.9664 28.3635 18.5537V25.0641C28.3638 25.2638 28.201 25.4257 28 25.4257H28Z" fill="url(#paint2_linear_8264_40242)" stroke="url(#paint3_linear_8264_40242)" stroke-width="0.7"/>
<path d="M19.9999 10.9572C17.7943 10.9572 16 9.17246 16 6.97861C16 4.78477 17.7943 3 19.9999 3C22.2055 3 23.9999 4.78477 23.9999 6.97861C23.9999 9.17246 22.2055 10.9572 19.9999 10.9572ZM19.9999 3.72345C18.1953 3.72345 16.7273 5.18364 16.7273 6.97868C16.7273 8.77373 18.1953 10.2339 19.9999 10.2339C21.8046 10.2339 23.2726 8.77373 23.2726 6.97868C23.2726 5.18391 21.8046 3.72345 19.9999 3.72345Z" fill="url(#paint4_linear_8264_40242)" stroke="url(#paint5_linear_8264_40242)" stroke-width="0.7"/>
<path d="M31.6365 21.8091H8.36351C8.16276 21.8091 8 21.6472 8 21.4475C8 21.2478 8.16277 21.0859 8.36351 21.0859H31.6365C31.8372 21.0859 32 21.2478 32 21.4475C32 21.6472 31.8372 21.8091 31.6365 21.8091Z" fill="url(#paint6_linear_8264_40242)" stroke="url(#paint7_linear_8264_40242)" stroke-width="0.7"/>
<defs>
<linearGradient id="paint0_linear_8264_40242" x1="13.3611" y1="36.9996" x2="26.9435" y2="36.424" gradientUnits="userSpaceOnUse">
<stop stop-color="#6B4DE0"/>
<stop offset="0.544792" stop-color="#9C42E3"/>
<stop offset="1" stop-color="#C339E5"/>
</linearGradient>
<linearGradient id="paint1_linear_8264_40242" x1="13.3611" y1="36.9996" x2="26.9435" y2="36.424" gradientUnits="userSpaceOnUse">
<stop stop-color="#6B4DE0"/>
<stop offset="0.544792" stop-color="#9C42E3"/>
<stop offset="1" stop-color="#C339E5"/>
</linearGradient>
<linearGradient id="paint2_linear_8264_40242" x1="9.81935" y1="25.4257" x2="30.5499" y2="23.7576" gradientUnits="userSpaceOnUse">
<stop stop-color="#6B4DE0"/>
<stop offset="0.544792" stop-color="#9C42E3"/>
<stop offset="1" stop-color="#C339E5"/>
</linearGradient>
<linearGradient id="paint3_linear_8264_40242" x1="9.81935" y1="25.4257" x2="30.5499" y2="23.7576" gradientUnits="userSpaceOnUse">
<stop stop-color="#6B4DE0"/>
<stop offset="0.544792" stop-color="#9C42E3"/>
<stop offset="1" stop-color="#C339E5"/>
</linearGradient>
<linearGradient id="paint4_linear_8264_40242" x1="15.1313" y1="10.9572" x2="25.0561" y2="10.2281" gradientUnits="userSpaceOnUse">
<stop stop-color="#6B4DE0"/>
<stop offset="0.544792" stop-color="#9C42E3"/>
<stop offset="1" stop-color="#C339E5"/>
</linearGradient>
<linearGradient id="paint5_linear_8264_40242" x1="15.1313" y1="10.9572" x2="25.0561" y2="10.2281" gradientUnits="userSpaceOnUse">
<stop stop-color="#6B4DE0"/>
<stop offset="0.544792" stop-color="#9C42E3"/>
<stop offset="1" stop-color="#C339E5"/>
</linearGradient>
<linearGradient id="paint6_linear_8264_40242" x1="5.39394" y1="21.8091" x2="9.74403" y2="11.2592" gradientUnits="userSpaceOnUse">
<stop stop-color="#6B4DE0"/>
<stop offset="0.544792" stop-color="#9C42E3"/>
<stop offset="1" stop-color="#C339E5"/>
</linearGradient>
<linearGradient id="paint7_linear_8264_40242" x1="5.39394" y1="21.8091" x2="9.74403" y2="11.2592" gradientUnits="userSpaceOnUse">
<stop stop-color="#6B4DE0"/>
<stop offset="0.544792" stop-color="#9C42E3"/>
<stop offset="1" stop-color="#C339E5"/>
</linearGradient>
</defs>
</svg>
