<svg width="51" height="50" viewBox="0 0 51 50" fill="none" xmlns="http://www.w3.org/2000/svg">
<rect x="0.5" width="50" height="50" rx="8" fill="#F2F5FF"/>
<path d="M28.5932 41.9996C27.4713 41.9996 26.4974 41.2053 26.2773 40.1112C26.276 40.1049 26.275 40.0983 26.2739 40.092L25.5005 34.7644L24.727 40.0918C24.726 40.0984 24.7249 40.1047 24.7236 40.111C24.5038 41.2054 23.5296 41.9996 22.408 41.9996C21.1056 41.9996 20.0459 40.9456 20.0459 39.6502V23.553C20.0459 23.3533 20.2087 23.1914 20.4094 23.1914C20.6102 23.1914 20.7729 23.3533 20.7729 23.553V39.6502C20.7732 40.5468 21.5065 41.2762 22.4079 41.2762C23.1814 41.2762 23.8533 40.7309 24.0089 39.9784L25.1406 32.1824C25.1665 32.0045 25.3198 31.8725 25.5005 31.8725C25.6812 31.8725 25.8344 32.0045 25.8603 32.1824L26.992 39.9784C27.1482 40.731 27.8201 41.2762 28.5932 41.2762C29.4947 41.2762 30.2277 40.5468 30.2277 39.6502V23.553C30.2277 23.3533 30.3905 23.1914 30.5912 23.1914C30.792 23.1914 30.9548 23.3533 30.9548 23.553V39.6502C30.955 40.9456 29.8956 41.9996 28.5932 41.9996L28.5932 41.9996Z" fill="url(#paint0_linear_4948_18100)" stroke="url(#paint1_linear_4948_18100)" stroke-width="0.7"/>
<path d="M33.5 30.4257H30.5908C30.39 30.4257 30.2273 30.2638 30.2273 30.0641C30.2273 29.8645 30.39 29.7026 30.5908 29.7026H33.1362V23.5537C33.1362 19.3653 29.7104 15.9578 25.4996 15.9578C21.2888 15.9578 17.8631 19.3653 17.8631 23.5537V29.7026H20.4084C20.6092 29.7026 20.7719 29.8645 20.7719 30.0641C20.7719 30.2638 20.6092 30.4257 20.4084 30.4257H17.4993C17.2985 30.4257 17.1357 30.2638 17.1357 30.0641V23.5537C17.1357 18.9665 20.8878 15.2344 25.4996 15.2344C30.1113 15.2344 33.8635 18.9664 33.8635 23.5537V30.0641C33.8638 30.2638 33.701 30.4257 33.5 30.4257H33.5Z" fill="url(#paint2_linear_4948_18100)" stroke="url(#paint3_linear_4948_18100)" stroke-width="0.7"/>
<path d="M25.4999 15.9572C23.2943 15.9572 21.5 14.1725 21.5 11.9786C21.5 9.78477 23.2943 8 25.4999 8C27.7055 8 29.4999 9.78477 29.4999 11.9786C29.4999 14.1725 27.7055 15.9572 25.4999 15.9572ZM25.4999 8.72345C23.6953 8.72345 22.2273 10.1836 22.2273 11.9787C22.2273 13.7737 23.6953 15.2339 25.4999 15.2339C27.3046 15.2339 28.7726 13.7737 28.7726 11.9787C28.7726 10.1839 27.3046 8.72345 25.4999 8.72345Z" fill="url(#paint4_linear_4948_18100)" stroke="url(#paint5_linear_4948_18100)" stroke-width="0.7"/>
<path d="M37.1365 26.8091H13.8635C13.6628 26.8091 13.5 26.6472 13.5 26.4475C13.5 26.2478 13.6628 26.0859 13.8635 26.0859H37.1365C37.3372 26.0859 37.5 26.2478 37.5 26.4475C37.5 26.6472 37.3372 26.8091 37.1365 26.8091Z" fill="url(#paint6_linear_4948_18100)" stroke="url(#paint7_linear_4948_18100)" stroke-width="0.7"/>
<defs>
<linearGradient id="paint0_linear_4948_18100" x1="18.8614" y1="41.9996" x2="32.4438" y2="41.424" gradientUnits="userSpaceOnUse">
<stop stop-color="#6B4DE0"/>
<stop offset="0.544792" stop-color="#9C42E3"/>
<stop offset="1" stop-color="#C339E5"/>
</linearGradient>
<linearGradient id="paint1_linear_4948_18100" x1="18.8614" y1="41.9996" x2="32.4438" y2="41.424" gradientUnits="userSpaceOnUse">
<stop stop-color="#6B4DE0"/>
<stop offset="0.544792" stop-color="#9C42E3"/>
<stop offset="1" stop-color="#C339E5"/>
</linearGradient>
<linearGradient id="paint2_linear_4948_18100" x1="15.3193" y1="30.4257" x2="36.0499" y2="28.7576" gradientUnits="userSpaceOnUse">
<stop stop-color="#6B4DE0"/>
<stop offset="0.544792" stop-color="#9C42E3"/>
<stop offset="1" stop-color="#C339E5"/>
</linearGradient>
<linearGradient id="paint3_linear_4948_18100" x1="15.3193" y1="30.4257" x2="36.0499" y2="28.7576" gradientUnits="userSpaceOnUse">
<stop stop-color="#6B4DE0"/>
<stop offset="0.544792" stop-color="#9C42E3"/>
<stop offset="1" stop-color="#C339E5"/>
</linearGradient>
<linearGradient id="paint4_linear_4948_18100" x1="20.6313" y1="15.9572" x2="30.5561" y2="15.2281" gradientUnits="userSpaceOnUse">
<stop stop-color="#6B4DE0"/>
<stop offset="0.544792" stop-color="#9C42E3"/>
<stop offset="1" stop-color="#C339E5"/>
</linearGradient>
<linearGradient id="paint5_linear_4948_18100" x1="20.6313" y1="15.9572" x2="30.5561" y2="15.2281" gradientUnits="userSpaceOnUse">
<stop stop-color="#6B4DE0"/>
<stop offset="0.544792" stop-color="#9C42E3"/>
<stop offset="1" stop-color="#C339E5"/>
</linearGradient>
<linearGradient id="paint6_linear_4948_18100" x1="10.8939" y1="26.8091" x2="15.244" y2="16.2592" gradientUnits="userSpaceOnUse">
<stop stop-color="#6B4DE0"/>
<stop offset="0.544792" stop-color="#9C42E3"/>
<stop offset="1" stop-color="#C339E5"/>
</linearGradient>
<linearGradient id="paint7_linear_4948_18100" x1="10.8939" y1="26.8091" x2="15.244" y2="16.2592" gradientUnits="userSpaceOnUse">
<stop stop-color="#6B4DE0"/>
<stop offset="0.544792" stop-color="#9C42E3"/>
<stop offset="1" stop-color="#C339E5"/>
</linearGradient>
</defs>
</svg>
