<svg width="49" height="30" viewBox="0 0 49 30" fill="none" xmlns="http://www.w3.org/2000/svg">
<path d="M30.5666 26.7967H17.584V3.21094H30.5666V26.7967Z" fill="#FF5F00"/>
<path d="M18.4158 15C18.4158 10.2155 20.6318 5.95365 24.0828 3.20713C21.5592 1.19874 18.3743 -5.5442e-07 14.913 -5.5442e-07C6.71862 -5.5442e-07 0.0761719 6.71562 0.0761719 15C0.0761719 23.2844 6.71862 30 14.913 30C18.3743 30 21.5592 28.8013 24.0828 26.7929C20.6318 24.0463 18.4158 19.7845 18.4158 15Z" fill="#EB001B"/>
<path d="M48.0759 15C48.0759 23.2844 41.4334 30 33.2391 30C29.7778 30 26.5929 28.8013 24.0684 26.7929C27.5202 24.0463 29.7363 19.7845 29.7363 15C29.7363 10.2155 27.5202 5.95365 24.0684 3.20713C26.5929 1.19874 29.7778 -5.5442e-07 33.2391 -5.5442e-07C41.4334 -5.5442e-07 48.0759 6.71562 48.0759 15Z" fill="#F79E1B"/>
</svg>
