<svg width="51" height="50" viewBox="0 0 51 50" fill="none" xmlns="http://www.w3.org/2000/svg">
<rect x="0.5" width="50" height="50" rx="8" fill="#F2F5FF"/>
<mask id="path-2-inside-1_4948_2263" fill="white">
<path fill-rule="evenodd" clip-rule="evenodd" d="M25.4998 8.33612C25.0364 8.33612 24.5717 8.51109 24.2244 8.85869C23.5295 9.55363 23.5295 10.7125 24.2244 11.4074C24.2575 11.4385 24.2964 11.4643 24.3316 11.494V13.8852C22.1242 14.1139 20.1075 14.9911 18.4698 16.3198L16.779 14.629C16.7824 14.5823 16.7949 14.5377 16.7949 14.49C16.7949 13.5071 15.9659 12.6873 14.9833 12.6873C14.0005 12.6873 13.1807 13.5071 13.1807 14.49C13.1807 15.4728 14.0005 16.2903 14.9833 16.2903C15.0292 16.2903 15.0728 16.2815 15.1179 16.277L16.8178 17.9723C15.4882 19.6112 14.6107 21.6295 14.381 23.8385H11.9988C11.967 23.7989 11.9407 23.76 11.9052 23.7245C11.2103 23.0296 10.0514 23.0296 9.35648 23.7245C8.66154 24.4195 8.65707 25.5851 9.35178 26.28C10.0467 26.975 11.21 26.9682 11.9049 26.2712C11.9355 26.2401 11.9568 26.2055 11.9847 26.1731H14.3804C14.612 28.3771 15.4905 30.392 16.8173 32.0281L15.1173 33.7234C15.0722 33.7197 15.0287 33.7101 14.9828 33.7101C13.9999 33.7101 13.1801 34.5299 13.1801 35.5125C13.1801 36.4954 13.9999 37.3241 14.9828 37.3241C15.9656 37.3241 16.7943 36.4951 16.7943 35.5125C16.7943 35.4653 16.7821 35.4197 16.7784 35.3735L18.4716 33.6804C20.1089 35.0085 22.1241 35.8888 24.331 36.1172V38.504C24.2958 38.5351 24.2569 38.5575 24.2238 38.5906C23.5289 39.2856 23.522 40.4512 24.2168 41.1461C24.9117 41.8411 26.0841 41.8411 26.7791 41.1461C27.474 40.4512 27.4672 39.2856 26.772 38.5906C26.7397 38.5596 26.7013 38.5353 26.6672 38.5064V36.1129C28.8707 35.8797 30.8848 35.0007 32.5198 33.6713L34.2198 35.3736C34.2164 35.4203 34.2062 35.4654 34.2062 35.5126C34.2062 36.4954 35.0329 37.3241 36.0156 37.3241C36.9984 37.3241 37.8183 36.4952 37.8183 35.5126C37.8183 34.5297 36.9985 33.7099 36.0156 33.7099C35.9682 33.7099 35.9231 33.7188 35.8764 33.7232L34.1697 32.0165C35.4928 30.3828 36.3685 28.372 36.5998 26.173H39.0093C39.0377 26.204 39.0601 26.2424 39.0914 26.2731C39.7864 26.9681 40.9496 26.9725 41.6446 26.2776C42.3395 25.5826 42.3351 24.417 41.6399 23.7221C40.945 23.0271 39.7861 23.0271 39.0911 23.7221C39.0557 23.7573 39.0293 23.7985 38.9975 23.836L36.5998 23.8366C36.3703 21.6328 35.4957 19.6184 34.1697 17.9816L35.8764 16.2749C35.9231 16.2783 35.9682 16.2882 36.0156 16.2882C36.9985 16.2882 37.8183 15.4707 37.8183 14.4878C37.8183 13.505 36.9985 12.6851 36.0156 12.6851C35.0328 12.6851 34.2062 13.505 34.2062 14.4878C34.2062 14.5355 34.2156 14.5801 34.2198 14.6268L32.5198 16.3268C30.8848 14.9974 28.8707 14.1209 26.6672 13.8876V11.4895C26.7013 11.4585 26.7397 11.4374 26.772 11.4053C27.4669 10.7104 27.4669 9.55149 26.772 8.85656C26.4247 8.50896 25.9623 8.33398 25.499 8.33398L25.4998 8.33612ZM25.468 16.162V16.1622C25.4899 16.1635 25.512 16.1643 25.534 16.1646C27.8587 16.1779 29.9618 17.0833 31.5303 18.5534C31.6314 18.7261 31.7751 18.87 31.948 18.9712C33.3572 20.481 34.2381 22.4853 34.3118 24.7028C34.2586 24.9007 34.2586 25.1093 34.3118 25.3075C34.2357 27.5467 33.3371 29.5664 31.9023 31.0804V31.0801C31.7727 31.1662 31.6619 31.277 31.5759 31.4063C30.0264 32.8791 27.9439 33.795 25.639 33.8341C25.586 33.8263 25.5326 33.8218 25.4791 33.821C25.4356 33.8229 25.3923 33.8273 25.3493 33.8341C23.0306 33.7989 20.9397 32.8771 19.3871 31.3925V31.3928C19.3123 31.288 19.2205 31.1962 19.1157 31.1213C17.5946 29.5343 16.6558 27.3835 16.6558 25.0019C16.6558 22.6558 17.5683 20.5329 19.0494 18.9532V18.953C19.2152 18.8539 19.354 18.7149 19.4533 18.549C21.026 17.0754 23.1338 16.1672 25.4679 16.1622L25.468 16.162ZM24.9866 17.1179V17.1182C24.7769 17.1176 24.5709 17.1734 24.3902 17.2798C24.2095 17.3862 24.0609 17.5393 23.9597 17.7229L23.3732 18.7315V18.7312C23.2183 19.0003 23.1769 19.32 23.2577 19.6197C23.3386 19.9193 23.5354 20.1746 23.8048 20.329C24.0739 20.4836 24.3936 20.5246 24.6933 20.4432C24.9929 20.3618 25.2477 20.1647 25.4017 19.8951L25.9882 18.8867C26.1303 18.6492 26.1835 18.3691 26.1384 18.0961C26.0933 17.823 25.9528 17.575 25.7418 17.3959C25.5308 17.2168 25.2633 17.1185 24.9866 17.1182L24.9866 17.1179ZM29.2306 18.8702L29.2303 18.8705C28.9002 18.8702 28.5852 19.0098 28.3635 19.2546C28.1416 19.4992 28.0339 19.8265 28.0668 20.155L28.1604 21.3189C28.1867 21.6279 28.3346 21.9137 28.5716 22.1134C28.8089 22.3134 29.1156 22.4109 29.4246 22.3846C29.7336 22.3582 30.0194 22.2101 30.2191 21.9731C30.4189 21.7358 30.5164 21.4291 30.49 21.1201L30.3943 19.9563H30.3941C30.3732 19.6619 30.2418 19.386 30.0259 19.1847C29.81 18.9831 29.5257 18.871 29.2305 18.8705L29.2306 18.8702ZM19.5449 20.7572V20.7574C19.1342 20.7866 18.7691 21.0294 18.5835 21.3966C18.3978 21.764 18.4187 22.2018 18.6388 22.5497C18.8586 22.8975 19.2453 23.1043 19.6565 23.0939H20.8318C21.2427 23.0847 21.6188 22.86 21.8216 22.5025C22.0245 22.1447 22.0245 21.7069 21.8216 21.3491C21.6188 20.9916 21.2427 20.7668 20.8318 20.7574H19.6565C19.6195 20.7559 19.5822 20.7559 19.5449 20.7574L19.5449 20.7572ZM32.0236 22.8448L32.0234 22.8454C31.6416 22.866 31.2937 23.072 31.0925 23.3974L30.4627 24.3878H30.463C30.2958 24.6499 30.2398 24.9675 30.3076 25.271C30.3751 25.5743 30.5608 25.8382 30.8234 26.0042C31.0862 26.1706 31.4041 26.2254 31.7071 26.1565C32.0104 26.0877 32.2735 25.9012 32.4388 25.6381L33.0685 24.648V24.6477C33.2258 24.4052 33.2879 24.1129 33.2422 23.8276C33.1966 23.5421 33.0466 23.2837 32.8216 23.1022C32.5966 22.9207 32.3121 22.8292 32.0234 22.8453L32.0236 22.8448ZM25.2813 23.3194L25.281 23.32C24.9535 23.3121 24.6377 23.4423 24.4106 23.6785C24.1837 23.915 24.0664 24.2358 24.0872 24.563C24.1083 24.89 24.2658 25.1931 24.5214 25.3986L25.4091 26.147H25.4088C25.6453 26.348 25.9522 26.4466 26.2615 26.4213C26.5707 26.3957 26.8573 26.2484 27.0579 26.0114C27.2587 25.7746 27.3567 25.4677 27.3306 25.1584C27.3046 24.8489 27.1567 24.5628 26.9194 24.3626L26.0226 23.6027V23.6029C25.8161 23.4248 25.5537 23.3247 25.281 23.3197L25.2813 23.3194ZM19.8211 25.4048L19.8208 25.4053C19.4085 25.4116 19.0302 25.6348 18.8249 25.9925C18.62 26.3503 18.6187 26.7895 18.8216 27.1485L19.383 28.1754H19.3827C19.5217 28.4633 19.7723 28.6818 20.0767 28.7799C20.3807 28.8779 20.7119 28.8471 20.9928 28.6949C21.2736 28.5423 21.4799 28.2813 21.5633 27.9728C21.6465 27.6643 21.6001 27.335 21.4342 27.0619L20.8728 26.0353V26.035C20.7732 25.8428 20.6219 25.6822 20.4363 25.5711C20.2503 25.46 20.0376 25.4024 19.8209 25.4053L19.8211 25.4048ZM29.1442 27.0432L29.144 27.0437C28.792 27.051 28.4621 27.2168 28.2459 27.4948C28.0297 27.7728 27.9507 28.1334 28.0305 28.4766L28.2723 29.6151H28.2725C28.3252 29.9283 28.503 30.2066 28.7651 30.3857C29.0272 30.5651 29.351 30.6298 29.6622 30.5654C29.973 30.5007 30.2442 30.3124 30.4134 30.0436C30.5827 29.7747 30.6351 29.4488 30.5587 29.1406L30.317 27.993C30.2651 27.7215 30.1188 27.4774 29.9042 27.3035C29.6896 27.1298 29.4202 27.0378 29.144 27.0438L29.1442 27.0432ZM24.5899 28.7384L24.5897 28.739C24.5493 28.7384 24.5088 28.7398 24.4687 28.7434C24.2601 28.7624 24.0603 28.8373 23.8906 28.9601C23.7208 29.0832 23.587 29.2493 23.5036 29.4415L23.029 30.5116C22.8916 30.7959 22.8749 31.1237 22.9828 31.4204C23.0908 31.7171 23.3143 31.9573 23.6024 32.0867C23.8906 32.2157 24.2186 32.223 24.5122 32.1065C24.8056 31.9899 25.0392 31.7594 25.16 31.4676L25.6413 30.3998H25.6416C25.8093 30.0391 25.7822 29.618 25.5694 29.2821C25.3566 28.946 24.9873 28.7413 24.5897 28.7387L24.5899 28.7384Z"/>
</mask>
<path fill-rule="evenodd" clip-rule="evenodd" d="M25.4998 8.33612C25.0364 8.33612 24.5717 8.51109 24.2244 8.85869C23.5295 9.55363 23.5295 10.7125 24.2244 11.4074C24.2575 11.4385 24.2964 11.4643 24.3316 11.494V13.8852C22.1242 14.1139 20.1075 14.9911 18.4698 16.3198L16.779 14.629C16.7824 14.5823 16.7949 14.5377 16.7949 14.49C16.7949 13.5071 15.9659 12.6873 14.9833 12.6873C14.0005 12.6873 13.1807 13.5071 13.1807 14.49C13.1807 15.4728 14.0005 16.2903 14.9833 16.2903C15.0292 16.2903 15.0728 16.2815 15.1179 16.277L16.8178 17.9723C15.4882 19.6112 14.6107 21.6295 14.381 23.8385H11.9988C11.967 23.7989 11.9407 23.76 11.9052 23.7245C11.2103 23.0296 10.0514 23.0296 9.35648 23.7245C8.66154 24.4195 8.65707 25.5851 9.35178 26.28C10.0467 26.975 11.21 26.9682 11.9049 26.2712C11.9355 26.2401 11.9568 26.2055 11.9847 26.1731H14.3804C14.612 28.3771 15.4905 30.392 16.8173 32.0281L15.1173 33.7234C15.0722 33.7197 15.0287 33.7101 14.9828 33.7101C13.9999 33.7101 13.1801 34.5299 13.1801 35.5125C13.1801 36.4954 13.9999 37.3241 14.9828 37.3241C15.9656 37.3241 16.7943 36.4951 16.7943 35.5125C16.7943 35.4653 16.7821 35.4197 16.7784 35.3735L18.4716 33.6804C20.1089 35.0085 22.1241 35.8888 24.331 36.1172V38.504C24.2958 38.5351 24.2569 38.5575 24.2238 38.5906C23.5289 39.2856 23.522 40.4512 24.2168 41.1461C24.9117 41.8411 26.0841 41.8411 26.7791 41.1461C27.474 40.4512 27.4672 39.2856 26.772 38.5906C26.7397 38.5596 26.7013 38.5353 26.6672 38.5064V36.1129C28.8707 35.8797 30.8848 35.0007 32.5198 33.6713L34.2198 35.3736C34.2164 35.4203 34.2062 35.4654 34.2062 35.5126C34.2062 36.4954 35.0329 37.3241 36.0156 37.3241C36.9984 37.3241 37.8183 36.4952 37.8183 35.5126C37.8183 34.5297 36.9985 33.7099 36.0156 33.7099C35.9682 33.7099 35.9231 33.7188 35.8764 33.7232L34.1697 32.0165C35.4928 30.3828 36.3685 28.372 36.5998 26.173H39.0093C39.0377 26.204 39.0601 26.2424 39.0914 26.2731C39.7864 26.9681 40.9496 26.9725 41.6446 26.2776C42.3395 25.5826 42.3351 24.417 41.6399 23.7221C40.945 23.0271 39.7861 23.0271 39.0911 23.7221C39.0557 23.7573 39.0293 23.7985 38.9975 23.836L36.5998 23.8366C36.3703 21.6328 35.4957 19.6184 34.1697 17.9816L35.8764 16.2749C35.9231 16.2783 35.9682 16.2882 36.0156 16.2882C36.9985 16.2882 37.8183 15.4707 37.8183 14.4878C37.8183 13.505 36.9985 12.6851 36.0156 12.6851C35.0328 12.6851 34.2062 13.505 34.2062 14.4878C34.2062 14.5355 34.2156 14.5801 34.2198 14.6268L32.5198 16.3268C30.8848 14.9974 28.8707 14.1209 26.6672 13.8876V11.4895C26.7013 11.4585 26.7397 11.4374 26.772 11.4053C27.4669 10.7104 27.4669 9.55149 26.772 8.85656C26.4247 8.50896 25.9623 8.33398 25.499 8.33398L25.4998 8.33612ZM25.468 16.162V16.1622C25.4899 16.1635 25.512 16.1643 25.534 16.1646C27.8587 16.1779 29.9618 17.0833 31.5303 18.5534C31.6314 18.7261 31.7751 18.87 31.948 18.9712C33.3572 20.481 34.2381 22.4853 34.3118 24.7028C34.2586 24.9007 34.2586 25.1093 34.3118 25.3075C34.2357 27.5467 33.3371 29.5664 31.9023 31.0804V31.0801C31.7727 31.1662 31.6619 31.277 31.5759 31.4063C30.0264 32.8791 27.9439 33.795 25.639 33.8341C25.586 33.8263 25.5326 33.8218 25.4791 33.821C25.4356 33.8229 25.3923 33.8273 25.3493 33.8341C23.0306 33.7989 20.9397 32.8771 19.3871 31.3925V31.3928C19.3123 31.288 19.2205 31.1962 19.1157 31.1213C17.5946 29.5343 16.6558 27.3835 16.6558 25.0019C16.6558 22.6558 17.5683 20.5329 19.0494 18.9532V18.953C19.2152 18.8539 19.354 18.7149 19.4533 18.549C21.026 17.0754 23.1338 16.1672 25.4679 16.1622L25.468 16.162ZM24.9866 17.1179V17.1182C24.7769 17.1176 24.5709 17.1734 24.3902 17.2798C24.2095 17.3862 24.0609 17.5393 23.9597 17.7229L23.3732 18.7315V18.7312C23.2183 19.0003 23.1769 19.32 23.2577 19.6197C23.3386 19.9193 23.5354 20.1746 23.8048 20.329C24.0739 20.4836 24.3936 20.5246 24.6933 20.4432C24.9929 20.3618 25.2477 20.1647 25.4017 19.8951L25.9882 18.8867C26.1303 18.6492 26.1835 18.3691 26.1384 18.0961C26.0933 17.823 25.9528 17.575 25.7418 17.3959C25.5308 17.2168 25.2633 17.1185 24.9866 17.1182L24.9866 17.1179ZM29.2306 18.8702L29.2303 18.8705C28.9002 18.8702 28.5852 19.0098 28.3635 19.2546C28.1416 19.4992 28.0339 19.8265 28.0668 20.155L28.1604 21.3189C28.1867 21.6279 28.3346 21.9137 28.5716 22.1134C28.8089 22.3134 29.1156 22.4109 29.4246 22.3846C29.7336 22.3582 30.0194 22.2101 30.2191 21.9731C30.4189 21.7358 30.5164 21.4291 30.49 21.1201L30.3943 19.9563H30.3941C30.3732 19.6619 30.2418 19.386 30.0259 19.1847C29.81 18.9831 29.5257 18.871 29.2305 18.8705L29.2306 18.8702ZM19.5449 20.7572V20.7574C19.1342 20.7866 18.7691 21.0294 18.5835 21.3966C18.3978 21.764 18.4187 22.2018 18.6388 22.5497C18.8586 22.8975 19.2453 23.1043 19.6565 23.0939H20.8318C21.2427 23.0847 21.6188 22.86 21.8216 22.5025C22.0245 22.1447 22.0245 21.7069 21.8216 21.3491C21.6188 20.9916 21.2427 20.7668 20.8318 20.7574H19.6565C19.6195 20.7559 19.5822 20.7559 19.5449 20.7574L19.5449 20.7572ZM32.0236 22.8448L32.0234 22.8454C31.6416 22.866 31.2937 23.072 31.0925 23.3974L30.4627 24.3878H30.463C30.2958 24.6499 30.2398 24.9675 30.3076 25.271C30.3751 25.5743 30.5608 25.8382 30.8234 26.0042C31.0862 26.1706 31.4041 26.2254 31.7071 26.1565C32.0104 26.0877 32.2735 25.9012 32.4388 25.6381L33.0685 24.648V24.6477C33.2258 24.4052 33.2879 24.1129 33.2422 23.8276C33.1966 23.5421 33.0466 23.2837 32.8216 23.1022C32.5966 22.9207 32.3121 22.8292 32.0234 22.8453L32.0236 22.8448ZM25.2813 23.3194L25.281 23.32C24.9535 23.3121 24.6377 23.4423 24.4106 23.6785C24.1837 23.915 24.0664 24.2358 24.0872 24.563C24.1083 24.89 24.2658 25.1931 24.5214 25.3986L25.4091 26.147H25.4088C25.6453 26.348 25.9522 26.4466 26.2615 26.4213C26.5707 26.3957 26.8573 26.2484 27.0579 26.0114C27.2587 25.7746 27.3567 25.4677 27.3306 25.1584C27.3046 24.8489 27.1567 24.5628 26.9194 24.3626L26.0226 23.6027V23.6029C25.8161 23.4248 25.5537 23.3247 25.281 23.3197L25.2813 23.3194ZM19.8211 25.4048L19.8208 25.4053C19.4085 25.4116 19.0302 25.6348 18.8249 25.9925C18.62 26.3503 18.6187 26.7895 18.8216 27.1485L19.383 28.1754H19.3827C19.5217 28.4633 19.7723 28.6818 20.0767 28.7799C20.3807 28.8779 20.7119 28.8471 20.9928 28.6949C21.2736 28.5423 21.4799 28.2813 21.5633 27.9728C21.6465 27.6643 21.6001 27.335 21.4342 27.0619L20.8728 26.0353V26.035C20.7732 25.8428 20.6219 25.6822 20.4363 25.5711C20.2503 25.46 20.0376 25.4024 19.8209 25.4053L19.8211 25.4048ZM29.1442 27.0432L29.144 27.0437C28.792 27.051 28.4621 27.2168 28.2459 27.4948C28.0297 27.7728 27.9507 28.1334 28.0305 28.4766L28.2723 29.6151H28.2725C28.3252 29.9283 28.503 30.2066 28.7651 30.3857C29.0272 30.5651 29.351 30.6298 29.6622 30.5654C29.973 30.5007 30.2442 30.3124 30.4134 30.0436C30.5827 29.7747 30.6351 29.4488 30.5587 29.1406L30.317 27.993C30.2651 27.7215 30.1188 27.4774 29.9042 27.3035C29.6896 27.1298 29.4202 27.0378 29.144 27.0438L29.1442 27.0432ZM24.5899 28.7384L24.5897 28.739C24.5493 28.7384 24.5088 28.7398 24.4687 28.7434C24.2601 28.7624 24.0603 28.8373 23.8906 28.9601C23.7208 29.0832 23.587 29.2493 23.5036 29.4415L23.029 30.5116C22.8916 30.7959 22.8749 31.1237 22.9828 31.4204C23.0908 31.7171 23.3143 31.9573 23.6024 32.0867C23.8906 32.2157 24.2186 32.223 24.5122 32.1065C24.8056 31.9899 25.0392 31.7594 25.16 31.4676L25.6413 30.3998H25.6416C25.8093 30.0391 25.7822 29.618 25.5694 29.2821C25.3566 28.946 24.9873 28.7413 24.5897 28.7387L24.5899 28.7384Z" fill="url(#paint0_linear_4948_2263)" stroke="url(#paint1_linear_4948_2263)" stroke-width="2" mask="url(#path-2-inside-1_4948_2263)"/>
<defs>
<linearGradient id="paint0_linear_4948_2263" x1="5.21378" y1="41.6673" x2="46.5667" y2="38.6457" gradientUnits="userSpaceOnUse">
<stop stop-color="#6B4DE0"/>
<stop offset="0.544792" stop-color="#9C42E3"/>
<stop offset="1" stop-color="#C339E5"/>
</linearGradient>
<linearGradient id="paint1_linear_4948_2263" x1="5.21378" y1="41.6673" x2="46.5667" y2="38.6457" gradientUnits="userSpaceOnUse">
<stop stop-color="#6B4DE0"/>
<stop offset="0.544792" stop-color="#9C42E3"/>
<stop offset="1" stop-color="#C339E5"/>
</linearGradient>
</defs>
</svg>
