<svg width="40" height="40" viewBox="0 0 40 40" fill="none" xmlns="http://www.w3.org/2000/svg">
<mask id="path-1-inside-1_8264_21927" fill="white">
<path fill-rule="evenodd" clip-rule="evenodd" d="M20 3.33612C19.5367 3.33612 19.072 3.51109 18.7247 3.85869C18.0297 4.55363 18.0297 5.71251 18.7247 6.40745C18.7578 6.43848 18.7966 6.46429 18.8318 6.49402V8.88523C16.6245 9.11392 14.6077 9.99111 12.97 11.3198L11.2792 9.62896C11.2826 9.58228 11.2951 9.53769 11.2951 9.48997C11.2951 8.50712 10.4662 7.68729 9.48358 7.68729C8.50073 7.68729 7.6809 8.50712 7.6809 9.48997C7.6809 10.4728 8.50073 11.2903 9.48358 11.2903C9.52948 11.2903 9.57302 11.2815 9.61814 11.277L11.3181 12.9723C9.98843 14.6112 9.11099 16.6295 8.88121 18.8385H6.49909C6.46727 18.7989 6.44093 18.76 6.40547 18.7245C5.71054 18.0296 4.55165 18.0296 3.85672 18.7245C3.16179 19.4195 3.15732 20.5851 3.85203 21.28C4.54696 21.975 5.71025 21.9682 6.40518 21.2712C6.43569 21.2401 6.45708 21.2055 6.48498 21.1731H8.88066C9.11222 23.3771 9.99075 25.392 11.3175 27.0281L9.61758 28.7234C9.57247 28.7197 9.52892 28.7101 9.48303 28.7101C8.50017 28.7101 7.68034 29.5299 7.68034 30.5125C7.68034 31.4954 8.50017 32.3241 9.48303 32.3241C10.4659 32.3241 11.2946 31.4951 11.2946 30.5125C11.2946 30.4653 11.2823 30.4197 11.2787 30.3735L12.9718 28.6804C14.6091 30.0085 16.6244 30.8888 18.8312 31.1172V33.504C18.796 33.5351 18.7572 33.5575 18.724 33.5906C18.0291 34.2856 18.0223 35.4512 18.717 36.1461C19.4119 36.8411 20.5844 36.8411 21.2793 36.1461C21.9742 35.4512 21.9675 34.2856 21.2723 33.5906C21.2399 33.5596 21.2016 33.5353 21.1674 33.5064V31.1129C23.3709 30.8797 25.3851 30.0007 27.0201 28.6713L28.72 30.3736C28.7166 30.4203 28.7065 30.4654 28.7065 30.5126C28.7065 31.4954 29.5331 32.3241 30.5159 32.3241C31.4987 32.3241 32.3186 31.4952 32.3186 30.5126C32.3186 29.5297 31.4987 28.7099 30.5159 28.7099C30.4684 28.7099 30.4233 28.7188 30.3766 28.7232L28.67 27.0165C29.9931 25.3828 30.8688 23.372 31.1 21.173H33.5095C33.5379 21.204 33.5604 21.2424 33.5917 21.2731C34.2866 21.9681 35.4499 21.9725 36.1448 21.2776C36.8397 20.5826 36.8353 19.417 36.1401 18.7221C35.4452 18.0271 34.2863 18.0271 33.5914 18.7221C33.5559 18.7573 33.5296 18.7985 33.4978 18.836L31.1 18.8366C30.8705 16.6328 29.9959 14.6184 28.67 12.9816L30.3766 11.2749C30.4233 11.2783 30.4684 11.2882 30.5159 11.2882C31.4987 11.2882 32.3186 10.4707 32.3186 9.48783C32.3186 8.50497 31.4987 7.68514 30.5159 7.68514C29.533 7.68514 28.7065 8.50497 28.7065 9.48783C28.7065 9.53555 28.7158 9.58014 28.72 9.62681L27.0201 11.3268C25.3851 9.99738 23.3709 9.12093 21.1674 8.88755V6.48954C21.2016 6.45851 21.2399 6.43738 21.2723 6.40531C21.9672 5.71038 21.9672 4.55149 21.2723 3.85656C20.9249 3.50896 20.4626 3.33398 19.9992 3.33398L20 3.33612ZM19.9682 11.162V11.1622C19.9901 11.1635 20.0123 11.1643 20.0342 11.1646C22.3589 11.1779 24.462 12.0833 26.0305 13.5534C26.1317 13.7261 26.2754 13.87 26.4482 13.9712C27.8574 15.481 28.7383 17.4853 28.8121 19.7028C28.7589 19.9007 28.7589 20.1093 28.8121 20.3075C28.7359 22.5467 27.8373 24.5664 26.4026 26.0804V26.0801C26.273 26.1662 26.1622 26.277 26.0761 26.4063C24.5266 27.8791 22.4442 28.795 20.1392 28.8341C20.0863 28.8263 20.0328 28.8218 19.9794 28.821C19.9358 28.8229 19.8925 28.8273 19.8495 28.8341C17.5308 28.7989 15.4399 27.8771 13.8874 26.3925V26.3928C13.8125 26.288 13.7207 26.1962 13.6159 26.1213C12.0949 24.5343 11.1561 22.3835 11.1561 20.0019C11.1561 17.6558 12.0685 15.5329 13.5496 13.9532V13.953C13.7155 13.8539 13.8542 13.7149 13.9536 13.549C15.5263 12.0754 17.634 11.1672 19.9682 11.1622L19.9682 11.162ZM19.4868 12.1179V12.1182C19.2772 12.1176 19.0712 12.1734 18.8905 12.2798C18.7098 12.3862 18.5611 12.5393 18.46 12.7229L17.8735 13.7315V13.7312C17.7186 14.0003 17.6771 14.32 17.758 14.6197C17.8388 14.9193 18.0357 15.1746 18.3051 15.329C18.5742 15.4836 18.8939 15.5246 19.1935 15.4432C19.4932 15.3618 19.7479 15.1647 19.902 14.8951L20.4885 13.8867C20.6306 13.6492 20.6838 13.3691 20.6387 13.0961C20.5935 12.823 20.453 12.575 20.242 12.3959C20.0311 12.2168 19.7635 12.1185 19.4869 12.1182L19.4868 12.1179ZM23.7308 13.8702L23.7305 13.8705C23.4004 13.8702 23.0854 14.0098 22.8638 14.2546C22.6419 14.4992 22.5342 14.8265 22.567 15.155L22.6606 16.3189C22.687 16.6279 22.8348 16.9137 23.0719 17.1134C23.3092 17.3134 23.6158 17.4109 23.9248 17.3846C24.2338 17.3582 24.5196 17.2101 24.7194 16.9731C24.9191 16.7358 25.0166 16.4291 24.9903 16.1201L24.8946 14.9563H24.8943C24.8735 14.6619 24.742 14.386 24.5261 14.1847C24.3102 13.9831 24.026 13.871 23.7308 13.8705L23.7308 13.8702ZM14.0451 15.7572V15.7574C13.6344 15.7866 13.2694 16.0294 13.0837 16.3966C12.8981 16.764 12.9189 17.2018 13.139 17.5497C13.3588 17.8975 13.7455 18.1043 14.1568 18.0939H15.332C15.743 18.0847 16.119 17.86 16.3219 17.5025C16.5248 17.1447 16.5248 16.7069 16.3219 16.3491C16.119 15.9916 15.743 15.7668 15.332 15.7574H14.1568C14.1197 15.7559 14.0825 15.7559 14.0452 15.7574L14.0451 15.7572ZM26.5239 17.8448L26.5236 17.8454C26.1419 17.866 25.794 18.072 25.5927 18.3974L24.963 19.3878H24.9632C24.7961 19.6499 24.74 19.9675 24.8078 20.271C24.8753 20.5743 25.061 20.8382 25.3236 21.0042C25.5865 21.1706 25.9043 21.2254 26.2073 21.1565C26.5106 21.0877 26.7737 20.9012 26.939 20.6381L27.5688 19.648V19.6477C27.726 19.4052 27.7881 19.1129 27.7425 18.8276C27.6968 18.5421 27.5469 18.2837 27.3218 18.1022C27.0968 17.9207 26.8123 17.8292 26.5236 17.8453L26.5239 17.8448ZM19.7815 18.3194L19.7812 18.32C19.4537 18.3121 19.1379 18.4423 18.9108 18.6785C18.684 18.915 18.5666 19.2358 18.5875 19.563C18.6086 19.89 18.7661 20.1931 19.0216 20.3986L19.9093 21.147H19.909C20.1456 21.348 20.4525 21.4466 20.7617 21.4213C21.071 21.3957 21.3576 21.2484 21.5581 21.0114C21.7589 20.7746 21.857 20.4677 21.8309 20.1584C21.8048 19.8489 21.6569 19.5628 21.4196 19.3626L20.5228 18.6027V18.6029C20.3163 18.4248 20.054 18.3247 19.7812 18.3197L19.7815 18.3194ZM14.3213 20.4048L14.3211 20.4053C13.9088 20.4116 13.5304 20.6348 13.3252 20.9925C13.1202 21.3503 13.1189 21.7895 13.3218 22.1485L13.8832 23.1754H13.883C14.022 23.4633 14.2726 23.6818 14.5769 23.7799C14.881 23.8779 15.2121 23.8471 15.493 23.6949C15.7738 23.5423 15.9801 23.2813 16.0636 22.9728C16.1467 22.6643 16.1003 22.335 15.9345 22.0619L15.373 21.0353V21.035C15.2734 20.8428 15.1222 20.6822 14.9365 20.5711C14.7506 20.46 14.5378 20.4024 14.3211 20.4053L14.3213 20.4048ZM23.6445 22.0432L23.6442 22.0437C23.2922 22.051 22.9623 22.2168 22.7462 22.4948C22.53 22.7728 22.451 23.1334 22.5308 23.4766L22.7725 24.6151H22.7728C22.8254 24.9283 23.0033 25.2066 23.2653 25.3857C23.5274 25.5651 23.8513 25.6298 24.1624 25.5654C24.4732 25.5007 24.7444 25.3124 24.9137 25.0436C25.0829 24.7747 25.1353 24.4488 25.0589 24.1406L24.8172 22.993C24.7653 22.7215 24.619 22.4774 24.4044 22.3035C24.1898 22.1298 23.9204 22.0378 23.6443 22.0438L23.6445 22.0432ZM19.0902 23.7384L19.0899 23.739C19.0495 23.7384 19.0091 23.7398 18.9689 23.7434C18.7603 23.7624 18.5606 23.8373 18.3908 23.9601C18.221 24.0832 18.0873 24.2493 18.0038 24.4415L17.5292 25.5116C17.3918 25.7959 17.3751 26.1237 17.4831 26.4204C17.591 26.7171 17.8145 26.9573 18.1027 27.0867C18.3908 27.2157 18.7188 27.223 19.0125 27.1065C19.3058 26.9899 19.5395 26.7594 19.6602 26.4676L20.1416 25.3998H20.1418C20.3095 25.0391 20.2824 24.618 20.0696 24.2821C19.8568 23.946 19.4876 23.7413 19.0899 23.7387L19.0902 23.7384Z"/>
</mask>
<path fill-rule="evenodd" clip-rule="evenodd" d="M20 3.33612C19.5367 3.33612 19.072 3.51109 18.7247 3.85869C18.0297 4.55363 18.0297 5.71251 18.7247 6.40745C18.7578 6.43848 18.7966 6.46429 18.8318 6.49402V8.88523C16.6245 9.11392 14.6077 9.99111 12.97 11.3198L11.2792 9.62896C11.2826 9.58228 11.2951 9.53769 11.2951 9.48997C11.2951 8.50712 10.4662 7.68729 9.48358 7.68729C8.50073 7.68729 7.6809 8.50712 7.6809 9.48997C7.6809 10.4728 8.50073 11.2903 9.48358 11.2903C9.52948 11.2903 9.57302 11.2815 9.61814 11.277L11.3181 12.9723C9.98843 14.6112 9.11099 16.6295 8.88121 18.8385H6.49909C6.46727 18.7989 6.44093 18.76 6.40547 18.7245C5.71054 18.0296 4.55165 18.0296 3.85672 18.7245C3.16179 19.4195 3.15732 20.5851 3.85203 21.28C4.54696 21.975 5.71025 21.9682 6.40518 21.2712C6.43569 21.2401 6.45708 21.2055 6.48498 21.1731H8.88066C9.11222 23.3771 9.99075 25.392 11.3175 27.0281L9.61758 28.7234C9.57247 28.7197 9.52892 28.7101 9.48303 28.7101C8.50017 28.7101 7.68034 29.5299 7.68034 30.5125C7.68034 31.4954 8.50017 32.3241 9.48303 32.3241C10.4659 32.3241 11.2946 31.4951 11.2946 30.5125C11.2946 30.4653 11.2823 30.4197 11.2787 30.3735L12.9718 28.6804C14.6091 30.0085 16.6244 30.8888 18.8312 31.1172V33.504C18.796 33.5351 18.7572 33.5575 18.724 33.5906C18.0291 34.2856 18.0223 35.4512 18.717 36.1461C19.4119 36.8411 20.5844 36.8411 21.2793 36.1461C21.9742 35.4512 21.9675 34.2856 21.2723 33.5906C21.2399 33.5596 21.2016 33.5353 21.1674 33.5064V31.1129C23.3709 30.8797 25.3851 30.0007 27.0201 28.6713L28.72 30.3736C28.7166 30.4203 28.7065 30.4654 28.7065 30.5126C28.7065 31.4954 29.5331 32.3241 30.5159 32.3241C31.4987 32.3241 32.3186 31.4952 32.3186 30.5126C32.3186 29.5297 31.4987 28.7099 30.5159 28.7099C30.4684 28.7099 30.4233 28.7188 30.3766 28.7232L28.67 27.0165C29.9931 25.3828 30.8688 23.372 31.1 21.173H33.5095C33.5379 21.204 33.5604 21.2424 33.5917 21.2731C34.2866 21.9681 35.4499 21.9725 36.1448 21.2776C36.8397 20.5826 36.8353 19.417 36.1401 18.7221C35.4452 18.0271 34.2863 18.0271 33.5914 18.7221C33.5559 18.7573 33.5296 18.7985 33.4978 18.836L31.1 18.8366C30.8705 16.6328 29.9959 14.6184 28.67 12.9816L30.3766 11.2749C30.4233 11.2783 30.4684 11.2882 30.5159 11.2882C31.4987 11.2882 32.3186 10.4707 32.3186 9.48783C32.3186 8.50497 31.4987 7.68514 30.5159 7.68514C29.533 7.68514 28.7065 8.50497 28.7065 9.48783C28.7065 9.53555 28.7158 9.58014 28.72 9.62681L27.0201 11.3268C25.3851 9.99738 23.3709 9.12093 21.1674 8.88755V6.48954C21.2016 6.45851 21.2399 6.43738 21.2723 6.40531C21.9672 5.71038 21.9672 4.55149 21.2723 3.85656C20.9249 3.50896 20.4626 3.33398 19.9992 3.33398L20 3.33612ZM19.9682 11.162V11.1622C19.9901 11.1635 20.0123 11.1643 20.0342 11.1646C22.3589 11.1779 24.462 12.0833 26.0305 13.5534C26.1317 13.7261 26.2754 13.87 26.4482 13.9712C27.8574 15.481 28.7383 17.4853 28.8121 19.7028C28.7589 19.9007 28.7589 20.1093 28.8121 20.3075C28.7359 22.5467 27.8373 24.5664 26.4026 26.0804V26.0801C26.273 26.1662 26.1622 26.277 26.0761 26.4063C24.5266 27.8791 22.4442 28.795 20.1392 28.8341C20.0863 28.8263 20.0328 28.8218 19.9794 28.821C19.9358 28.8229 19.8925 28.8273 19.8495 28.8341C17.5308 28.7989 15.4399 27.8771 13.8874 26.3925V26.3928C13.8125 26.288 13.7207 26.1962 13.6159 26.1213C12.0949 24.5343 11.1561 22.3835 11.1561 20.0019C11.1561 17.6558 12.0685 15.5329 13.5496 13.9532V13.953C13.7155 13.8539 13.8542 13.7149 13.9536 13.549C15.5263 12.0754 17.634 11.1672 19.9682 11.1622L19.9682 11.162ZM19.4868 12.1179V12.1182C19.2772 12.1176 19.0712 12.1734 18.8905 12.2798C18.7098 12.3862 18.5611 12.5393 18.46 12.7229L17.8735 13.7315V13.7312C17.7186 14.0003 17.6771 14.32 17.758 14.6197C17.8388 14.9193 18.0357 15.1746 18.3051 15.329C18.5742 15.4836 18.8939 15.5246 19.1935 15.4432C19.4932 15.3618 19.7479 15.1647 19.902 14.8951L20.4885 13.8867C20.6306 13.6492 20.6838 13.3691 20.6387 13.0961C20.5935 12.823 20.453 12.575 20.242 12.3959C20.0311 12.2168 19.7635 12.1185 19.4869 12.1182L19.4868 12.1179ZM23.7308 13.8702L23.7305 13.8705C23.4004 13.8702 23.0854 14.0098 22.8638 14.2546C22.6419 14.4992 22.5342 14.8265 22.567 15.155L22.6606 16.3189C22.687 16.6279 22.8348 16.9137 23.0719 17.1134C23.3092 17.3134 23.6158 17.4109 23.9248 17.3846C24.2338 17.3582 24.5196 17.2101 24.7194 16.9731C24.9191 16.7358 25.0166 16.4291 24.9903 16.1201L24.8946 14.9563H24.8943C24.8735 14.6619 24.742 14.386 24.5261 14.1847C24.3102 13.9831 24.026 13.871 23.7308 13.8705L23.7308 13.8702ZM14.0451 15.7572V15.7574C13.6344 15.7866 13.2694 16.0294 13.0837 16.3966C12.8981 16.764 12.9189 17.2018 13.139 17.5497C13.3588 17.8975 13.7455 18.1043 14.1568 18.0939H15.332C15.743 18.0847 16.119 17.86 16.3219 17.5025C16.5248 17.1447 16.5248 16.7069 16.3219 16.3491C16.119 15.9916 15.743 15.7668 15.332 15.7574H14.1568C14.1197 15.7559 14.0825 15.7559 14.0452 15.7574L14.0451 15.7572ZM26.5239 17.8448L26.5236 17.8454C26.1419 17.866 25.794 18.072 25.5927 18.3974L24.963 19.3878H24.9632C24.7961 19.6499 24.74 19.9675 24.8078 20.271C24.8753 20.5743 25.061 20.8382 25.3236 21.0042C25.5865 21.1706 25.9043 21.2254 26.2073 21.1565C26.5106 21.0877 26.7737 20.9012 26.939 20.6381L27.5688 19.648V19.6477C27.726 19.4052 27.7881 19.1129 27.7425 18.8276C27.6968 18.5421 27.5469 18.2837 27.3218 18.1022C27.0968 17.9207 26.8123 17.8292 26.5236 17.8453L26.5239 17.8448ZM19.7815 18.3194L19.7812 18.32C19.4537 18.3121 19.1379 18.4423 18.9108 18.6785C18.684 18.915 18.5666 19.2358 18.5875 19.563C18.6086 19.89 18.7661 20.1931 19.0216 20.3986L19.9093 21.147H19.909C20.1456 21.348 20.4525 21.4466 20.7617 21.4213C21.071 21.3957 21.3576 21.2484 21.5581 21.0114C21.7589 20.7746 21.857 20.4677 21.8309 20.1584C21.8048 19.8489 21.6569 19.5628 21.4196 19.3626L20.5228 18.6027V18.6029C20.3163 18.4248 20.054 18.3247 19.7812 18.3197L19.7815 18.3194ZM14.3213 20.4048L14.3211 20.4053C13.9088 20.4116 13.5304 20.6348 13.3252 20.9925C13.1202 21.3503 13.1189 21.7895 13.3218 22.1485L13.8832 23.1754H13.883C14.022 23.4633 14.2726 23.6818 14.5769 23.7799C14.881 23.8779 15.2121 23.8471 15.493 23.6949C15.7738 23.5423 15.9801 23.2813 16.0636 22.9728C16.1467 22.6643 16.1003 22.335 15.9345 22.0619L15.373 21.0353V21.035C15.2734 20.8428 15.1222 20.6822 14.9365 20.5711C14.7506 20.46 14.5378 20.4024 14.3211 20.4053L14.3213 20.4048ZM23.6445 22.0432L23.6442 22.0437C23.2922 22.051 22.9623 22.2168 22.7462 22.4948C22.53 22.7728 22.451 23.1334 22.5308 23.4766L22.7725 24.6151H22.7728C22.8254 24.9283 23.0033 25.2066 23.2653 25.3857C23.5274 25.5651 23.8513 25.6298 24.1624 25.5654C24.4732 25.5007 24.7444 25.3124 24.9137 25.0436C25.0829 24.7747 25.1353 24.4488 25.0589 24.1406L24.8172 22.993C24.7653 22.7215 24.619 22.4774 24.4044 22.3035C24.1898 22.1298 23.9204 22.0378 23.6443 22.0438L23.6445 22.0432ZM19.0902 23.7384L19.0899 23.739C19.0495 23.7384 19.0091 23.7398 18.9689 23.7434C18.7603 23.7624 18.5606 23.8373 18.3908 23.9601C18.221 24.0832 18.0873 24.2493 18.0038 24.4415L17.5292 25.5116C17.3918 25.7959 17.3751 26.1237 17.4831 26.4204C17.591 26.7171 17.8145 26.9573 18.1027 27.0867C18.3908 27.2157 18.7188 27.223 19.0125 27.1065C19.3058 26.9899 19.5395 26.7594 19.6602 26.4676L20.1416 25.3998H20.1418C20.3095 25.0391 20.2824 24.618 20.0696 24.2821C19.8568 23.946 19.4876 23.7413 19.0899 23.7387L19.0902 23.7384Z" fill="url(#paint0_linear_8264_21927)" stroke="url(#paint1_linear_8264_21927)" stroke-width="2" mask="url(#path-1-inside-1_8264_21927)"/>
<defs>
<linearGradient id="paint0_linear_8264_21927" x1="-0.285972" y1="36.6673" x2="41.067" y2="33.6457" gradientUnits="userSpaceOnUse">
<stop stop-color="#6B4DE0"/>
<stop offset="0.544792" stop-color="#9C42E3"/>
<stop offset="1" stop-color="#C339E5"/>
</linearGradient>
<linearGradient id="paint1_linear_8264_21927" x1="-0.285972" y1="36.6673" x2="41.067" y2="33.6457" gradientUnits="userSpaceOnUse">
<stop stop-color="#6B4DE0"/>
<stop offset="0.544792" stop-color="#9C42E3"/>
<stop offset="1" stop-color="#C339E5"/>
</linearGradient>
</defs>
</svg>
