<svg width="51" height="50" viewBox="0 0 51 50" fill="none" xmlns="http://www.w3.org/2000/svg">
<rect x="0.5" width="50" height="50" rx="8" fill="#F2F5FF"/>
<path d="M34.1106 26.0891V30.2785C34.1106 31.0151 33.818 31.7217 33.2972 32.2428C32.7761 32.7636 32.0695 33.0563 31.3329 33.0563H24.7355C24.4287 33.0563 24.1799 32.8075 24.1799 32.5007C24.1799 32.1939 24.4287 31.9452 24.7355 31.9452H31.3329C31.7748 31.9452 32.199 31.7696 32.5114 31.4571C32.8238 31.1446 32.9995 30.7204 32.9995 30.2785V26.0891C32.9995 25.7821 33.2483 25.5336 33.555 25.5336C33.8618 25.5336 34.1106 25.7821 34.1106 26.0891L34.1106 26.0891ZM26.3329 34.6535C26.0261 34.6535 25.7774 34.9022 25.7774 35.209C25.7774 35.5036 25.6603 35.7864 25.452 35.9947C25.2436 36.203 24.9609 36.3201 24.6663 36.3201H23.2774C22.9828 36.3201 22.7 36.203 22.4917 35.9947C22.2834 35.7864 22.1663 35.5036 22.1663 35.209V32.5007C22.1663 32.3534 22.1078 32.212 22.0036 32.1079C21.8994 32.0037 21.7581 31.9452 21.6107 31.9452H16.6108C16.1688 31.9452 15.7447 31.7696 15.4323 31.4571C15.1198 31.1446 14.9442 30.7204 14.9442 30.2785V11.1117C14.9442 10.6698 15.1198 10.2456 15.4323 9.93321C15.7448 9.62077 16.1689 9.44512 16.6108 9.44512H31.3332C31.7751 9.44512 32.1993 9.62071 32.5117 9.93321C32.8242 10.2457 32.9998 10.6698 32.9998 11.1117V12.825C32.9998 13.1318 33.2486 13.3805 33.5554 13.3805C33.8622 13.3805 34.1109 13.1318 34.1109 12.825V11.1117C34.1109 10.3751 33.8183 9.66857 33.2975 9.14744C32.7764 8.62661 32.0698 8.33398 31.3332 8.33398H16.6108C15.8741 8.33398 15.1676 8.62664 14.6465 9.14744C14.1256 9.66851 13.833 10.3751 13.833 11.1117V30.2785C13.833 31.0152 14.1257 31.7217 14.6465 32.2428C15.1675 32.7637 15.8741 33.0563 16.6108 33.0563H21.0552V35.209C21.0552 35.7983 21.2893 36.3636 21.706 36.7804C22.1229 37.1971 22.6881 37.4312 23.2774 37.4312H23.4163V41.1118C23.4163 41.4186 23.665 41.6673 23.9718 41.6673C24.2786 41.6673 24.5274 41.4186 24.5274 41.1118V37.4312H24.6662C25.2555 37.4312 25.8208 37.1971 26.2377 36.7804C26.6543 36.3635 26.8884 35.7983 26.8884 35.209C26.8884 35.0617 26.8299 34.9203 26.7257 34.8162C26.6216 34.712 26.4802 34.6535 26.3329 34.6535L26.3329 34.6535ZM18.9717 12.1533H28.9716C29.2663 12.1533 29.549 12.2704 29.7573 12.4787C29.9657 12.6871 30.0827 12.9698 30.0827 13.2644C30.0827 13.5712 30.3315 13.82 30.6383 13.82C30.9451 13.82 31.1938 13.5712 31.1938 13.2644C31.1938 12.6752 30.9597 12.1099 30.543 11.693C30.1261 11.2764 29.5609 11.0422 28.9716 11.0422H18.9717C18.3824 11.0422 17.8172 11.2764 17.4003 11.693C16.9836 12.1099 16.7495 12.6752 16.7495 13.2644V20.6949C16.7495 21.2841 16.9836 21.8494 17.4003 22.2663C17.8172 22.6829 18.3825 22.9171 18.9717 22.9171H26.2402C26.547 22.9171 26.7958 22.6683 26.7958 22.3615C26.7958 22.0547 26.547 21.806 26.2402 21.806H18.9717C18.6771 21.806 18.3943 21.6889 18.186 21.4806C17.9777 21.2722 17.8606 20.9895 17.8606 20.6949V13.2644C17.8606 12.9698 17.9777 12.6871 18.186 12.4787C18.3943 12.2704 18.6771 12.1533 18.9717 12.1533ZM22.8606 26.2504H25.0828C25.3774 26.2504 25.6602 26.3674 25.8685 26.5757C26.0768 26.7841 26.1939 27.0668 26.1939 27.3615C26.1939 27.6682 26.4426 27.917 26.7494 27.917C27.0562 27.917 27.305 27.6682 27.305 27.3615C27.305 26.7722 27.0709 26.2069 26.6542 25.79C26.2373 25.3734 25.672 25.1393 25.0828 25.1393H22.8606C22.0667 25.1393 21.333 25.5629 20.936 26.2504C20.5392 26.9378 20.5392 27.7851 20.936 28.4726C21.3331 29.16 22.0667 29.5837 22.8606 29.5837H25.0828C25.3896 29.5837 25.6383 29.3349 25.6383 29.0281C25.6383 28.7213 25.3896 28.4726 25.0828 28.4726H22.8606C22.4635 28.4726 22.0967 28.2608 21.8983 27.917C21.6999 27.5733 21.6999 27.1496 21.8983 26.8059C22.0967 26.4622 22.4635 26.2504 22.8606 26.2504ZM31.6802 24.3059C28.4954 24.3059 26.6108 20.7206 28.4287 18.0961L29.9441 15.9129C30.3399 15.3434 30.9894 15.0037 31.6829 15.0037C32.3766 15.0037 33.0261 15.3434 33.4217 15.9129L34.9341 18.0941C36.7545 20.7218 34.86 24.3059 31.6802 24.3059V24.3059ZM34.0184 18.7296L32.5061 16.5484H32.5058C32.3186 16.277 32.0098 16.1151 31.6802 16.1151C31.3506 16.1151 31.0418 16.277 30.8545 16.5484L29.3422 18.7296H29.3419C28.9444 19.3018 28.7705 19.9997 28.8531 20.6916C28.9357 21.3834 29.269 22.021 29.7898 22.4835C30.3109 22.9461 30.9835 23.2016 31.6802 23.2016C32.3768 23.2016 33.0494 22.9461 33.5705 22.4835C34.0913 22.021 34.4247 21.3834 34.5073 20.6916C34.5898 19.9997 34.416 19.3017 34.0184 18.7296H34.0184Z" fill="url(#paint0_linear_4948_30441)" stroke="url(#paint1_linear_4948_30441)" stroke-width="0.7"/>
<defs>
<linearGradient id="paint0_linear_4948_30441" x1="11.4646" y1="41.6673" x2="38.6078" y2="40.3695" gradientUnits="userSpaceOnUse">
<stop stop-color="#6B4DE0"/>
<stop offset="0.544792" stop-color="#9C42E3"/>
<stop offset="1" stop-color="#C339E5"/>
</linearGradient>
<linearGradient id="paint1_linear_4948_30441" x1="11.4646" y1="41.6673" x2="38.6078" y2="40.3695" gradientUnits="userSpaceOnUse">
<stop stop-color="#6B4DE0"/>
<stop offset="0.544792" stop-color="#9C42E3"/>
<stop offset="1" stop-color="#C339E5"/>
</linearGradient>
</defs>
</svg>
