<svg width="45" height="44" viewBox="0 0 45 44" fill="none" xmlns="http://www.w3.org/2000/svg">
<rect x="0.17041" width="44" height="44" rx="8" fill="#F9F5FA"/>
<path d="M28.8624 14.2997C28.6726 14.1147 28.4103 14 28.1204 14H26.3704C26.1769 14 26.0204 14.1529 26.0204 14.341V15.0229C26.0204 15.2114 26.177 15.3639 26.3704 15.3639H27.7704V18.0076C27.7704 18.8296 27.228 19.5288 26.7896 20.1893C26.1003 21.2277 24.5409 21.2277 23.8515 20.1896C23.3979 19.507 22.8707 18.8591 22.8707 18.0076V15.364H24.2706C24.4642 15.364 24.6206 15.2114 24.6206 15.023L24.6205 14.341C24.6205 14.1529 24.464 14 24.2704 14H22.5204C22.2305 14 21.9681 14.1147 21.7781 14.2998C21.5879 14.4848 21.4704 14.7406 21.4704 15.0231V17.3029C21.4704 18.4858 21.8382 19.5867 22.4583 20.6038C23.563 22.4156 24.6206 23.0263 24.5914 24.0109C24.5721 24.6423 24.5914 25.2754 24.5914 25.9078C24.5914 27.4118 23.335 28.6361 21.7914 28.6361H21.1203C19.5765 28.6361 18.3203 27.4118 18.3203 25.9078V23.4482C19.332 23.1549 20.0703 22.2431 20.0703 21.1615C20.0703 19.8433 18.9732 18.7743 17.6204 18.7743C16.2671 18.7743 15.1704 19.8433 15.1704 21.1615C15.1704 22.2431 15.9082 23.155 16.9204 23.4482V25.9076C16.9208 28.1678 18.8008 30 21.1204 30H21.7915C24.1107 30 25.9916 28.1676 25.9916 25.9076V24.8039C25.9916 24.2831 25.9768 23.321 26.2103 22.8521C26.9883 22.2456 27.8727 21.6143 28.3392 20.6925C28.9987 19.6995 29.1704 18.4858 29.1704 17.303V15.0228C29.1704 14.7403 29.0526 14.4847 28.8624 14.2995L28.8624 14.2997ZM16.3082 21.1611C16.3082 20.4564 16.8972 19.8823 17.6206 19.8823C18.3439 19.8823 18.933 20.4564 18.933 21.1611C18.933 21.8662 18.3439 22.4399 17.6206 22.4399C16.8971 22.44 16.3082 21.8661 16.3082 21.1611Z" fill="#9E62B3"/>
</svg>
