<svg width="26" height="10" viewBox="0 0 26 10" fill="none" xmlns="http://www.w3.org/2000/svg">
<path fill-rule="evenodd" clip-rule="evenodd" d="M11.9912 7.82275V4.8881H13.6128C14.2772 4.8881 14.8381 4.68013 15.2953 4.26997L15.405 4.16599C16.2402 3.31679 16.1853 1.99388 15.2953 1.20823C14.8503 0.792293 14.2407 0.566995 13.6128 0.578548H11.0098V7.82275H11.9912ZM11.9912 3.99847V1.46819H13.6374C13.991 1.46819 14.3264 1.59529 14.5763 1.82636C15.1068 2.31162 15.119 3.12038 14.6068 3.62297C14.3568 3.87138 14.0032 4.01002 13.6374 3.99847H11.9912ZM19.9829 3.25323C19.5623 2.88928 18.9892 2.70442 18.2638 2.70442C17.3311 2.70442 16.6301 3.02793 16.1668 3.66916L17.0324 4.1833C17.3494 3.74426 17.7822 3.52474 18.3309 3.52474C18.6783 3.52474 19.0136 3.64605 19.2757 3.86557C19.5318 4.07354 19.6781 4.37394 19.6781 4.69167V4.90541C19.3001 4.709 18.8246 4.60501 18.2394 4.60501C17.5567 4.60501 17.008 4.75521 16.5996 5.06139C16.1912 5.36756 15.9839 5.77194 15.9839 6.28609C15.9717 6.75401 16.1851 7.19883 16.563 7.49923C16.9471 7.82273 17.4347 7.98449 18.0078 7.98449C18.6844 7.98449 19.2209 7.70142 19.6293 7.13529H19.672V7.82273H20.6108V4.76677C20.6108 4.12553 20.4035 3.61717 19.9829 3.25323ZM17.3183 6.90996C17.1171 6.77132 16.9951 6.54602 16.9951 6.30339C16.9951 6.03188 17.1293 5.80658 17.3914 5.6275C17.6597 5.44841 17.995 5.35598 18.3913 5.35598C18.9401 5.35021 19.3668 5.46574 19.6717 5.69682C19.6717 6.08965 19.5071 6.43048 19.1839 6.71933C18.8913 6.99662 18.495 7.15259 18.0804 7.15259C17.806 7.15837 17.5377 7.07171 17.3183 6.90996ZM22.72 10.0006L25.9997 2.86617H24.9329L23.415 6.42473H23.3967L21.8422 2.86617H20.7754L22.9273 7.505L21.7081 10.0006H22.72Z" fill="#3C4043"/>
<path d="M8.60298 4.25358C8.60298 3.97051 8.57859 3.68745 8.52982 3.41016H4.39062V5.01035H6.76198C6.66444 5.52449 6.34745 5.98664 5.88415 6.27549V7.31532H7.29843C8.12749 6.59321 8.60298 5.52449 8.60298 4.25358Z" fill="#4285F4"/>
<path d="M4.39045 8.31917C5.57308 8.31917 6.57282 7.94945 7.29825 7.314L5.88397 6.27416C5.48773 6.52834 4.98176 6.67276 4.39045 6.67276C3.24439 6.67276 2.27513 5.9391 1.92765 4.95703H0.470703V6.03153C1.21442 7.43531 2.73233 8.31917 4.39045 8.31917Z" fill="#34A853"/>
<path d="M1.92817 4.95611C1.74526 4.44197 1.74526 3.88161 1.92817 3.36169V2.29297H0.470993C-0.156998 3.46567 -0.156998 4.85213 0.470993 6.02483L1.92817 4.95611Z" fill="#FBBC04"/>
<path d="M4.39045 1.64666C5.01834 1.63511 5.62184 1.86041 6.07295 2.27056L7.32873 1.08053C6.53015 0.375748 5.48163 -0.0113023 4.39045 0.000251415C2.73233 0.000251415 1.21442 0.889891 0.470703 2.29367L1.92765 3.36817C2.27513 2.38033 3.24439 1.64666 4.39045 1.64666Z" fill="#EA4335"/>
</svg>
