<svg width="112" height="32" viewBox="0 0 112 32" fill="none" xmlns="http://www.w3.org/2000/svg">
<path d="M106.946 32H4.11329C1.85201 32 0 30.199 0 28V4C0 1.80099 1.85201 -5.24521e-06 4.11329 -5.24521e-06H106.946C109.207 -5.24521e-06 111.059 1.80099 111.059 4V28C111.059 30.199 109.207 32 106.946 32Z" fill="black"/>
<path d="M8.58439 6.03135C8.34273 6.27735 8.20288 6.66035 8.20288 7.15635V24.8483C8.20288 25.3443 8.34273 25.7273 8.58439 25.9733L8.64403 26.0273L18.8388 16.1173V15.8833L8.64403 5.97335L8.58439 6.03135Z" fill="url(#paint0_linear_5759_23713)"/>
<path d="M22.2334 19.4238L18.8389 16.1188V15.8848L22.2375 12.5798L22.3136 12.6228L26.3384 14.8498C27.4871 15.4818 27.4871 16.5218 26.3384 17.1578L22.3136 19.3808L22.2334 19.4238Z" fill="url(#paint1_linear_5759_23713)"/>
<path d="M22.3136 19.38L18.8389 16.001L8.58447 25.974C8.96598 26.364 9.58811 26.411 10.2956 26.021L22.3136 19.38Z" fill="url(#paint2_linear_5759_23713)"/>
<path d="M22.3136 12.621L10.2956 5.98C9.58811 5.594 8.96598 5.641 8.58447 6.031L18.8389 16L22.3136 12.621Z" fill="url(#paint3_linear_5759_23713)"/>
<path d="M39.0085 8.19518C39.0085 8.86318 38.8028 9.39818 38.3976 9.79718C37.9318 10.2702 37.3251 10.5082 36.5816 10.5082C35.8711 10.5082 35.2643 10.2662 34.7666 9.78918C34.2679 9.30518 34.019 8.71118 34.019 8.00018C34.019 7.28919 34.2679 6.69519 34.7666 6.21519C35.2643 5.73419 35.8711 5.49219 36.5816 5.49219C36.9354 5.49219 37.2727 5.56319 37.5945 5.69519C37.9154 5.82819 38.1766 6.00819 38.3658 6.23019L37.9359 6.65219C37.6058 6.27319 37.1565 6.08619 36.5816 6.08619C36.0634 6.08619 35.614 6.26219 35.2325 6.61719C34.8551 6.97319 34.6659 7.43419 34.6659 8.00018C34.6659 8.56618 34.8551 9.03118 35.2325 9.38718C35.614 9.73818 36.0634 9.91818 36.5816 9.91818C37.1318 9.91818 37.5945 9.73818 37.9596 9.38318C38.2002 9.14818 38.337 8.82418 38.373 8.41018H36.5816V7.83218H38.9715C39.0002 7.95718 39.0085 8.07818 39.0085 8.19518Z" fill="white"/>
<path d="M42.8 6.19056H40.5552V7.71056H42.5789V8.28856H40.5552V9.80856H42.8V10.3976H39.9197V5.60156H42.8V6.19056Z" fill="white"/>
<path d="M45.4756 10.3976H44.8401V6.19056H43.4631V5.60156H46.8535V6.19056H45.4756V10.3976Z" fill="white"/>
<path d="M49.3071 10.3976V5.60156H49.9416V10.3976H49.3071Z" fill="white"/>
<path d="M52.7541 10.3976H52.1238V6.19056H50.7417V5.60156H54.1362V6.19056H52.7541V10.3976Z" fill="white"/>
<path d="M60.555 9.78118C60.0686 10.2662 59.466 10.5082 58.7472 10.5082C58.0243 10.5082 57.4217 10.2662 56.9353 9.78118C56.4499 9.29718 56.2083 8.70318 56.2083 8.00018C56.2083 7.29719 56.4499 6.70319 56.9353 6.21919C57.4217 5.73419 58.0243 5.49219 58.7472 5.49219C59.4619 5.49219 60.0645 5.73419 60.5509 6.22319C61.0403 6.71119 61.282 7.30119 61.282 8.00018C61.282 8.70318 61.0403 9.29718 60.555 9.78118ZM57.4052 9.37918C57.7713 9.73818 58.2166 9.91818 58.7472 9.91818C59.2737 9.91818 59.7231 9.73818 60.085 9.37918C60.4501 9.02018 60.6352 8.55918 60.6352 8.00018C60.6352 7.44119 60.4501 6.98019 60.085 6.62119C59.7231 6.26219 59.2737 6.08219 58.7472 6.08219C58.2166 6.08219 57.7713 6.26219 57.4052 6.62119C57.0402 6.98019 56.8551 7.44119 56.8551 8.00018C56.8551 8.55918 57.0402 9.02018 57.4052 9.37918Z" fill="white"/>
<path d="M62.1736 10.3976V5.60156H62.9448L65.3429 9.33156H65.3706L65.3429 8.40956V5.60156H65.9774V10.3976H65.3151L62.8039 6.48356H62.7762L62.8039 7.40956V10.3976H62.1736Z" fill="white"/>
<path d="M56.0519 17.4017C54.1197 17.4017 52.5412 18.8317 52.5412 20.8047C52.5412 22.7617 54.1197 24.2067 56.0519 24.2067C57.9882 24.2067 59.5667 22.7617 59.5667 20.8047C59.5667 18.8317 57.9882 17.4017 56.0519 17.4017ZM56.0519 22.8667C54.9917 22.8667 54.0795 22.0157 54.0795 20.8047C54.0795 19.5777 54.9917 18.7417 56.0519 18.7417C57.1121 18.7417 58.0283 19.5777 58.0283 20.8047C58.0283 22.0157 57.1121 22.8667 56.0519 22.8667ZM48.3919 17.4017C46.4556 17.4017 44.8812 18.8317 44.8812 20.8047C44.8812 22.7617 46.4556 24.2067 48.3919 24.2067C50.3272 24.2067 51.9026 22.7617 51.9026 20.8047C51.9026 18.8317 50.3272 17.4017 48.3919 17.4017ZM48.3919 22.8667C47.3307 22.8667 46.4155 22.0157 46.4155 20.8047C46.4155 19.5777 47.3307 18.7417 48.3919 18.7417C49.4521 18.7417 50.3642 19.5777 50.3642 20.8047C50.3642 22.0157 49.4521 22.8667 48.3919 22.8667ZM39.2769 18.4447V19.8907H42.8276C42.7238 20.6987 42.4461 21.2927 42.0204 21.7067C41.5021 22.2067 40.6949 22.7617 39.2769 22.7617C37.0917 22.7617 35.3805 21.0467 35.3805 18.9217C35.3805 16.7967 37.0917 15.0817 39.2769 15.0817C40.4584 15.0817 41.3181 15.5307 41.9525 16.1127L43.0004 15.0937C42.113 14.2697 40.9325 13.6367 39.2769 13.6367C36.2803 13.6367 33.762 16.0077 33.762 18.9217C33.762 21.8357 36.2803 24.2067 39.2769 24.2067C40.8965 24.2067 42.113 23.6907 43.0693 22.7227C44.0493 21.7697 44.3547 20.4297 44.3547 19.3477C44.3547 19.0117 44.3259 18.7027 44.2745 18.4447H39.2769ZM76.5494 19.5657C76.2605 18.8047 75.3689 17.4017 73.5529 17.4017C71.7533 17.4017 70.2551 18.7807 70.2551 20.8047C70.2551 22.7107 71.7379 24.2067 73.7256 24.2067C75.3329 24.2067 76.2605 23.2537 76.642 22.6987L75.4491 21.9257C75.0511 22.4917 74.5092 22.8667 73.7256 22.8667C72.9472 22.8667 72.3888 22.5197 72.031 21.8357L76.7109 19.9527L76.5494 19.5657ZM71.778 20.6987C71.7379 19.3867 72.8259 18.7147 73.6053 18.7147C74.2162 18.7147 74.7344 19.0117 74.9072 19.4367L71.778 20.6987ZM67.9742 23.9997H69.5126V13.9997H67.9742V23.9997ZM65.4548 18.1597H65.4034C65.0579 17.7617 64.3988 17.4017 63.5638 17.4017C61.8115 17.4017 60.2094 18.8977 60.2094 20.8157C60.2094 22.7227 61.8115 24.2067 63.5638 24.2067C64.3988 24.2067 65.0579 23.8437 65.4034 23.4337H65.4548V23.9217C65.4548 25.2227 64.7402 25.9217 63.5874 25.9217C62.6475 25.9217 62.0645 25.2617 61.8238 24.7067L60.486 25.2497C60.8716 26.1517 61.8927 27.2617 63.5874 27.2617C65.3911 27.2617 66.913 26.2297 66.913 23.7187V17.6087H65.4548V18.1597ZM63.6954 22.8667C62.6352 22.8667 61.7477 22.0037 61.7477 20.8157C61.7477 19.6167 62.6352 18.7417 63.6954 18.7417C64.7402 18.7417 65.5639 19.6167 65.5639 20.8157C65.5639 22.0037 64.7402 22.8667 63.6954 22.8667ZM83.7518 13.9997H80.0724V23.9997H81.6067V20.2107H83.7518C85.4557 20.2107 87.1267 19.0117 87.1267 17.1047C87.1267 15.1987 85.4516 13.9997 83.7518 13.9997ZM83.7919 18.8197H81.6067V15.3907H83.7919C84.9374 15.3907 85.5915 16.3157 85.5915 17.1047C85.5915 17.8787 84.9374 18.8197 83.7919 18.8197ZM93.2761 17.3827C92.1676 17.3827 91.0148 17.8587 90.5408 18.9137L91.9023 19.4687C92.1953 18.9137 92.7342 18.7337 93.3039 18.7337C94.0998 18.7337 94.907 19.1987 94.9194 20.0197V20.1247C94.6417 19.9687 94.0473 19.7377 93.3162 19.7377C91.8498 19.7377 90.3557 20.5227 90.3557 21.9877C90.3557 23.3277 91.5567 24.1907 92.9069 24.1907C93.9394 24.1907 94.5091 23.7377 94.8669 23.2107H94.9194V23.9837H96.4012V20.1477C96.4012 18.3747 95.0397 17.3827 93.2761 17.3827ZM93.091 22.8627C92.5892 22.8627 91.8899 22.6207 91.8899 22.0157C91.8899 21.2417 92.7619 20.9447 93.5167 20.9447C94.1923 20.9447 94.5091 21.0897 94.9194 21.2807C94.799 22.2067 93.9795 22.8627 93.091 22.8627ZM101.8 17.6017L100.036 21.9367H99.9838L98.1606 17.6017H96.5061L99.2455 23.6597L97.6825 27.0307H99.2856L103.507 17.6017H101.8ZM87.97 23.9997H89.5083V13.9997H87.97V23.9997Z" fill="white"/>
<defs>
<linearGradient id="paint0_linear_5759_23713" x1="17.9336" y1="25.0326" x2="4.51296" y2="11.2318" gradientUnits="userSpaceOnUse">
<stop stop-color="#00A0FF"/>
<stop offset="0.0066" stop-color="#00A1FF"/>
<stop offset="0.2601" stop-color="#00BEFF"/>
<stop offset="0.5122" stop-color="#00D2FF"/>
<stop offset="0.7604" stop-color="#00DFFF"/>
<stop offset="1" stop-color="#00E3FF"/>
</linearGradient>
<linearGradient id="paint1_linear_5759_23713" x1="27.8341" y1="16.0007" x2="7.92837" y2="16.0007" gradientUnits="userSpaceOnUse">
<stop stop-color="#FFE000"/>
<stop offset="0.4087" stop-color="#FFBD00"/>
<stop offset="0.7754" stop-color="#FFA500"/>
<stop offset="1" stop-color="#FF9C00"/>
</linearGradient>
<linearGradient id="paint2_linear_5759_23713" x1="20.4242" y1="14.1641" x2="2.22462" y2="-4.55092" gradientUnits="userSpaceOnUse">
<stop stop-color="#FF3A44"/>
<stop offset="1" stop-color="#C31162"/>
</linearGradient>
<linearGradient id="paint3_linear_5759_23713" x1="6.00322" y1="31.859" x2="14.1301" y2="23.502" gradientUnits="userSpaceOnUse">
<stop stop-color="#32A071"/>
<stop offset="0.0685" stop-color="#2DA771"/>
<stop offset="0.4762" stop-color="#15CF74"/>
<stop offset="0.8009" stop-color="#06E775"/>
<stop offset="1" stop-color="#00F076"/>
</linearGradient>
</defs>
</svg>
