<svg width="51" height="50" viewBox="0 0 51 50" fill="none" xmlns="http://www.w3.org/2000/svg">
<rect x="0.5" width="50" height="50" rx="8" fill="#F2F5FF"/>
<path d="M24.339 37.9999C23.9237 37.9999 23.5867 37.6567 23.5867 37.2337L23.5897 33.7846C23.5927 32.0423 23.5973 30.3018 23.5791 28.561C23.5746 28.138 23.9086 27.7917 24.3239 27.7871H24.3315C24.7423 27.7871 25.0793 28.1257 25.0838 28.5457C25.1019 30.2926 25.0974 32.0392 25.0944 33.7876L25.0913 37.2338C25.0911 37.6568 24.7541 38 24.339 38L24.339 37.9999Z" fill="url(#paint0_linear_4948_20986)" stroke="url(#paint1_linear_4948_20986)" stroke-width="0.5"/>
<path d="M15.288 34.1721C11.6803 34.1721 8.51795 31.4016 7.77003 27.5861C6.8749 23.0244 8.20776 18.7615 11.7313 14.9159C13.3863 13.1077 15.4969 12.13 18.008 12.0077L18.2621 12C20.1231 12 21.7316 12.9992 22.5604 14.6721C23.2719 16.1064 23.3172 17.6401 22.6899 18.9917C22.1212 20.2158 21.0409 21.169 19.66 21.6975C20.5926 23.7814 20.3249 25.4332 18.8296 26.7829C18.9167 26.8381 19.0011 26.8948 19.0852 26.9546C20.215 27.7621 20.847 28.9097 20.8213 30.1033C20.7956 31.2526 20.1519 32.3236 19.0505 33.0407C18.1236 33.6443 16.9834 34.0461 15.9195 34.1425C15.7092 34.1627 15.4999 34.1717 15.2879 34.1717L15.288 34.1721ZM18.2622 13.5322L18.0816 13.5368C15.9756 13.641 14.2078 14.4575 12.8298 15.9607C9.6133 19.4743 8.43963 23.1797 9.2461 27.2873C9.85384 30.3887 12.3949 32.6396 15.2895 32.6396C15.455 32.6396 15.6219 32.6319 15.7889 32.6165C16.6072 32.5429 17.5235 32.2182 18.2428 31.7523C18.9229 31.308 19.3065 30.7104 19.3201 30.0713C19.3352 29.3988 18.935 28.7184 18.2232 28.2095C18.0141 28.0594 17.787 27.9337 17.5356 27.7942L17.0752 27.5325C16.848 27.3976 16.7052 27.1511 16.7007 26.8812C16.6961 26.6116 16.8316 26.3602 17.0558 26.2178C18.971 25.0027 19.1906 23.8412 17.9224 21.6117C17.802 21.3988 17.7884 21.1428 17.8849 20.9191C17.9811 20.6954 18.1768 20.5315 18.4116 20.4794C19.7777 20.1713 20.8413 19.39 21.3302 18.3372C21.7558 17.4209 21.7168 16.3651 21.2188 15.3646C20.6499 14.2169 19.5442 13.5321 18.2623 13.5321L18.2622 13.5322Z" fill="url(#paint2_linear_4948_20986)" stroke="url(#paint3_linear_4948_20986)" stroke-width="0.5"/>
<path d="M24.3311 29.3194C23.9203 29.3194 23.5833 28.9808 23.5788 28.5609C23.5621 26.8753 22.6852 26.0218 20.898 25.9482C20.4842 25.9297 20.1607 25.5745 20.1774 25.1499C20.197 24.7285 20.5867 24.4284 20.9611 24.416C23.5578 24.5232 25.0607 26.028 25.0849 28.5455C25.0894 28.9685 24.7554 29.3148 24.3401 29.3194H24.331H24.3311Z" fill="url(#paint4_linear_4948_20986)" stroke="url(#paint5_linear_4948_20986)" stroke-width="0.5"/>
<path d="M26.6636 38C26.2482 38 25.9112 37.6568 25.9112 37.2338L25.9082 33.9608C25.9037 32.1557 25.8992 30.3508 25.9188 28.5457C25.9233 28.1257 26.2603 27.7871 26.6711 27.7871H26.6787C27.094 27.7917 27.428 28.138 27.4234 28.561C27.4038 30.36 27.4083 32.1603 27.4129 33.9577L27.4159 37.2338C27.4159 37.6568 27.0789 38 26.6636 38H26.6636Z" fill="url(#paint6_linear_4948_20986)" stroke="url(#paint7_linear_4948_20986)" stroke-width="0.5"/>
<path d="M35.7127 34.1721C35.5021 34.1721 35.2913 34.1629 35.0777 34.1432C34.0156 34.0467 32.8752 33.6453 31.9484 33.0414C30.8485 32.3242 30.2032 31.2533 30.1775 30.104C30.1518 28.912 30.7837 27.7643 31.9121 26.9553C31.9964 26.8955 32.0806 26.8388 32.1692 26.7837C30.6739 25.4323 30.4059 23.7818 31.3388 21.6982C29.9596 21.1695 28.8794 20.2163 28.3107 18.9936C27.6833 17.6407 27.7284 16.1067 28.4401 14.6741C29.2705 13.0008 30.8774 12.002 32.7369 12.002L32.991 12.0096C35.5018 12.1323 37.6142 13.1114 39.2692 14.9178C42.7912 18.7654 44.1241 23.028 43.2305 27.588C42.4812 31.402 39.3203 34.1721 35.7125 34.1721L35.7127 34.1721ZM32.7384 13.5323C31.4567 13.5323 30.3523 14.2172 29.7836 15.3633C29.2857 16.364 29.2466 17.4212 29.6723 18.3359C30.1611 19.3903 31.2247 20.1701 32.5909 20.4781C32.8241 20.5302 33.0195 20.6957 33.1175 20.9178C33.2122 21.1415 33.2004 21.3975 33.08 21.6104C31.8116 23.8398 32.0315 25.0014 33.9466 26.2165C34.1708 26.3592 34.3063 26.6103 34.3018 26.8799C34.2972 27.1495 34.1544 27.3963 33.9272 27.5312L33.4683 27.7931C33.217 27.9342 32.9898 28.0597 32.7792 28.2084C32.0677 28.7171 31.669 29.3959 31.6823 30.0703C31.6959 30.7093 32.0795 31.3067 32.7595 31.7513C33.4786 32.2187 34.3949 32.5434 35.2119 32.6155C38.3232 32.899 41.1107 30.5654 41.7563 27.2847C42.5612 23.1781 41.3878 19.4734 38.1713 15.9581C36.7931 14.4549 35.0255 13.6381 32.9192 13.534L32.7384 13.5323Z" fill="url(#paint8_linear_4948_20986)" stroke="url(#paint9_linear_4948_20986)" stroke-width="0.5"/>
<path d="M26.6703 29.3194H26.6628C26.2475 29.3148 25.9135 28.9685 25.918 28.5455C25.9437 26.0265 27.4466 24.5233 30.0417 24.416C30.4901 24.4268 30.8059 24.7287 30.8255 25.1499C30.8421 25.5729 30.5185 25.9298 30.1049 25.9482C28.3177 26.0218 27.4405 26.8753 27.4241 28.5609C27.4181 28.9808 27.0811 29.3194 26.6703 29.3194H26.6703Z" fill="url(#paint10_linear_4948_20986)" stroke="url(#paint11_linear_4948_20986)" stroke-width="0.5"/>
<defs>
<linearGradient id="paint0_linear_4948_20986" x1="23.4143" y1="38" x2="25.3076" y2="37.9794" gradientUnits="userSpaceOnUse">
<stop stop-color="#6B4DE0"/>
<stop offset="0.544792" stop-color="#9C42E3"/>
<stop offset="1" stop-color="#C339E5"/>
</linearGradient>
<linearGradient id="paint1_linear_4948_20986" x1="23.4143" y1="38" x2="25.3076" y2="37.9794" gradientUnits="userSpaceOnUse">
<stop stop-color="#6B4DE0"/>
<stop offset="0.544792" stop-color="#9C42E3"/>
<stop offset="1" stop-color="#C339E5"/>
</linearGradient>
<linearGradient id="paint2_linear_4948_20986" x1="5.80287" y1="34.1721" x2="25.246" y2="33.1705" gradientUnits="userSpaceOnUse">
<stop stop-color="#6B4DE0"/>
<stop offset="0.544792" stop-color="#9C42E3"/>
<stop offset="1" stop-color="#C339E5"/>
</linearGradient>
<linearGradient id="paint3_linear_4948_20986" x1="5.80287" y1="34.1721" x2="25.246" y2="33.1705" gradientUnits="userSpaceOnUse">
<stop stop-color="#6B4DE0"/>
<stop offset="0.544792" stop-color="#9C42E3"/>
<stop offset="1" stop-color="#C339E5"/>
</linearGradient>
<linearGradient id="paint4_linear_4948_20986" x1="19.6438" y1="29.3194" x2="25.7333" y2="28.874" gradientUnits="userSpaceOnUse">
<stop stop-color="#6B4DE0"/>
<stop offset="0.544792" stop-color="#9C42E3"/>
<stop offset="1" stop-color="#C339E5"/>
</linearGradient>
<linearGradient id="paint5_linear_4948_20986" x1="19.6438" y1="29.3194" x2="25.7333" y2="28.874" gradientUnits="userSpaceOnUse">
<stop stop-color="#6B4DE0"/>
<stop offset="0.544792" stop-color="#9C42E3"/>
<stop offset="1" stop-color="#C339E5"/>
</linearGradient>
<linearGradient id="paint6_linear_4948_20986" x1="25.7393" y1="38" x2="27.634" y2="37.9794" gradientUnits="userSpaceOnUse">
<stop stop-color="#6B4DE0"/>
<stop offset="0.544792" stop-color="#9C42E3"/>
<stop offset="1" stop-color="#C339E5"/>
</linearGradient>
<linearGradient id="paint7_linear_4948_20986" x1="25.7393" y1="38" x2="27.634" y2="37.9794" gradientUnits="userSpaceOnUse">
<stop stop-color="#6B4DE0"/>
<stop offset="0.544792" stop-color="#9C42E3"/>
<stop offset="1" stop-color="#C339E5"/>
</linearGradient>
<linearGradient id="paint8_linear_4948_20986" x1="26.174" y1="34.1722" x2="45.6164" y2="33.1706" gradientUnits="userSpaceOnUse">
<stop stop-color="#6B4DE0"/>
<stop offset="0.544792" stop-color="#9C42E3"/>
<stop offset="1" stop-color="#C339E5"/>
</linearGradient>
<linearGradient id="paint9_linear_4948_20986" x1="26.174" y1="34.1722" x2="45.6164" y2="33.1706" gradientUnits="userSpaceOnUse">
<stop stop-color="#6B4DE0"/>
<stop offset="0.544792" stop-color="#9C42E3"/>
<stop offset="1" stop-color="#C339E5"/>
</linearGradient>
<linearGradient id="paint10_linear_4948_20986" x1="25.385" y1="29.3194" x2="31.4745" y2="28.874" gradientUnits="userSpaceOnUse">
<stop stop-color="#6B4DE0"/>
<stop offset="0.544792" stop-color="#9C42E3"/>
<stop offset="1" stop-color="#C339E5"/>
</linearGradient>
<linearGradient id="paint11_linear_4948_20986" x1="25.385" y1="29.3194" x2="31.4745" y2="28.874" gradientUnits="userSpaceOnUse">
<stop stop-color="#6B4DE0"/>
<stop offset="0.544792" stop-color="#9C42E3"/>
<stop offset="1" stop-color="#C339E5"/>
</linearGradient>
</defs>
</svg>
