<svg width="56" height="56" viewBox="0 0 56 56" fill="none" xmlns="http://www.w3.org/2000/svg">
<circle cx="28" cy="28" r="28" fill="#F9F5FA"/>
<path d="M42.9965 30.2216C43.4385 30.2216 43.8625 30.046 44.175 29.7335C44.4874 29.4211 44.663 28.997 44.663 28.5551C44.663 28.1133 44.4874 27.6891 44.175 27.3767C43.8625 27.0643 43.4384 26.8887 42.9965 26.8887C42.5547 26.8887 42.1305 27.0642 41.8181 27.3767C41.5057 27.6892 41.3301 28.1133 41.3301 28.5551C41.3306 28.997 41.5064 29.4206 41.8186 29.7331C42.1311 30.0453 42.5547 30.2211 42.9966 30.2216L42.9965 30.2216ZM42.9965 27.9996C43.2212 27.9996 43.4238 28.135 43.5096 28.3426C43.5957 28.5501 43.5483 28.7889 43.3894 28.9479C43.2304 29.1069 42.9916 29.1542 42.784 29.0682C42.5764 28.9824 42.441 28.7798 42.441 28.5551C42.4413 28.2483 42.6898 27.9998 42.9965 27.9996Z" fill="#9E62B3"/>
<path d="M38.5522 26.8876C38.9941 26.8876 39.4182 26.712 39.7306 26.3996C40.043 26.0871 40.2187 25.663 40.2187 25.2211C40.2187 24.7793 40.0431 24.3551 39.7306 24.0427C39.4181 23.7303 38.9941 23.5547 38.5522 23.5547C38.1103 23.5547 37.6862 23.7303 37.3738 24.0427C37.0614 24.3552 36.8857 24.7793 36.8857 25.2211C36.8862 25.6631 37.0621 26.0866 37.3743 26.3991C37.6868 26.7113 38.1103 26.8872 38.5523 26.8877L38.5522 26.8876ZM38.5522 24.6656C38.7769 24.6656 38.9795 24.801 39.0653 25.0086C39.1513 25.2161 39.104 25.455 38.945 25.6139C38.7861 25.7729 38.5472 25.8203 38.3397 25.7342C38.1321 25.6484 37.9967 25.4458 37.9967 25.2211C37.997 24.9144 38.2454 24.6659 38.5522 24.6656Z" fill="#9E62B3"/>
<path d="M39.1081 29.6649C39.1081 29.9716 38.8593 30.2204 38.5526 30.2204C38.2458 30.2204 37.9971 29.9716 37.9971 29.6649C37.9971 29.3581 38.2458 29.1094 38.5526 29.1094C38.8593 29.1094 39.1081 29.3581 39.1081 29.6649Z" fill="#9E62B3"/>
<path d="M43.5514 24.1102C43.5514 24.4169 43.3027 24.6657 42.9959 24.6657C42.6892 24.6657 42.4404 24.4169 42.4404 24.1102C42.4404 23.8034 42.6892 23.5547 42.9959 23.5547C43.3027 23.5547 43.5514 23.8034 43.5514 24.1102Z" fill="#9E62B3"/>
<path d="M43.492 37.9977H43.5517C43.699 37.9977 43.8404 37.9392 43.9446 37.8351C44.0487 37.7309 44.1072 37.5896 44.1072 37.4423V34.1093C44.1072 33.962 44.0487 33.8206 43.9446 33.7165C43.8404 33.6123 43.699 33.5538 43.5517 33.5538H42.4408V32.4428H42.9962C43.303 32.4428 43.5517 32.194 43.5517 31.8873C43.5517 31.5805 43.303 31.3318 42.9962 31.3318H38.5523C38.2455 31.3318 37.9968 31.5805 37.9968 31.8873C37.9968 32.194 38.2455 32.4428 38.5523 32.4428H39.1078V33.9796C38.8997 34.1658 38.7415 34.4014 38.6478 34.6648H35.5337L32.4418 29.5115V26.3323C32.4411 25.6923 32.2196 25.072 31.8149 24.5763C31.4102 24.0803 30.8467 23.7393 30.2198 23.6104V18.5554C30.2198 15.9753 28.8435 13.5914 26.6091 12.3013C24.3747 11.0115 21.622 11.0115 19.3876 12.3013C17.1533 13.5913 15.7769 15.9753 15.7769 18.5554V23.6104C15.15 23.7393 14.5866 24.0803 14.1819 24.5763C13.7771 25.0721 13.5557 25.6923 13.5549 26.3323V29.6226L11.3394 44.0236C11.3149 44.1838 11.3615 44.3468 11.4669 44.4698C11.5725 44.5928 11.7265 44.6635 11.8885 44.6635H29.6644C29.8117 44.6635 29.953 44.6049 30.0572 44.5008C30.1613 44.3966 30.2199 44.2553 30.2199 44.108V37.5734L31.3896 39.9127C31.4836 40.1009 31.6761 40.2197 31.8864 40.2197H36.9263C36.7318 41.5581 37.2467 42.9015 38.286 43.767C39.3253 44.6325 40.7396 44.8956 42.0207 44.4621C43.3018 44.0286 44.2657 42.9605 44.5658 41.6417C44.8659 40.3229 44.4592 38.943 43.492 37.9977H43.492ZM42.9962 36.8868H40.2188C39.912 36.8865 39.6635 36.638 39.6633 36.3313V35.2203C39.6635 34.9135 39.912 34.665 40.2188 34.6648H42.9962V36.8868ZM40.2188 32.4428H41.3298V33.5538H40.2188V32.4428ZM31.3308 26.3323V29.1098H25.2204V27.4761C26.7582 26.7113 27.7967 25.2119 27.9726 23.5035C28.3847 23.4234 28.7733 23.2506 29.1088 22.9979V24.1104C29.1088 24.2577 29.1674 24.399 29.2715 24.5032C29.3757 24.6073 29.517 24.6658 29.6643 24.6658C30.1062 24.6663 30.5298 24.8422 30.8421 25.1546C31.1545 25.4669 31.3303 25.8904 31.3308 26.3323L31.3308 26.3323ZM19.9987 30.8874L19.1099 30.2208H20.9887L22.4429 33.1294V35.7758L20.2209 32.813V31.3318C20.2209 31.157 20.1386 30.9923 19.9987 30.8874ZM19.1099 19.1109H26.8869V21.9732L24.4229 22.3838L24.0509 21.6399H24.0506C23.9566 21.4516 23.7642 21.3328 23.5539 21.3328H22.4429C22.2326 21.3328 22.0402 21.4516 21.9459 21.6399L21.574 22.3838L19.11 21.9732L19.1099 19.1109ZM27.9978 19.2063C28.4336 19.3606 28.7857 19.6889 28.9699 20.1127C29.1542 20.5365 29.1542 21.0182 28.9699 21.442C28.7857 21.8658 28.4335 22.1942 27.9978 22.3484V19.2063ZM20.9078 17.9999L25.0304 15.9386L26.4047 17.9999H20.9078ZM17.9992 22.3484C17.5634 22.1941 17.2113 21.8658 17.0271 21.442C16.8428 21.0182 16.8428 20.5366 17.0271 20.1127C17.2113 19.6889 17.5635 19.3606 17.9992 19.2063V22.3484ZM21.7963 23.5474C22.0369 23.5873 22.2755 23.4658 22.3843 23.2478L22.7863 22.4439H23.2106L23.6126 23.2478C23.722 23.4658 23.9603 23.5873 24.2008 23.5474L26.8846 23.1C26.8498 24.465 26.1017 25.7116 24.9135 26.3841C23.7254 27.0567 22.2717 27.0567 21.0836 26.3841C19.8955 25.7116 19.1473 24.465 19.1126 23.1L21.7963 23.5474ZM22.9986 27.9988C23.3726 27.9986 23.7451 27.9562 24.1096 27.8728V29.5341L22.9986 31.7561L21.8876 29.5341V27.8728C22.2522 27.9562 22.6246 27.9986 22.9986 27.9988ZM23.5541 33.1294L25.0083 30.2208H26.8871L25.9983 30.8874C25.8584 30.9923 25.7761 31.157 25.7761 31.3318V32.813L23.5541 35.7758V33.1294ZM22.9986 12.4447C24.6188 12.4464 26.1719 13.0909 27.3173 14.2364C28.4628 15.3819 29.1073 16.935 29.1091 18.5551V18.5566C28.7133 18.2583 28.2444 18.072 27.7516 18.0172L25.6829 14.9139C25.5274 14.681 25.2228 14.5999 24.9721 14.7254L18.4166 18.0033V18.0031C17.8631 18.0301 17.3307 18.223 16.8883 18.5566V18.5551C16.89 16.935 17.5346 15.3819 18.68 14.2364C19.8255 13.0909 21.3787 12.4464 22.9988 12.4447L22.9986 12.4447ZM16.3327 24.6656C16.48 24.6656 16.6213 24.607 16.7255 24.5029C16.8296 24.3987 16.8882 24.2574 16.8882 24.1101V22.9976C17.2237 23.2503 17.6123 23.4232 18.0244 23.5033C18.2003 25.2117 19.2388 26.711 20.7766 27.4758V29.1095H14.6662V26.3321C14.6667 25.8901 14.8425 25.4666 15.155 25.1543C15.4672 24.8419 15.8908 24.666 16.3327 24.6655L16.3327 24.6656ZM14.5873 30.2205H17.2587L19.1102 31.6093V32.998C19.1102 33.1183 19.1491 33.2351 19.2213 33.3313L22.4431 37.627V43.5525H16.8882V35.22C16.8882 34.9132 16.6394 34.6645 16.3327 34.6645C16.0259 34.6645 15.7772 34.9132 15.7772 35.22V43.5525H12.5362L14.5873 30.2205ZM32.2299 39.1085L30.1614 34.9715C30.0464 34.7411 29.7877 34.6201 29.537 34.6794C29.2863 34.7387 29.1092 34.9623 29.1092 35.22V43.5525H23.5542V37.627L26.7761 33.3313C26.8483 33.2351 26.8872 33.1183 26.8872 32.998V31.6093L28.739 30.2205H31.572L34.743 35.5057C34.8435 35.6733 35.0245 35.7755 35.2197 35.7755H38.5526V36.331C38.5524 36.7057 38.6791 37.0693 38.912 37.3626C38.1926 37.7574 37.6155 38.368 37.2621 39.1085H32.2299ZM40.7744 43.5525C40.0378 43.5525 39.3314 43.2598 38.8103 42.7391C38.2895 42.2181 37.9969 41.5115 37.9969 40.775C37.9969 40.0384 38.2895 39.3319 38.8103 38.8109C39.3313 38.2901 40.0378 37.9975 40.7744 37.9975C41.5109 37.9975 42.2174 38.2901 42.7385 38.8109C43.2593 39.3319 43.5519 40.0384 43.5519 40.775C43.5511 41.5113 43.2583 42.2173 42.7375 42.7381C42.2167 43.2588 41.5107 43.5517 40.7744 43.5525Z" fill="#9E62B3"/>
</svg>
