<svg width="51" height="50" viewBox="0 0 51 50" fill="none" xmlns="http://www.w3.org/2000/svg">
<rect x="0.5" width="50" height="50" rx="8" fill="#F2F5FF"/>
<path d="M13.4436 24.7128C13.2837 24.5538 13.0256 24.5538 12.8655 24.7128L10.5661 27.0121V27.0124C9.88253 27.6989 9.49912 28.6286 9.5 29.5976C9.50088 30.5665 9.8857 31.4955 10.5705 32.1811C11.2549 32.8667 12.1836 33.2527 13.1525 33.2547C14.1226 33.2539 15.0524 32.8679 15.7383 32.1817C16.4239 31.4955 16.8091 30.5651 16.8091 29.595C16.8094 28.6249 16.4242 27.6945 15.7389 27.0081L13.4436 24.7128ZM15.1611 31.607C14.6287 32.1365 13.9073 32.4316 13.1565 32.4267C12.4043 32.429 11.682 32.1325 11.148 31.6027C10.614 31.0729 10.312 30.353 10.3079 29.6007C10.3042 28.8485 10.599 28.1254 11.1276 27.5901L13.1362 25.5816L15.1447 27.5901H15.1444C15.677 28.121 15.9778 28.8413 15.9807 29.5932C15.9838 30.3451 15.6891 31.0677 15.161 31.6029L15.1611 31.607ZM15.1857 29.7583V29.7585C15.1857 30.3021 14.9695 30.8233 14.5852 31.2076C14.201 31.5921 13.6798 31.808 13.1362 31.808C12.9098 31.808 12.7262 31.6244 12.7262 31.398C12.7262 31.1715 12.9098 30.9883 13.1362 30.9883C13.4622 30.9883 13.775 30.8585 14.0057 30.628C14.2361 30.3973 14.3657 30.0845 14.3657 29.7585C14.3857 29.549 14.5612 29.3886 14.7717 29.3874C14.9824 29.3863 15.1594 29.545 15.1814 29.7542L15.1857 29.7583ZM39.9472 30.5779L33.143 23.7618L24.3963 15.0151L25.421 13.9904C25.5797 13.8305 25.5797 13.5724 25.421 13.4125L22.7935 10.785C22.6337 10.6263 22.3755 10.6263 22.2157 10.785L12.8747 20.126C12.7157 20.2859 12.7157 20.544 12.8747 20.7042L15.502 23.3315H15.5023C15.6621 23.4904 15.9203 23.4904 16.0801 23.3315L17.1048 22.3067L32.6805 37.8824C33.6483 38.8594 34.9663 39.4094 36.3416 39.4097C37.7169 39.4103 39.0355 38.8616 40.0042 37.8853C40.9728 36.9089 41.5112 35.5862 41.4998 34.211C41.4887 32.8358 40.9283 31.522 39.9436 30.5619L39.9472 30.5779ZM16.8128 21.4419L15.788 22.4666L13.7386 20.4172L22.5065 11.6537L24.5559 13.7031L23.5312 14.7278L16.8128 21.4419ZM17.686 21.7369L23.8343 15.5887L31.8592 23.6385H19.5912L17.686 21.7369ZM39.3645 37.276C38.5494 38.092 37.4435 38.5506 36.2904 38.5506C35.137 38.5506 34.0311 38.092 33.2163 37.276L20.411 24.459H32.679L39.3602 31.1402H39.3599C40.1739 31.9536 40.6314 33.0567 40.6323 34.2075C40.6328 35.358 40.1768 36.4617 39.3643 37.2762L39.3645 37.276ZM32.9827 27.9387C33.2108 28.1671 33.2789 28.5108 33.1551 28.8095C33.0313 29.108 32.7399 29.3024 32.4169 29.3024C32.0938 29.3024 31.8024 29.108 31.6786 28.8095C31.5548 28.5107 31.6229 28.1671 31.8513 27.9387C32.0011 27.7883 32.2047 27.7039 32.4169 27.7039C32.629 27.7039 32.8326 27.7883 32.9827 27.9387ZM32.7039 32.0375C32.8923 32.2262 32.9484 32.5099 32.846 32.7563C32.744 33.0028 32.5032 33.1632 32.2365 33.1632C31.9697 33.1632 31.7292 33.0028 31.6272 32.7563C31.5248 32.5099 31.5809 32.2262 31.7693 32.0375C32.0243 31.7793 32.44 31.7756 32.6996 32.0292L32.7039 32.0375ZM36.3602 31.3245L36.3599 31.3242C36.4928 31.4583 36.5317 31.6587 36.4594 31.8328C36.3868 32.0069 36.2167 32.1202 36.028 32.1202C35.8395 32.1202 35.6694 32.0069 35.5968 31.8328C35.5242 31.6587 35.5633 31.4583 35.696 31.3242C35.8761 31.14 36.1712 31.1363 36.3559 31.3159L36.3602 31.3245ZM28.6748 29.3525C28.8309 29.5167 28.8741 29.7577 28.7849 29.9655C28.6957 30.1734 28.4913 30.3081 28.2651 30.3081C28.0389 30.3081 27.8345 30.1734 27.7453 29.9655C27.6561 29.7577 27.6993 29.5167 27.8551 29.3525C27.962 29.2405 28.1101 29.1767 28.2651 29.1767C28.4201 29.1767 28.5682 29.2405 28.6748 29.3525ZM29.1872 25.6022C29.3433 25.7661 29.3865 26.0071 29.2973 26.2149C29.208 26.4228 29.0036 26.5578 28.7775 26.5578C28.5513 26.5578 28.3469 26.4228 28.2577 26.2149C28.1685 26.0071 28.2116 25.7661 28.3675 25.6022C28.4744 25.4899 28.6225 25.4264 28.7775 25.4264C28.9324 25.4264 29.0805 25.4899 29.1872 25.6022ZM36.0571 35.3085C36.2292 35.4809 36.2807 35.7399 36.1872 35.9649C36.094 36.1899 35.8744 36.3366 35.6308 36.3366C35.3869 36.3366 35.1673 36.1899 35.0741 35.9649C34.9809 35.7399 35.0321 35.4809 35.2045 35.3085C35.3174 35.1952 35.4707 35.1318 35.6308 35.1318C35.7906 35.1318 35.9438 35.1952 36.0571 35.3085H36.0571Z" fill="url(#paint0_linear_4948_18679)" stroke="url(#paint1_linear_4948_18679)"/>
<defs>
<linearGradient id="paint0_linear_4948_18679" x1="6.02525" y1="39.4097" x2="45.677" y2="36.184" gradientUnits="userSpaceOnUse">
<stop stop-color="#6B4DE0"/>
<stop offset="0.544792" stop-color="#9C42E3"/>
<stop offset="1" stop-color="#C339E5"/>
</linearGradient>
<linearGradient id="paint1_linear_4948_18679" x1="6.02525" y1="39.4097" x2="45.677" y2="36.184" gradientUnits="userSpaceOnUse">
<stop stop-color="#6B4DE0"/>
<stop offset="0.544792" stop-color="#9C42E3"/>
<stop offset="1" stop-color="#C339E5"/>
</linearGradient>
</defs>
</svg>
