<svg width="51" height="50" viewBox="0 0 51 50" fill="none" xmlns="http://www.w3.org/2000/svg">
<rect x="0.5" width="50" height="50" rx="8" fill="#F2F5FF"/>
<path d="M11.5674 41.6673C11.5474 41.6673 11.5274 41.6673 11.5069 41.6668C10.6724 41.6528 9.98747 40.5935 9.87866 39.148C9.81588 38.3223 9.65405 37.5223 9.48316 36.6745C9.33039 35.9179 9.17251 35.135 9.09253 34.3356C8.7419 30.8256 8.55472 26.6761 9.82705 22.5112C9.89867 22.2761 9.9754 22.0413 10.0565 21.8074C10.5788 20.2979 11.1593 19.1519 11.8843 18.2009C13.7626 15.7353 17.0104 14.6555 21.8129 14.9099C23.498 14.9982 26.184 15.3649 27.7998 15.7281C29.2958 16.0636 30.8476 16.1831 32.4119 16.082C34.702 15.9336 37.318 15.2765 38.7738 14.4836C39.6256 14.0202 40.6393 14.1465 41.3559 14.807C42.0565 15.4525 42.2621 16.4293 41.8786 17.2954C41.3687 18.4482 40.2843 19.8531 38.6543 21.4709C38.2005 21.922 37.6071 22.521 37.0449 23.1492C35.5449 24.827 30.102 30.5807 23.0342 34.1783C21.6126 34.9017 20.1814 35.4 18.7798 35.6583C17.3354 35.9243 15.376 36.7432 14.2399 39.1288C14.2067 39.1983 14.1811 39.3011 14.146 39.4199C13.9493 40.0937 13.4899 41.6669 11.5677 41.6669L11.5674 41.6673ZM10.8896 22.8357C9.67471 26.8129 9.8584 30.825 10.1986 34.225C10.273 34.9695 10.4253 35.7245 10.5725 36.4551C10.7424 37.2984 10.9187 38.1701 10.9863 39.0646C11.0575 40.0039 11.4153 40.5078 11.5525 40.5601C12.5702 40.5578 12.8369 39.939 13.0796 39.1079C13.1308 38.9323 13.1752 38.7807 13.2368 38.6507C14.6444 35.6936 17.188 34.8219 18.5784 34.5652C19.8744 34.3257 21.2044 33.8625 22.5304 33.188C29.4263 29.6779 34.7501 24.0499 36.2173 22.4088C36.7991 21.759 37.4073 21.1449 37.8724 20.6834C39.4035 19.1634 40.4096 17.8722 40.8635 16.8469C41.0913 16.3326 40.8786 15.8784 40.604 15.6253C40.3161 15.3602 39.8246 15.1782 39.3056 15.4609C37.449 16.4714 34.5419 17.0587 32.4842 17.192C30.8136 17.2987 29.156 17.172 27.557 16.8132C25.991 16.4616 23.3883 16.1059 21.7548 16.0203C17.2838 15.7843 14.4292 16.6937 12.7685 18.8754C12.1175 19.7299 11.5897 20.7776 11.1075 22.172C11.0298 22.392 10.9577 22.6135 10.8898 22.8358L10.8896 22.8357Z" fill="url(#paint0_linear_4948_18896)" stroke="url(#paint1_linear_4948_18896)" stroke-width="0.5"/>
<path d="M26.5165 14.444C26.2098 14.444 25.961 14.1953 25.961 13.8886C25.961 12.357 24.715 11.111 23.1834 11.111C22.8767 11.111 22.6279 10.8622 22.6279 10.5555C22.6279 10.2488 22.8767 10 23.1834 10C25.3279 10 27.0722 11.7443 27.0722 13.8888C27.0722 14.1953 26.8232 14.444 26.5165 14.444L26.5165 14.444Z" fill="url(#paint2_linear_4948_18896)" stroke="url(#paint3_linear_4948_18896)" stroke-width="0.5"/>
<path d="M28.7381 14.444C28.4314 14.444 28.1826 14.1953 28.1826 13.8886C28.1826 13.5819 28.4314 13.3331 28.7381 13.3331C30.2696 13.3331 31.5157 12.087 31.5157 10.5555C31.5157 10.2488 31.7645 10 32.0712 10C32.3779 10 32.6267 10.2488 32.6267 10.5555C32.6271 12.6997 30.8821 14.444 28.7381 14.444Z" fill="url(#paint4_linear_4948_18896)" stroke="url(#paint5_linear_4948_18896)" stroke-width="0.5"/>
<path d="M28.7379 30.5569C28.6067 30.5569 28.4744 30.5109 28.3691 30.4169C28.1396 30.213 28.1192 29.8619 28.3231 29.6324C32.3979 25.0481 29.528 21.0568 29.4043 20.889C29.222 20.643 29.2727 20.2951 29.5182 20.1124C29.7637 19.9291 30.1104 19.9791 30.2943 20.224C30.3304 20.2716 33.846 25.0928 29.1539 30.371C29.0434 30.494 28.8913 30.5568 28.7379 30.5568L28.7379 30.5569Z" fill="url(#paint6_linear_4948_18896)" stroke="url(#paint7_linear_4948_18896)" stroke-width="0.5"/>
<path d="M28.7385 17.0233C28.7097 17.0233 28.6813 17.021 28.6525 17.0165C28.2858 16.9589 27.9198 16.8938 27.5564 16.8122C27.2202 16.7366 26.8303 16.6617 26.4192 16.589C26.1542 16.5422 25.9609 16.3111 25.9609 16.0423V10.0006C25.9609 9.08172 26.7087 8.33398 27.6276 8.33398C28.5465 8.33398 29.2943 9.08172 29.2943 10.0006V16.4679C29.2943 16.6302 29.2231 16.7846 29.0999 16.8902C28.998 16.9766 28.8697 17.0234 28.7386 17.0234L28.7385 17.0233ZM27.8003 15.7282C27.9275 15.7565 28.0554 15.7833 28.183 15.8082V10.0007C28.183 9.69445 27.9342 9.44519 27.6276 9.44519C27.3209 9.44519 27.0721 9.69468 27.0721 10.0007V15.5789C27.3313 15.6278 27.5769 15.6778 27.8003 15.7282L27.8003 15.7282Z" fill="url(#paint8_linear_4948_18896)" stroke="url(#paint9_linear_4948_18896)" stroke-width="0.2"/>
<path d="M24.8493 41.666C23.9304 41.666 23.1826 40.9183 23.1826 39.9993L23.1828 33.1714C23.1828 32.9681 23.2933 32.7814 23.4716 32.6842C24.1922 32.2904 24.9295 31.8542 25.6626 31.3894C25.8338 31.2805 26.0505 31.2738 26.2281 31.3717C26.406 31.4696 26.516 31.656 26.516 31.8583V39.9994C26.516 40.9183 25.7682 41.6661 24.8493 41.6661L24.8493 41.666ZM24.2938 33.4987V39.9993C24.2938 40.3055 24.5426 40.5548 24.8493 40.5548C25.156 40.5548 25.4048 40.3053 25.4048 39.9993L25.405 32.8541C25.0327 33.078 24.6617 33.2935 24.2938 33.4991L24.2938 33.4987Z" fill="url(#paint10_linear_4948_18896)" stroke="url(#paint11_linear_4948_18896)" stroke-width="0.2"/>
<path d="M16.4747 16.4494C16.2952 16.4494 16.1232 16.3622 16.0176 16.2095C15.4952 15.4528 14.6437 15.0013 13.7387 15.0013H13.1833C12.2643 15.0013 11.5166 14.2536 11.5166 13.3346C11.5166 12.4157 12.2643 11.668 13.1833 11.668H13.7387C16.132 11.668 18.317 13.0812 19.3047 15.2689C19.3791 15.4333 19.3686 15.6233 19.2775 15.7784C19.1863 15.9339 19.0252 16.0355 18.8459 16.0511C18.041 16.1199 17.2927 16.2478 16.6215 16.4299C16.5724 16.4433 16.5236 16.4494 16.4748 16.4494L16.4747 16.4494ZM13.183 12.7789C12.8763 12.7789 12.6275 13.0284 12.6275 13.3344C12.6275 13.6406 12.8763 13.8899 13.183 13.8899H13.7385C14.8778 13.8899 15.9557 14.3982 16.6924 15.2654C17.0807 15.1731 17.489 15.0971 17.9135 15.0376C16.9986 13.645 15.4319 12.7789 13.7387 12.7789L13.183 12.7789Z" fill="url(#paint12_linear_4948_18896)" stroke="url(#paint13_linear_4948_18896)" stroke-width="0.2"/>
<path d="M34.8497 34.445H33.7385C31.1313 34.445 28.8097 32.7863 27.9626 30.3168C27.8838 30.0868 27.9638 29.8317 28.1598 29.6885C28.7932 29.2246 29.4365 28.7291 30.072 28.2153C30.2308 28.0869 30.4487 28.0558 30.637 28.1353C30.8258 28.2148 30.9553 28.3913 30.9742 28.5959C31.1081 30.031 32.2965 31.1124 33.7385 31.1124H34.8497C35.7686 31.1124 36.5164 31.8601 36.5164 32.7791C36.5164 33.6977 35.7686 34.445 34.8497 34.445L34.8497 34.445ZM29.1587 30.3312C29.9476 32.1422 31.7403 33.3338 33.7385 33.3338H34.8497C35.1564 33.3338 35.4052 33.0844 35.4052 32.7784C35.4052 32.4721 35.1564 32.2229 34.8497 32.2229H33.7385C32.0475 32.2229 30.6051 31.1601 30.0713 29.6346C29.767 29.8724 29.4619 30.1052 29.1587 30.3312Z" fill="url(#paint14_linear_4948_18896)" stroke="url(#paint15_linear_4948_18896)" stroke-width="0.2"/>
<defs>
<linearGradient id="paint0_linear_4948_18896" x1="5.22403" y1="41.6673" x2="46.3583" y2="38.0291" gradientUnits="userSpaceOnUse">
<stop stop-color="#6B4DE0"/>
<stop offset="0.544792" stop-color="#9C42E3"/>
<stop offset="1" stop-color="#C339E5"/>
</linearGradient>
<linearGradient id="paint1_linear_4948_18896" x1="5.22403" y1="41.6673" x2="46.3583" y2="38.0291" gradientUnits="userSpaceOnUse">
<stop stop-color="#6B4DE0"/>
<stop offset="0.544792" stop-color="#9C42E3"/>
<stop offset="1" stop-color="#C339E5"/>
</linearGradient>
<linearGradient id="paint2_linear_4948_18896" x1="22.1453" y1="14.4441" x2="27.6593" y2="14.0411" gradientUnits="userSpaceOnUse">
<stop stop-color="#6B4DE0"/>
<stop offset="0.544792" stop-color="#9C42E3"/>
<stop offset="1" stop-color="#C339E5"/>
</linearGradient>
<linearGradient id="paint3_linear_4948_18896" x1="22.1453" y1="14.4441" x2="27.6593" y2="14.0411" gradientUnits="userSpaceOnUse">
<stop stop-color="#6B4DE0"/>
<stop offset="0.544792" stop-color="#9C42E3"/>
<stop offset="1" stop-color="#C339E5"/>
</linearGradient>
<linearGradient id="paint4_linear_4948_18896" x1="27.7001" y1="14.444" x2="33.2137" y2="14.0411" gradientUnits="userSpaceOnUse">
<stop stop-color="#6B4DE0"/>
<stop offset="0.544792" stop-color="#9C42E3"/>
<stop offset="1" stop-color="#C339E5"/>
</linearGradient>
<linearGradient id="paint5_linear_4948_18896" x1="27.7001" y1="14.444" x2="33.2137" y2="14.0411" gradientUnits="userSpaceOnUse">
<stop stop-color="#6B4DE0"/>
<stop offset="0.544792" stop-color="#9C42E3"/>
<stop offset="1" stop-color="#C339E5"/>
</linearGradient>
<linearGradient id="paint6_linear_4948_18896" x1="27.8123" y1="30.5569" x2="32.0634" y2="30.4565" gradientUnits="userSpaceOnUse">
<stop stop-color="#6B4DE0"/>
<stop offset="0.544792" stop-color="#9C42E3"/>
<stop offset="1" stop-color="#C339E5"/>
</linearGradient>
<linearGradient id="paint7_linear_4948_18896" x1="27.8123" y1="30.5569" x2="32.0634" y2="30.4565" gradientUnits="userSpaceOnUse">
<stop stop-color="#6B4DE0"/>
<stop offset="0.544792" stop-color="#9C42E3"/>
<stop offset="1" stop-color="#C339E5"/>
</linearGradient>
<linearGradient id="paint8_linear_4948_18896" x1="25.599" y1="17.0234" x2="29.7534" y2="16.9069" gradientUnits="userSpaceOnUse">
<stop stop-color="#6B4DE0"/>
<stop offset="0.544792" stop-color="#9C42E3"/>
<stop offset="1" stop-color="#C339E5"/>
</linearGradient>
<linearGradient id="paint9_linear_4948_18896" x1="25.599" y1="17.0234" x2="29.7534" y2="16.9069" gradientUnits="userSpaceOnUse">
<stop stop-color="#6B4DE0"/>
<stop offset="0.544792" stop-color="#9C42E3"/>
<stop offset="1" stop-color="#C339E5"/>
</linearGradient>
<linearGradient id="paint10_linear_4948_18896" x1="22.8207" y1="41.6661" x2="26.9761" y2="41.5684" gradientUnits="userSpaceOnUse">
<stop stop-color="#6B4DE0"/>
<stop offset="0.544792" stop-color="#9C42E3"/>
<stop offset="1" stop-color="#C339E5"/>
</linearGradient>
<linearGradient id="paint11_linear_4948_18896" x1="22.8207" y1="41.6661" x2="26.9761" y2="41.5684" gradientUnits="userSpaceOnUse">
<stop stop-color="#6B4DE0"/>
<stop offset="0.544792" stop-color="#9C42E3"/>
<stop offset="1" stop-color="#C339E5"/>
</linearGradient>
<linearGradient id="paint12_linear_4948_18896" x1="10.6656" y1="16.4494" x2="20.303" y2="15.295" gradientUnits="userSpaceOnUse">
<stop stop-color="#6B4DE0"/>
<stop offset="0.544792" stop-color="#9C42E3"/>
<stop offset="1" stop-color="#C339E5"/>
</linearGradient>
<linearGradient id="paint13_linear_4948_18896" x1="10.6656" y1="16.4494" x2="20.303" y2="15.295" gradientUnits="userSpaceOnUse">
<stop stop-color="#6B4DE0"/>
<stop offset="0.544792" stop-color="#9C42E3"/>
<stop offset="1" stop-color="#C339E5"/>
</linearGradient>
<linearGradient id="paint14_linear_4948_18896" x1="27.0005" y1="34.445" x2="37.6039" y2="33.3982" gradientUnits="userSpaceOnUse">
<stop stop-color="#6B4DE0"/>
<stop offset="0.544792" stop-color="#9C42E3"/>
<stop offset="1" stop-color="#C339E5"/>
</linearGradient>
<linearGradient id="paint15_linear_4948_18896" x1="27.0005" y1="34.445" x2="37.6039" y2="33.3982" gradientUnits="userSpaceOnUse">
<stop stop-color="#6B4DE0"/>
<stop offset="0.544792" stop-color="#9C42E3"/>
<stop offset="1" stop-color="#C339E5"/>
</linearGradient>
</defs>
</svg>
