<svg width="20" height="18" viewBox="0 0 20 18" fill="none" xmlns="http://www.w3.org/2000/svg">
<path fill-rule="evenodd" clip-rule="evenodd" d="M2.40001 12.4922H0.844394C0.737941 12.4922 0.647404 12.5721 0.630804 12.6807L0.00163188 16.8033C-0.0108734 16.8847 0.0500853 16.958 0.129928 16.958H0.872595C0.979048 16.958 1.06958 16.878 1.08618 16.7692L1.25588 15.6573C1.27225 15.5484 1.36301 15.4686 1.46924 15.4686H1.96169C2.98644 15.4686 3.57781 14.9561 3.73233 13.9406C3.80191 13.4963 3.73528 13.1472 3.53391 12.9026C3.31286 12.6343 2.92065 12.4922 2.40001 12.4922ZM2.57949 13.9979C2.49443 14.5748 2.06793 14.5748 1.65553 14.5748H1.42079L1.58547 13.4974C1.59525 13.4323 1.64984 13.3843 1.71353 13.3843H1.82112C2.10204 13.3843 2.36706 13.3843 2.50401 13.5498C2.58559 13.6486 2.61064 13.7952 2.57949 13.9979ZM7.05014 13.9794H6.30519C6.24171 13.9794 6.18687 14.0274 6.17708 14.0925L6.14413 14.3078L6.09203 14.2298C5.93077 13.9879 5.57119 13.9071 5.21224 13.9071C4.38897 13.9071 3.68591 14.5514 3.54896 15.4553C3.47781 15.9061 3.57897 16.3372 3.82644 16.6379C4.05349 16.9144 4.37834 17.0296 4.76476 17.0296C5.42803 17.0296 5.79592 16.5888 5.79592 16.5888L5.76266 16.8027C5.75013 16.8845 5.81108 16.9579 5.89045 16.9579H6.56151C6.66824 16.9579 6.75824 16.8779 6.77509 16.7691L7.17772 14.1341C7.19046 14.0531 7.12972 13.9794 7.05014 13.9794ZM6.01171 15.4778C5.93982 15.9177 5.60203 16.2129 5.17129 16.2129C4.95497 16.2129 4.78202 16.1412 4.67108 16.0053C4.56097 15.8704 4.51907 15.6783 4.55413 15.4644C4.62129 15.0283 4.96476 14.7235 5.38897 14.7235C5.60045 14.7235 5.77245 14.7961 5.88571 14.9331C5.99919 15.0716 6.04424 15.2648 6.01171 15.4778ZM10.269 13.9793H11.0176C11.1225 13.9793 11.1836 14.1008 11.1241 14.1897L8.63425 17.9039C8.59394 17.964 8.52752 17.9998 8.45657 17.9998H7.70888C7.60362 17.9998 7.54214 17.8773 7.60309 17.7882L8.37836 16.6573L7.55383 14.1565C7.5253 14.0696 7.58741 13.9793 7.67688 13.9793H8.41246C8.50804 13.9793 8.59236 14.0441 8.61994 14.1387L9.05752 15.6491L10.0901 14.0773C10.1305 14.016 10.1976 13.9793 10.269 13.9793Z" fill="#253B80"/>
<path fill-rule="evenodd" clip-rule="evenodd" d="M18.3852 16.8035L19.0236 12.6055C19.0334 12.5404 19.088 12.4924 19.1515 12.4922H19.8702C19.9496 12.4922 20.0105 12.5657 19.998 12.6471L19.3684 16.7695C19.352 16.8782 19.2615 16.9582 19.1549 16.9582H18.513C18.4336 16.9582 18.3726 16.8849 18.3852 16.8035ZM13.4958 12.4924H11.9399C11.8337 12.4924 11.7431 12.5724 11.7265 12.6809L11.0973 16.8035C11.0848 16.8849 11.1458 16.9582 11.2252 16.9582H12.0236C12.0978 16.9582 12.1612 16.9023 12.1728 16.8261L12.3513 15.6575C12.3678 15.5487 12.4585 15.4688 12.5647 15.4688H13.0569C14.0819 15.4688 14.6731 14.9563 14.8278 13.9408C14.8976 13.4965 14.8305 13.1474 14.6293 12.9029C14.4083 12.6345 14.0164 12.4924 13.4958 12.4924ZM13.6752 13.9981C13.5904 14.575 13.1639 14.575 12.7512 14.575H12.5167L12.6817 13.4976C12.6915 13.4325 12.7456 13.3846 12.8095 13.3846H12.917C13.1978 13.3846 13.463 13.3846 13.5999 13.55C13.6816 13.6488 13.7064 13.7954 13.6752 13.9981ZM18.1455 13.9796H17.4011C17.3371 13.9796 17.2827 14.0276 17.2732 14.0928L17.2402 14.3081L17.1879 14.2301C17.0266 13.9881 16.6673 13.9073 16.3083 13.9073C15.485 13.9073 14.7822 14.5516 14.6453 15.4555C14.5743 15.9063 14.675 16.3375 14.9225 16.6381C15.15 16.9146 15.4744 17.0298 15.8608 17.0298C16.5241 17.0298 16.8919 16.589 16.8919 16.589L16.8587 16.803C16.8462 16.8848 16.9072 16.9581 16.9871 16.9581H17.6578C17.764 16.9581 17.8545 16.8781 17.8712 16.7693L18.274 14.1343C18.2863 14.0533 18.2254 13.9796 18.1455 13.9796ZM17.1072 15.478C17.0357 15.9179 16.6975 16.2131 16.2666 16.2131C16.0507 16.2131 15.8775 16.1414 15.7664 16.0056C15.6563 15.8707 15.6149 15.6785 15.6496 15.4647C15.717 15.0285 16.0601 14.7237 16.4843 14.7237C16.6959 14.7237 16.8678 14.7963 16.9812 14.9334C17.0951 15.0718 17.1401 15.265 17.1072 15.478Z" fill="#179BD7"/>
<path d="M8.15763 11.0175L8.34889 9.76206L7.92289 9.75184H5.88867L7.30236 0.487999C7.30668 0.46003 7.32099 0.433954 7.34184 0.415438C7.36268 0.396923 7.38942 0.386719 7.41721 0.386719H10.8472C11.986 0.386719 12.7718 0.631608 13.1821 1.11496C13.3744 1.34171 13.4969 1.57866 13.5562 1.83942C13.6183 2.11304 13.6194 2.43993 13.5587 2.83863L13.5543 2.86773V3.1232L13.7467 3.23582C13.9087 3.32463 14.0373 3.42629 14.1361 3.54269C14.3007 3.73656 14.4071 3.98296 14.4521 4.27508C14.4985 4.57553 14.4831 4.93303 14.4071 5.33779C14.3193 5.80338 14.1774 6.20888 13.9859 6.54069C13.8096 6.84642 13.585 7.09995 13.3185 7.29653C13.064 7.48321 12.7615 7.62495 12.4196 7.71568C12.0883 7.80478 11.7106 7.84982 11.2963 7.84982H11.0293C10.8385 7.84982 10.653 7.92085 10.5075 8.04824C10.3616 8.17824 10.265 8.35578 10.2354 8.55007L10.2153 8.6631L9.87743 10.8757L9.86206 10.957C9.85806 10.9828 9.85111 10.9956 9.8409 11.0043C9.83174 11.0121 9.81858 11.0175 9.80574 11.0175H8.15763Z" fill="#253B80"/>
<path d="M13.9279 2.89844C13.9177 2.96608 13.906 3.03524 13.8928 3.10628C13.4404 5.50643 11.8929 6.33558 9.91641 6.33558H8.91009C8.6684 6.33558 8.46472 6.51697 8.42703 6.76337L7.91177 10.1405L7.76587 11.0977C7.74134 11.2594 7.86208 11.4053 8.01998 11.4053H9.80493C10.0163 11.4053 10.1958 11.2466 10.229 11.0312L10.2466 10.9374L10.5827 8.73341L10.6043 8.61255C10.6371 8.39639 10.817 8.23767 11.0284 8.23767H11.2954C13.0246 8.23767 14.3784 7.51207 14.7741 5.41233C14.9394 4.53518 14.8538 3.80279 14.4164 3.28769C14.2841 3.13236 14.1199 3.00349 13.9279 2.89844Z" fill="#179BD7"/>
<path d="M13.4545 2.70295C13.3854 2.68216 13.314 2.66326 13.2409 2.64626C13.1674 2.62964 13.092 2.6149 13.0146 2.60205C12.7432 2.5567 12.4459 2.53516 12.1274 2.53516H9.43897C9.37276 2.53516 9.30992 2.55065 9.2536 2.57862C9.1296 2.64021 9.0375 2.76153 9.01518 2.91005L8.44318 6.65368L8.42676 6.76289C8.46444 6.51649 8.66813 6.33509 8.90981 6.33509H9.91613C11.8927 6.33509 13.4403 5.50557 13.8926 3.10581C13.906 3.03476 13.9174 2.9656 13.9276 2.89796C13.8132 2.83522 13.6892 2.78156 13.5557 2.73582C13.5229 2.72449 13.4889 2.71353 13.4545 2.70295Z" fill="#222D65"/>
<path d="M9.01558 2.90957C9.03789 2.76104 9.1301 2.63974 9.254 2.57851C9.31074 2.55054 9.37326 2.53505 9.43937 2.53505H12.1279C12.4464 2.53505 12.7437 2.55659 13.015 2.60194C13.0925 2.61479 13.1679 2.62953 13.2414 2.64615C13.3145 2.66317 13.3858 2.68206 13.455 2.70284C13.4893 2.71343 13.5233 2.72438 13.5565 2.73535C13.69 2.78107 13.814 2.83512 13.9284 2.89747C14.0631 2.0105 13.9274 1.4066 13.4634 0.85975C12.9518 0.257737 12.0284 0 10.847 0H7.41683C7.17546 0 6.96967 0.181391 6.9323 0.428173L5.50367 9.78725C5.47546 9.9724 5.61367 10.1395 5.7943 10.1395H7.91199L8.44368 6.6532L9.01558 2.90957Z" fill="#253B80"/>
</svg>
