<svg width="36" height="36" viewBox="0 0 36 36" fill="none" xmlns="http://www.w3.org/2000/svg">
<path fill-rule="evenodd" clip-rule="evenodd" d="M35.7573 10.5096C35.7763 10.5432 35.7942 10.5768 35.8108 10.6104C35.8787 10.7508 35.9358 10.896 35.9655 11.0532C35.9881 11.166 36 11.2824 36 11.4V31.2C36 34.026 33.7979 36 30.6466 36H12.8017C9.65033 36 7.44828 34.026 7.44828 31.2V30H2C0.89543 30 0 29.1046 0 28V17C0 15.8954 0.895431 15 2 15H7.44828V5.4C7.44828 2.4228 9.85019 0 12.8017 0H24.6983C24.8137 0 24.9291 0.012 25.048 0.0348C25.1979 0.0648 25.3419 0.1224 25.4799 0.1908C25.5144 0.2076 25.5489 0.2256 25.5822 0.246C25.7178 0.324 25.8475 0.4128 25.9605 0.5268L35.4777 10.1268C35.5908 10.2408 35.68 10.3716 35.7573 10.5096ZM10.5 15V4.875C10.5 3.84125 11.3413 3 12.375 3H23V9.875C23 11.5975 24.4025 13 26.125 13H33V31.75C33 32.7837 31.98 33 31.125 33H12.375C11.52 33 10.5 32.7837 10.5 31.75V30H23.5C24.6046 30 25.5 29.1046 25.5 28V17C25.5 15.8954 24.6046 15 23.5 15H10.5ZM15 21.7286V23.2714C15 25.3273 13.5364 27 11.7375 27H11.0625C10.752 27 10.5 26.712 10.5 26.3571V18.6429C10.5 18.288 10.752 18 11.0625 18H11.7375C13.5364 18 15 19.6727 15 21.7286ZM21.9375 19.2857H19.5V21.8571H21.9375C22.248 21.8571 22.5 22.1451 22.5 22.5C22.5 22.8549 22.248 23.1429 21.9375 23.1429H19.5V26.3571C19.5 26.712 19.0605 27 18.75 27C18.4395 27 18 26.712 18 26.3571V22.5V18.6429C18 18.288 18.252 18 18.5625 18H21.9375C22.248 18 22.5 18.288 22.5 18.6429C22.5 18.9977 22.248 19.2857 21.9375 19.2857ZM3 18.6429C3 18.288 3.252 18 3.5625 18H5.25H5.5875C6.64162 18 7.5 18.981 7.5 20.1857V20.9571C7.5 22.1619 6.64162 23.1429 5.5875 23.1429H5.25H4.49401V26.3571C4.49401 26.712 4.0552 27 3.7447 27C3.4342 27 3 26.712 3 26.3571V18.6429ZM13.5 23.22V21.78C13.5 20.5224 12.861 19.5 12.075 19.5H12V25.5H12.075C12.861 25.5 13.5 24.4776 13.5 23.22ZM5.475 21.75C5.7645 21.75 6 21.3967 6 20.9625V20.2875C6 19.8533 5.7645 19.5 5.475 19.5H5.25H4.5V21.75H5.25H5.475Z" fill="url(#paint0_linear_5047_40171)"/>
<defs>
<linearGradient id="paint0_linear_5047_40171" x1="-3.90909" y1="36" x2="40.7558" y2="32.7361" gradientUnits="userSpaceOnUse">
<stop stop-color="#6B4DE0"/>
<stop offset="0.544792" stop-color="#9C42E3"/>
<stop offset="1" stop-color="#C339E5"/>
</linearGradient>
</defs>
</svg>
