<svg width="56" height="56" viewBox="0 0 56 56" fill="none" xmlns="http://www.w3.org/2000/svg">
<circle cx="28" cy="28" r="28" fill="#F9F5FA"/>
<path fill-rule="evenodd" clip-rule="evenodd" d="M39.5677 11.334H17.373C16.1812 11.334 15.1946 12.3205 15.1946 13.5124L15.1943 22.9306L15.1943 28.6858L15.1943 42.4889C15.1943 43.6807 16.1808 44.6673 17.3727 44.6673H25.6991H28.2238L39.5677 44.6673C40.7595 44.6673 41.7461 43.6807 41.7461 42.4889V13.5124C41.7051 12.3206 40.7598 11.334 39.5677 11.334ZM39.5267 42.9C39.7736 42.9 39.9379 42.6944 39.9379 42.4889L39.979 42.4886V13.5121C39.979 13.2652 39.7734 13.1009 39.5678 13.1009H17.3731C17.1262 13.1009 16.9619 13.3065 16.9619 13.5121V27.0658V32.1419V42.4886C16.9619 42.7354 17.1675 42.8997 17.3731 42.8997L24.1892 42.8998L26.7431 42.8998L39.5267 42.9Z" fill="#9E62B3" stroke="#9E62B3" stroke-width="0.4"/>
<path d="M35.047 32.1719H21.8535C21.3603 32.1719 20.9492 32.583 20.9492 33.0761C20.9492 33.5692 21.3604 33.9803 21.8535 33.9803L35.047 33.98C35.5401 33.98 35.9512 33.5689 35.9512 33.0758C35.9512 32.5827 35.5401 32.1719 35.047 32.1719V32.1719Z" fill="#9E62B3" stroke="#9E62B3" stroke-width="0.4"/>
<path d="M35.047 37.5156H21.8535C21.3603 37.5156 20.9492 37.9268 20.9492 38.4199C20.9492 38.913 21.3604 39.3241 21.8535 39.3241H35.047C35.5401 39.3241 35.9512 38.913 35.9512 38.4199C35.9512 37.9268 35.5401 37.5156 35.047 37.5156Z" fill="#9E62B3" stroke="#9E62B3" stroke-width="0.4"/>
<path d="M35.047 26.8711H21.8535C21.3603 26.8711 20.9492 27.2822 20.9492 27.7753C20.9492 28.2684 21.3604 28.6796 21.8535 28.6796H35.047C35.5401 28.6796 35.9512 28.2684 35.9512 27.7753C35.9512 27.2409 35.5401 26.8711 35.047 26.8711Z" fill="#9E62B3" stroke="#9E62B3" stroke-width="0.4"/>
<path d="M23.4148 23.4598H25.0177C25.2233 23.4598 25.3466 23.2955 25.3466 23.131V20.5828C25.3466 20.3772 25.1823 20.2539 25.0177 20.2539H23.4148C23.2092 20.2539 23.0859 20.4182 23.0859 20.5828V23.131C23.0859 23.2955 23.2502 23.4598 23.4148 23.4598Z" fill="#9E62B3" stroke="#9E62B3" stroke-width="0.4"/>
<path d="M27.4021 23.4597H29.005C29.2106 23.4597 29.3339 23.2954 29.3339 23.1309V18.7331C29.3339 18.5276 29.1696 18.4043 29.005 18.4043H27.4021C27.1965 18.4043 27.0732 18.5686 27.0732 18.7331V23.0898C27.0732 23.2954 27.2375 23.4597 27.4021 23.4597V23.4597Z" fill="#9E62B3" stroke="#9E62B3" stroke-width="0.4"/>
<path d="M31.3884 23.4596H32.9914C33.1969 23.4596 33.3202 23.2954 33.3202 23.1308V16.9656C33.3202 16.8013 33.1559 16.6367 32.9914 16.6367H31.3884C31.1829 16.6367 31.0596 16.801 31.0596 16.9656V23.1308C31.0596 23.2954 31.2239 23.4596 31.3884 23.4596Z" fill="#9E62B3" stroke="#9E62B3" stroke-width="0.4"/>
</svg>
