<svg width="45" height="44" viewBox="0 0 45 44" fill="none" xmlns="http://www.w3.org/2000/svg">
<rect x="0.0839844" width="44" height="44" rx="8" fill="#F9F5FA"/>
<path fill-rule="evenodd" clip-rule="evenodd" d="M27.8679 13.666H16.7705C16.1746 13.666 15.6813 14.1593 15.6813 14.7552L15.6812 19.4643L15.6812 22.3419L15.6812 29.2435C15.6812 29.8394 16.1744 30.3327 16.7703 30.3327H20.9335H22.1959L27.8679 30.3327C28.4638 30.3327 28.957 29.8394 28.957 29.2435V14.7552C28.9365 14.1593 28.4639 13.666 27.8679 13.666ZM27.8474 29.449C27.9708 29.449 28.0529 29.3462 28.0529 29.2435L28.0735 29.2433V14.7551C28.0735 14.6316 27.9707 14.5495 27.8679 14.5495H16.7705C16.6471 14.5495 16.565 14.6523 16.565 14.7551V21.5319V24.07V29.2433C16.565 29.3667 16.6677 29.4489 16.7705 29.4489L20.1786 29.4489L21.4555 29.4489L27.8474 29.449Z" fill="#9E62B3" stroke="#9E62B3" stroke-width="0.4"/>
<path d="M25.6075 24.0859H19.0107C18.7641 24.0859 18.5586 24.2915 18.5586 24.5381C18.5586 24.7846 18.7642 24.9902 19.0107 24.9902L25.6075 24.99C25.8541 24.99 26.0596 24.7845 26.0596 24.5379C26.0596 24.2914 25.854 24.0859 25.6075 24.0859V24.0859Z" fill="#9E62B3" stroke="#9E62B3" stroke-width="0.4"/>
<path d="M25.6075 26.7559H19.0107C18.7641 26.7559 18.5586 26.9614 18.5586 27.208C18.5586 27.4545 18.7642 27.6601 19.0107 27.6601H25.6075C25.8541 27.6601 26.0596 27.4545 26.0596 27.208C26.0596 26.9614 25.854 26.7559 25.6075 26.7559Z" fill="#9E62B3" stroke="#9E62B3" stroke-width="0.4"/>
<path d="M25.6075 21.4336H19.0107C18.7641 21.4336 18.5586 21.6392 18.5586 21.8857C18.5586 22.1323 18.7642 22.3378 19.0107 22.3378H25.6075C25.8541 22.3378 26.0596 22.1323 26.0596 21.8857C26.0596 21.6185 25.854 21.4336 25.6075 21.4336Z" fill="#9E62B3" stroke="#9E62B3" stroke-width="0.4"/>
<path d="M19.7914 19.728H20.5929C20.6956 19.728 20.7573 19.6458 20.7573 19.5635V18.2894C20.7573 18.1866 20.6751 18.125 20.5929 18.125H19.7914C19.6886 18.125 19.627 18.2071 19.627 18.2894V19.5635C19.627 19.6458 19.7091 19.728 19.7914 19.728Z" fill="#9E62B3" stroke="#9E62B3" stroke-width="0.4"/>
<path d="M21.785 19.7289H22.5865C22.6893 19.7289 22.7509 19.6467 22.7509 19.5644V17.3656C22.7509 17.2628 22.6688 17.2012 22.5865 17.2012H21.785C21.6822 17.2012 21.6206 17.2833 21.6206 17.3656V19.5439C21.6206 19.6467 21.7027 19.7289 21.785 19.7289V19.7289Z" fill="#9E62B3" stroke="#9E62B3" stroke-width="0.4"/>
<path d="M23.7782 19.7279H24.5797C24.6825 19.7279 24.7441 19.6457 24.7441 19.5634V16.4808C24.7441 16.3987 24.662 16.3164 24.5797 16.3164H23.7782C23.6754 16.3164 23.6138 16.3985 23.6138 16.4808V19.5634C23.6138 19.6457 23.6959 19.7279 23.7782 19.7279Z" fill="#9E62B3" stroke="#9E62B3" stroke-width="0.4"/>
</svg>
