<svg width="56" height="56" viewBox="0 0 56 56" fill="none" xmlns="http://www.w3.org/2000/svg">
<circle cx="28" cy="28" r="28" fill="#F9F5FA"/>
<path d="M28.058 11.3423C27.9588 11.3524 27.8616 11.3756 27.7686 11.4118C24.2203 12.8327 20.4685 14.2409 14.0776 14.4438C13.7891 14.4528 13.5155 14.574 13.3145 14.7812C13.1138 14.9886 13.0014 15.2661 13.0014 15.5549C12.9983 16.7909 13.0014 23.7566 13.0014 24.8941C13.0016 31.2037 14.933 35.7148 17.7927 38.8278C20.652 41.9404 24.3689 43.6398 27.8845 44.6257C28.0814 44.6812 28.2896 44.6812 28.4862 44.6257C32.0015 43.6398 35.7183 41.9404 38.578 38.8278C41.4374 35.715 43.369 31.2042 43.3693 24.8941C43.3693 23.7566 43.3724 16.791 43.3693 15.5549C43.3693 15.2661 43.2572 14.9886 43.0562 14.7812C42.8552 14.574 42.5816 14.4528 42.293 14.4438C35.9028 14.2407 32.1509 12.8328 28.602 11.4118C28.4295 11.3436 28.2424 11.3196 28.0582 11.3423H28.058ZM28.1854 13.6452C31.4695 14.9491 35.3539 16.2442 41.1469 16.5731C41.1484 18.6432 41.1469 23.8759 41.1469 24.8938C41.1466 30.76 39.4263 34.6232 36.9459 37.3229C34.5422 39.9394 31.3534 41.4538 28.1854 42.3803C25.017 41.4541 21.8282 39.9394 19.4249 37.3229C16.9445 34.6229 15.2241 30.7601 15.2239 24.8938C15.2239 23.8756 15.2223 18.643 15.2239 16.5731C21.0168 16.2442 24.901 14.9491 28.1854 13.6452ZM35.1641 21.7V21.7003C34.8763 21.7176 34.6064 21.8462 34.4118 22.0589L25.6282 31.5138L21.9943 27.2782C21.8029 27.0526 21.5295 26.9126 21.2348 26.8891C20.9397 26.8656 20.6478 26.9607 20.4231 27.1531C20.1983 27.3454 20.0596 27.6195 20.0374 27.9142C20.0151 28.2093 20.1113 28.501 20.3048 28.725L24.7488 33.9095H24.7486C24.9545 34.1492 25.2526 34.29 25.5683 34.2965C25.8843 34.3032 26.1878 34.1751 26.4036 33.9444L36.0324 23.5748C36.2383 23.3583 36.3481 23.0681 36.3376 22.7697C36.327 22.4711 36.1965 22.1895 35.9759 21.9883C35.7552 21.787 35.4628 21.6832 35.1646 21.7L35.1641 21.7Z" fill="#9E62B3"/>
</svg>
