<svg width="45" height="44" viewBox="0 0 45 44" fill="none" xmlns="http://www.w3.org/2000/svg">
<rect x="0.253418" width="44" height="44" rx="8" fill="#F9F5FA"/>
<path fill-rule="evenodd" clip-rule="evenodd" d="M24.2904 19.8126V17.3532C24.8145 17.2643 25.2163 16.8087 25.2163 16.2587V14.7772C25.2163 14.1643 24.7183 13.666 24.1052 13.666H20.0311C19.4182 13.666 18.9199 14.1641 18.9199 14.7772V16.2587C18.9199 16.8087 19.3218 17.2642 19.8458 17.3532L19.846 28.1105C19.846 29.3364 20.8423 30.3327 22.0682 30.3327C23.294 30.3327 24.2904 29.3364 24.2904 28.1105V27.8901L24.2904 19.8126ZM24.1052 14.407H23.3645V16.6291H24.1052C24.3089 16.6291 24.4755 16.4625 24.4755 16.2588V14.7773C24.4755 14.5736 24.3089 14.407 24.1052 14.407ZM23.1886 20.5328C22.2886 19.9661 21.1459 19.7273 20.5867 19.6384V17.37L23.5497 17.37L23.5497 20.7493L23.5496 27.4589L23.5496 28.1108C23.5496 28.9274 22.8848 29.5923 22.0681 29.5923C21.2515 29.5923 20.5866 28.9274 20.5866 28.1108V20.3885C21.1662 20.4885 22.0033 20.7051 22.6681 21.0848C22.0607 21.8459 21.6978 22.807 21.6978 23.8515C21.6978 25.3348 22.4293 26.6496 23.5496 27.4589L23.5497 20.7493L23.1886 20.5328ZM22.6238 14.407H21.5126V16.6291H22.6238V14.407ZM19.6608 16.2589C19.6608 16.4626 19.8274 16.6293 20.0311 16.6293H20.7718V14.4071H20.0311C19.8274 14.4071 19.6608 14.5737 19.6608 14.7774V16.2589Z" fill="#9E62B3"/>
<path fill-rule="evenodd" clip-rule="evenodd" d="M22.0681 29.5923C22.8848 29.5923 23.5496 28.9274 23.5496 28.1108L23.5496 27.4589C22.4293 26.6496 21.6978 25.3348 21.6978 23.8515C21.6978 22.807 22.0607 21.8459 22.6681 21.0848C22.0033 20.7051 21.1662 20.4885 20.5866 20.3885V28.1108C20.5866 28.9274 21.2515 29.5923 22.0681 29.5923Z" fill="#9E62B3"/>
</svg>
