<svg width="51" height="50" viewBox="0 0 51 50" fill="none" xmlns="http://www.w3.org/2000/svg">
<rect x="0.5" width="50" height="50" rx="8" fill="#F2F5FF"/>
<path d="M22.3568 19.2572C22.4445 19.2572 22.533 19.2503 22.6209 19.2357L24.8454 18.8652C24.9898 18.8413 25.1361 18.8413 25.2803 18.8652L27.5095 19.2364C28.0258 19.3196 28.5529 19.1502 28.9194 18.7823C29.1866 18.5143 29.1859 18.0802 28.9177 17.813C28.6497 17.5457 28.2156 17.5464 27.9486 17.8147C27.8927 17.8706 27.8107 17.8966 27.7316 17.8837L25.5054 17.5132C25.2121 17.4642 24.9145 17.4645 24.6205 17.5132L22.397 17.8833C22.3169 17.8969 22.233 17.8696 22.1771 17.8139C21.9094 17.5462 21.4755 17.5457 21.2078 17.8135C20.9401 18.0809 20.9398 18.515 21.2073 18.7828C21.513 19.0885 21.9285 19.2572 22.3568 19.2572L22.3568 19.2572Z" fill="url(#paint0_linear_4948_30508)" stroke="url(#paint1_linear_4948_30508)" stroke-width="0.5"/>
<path d="M27.4335 28.9746C27.1147 28.9746 26.8023 29.0348 26.5044 29.1534L25.0637 29.7304L23.6209 29.1529C23.3238 29.0346 23.0114 28.9746 22.6927 28.9746C22.0249 28.9746 21.3966 29.2352 20.9244 29.7077C20.3435 30.2888 20.0848 31.1178 20.2319 31.9243L20.9923 36.1055C21.2086 37.2959 22.2439 38.1598 23.4539 38.1598H23.9975C24.3713 38.1598 24.733 38.0785 25.0638 37.9224C25.3942 38.0785 25.7559 38.1598 26.1299 38.1598H26.6742C27.8842 38.1598 28.919 37.2957 29.1346 36.1055L29.8948 31.925C30.0418 31.1174 29.7834 30.2886 29.203 29.7078C28.7302 29.2352 28.1017 28.9747 27.4336 28.9747L27.4335 28.9746ZM28.5456 31.6798L27.7854 35.8608C27.6879 36.3988 27.2201 36.7892 26.6736 36.7892H26.1294C25.8882 36.7892 25.6594 36.7151 25.4673 36.5752C25.3473 36.4875 25.2055 36.4435 25.0638 36.4435C24.9222 36.4435 24.7807 36.4873 24.6605 36.5748C24.4678 36.7148 24.2386 36.7892 23.9972 36.7892H23.4536C22.9064 36.7892 22.4387 36.3986 22.3406 35.8603L21.5802 31.6786C21.5138 31.314 21.6307 30.9395 21.8936 30.6763C22.1071 30.4626 22.3908 30.345 22.6925 30.345C22.8369 30.345 22.9784 30.3722 23.1125 30.4258L24.8089 31.1049C24.9724 31.1701 25.1548 31.1704 25.3186 31.1046L27.0131 30.426C27.1476 30.3725 27.2891 30.345 27.4335 30.345C27.7357 30.345 28.0194 30.4626 28.2331 30.6763C28.4953 30.9395 28.6122 31.3143 28.5455 31.6797L28.5456 31.6798Z" fill="url(#paint2_linear_4948_30508)" stroke="url(#paint3_linear_4948_30508)" stroke-width="0.5"/>
<path d="M24.5334 32.357C24.5334 32.7333 24.2284 33.0383 23.8522 33.0383C23.4759 33.0383 23.1709 32.7333 23.1709 32.357C23.1709 31.9808 23.4759 31.6758 23.8522 31.6758C24.2284 31.6758 24.5334 31.9808 24.5334 32.357Z" fill="url(#paint4_linear_4948_30508)" stroke="url(#paint5_linear_4948_30508)" stroke-width="0.5"/>
<path d="M26.9553 32.357C26.9553 32.7333 26.6503 33.0383 26.274 33.0383C25.8978 33.0383 25.5928 32.7333 25.5928 32.357C25.5928 31.9808 25.8978 31.6758 26.274 31.6758C26.6503 31.6758 26.9553 31.9808 26.9553 32.357Z" fill="url(#paint6_linear_4948_30508)" stroke="url(#paint7_linear_4948_30508)" stroke-width="0.5"/>
<path d="M24.5332 34.7787C24.5332 35.1549 24.2282 35.4597 23.8519 35.4597C23.4759 35.4597 23.1709 35.1549 23.1709 34.7787C23.1709 34.4024 23.4759 34.0977 23.8519 34.0977C24.2282 34.0977 24.5332 34.4024 24.5332 34.7787Z" fill="url(#paint8_linear_4948_30508)" stroke="url(#paint9_linear_4948_30508)" stroke-width="0.5"/>
<path d="M26.9558 34.7787C26.9558 35.1549 26.651 35.4597 26.2748 35.4597C25.8988 35.4597 25.5938 35.1549 25.5938 34.7787C25.5938 34.4024 25.8988 34.0977 26.2748 34.0977C26.651 34.0977 26.9558 34.4024 26.9558 34.7787Z" fill="url(#paint10_linear_4948_30508)" stroke="url(#paint11_linear_4948_30508)" stroke-width="0.5"/>
<path d="M40.0758 38.4285L41.0635 37.4777C40.6406 37.0385 38.8392 36.3903 36.1211 35.6997C33.54 35.0433 32.8141 28.116 32.962 23.8894C35.2573 21.6893 37.617 18.1513 38.6776 12.5392C38.7479 12.1675 38.5031 11.8087 38.1314 11.7385C37.7609 11.6687 37.4009 11.9127 37.3306 12.2847C36.2941 17.7689 33.8945 21.8394 30.1979 24.3832C27.7232 26.0866 25.4595 26.4982 25.0034 26.5668C22.4333 26.1277 20.2296 24.971 18.4129 23.1144C18.3737 23.0575 18.3252 23.0085 18.2709 22.966C17.2242 21.8628 16.3085 20.5238 15.5292 18.9488C13.8851 15.6266 13.4935 12.4543 13.4871 12.3999C13.4436 12.0238 13.1032 11.7535 12.7274 11.7982C12.3514 11.8417 12.082 12.1821 12.1258 12.5579C12.1418 12.6958 12.5376 15.976 14.2823 19.5192C15.0927 21.1647 16.0612 22.5889 17.1716 23.7795C17.2878 28.1551 16.5446 35.0544 14.0058 35.7C11.2877 36.3906 9.48638 37.0386 9.06348 37.478L10.0512 38.4288C10.0512 38.4288 10.04 38.4456 10.0029 38.4735C10.0309 38.4525 10.7298 37.9469 14.3436 37.0286C18.0037 36.0978 18.511 28.5337 18.5494 25.0763C20.3757 26.5801 22.5045 27.5489 24.8823 27.9371C24.9189 27.9428 24.9559 27.9459 24.9927 27.9459C25.0169 27.9459 25.0408 27.9445 25.0649 27.9421C25.1782 27.9304 27.8743 27.6247 30.9101 25.558C31.1276 25.41 31.3502 25.2489 31.5763 25.0768C31.5873 28.2624 32.0205 36.072 35.7839 37.0291C39.3979 37.9472 40.0968 38.453 40.1248 38.474C40.0873 38.4456 40.0758 38.4288 40.0758 38.4288L40.0758 38.4285Z" fill="url(#paint12_linear_4948_30508)" stroke="url(#paint13_linear_4948_30508)" stroke-width="0.5"/>
<defs>
<linearGradient id="paint0_linear_4948_30508" x1="20.1259" y1="19.2572" x2="29.2352" y2="16.2246" gradientUnits="userSpaceOnUse">
<stop stop-color="#6B4DE0"/>
<stop offset="0.544792" stop-color="#9C42E3"/>
<stop offset="1" stop-color="#C339E5"/>
</linearGradient>
<linearGradient id="paint1_linear_4948_30508" x1="20.1259" y1="19.2572" x2="29.2352" y2="16.2246" gradientUnits="userSpaceOnUse">
<stop stop-color="#6B4DE0"/>
<stop offset="0.544792" stop-color="#9C42E3"/>
<stop offset="1" stop-color="#C339E5"/>
</linearGradient>
<linearGradient id="paint2_linear_4948_30508" x1="19.1334" y1="38.1598" x2="31.2144" y2="37.2233" gradientUnits="userSpaceOnUse">
<stop stop-color="#6B4DE0"/>
<stop offset="0.544792" stop-color="#9C42E3"/>
<stop offset="1" stop-color="#C339E5"/>
</linearGradient>
<linearGradient id="paint3_linear_4948_30508" x1="19.1334" y1="38.1598" x2="31.2144" y2="37.2233" gradientUnits="userSpaceOnUse">
<stop stop-color="#6B4DE0"/>
<stop offset="0.544792" stop-color="#9C42E3"/>
<stop offset="1" stop-color="#C339E5"/>
</linearGradient>
<linearGradient id="paint4_linear_4948_30508" x1="23.0229" y1="33.0383" x2="24.7134" y2="32.9148" gradientUnits="userSpaceOnUse">
<stop stop-color="#6B4DE0"/>
<stop offset="0.544792" stop-color="#9C42E3"/>
<stop offset="1" stop-color="#C339E5"/>
</linearGradient>
<linearGradient id="paint5_linear_4948_30508" x1="23.0229" y1="33.0383" x2="24.7134" y2="32.9148" gradientUnits="userSpaceOnUse">
<stop stop-color="#6B4DE0"/>
<stop offset="0.544792" stop-color="#9C42E3"/>
<stop offset="1" stop-color="#C339E5"/>
</linearGradient>
<linearGradient id="paint6_linear_4948_30508" x1="25.4448" y1="33.0383" x2="27.1353" y2="32.9148" gradientUnits="userSpaceOnUse">
<stop stop-color="#6B4DE0"/>
<stop offset="0.544792" stop-color="#9C42E3"/>
<stop offset="1" stop-color="#C339E5"/>
</linearGradient>
<linearGradient id="paint7_linear_4948_30508" x1="25.4448" y1="33.0383" x2="27.1353" y2="32.9148" gradientUnits="userSpaceOnUse">
<stop stop-color="#6B4DE0"/>
<stop offset="0.544792" stop-color="#9C42E3"/>
<stop offset="1" stop-color="#C339E5"/>
</linearGradient>
<linearGradient id="paint8_linear_4948_30508" x1="23.023" y1="35.4597" x2="24.7131" y2="35.3362" gradientUnits="userSpaceOnUse">
<stop stop-color="#6B4DE0"/>
<stop offset="0.544792" stop-color="#9C42E3"/>
<stop offset="1" stop-color="#C339E5"/>
</linearGradient>
<linearGradient id="paint9_linear_4948_30508" x1="23.023" y1="35.4597" x2="24.7131" y2="35.3362" gradientUnits="userSpaceOnUse">
<stop stop-color="#6B4DE0"/>
<stop offset="0.544792" stop-color="#9C42E3"/>
<stop offset="1" stop-color="#C339E5"/>
</linearGradient>
<linearGradient id="paint10_linear_4948_30508" x1="25.4459" y1="35.4597" x2="27.1357" y2="35.3362" gradientUnits="userSpaceOnUse">
<stop stop-color="#6B4DE0"/>
<stop offset="0.544792" stop-color="#9C42E3"/>
<stop offset="1" stop-color="#C339E5"/>
</linearGradient>
<linearGradient id="paint11_linear_4948_30508" x1="25.4459" y1="35.4597" x2="27.1357" y2="35.3362" gradientUnits="userSpaceOnUse">
<stop stop-color="#6B4DE0"/>
<stop offset="0.544792" stop-color="#9C42E3"/>
<stop offset="1" stop-color="#C339E5"/>
</linearGradient>
<linearGradient id="paint12_linear_4948_30508" x1="5.58873" y1="38.474" x2="45.2001" y2="35.011" gradientUnits="userSpaceOnUse">
<stop stop-color="#6B4DE0"/>
<stop offset="0.544792" stop-color="#9C42E3"/>
<stop offset="1" stop-color="#C339E5"/>
</linearGradient>
<linearGradient id="paint13_linear_4948_30508" x1="5.58873" y1="38.474" x2="45.2001" y2="35.011" gradientUnits="userSpaceOnUse">
<stop stop-color="#6B4DE0"/>
<stop offset="0.544792" stop-color="#9C42E3"/>
<stop offset="1" stop-color="#C339E5"/>
</linearGradient>
</defs>
</svg>
